<?xml version="1.0" encoding="utf-8"?>
<!-- Generator: Adobe Illustrator 25.4.1, SVG Export Plug-In . SVG Version: 6.00 Build 0)  -->
<svg version="1.1" xmlns="http://www.w3.org/2000/svg" xmlns:xlink="http://www.w3.org/1999/xlink" x="0px" y="0px"
	 viewBox="0 0 1220 800" style="enable-background:new 0 0 1220 800;" xml:space="preserve">
<style type="text/css">
	.st0{display:none;}
	.st1{display:inline;}
	.st2{opacity:0.32;fill:#FFC874;enable-background:new    ;}
	.st3{opacity:0.16;fill:#FFC874;enable-background:new    ;}
	.st4{opacity:0.56;fill:#491F0D;enable-background:new    ;}
	.st5{fill:#FFC350;}
	.st6{fill:url(#SVGID_1_);}
	.st7{opacity:0.33;fill:#491F0D;enable-background:new    ;}
	.st8{opacity:0.16;fill:#FFC350;enable-background:new    ;}
	.st9{fill:url(#SVGID_00000061440234659261804670000000329874002262159779_);}
	.st10{opacity:7.000000e-02;fill:#FFC350;enable-background:new    ;}
	.st11{opacity:9.000000e-02;fill:#FFC350;enable-background:new    ;}
	.st12{opacity:0.22;fill:#491F0D;enable-background:new    ;}
	.st13{opacity:0.26;fill:#491F0D;enable-background:new    ;}
	.st14{fill:url(#SVGID_00000135672677163463826800000015623500953396488834_);}
	.st15{fill:url(#SVGID_00000056402693490276475410000011314591900301210024_);}
	.st16{opacity:0.11;enable-background:new    ;}
	.st17{fill:url(#SVGID_00000145040637301718448950000011771418198627455905_);}
	.st18{fill:url(#SVGID_00000039097708943813313590000002358504670158355602_);}
	.st19{fill:url(#SVGID_00000110456543815339312510000009862215038272341938_);}
	.st20{opacity:0.57;fill:url(#SVGID_00000168826818952056158740000016318067989871057336_);enable-background:new    ;}
	.st21{fill-rule:evenodd;clip-rule:evenodd;fill:#0E001C;}
	.st22{fill-rule:evenodd;clip-rule:evenodd;fill:#DE5A47;}
	.st23{fill:#53172D;}
	.st24{opacity:0.5;fill:#98256B;enable-background:new    ;}
	.st25{fill:#0E001C;}
</style>
<g id="Capa_1" class="st0">
	<g id="SHAPE-10" class="st1">
		<g>
			<path class="st2" d="M475.1,234.2h416.6c0,0-56.8-3.5-80.5-5.5s-56.7-4.3-78.7-4.9s-29.1,6.6-55.9,0c-26.8-6.6-52-4.9-71.6,0
				C585.3,228.7,484.6,229.2,475.1,234.2z"/>
			<path class="st3" d="M5.9,170.9c0,0,31.5,1.1,79.8,1.1c48.3,0,44.1-2,106.5,0s78.2,6.6,130.7,8.3c52.5,1.7,87.6-8.1,175.5-9.2
				c87.9-1.1,92.1,3.1,156.2,4.7c64,1.5,55.6,2.2,124.9,0.2s97.6-6.7,125.9,0s101.3,12,153.5,13.3c52.2,1.3,164,0.6,164,0.6v37.5
				c0,0-212.5-13.9-272.3-15.4c-59.8-1.4-107.2,4.7-180.1-2.4s-104.4-2.9-172.6-6.3c-68.2-3.4-112.3,1.9-195.2,3.3
				S299.8,210,241,204c-58.8-6-239.3-0.6-239.3-0.6L5.9,170.9z"/>
			<path class="st3" d="M-4.6,124.4c0,0,94.5,7,188.9,7s154.3-5,245.6-7s340-23,392-18c0,0-95-10-166.4-9s-138.5,3-231.7,5
				s-254.2-5.1-254.2-5.1l-186.8-3.9L-4.6,124.4z"/>
			<path class="st3" d="M0.2,107.4c0,0,83.4,8,199.9,10s173.3-1.3,286.5-10s198.9-16,273.4-14s91.8-7,162.7,0s114,11.8,138.1,10.9
				s162.1,0,162.1,0V54.4H0.2V107.4z"/>
			<path class="st2" d="M807,152.4c0,0,120.4,0,149.6,0c29.1,0,145.6,0,145.6,0s-51.2-2.6-73.2-7.3c-22-4.7-32.3-8.7-46.4-8.2
				s-8.7,3.5-35.4,2.5c-26.8-1-33.8-6.6-55.1-2.6C870.7,140.9,828.2,149.9,807,152.4z"/>
			<path class="st2" d="M641.7,143.7h156.6c0,0-22-6-37.8-8s-20.5,1-38.6,0C703.9,134.7,654.3,138.7,641.7,143.7z"/>
		</g>
	</g>
	<g id="SHAPE-9" class="st1">
		<g>
			<path class="st4" d="M633,193c0,0,10.6-8.3,17.7,0c0,0-9.5-2.4-17.7,7.7c-8.3-10.1-17.7-7.7-17.7-7.7
				C622.3,184.7,633,193,633,193z"/>
			<path class="st4" d="M563.4,175.2c0,0,5.3-4.1,8.9,0c0,0-4.7-1.2-8.9,3.8c-4.1-5-8.9-3.8-8.9-3.8
				C558,171.1,563.4,175.2,563.4,175.2z"/>
			<path class="st4" d="M692.7,128.8c0,0,5.3-4.1,8.9,0c0,0-4.7-1.2-8.9,3.8c-4.1-5-8.9-3.8-8.9-3.8
				C687.4,124.6,692.7,128.8,692.7,128.8z"/>
			<path class="st4" d="M751.6,148.5c0,0,3.8-2.9,6.3,0c0,0-3.4-0.8-6.3,2.7c-2.9-3.6-6.3-2.7-6.3-2.7
				C747.8,145.6,751.6,148.5,751.6,148.5z"/>
			<path class="st4" d="M602.8,138.9c0,0,7.5-5.8,12.4,0c0,0-6.6-1.7-12.4,5.4c-5.8-7-12.4-5.4-12.4-5.4
				C595.4,133.1,602.8,138.9,602.8,138.9z"/>
			<path class="st4" d="M638.4,158.1c0,0,5.3-4.1,8.9,0c0,0-4.7-1.2-8.9,3.8c-4.1-5-8.9-3.8-8.9-3.8
				C633.1,153.9,638.4,158.1,638.4,158.1z"/>
			<path class="st4" d="M572.2,218.6c0,0,2.7-2.1,4.4,0c0,0-2.4-0.6-4.4,1.9c-2.1-2.5-4.4-1.9-4.4-1.9
				C569.6,216.5,572.2,218.6,572.2,218.6z"/>
			<path class="st4" d="M525.3,242.3c0,0,2.7-2.1,4.4,0c0,0-2.4-0.6-4.4,1.9c-2.1-2.5-4.4-1.9-4.4-1.9
				C522.7,240.2,525.3,242.3,525.3,242.3z"/>
		</g>
	</g>
	<g id="SHAPE-8" class="st1">
		<ellipse class="st5" cx="359.8" cy="325.3" rx="76.8" ry="76.8"/>
	</g>
	<g id="SHAPE-7" class="st1">
		<g>
			
				<linearGradient id="SVGID_1_" gradientUnits="userSpaceOnUse" x1="561.14" y1="254.6047" x2="561.14" y2="454.2256" gradientTransform="matrix(1 0 0 -1 0 800)">
				<stop  offset="0" style="stop-color:#FF9D00"/>
				<stop  offset="1" style="stop-color:#FF6600"/>
			</linearGradient>
			<path class="st6" d="M-1.6,170.1h31.4l16.6,12.9l3.7,43l16.6,9.6l27.7,27.1v29.4h24.9l55.8,29.3l175.8,21.7l42.4-19.4l16.6,4.3
				L470,400l63.8-18l28.3-28.9l9.3-26.1l12.9-5.6l10.2,15.5c0,0,1.8,22.4,6.4,30.7c4.7,8.3,12.1,14.4,12.1,14.4l22.1,3.7l6.9-31.6
				l13.5-53l53.8-21.3l4.6,42.3l32,37.2l136.8,1.5l55.4-98.1l12.9-44.6l24.7-19.4l21.5,9.3l18.4,84l30.1,75.5l78.2,151.1L0,552.7
				L-1.6,170.1z"/>
			<polygon class="st7" points="62.2,291.3 66.7,235.6 50,226.1 54.2,266.4 			"/>
			<polygon class="st8" points="584.3,321.4 574.2,364.3 533.8,382 562.1,353 571.4,327 			"/>
			<polygon class="st8" points="635.1,385.7 674.9,293.4 655.5,301.1 			"/>
		</g>
	</g>
	<g id="SHAPE-6" class="st1">
		<g>
			
				<linearGradient id="SVGID_00000016058783404375931950000004094769516336067994_" gradientUnits="userSpaceOnUse" x1="742.0474" y1="223.8478" x2="660.1942" y2="451.1107" gradientTransform="matrix(1 0 0 -1 0 800)">
				<stop  offset="0" style="stop-color:#FF8000"/>
				<stop  offset="1" style="stop-color:#CF4A00"/>
			</linearGradient>
			<path style="fill:url(#SVGID_00000016058783404375931950000004094769516336067994_);" d="M475.4,393.2l18.1-48.4l36.6-12.5
				l30.1,4.8c0,0,7.4,27,13.2,30.8l14,5.3c0,0,7.4,21.7,15.5,28.4s51.5,0,51.5,0l28.7-61.6l16.7-94.4l5.1-35.6l63.1-24.9l20.2,10.4
				l13.5-20.2c0,0,20.7-8.2,27.9-7.2c7.2,1,33.2,5.8,33.2,5.8s21.2,27,28.4,33.7l3.8,12.6l19.3,10.9l7.2,69.8l93.9,189.3
				l-603.8,13.5L475.4,393.2z"/>
			<polygon class="st10" points="470.7,419.6 507.7,352.8 527.2,341.5 560.2,337.2 530.1,332.4 493.5,344.9 475.4,393.2 
				452.1,433.7 			"/>
			<path class="st11" d="M595.1,410.8h13.5l45.7-9.1c0,0-43.3,6.7-51.5,0s-15.5-28.4-15.5-28.4l-14-5.3l9.2,9.5L595.1,410.8z"/>
			<path class="st10" d="M699.7,245.7L683,340.1l-28.7,61.6l-34.2,44.2l39.4,8.6c0,0,23.6-29.1,28-39.2s12.5-54.9,12.5-54.9
				l9.6-43.3l-7.7,6.3l-10.6,22.1l4.8-28.4l17.3-49.6l6.3-57.3l48.2-24.9l-63.1,24.9L699.7,245.7z"/>
			<path class="st12" d="M767.9,185.2c0,0,0.2,23.1,0,29.9s-1.7,31.4-1.7,31.4l-4.3,29.6L765,301l4.9-31.7l15.2-63.2l3.1-10.5
				L767.9,185.2z"/>
			<path class="st10" d="M765,301l-3.1,37.6l-13.7,47.7l-49.6,70.8l40.5,8.2l17.8-75.8l18.2-55.6l2-56.3l19.7-80.9l8.7-16.9
				l22.1-8.7l35.2,2.9c0,0-26-4.8-33.2-5.8c-7.2-1-27.9,7.2-27.9,7.2l-13.5,20.2l-18.3,73.7L765,301z"/>
			<polygon class="st13" points="845,185.2 819,273.6 838.2,376.6 831.3,494.4 1015.4,490.3 921.5,301 914.3,231.2 895,220.3 
				906.1,304.4 881.1,292.4 862.8,264.5 866.7,236.1 862.8,212.9 862.8,173.9 			"/>
		</g>
	</g>
	<g id="SHAPE-5" class="st1">
		<g>
			
				<linearGradient id="SVGID_00000043421864045370126070000003058720205969459588_" gradientUnits="userSpaceOnUse" x1="417.6256" y1="225.0103" x2="470.3925" y2="486.0186" gradientTransform="matrix(1 0 0 -1 0 800)">
				<stop  offset="0" style="stop-color:#F06500"/>
				<stop  offset="0.1814" style="stop-color:#DE5300"/>
				<stop  offset="0.476" style="stop-color:#C73C00"/>
				<stop  offset="0.755" style="stop-color:#BA2F00"/>
				<stop  offset="1" style="stop-color:#B52A00"/>
			</linearGradient>
			<path style="fill:url(#SVGID_00000043421864045370126070000003058720205969459588_);" d="M629.3,480.3l-0.2-12
				c1.5-1.4,4.4-4.1,5.6-5.6c1.8-2.1,3.5-8.7,3.9-11.3c0.3-2.6,1.6-7.4,0-7.2c-1.6,0.2-2.3,9.5-4.6,14.3c-1.3,2.8-3.5,4.8-5,5.9
				l-0.1-9.2c0,0,1.7-22.6-1.4-22.6c-2.5,0-2.5,14.1-2.4,24.3c-1.5-1.7-3.5-4-4.7-6.3c-2.1-4.1-2.5-8.8-3.9-8.8
				c-1.4,0-0.7,4.4,0,7.2c0.6,2.3,6.3,9.9,8.6,12.9c0,0.4,0,0.7,0,1V480c0,2.6-2.1,4.7-4.8,4.7l-16.2-0.3c0,0-52.9-16.7-77.5-15.8
				c-24.5,0.9-121.6-34.9-121.6-34.9l-36.8-82.9l-36.8-17h-48.1l-11.3,16v-50.9c0,0-1.9-19.8-9.4-24.5c-7.5-4.7-50.9-34.9-57.5-36.8
				c-6.6-1.9-24.5,0-24.5,0l-30.1,42.4V328l-28.3,11.4l-12.2,17l-5.7,36.8l-19.8,35.8c0,0-27.3,23.6-34.9,27.3
				C42.4,460,0,474.7,0,474.7v63.5h692.6l180.7-50.9l-239.3-2.5C631.4,484.8,629.4,482.8,629.3,480.3z"/>
			<polygon class="st13" points="272.3,349.8 277.7,384.9 293.3,396.4 298.9,450.1 305.3,463.6 309.5,484.3 309.5,444.5 
				304.6,382.2 309.5,349.8 331.7,333.8 283.6,333.8 			"/>
			<path class="st13" d="M150.8,328l20.7,5.8l10.4,14.1l4.4,76.3l17.2,90l22.6,13.8c0,0-6.6-34.9-8-43.7c-1.4-8.7-4.2-42.9-4.7-57.8
				s-1.9-66.8-3.8-79c-1.9-12.2-19.3-41-21.2-49.9s-3.8-42.9-3.8-42.9l-3.8-17l-30.1,42.4L150.8,328L150.8,328z"/>
			<path class="st10" d="M213.8,281.9c3.2,6.4,12.4,14.5,12.4,14.5l4.2,29l8.5,8.4l-2.8-41.2l-2.6-37.8c-12.5-8.3-24.8-16.1-28-17.1
				l5.2,22.4C210.6,260,210.6,275.6,213.8,281.9z"/>
			<path class="st13" d="M110.2,356.4l-5.7,36.8l-19.8,35.8c0,0-27.3,23.6-34.9,27.3C42.4,460,0,474.7,0,474.7v34.8l171-7
				l-34.9-54.6c0,0-6.6-34.9-8.5-42.9c-1.9-8-9.4-40-9.4-40l4.2-25.4L110.2,356.4z"/>
			<path class="st10" d="M332.6,334.2L332.6,334.2l30.3,19.5l9.5,38.9l28.6,45.9c0,0,19.4,18,27.2,22.6c7.8,4.6,57.2,14.8,57.2,14.8
				s25.4-5,35.7-5c10.2,0,37.9,1.5,38,1.5c-12-2.5-23.9-4.3-32.4-4c-24.5,0.9-121.6-34.9-121.6-34.9l-36.8-82.9L332.6,334.2z"/>
		</g>
	</g>
	<g id="SHAPE-4" class="st1">
		<g>
			
				<linearGradient id="SVGID_00000109729901489629984410000008031154879617222809_" gradientUnits="userSpaceOnUse" x1="892.0725" y1="-70.2069" x2="649.259" y2="363.7977" gradientTransform="matrix(1 0 0 -1 0 800)">
				<stop  offset="0" style="stop-color:#D54A00"/>
				<stop  offset="1" style="stop-color:#962100"/>
			</linearGradient>
			<path style="fill:url(#SVGID_00000109729901489629984410000008031154879617222809_);" d="M1187.5,301.5l-25.8-29.6
				c0,0-8.6-20.1-14.3-34.4c-4.8-42.1-5.7-54.5-5.7-54.5l-7.7-10.5v-16.2l-41.1-9.6l-49.7,18.2l-16.2,72.6l-11.5,44.9
				c0,0-34.4,11.5-36.3,25.8c-1,7.3-5.9,33-10.6,56.5c-5.3,27-22.5,50.2-46.9,63.2c-44,23.4-113.9,60.9-144.2,79.2
				c-38.6,23.3-141.9,11.4-194,12.8c2.2-7.2,5.8-20.2,3.9-20.6c-1.9-0.4-5.1,13.6-6.6,20.7c-0.1,0-0.3,0-0.4,0
				c0-5.7,0-24.3-2.2-24.1c-1.5,0.1-1.3,8.4-0.8,15.5c-1.6-7-3.7-14.7-5.1-14.3c-1.9,0.6,1.9,14,3.9,21.1
				c-5.8-4.5-12.8-9.7-13.7-8.5c-0.8,1.2,5.8,6.4,11.6,10.6c-5.6,0.4-10.2,1-13.8,2c-34.2,9.6-170.9,1.9-214.9,6.7
				s-228.5,33.5-228.5,33.5v68.3H1220V364.6L1187.5,301.5z"/>
			<path class="st13" d="M1015.4,282.4c0,0,19.6,6.5,23.2,14.3c3.6,7.9,7.2,45.9,7.2,45.9l13.6,46.1l16.5,100.9h-47.3l-6.5-86
				c0,0-0.7-13.6,4.3-30.1c5-16.5,2.2-28,2.2-28l-13.1-19.4L1015.4,282.4L1015.4,282.4z"/>
			<path class="st10" d="M940.9,433.9l9.3-5.1c9-5,15.6-13.4,18.1-23.4c3.7-14.3,8.8-34.3,10.3-40.8c2.4-10.5,5.3-53.1,5.3-53.1
				l5.5-16.4c-5.4,3.8-9.6,8.3-10.3,13.1c-1,7.3-5.9,33-10.6,56.5c-5.3,27-22.5,50.2-46.9,63.2c-27.4,14.5-64.8,34.5-96.4,52
				L940.9,433.9z"/>
			<path class="st10" d="M1045.7,243.3c-0.4-15.8,5.1-73.6,5.1-73.6l19.9-14.9l-27.6,10.1l-16.2,72.7l-11.5,44.9l15.9,7.3
				C1031.4,289.8,1046.1,259.1,1045.7,243.3z"/>
			<path class="st13" d="M1218.2,361.1l-30.7-59.5l-25.8-29.6c0,0-8.6-20.1-14.3-34.4c-4.8-42.1-5.7-54.5-5.7-54.5l-7.7-10.5v-16.2
				l-41.1-9.6v44.7l3.8,16.5l5.4,21.9l14.7,43.7l2.2,33.7l-3.6-21.1l-9.3-23.3l-13.1-3.2c0,0-6.2,7.9-8.4,17.9s0,93.9,0,93.9
				l21.5,105.4l4.3,38.7h63.8h45.9v-147L1218.2,361.1z"/>
			<path class="st10" d="M1089.4,261l-20.6,8.7c-4.2,1.8-7.3,5.4-8.4,9.8l-8.3,33.1l2.3,16.9l9.1-18.2l4.8-34.9L1089.4,261z"/>
			<path class="st16" d="M647.4,521.1c0.3,0.1,67.1,13.7,95.4,21.6c28.4,7.9,86.5,0,110.8,0s64.5,10,64.5,10l35.8-37.3
				c0,0-97.5,1.4-134.8,0s-76.4,2.6-76.4,2.6l0,0C715.2,522.4,680,522,647.4,521.1z"/>
		</g>
	</g>
	<g id="SHAPE-3" class="st1">
		
			<linearGradient id="SVGID_00000030451375760465144580000013158756812429606075_" gradientUnits="userSpaceOnUse" x1="610" y1="-113.5658" x2="610" y2="262.3105" gradientTransform="matrix(1 0 0 -1 0 800)">
			<stop  offset="0" style="stop-color:#D54A00"/>
			<stop  offset="0.998" style="stop-color:#731700"/>
		</linearGradient>
		<path style="fill:url(#SVGID_00000030451375760465144580000013158756812429606075_);" d="M1220,503.1c0,0-228.5-14.9-257.2-8.6
			c-28.7,6.3-89.6,23.2-89.6,23.2s-17.6,5.1-35.1,11c-2,0.7-4-0.8-4-2.9c0-6.7,0-13.1-0.1-16.5c0-1.4-0.1-3.6-0.1-6.3
			c4.1-4.4,14.1-15.6,16.1-21.6c2.5-7.7,6.6-37.5,7-44.2c0.3-6.6-5.4-10.8-6,0s-6.3,32.9-8.5,39.8c-1.3,4.2-5.5,8.7-8.6,11.6
			c-0.1-14.9-0.1-33.4,0.2-43c0.4-15.6,0-31.6-9.7-31.4c-5.9,0.1-6,16.2-5.3,33.1c-1.3-1.1-4.2-2.8-7.2-5c0-9-0.2-40.2-3.7-43
			c-3.5-2.8-1.7,30.4-1.2,38.8c-0.3-0.3-0.6-0.6-0.9-1c-4.2-4.8-6.4-23.8-10.5-24.1s-2.7,10.3-1.1,17.5c1.4,6.5,7.7,21.3,25,25.4
			c0.5,7.9,1.1,15.9,1.3,22.9c0.7,19.4,0.4,41.4,0.1,51.1c-0.1,3-1.9,5.8-4.7,7c-3.9,1.7-9.1,4.1-10.8,5.3
			c-11.2,8.2-31.2,16.6-31.2,16.6s-0.2,7-35.9,13.7c-35.8,6.8-45.8,12.7-61.4,15.2c-26.7,4.3-92.5,0-108,0s-85.6-9.3-88.1-9.3
			s-70-15.6-88.5-19.6c-9-2-31.2-12.1-54.4-22.6c-1.7-0.8-2.9-2.5-2.9-4.4c0-8.6-0.1-21.6-0.1-35.9c0-3.2,2.8-5.6,6-5.2
			c8.5,1.2,19.4-1.2,20.3-10.1c0.3-3,0.2-13.9-0.3-26.7c0,0,13.6-4.4,13.2-23.7c-0.3-19.3-2.9-19.9-5.1-19s1.6,18.7-1.6,23.4
			c-0.3,0.4-0.6,0.8-0.9,1.2c-2.2,2.6-6.4,1.2-6.6-2.2c-0.9-15.6-2.1-29.4-3.5-30.7c-3.2-2.9-5.4,1.9-4.7,13
			c0.6,11.1,1.3,60.1-2.5,63.2c-2,1.6-5,0.2-5-2.4c0-10.4-0.4-28.7-2.5-28.5c-2.1,0.1-1.7,18.7-1.4,29c0.1,1.7-1.4,3-3.1,2.7l-0.1,0
			c-1.3-0.2-2.2-1.3-2.2-2.6c0-23.5,0-46.5,0.1-55.4c0.3-20.9-3.2-48.1-10.1-47.8s-3.2,39.5-2.2,77.2c0.1,3.2,0.2,6.5,0.2,9.8
			c0.1,2.4-1.5,4.5-3.8,5.1c-0.9,0.2-1.9,0.4-2.9,0.6c-0.4-11.6-0.5-109.2-3.7-109c-3.1,0.2-2.7,96.5-2,108.7
			c-1.3-0.5-2.3-1.2-3-2.4c-3.8-6.6,1.3-78.7-5.1-78.7s-4.7,79.4-2.2,84.8c2,4.4,10.6,4.2,18,3.8c2.7-0.1,5,2,5.1,4.7
			c0.4,16.3,0.9,31.8,1.1,42.4c0.1,4.3-4.3,7.3-8.3,5.6c-16.9-7.4-32.3-13.7-41.2-15.5c-1.9-0.4-4-0.8-6.4-1.3c4-2.9,12.5-9,13-9.9
			c0.6-1.3-5.7,1.9-7.9,2.5c-2.2,0.6-10.8,5.1-10.8,4.1s6-6.3,7-7.3s8.5-7.9,8.5-9.2s-6.6,2.5-12.3,7c-5.7,4.4-7,3.8-7,3.8l-1.6-3.1
			c0,0,3.8-10.8,5.1-13c1.3-2.2,5.7-12.6,5.7-12.6L257,485.2c0,0-7,13.6-9.1,12.3c-2.1-1.3,0.2-15.5-0.1-16.4s0.3-13.6,0-21.8
			s-2.5-16.8-2.5-16.8s-4.1,15.5-2.4,26.8c1.7,11.3-1.7,23.1-1.7,23.1s-4.1-12.6-5.7-18.7s-12.3-18.7-12.3-18.7s3.5,16.8,6.3,23.4
			s5.4,13.6,5.4,13.6s-11.7-13.6-13.3-16.8s-12.3-7-12.3-7l5.7,5.4c0,0,3.2,4.7,5.1,8.5c1.9,3.8,9.5,13.3,9.5,13.3l-2.2-1.9
			c0,0-10.8-5.1-12.6-8.2s-10.4-2.9-10.4-2.9l3.5,2.5c0,0,5.4,7.3,8.9,10.8c1.9,1.9,5.2,4.2,7.8,5.8c-22.7-3.9-43.2-7.3-43.2-7.3
			L0,503.1V728l1220,23.9V503.1z"/>
	</g>
	<g id="SHAPE-2" class="st1">
		
			<linearGradient id="SVGID_00000072996373112302569170000008111749187859294343_" gradientUnits="userSpaceOnUse" x1="390.545" y1="23.9011" x2="390.545" y2="136.1159" gradientTransform="matrix(1 0 0 -1 0 800)">
			<stop  offset="0" style="stop-color:#D54A00"/>
			<stop  offset="0.998" style="stop-color:#731700"/>
		</linearGradient>
		<path style="fill:url(#SVGID_00000072996373112302569170000008111749187859294343_);" d="M758.3,698.8c0,0-147.9-41.9-217-51.7
			c-69.1-9.8-94.7-0.2-138.7-9.8c-44-9.6-72.5-35.2-122.6-36.8s-54.1,35.2-119.2,12.7C95.8,590.6,0,581.6,0,581.6v148.1h781.1
			L758.3,698.8z"/>
	</g>
	<g id="SHAPE-1" class="st1">
		
			<linearGradient id="SVGID_00000153675640054828684740000012823901429397106076_" gradientUnits="userSpaceOnUse" x1="610" y1="-217.3505" x2="610" y2="148.0023" gradientTransform="matrix(1 0 0 -1 0 800)">
			<stop  offset="0" style="stop-color:#A13400"/>
			<stop  offset="0.9961" style="stop-color:#4F0C00"/>
		</linearGradient>
		<path style="fill:url(#SVGID_00000153675640054828684740000012823901429397106076_);" d="M1078.1,690.9
			c-26.7-7.7-55.1-11.3-109.5-20.1c-6.2-1-10.7-6.5-10.5-12.8c0.6-19.2,1.8-54.3,3.4-84.9c8.9-2.3,34.4-10,40.8-24.1
			c7.7-17.1,10.8-67,10.1-77.1c-0.7-10.1,1.7-93.5,0.9-101.9c-0.8-8.4,2.1-52.7-5.3-52.3s-9.5,30.5-11.3,62.1s-4.5,89.1-6.1,108.1
			c-1.7,19-1.8,43.4-6.8,49.5c-0.9,1.1-2.3,2.2-4,3.1c0.1-18.4-0.1-64.5-4.1-64.5c-4.3,0-4.1,53.2-4,68.1c-3,1.1-6.1,2-8.4,2.6
			c0.4-5.1,0.8-9.8,1.2-13.9c4.1-40.5-3.9-75.3-0.8-104s3.4-80.5-9.1-80.6c-17.8-0.1-12.5,65.6-13.2,79.9
			c-0.6,12.2-3.2,71.5-5.1,97.5c-4.2-9-10.2-23.6-12.8-38.2c-4.3-23.8,1-84.8-8.2-88.2c-7.3-2.7-9,24.7-9.5,49.4
			c-3.5-3.1-10-10.3-11.3-22c-1.8-16,5.4-57.9,0.4-59.8s-10,6.4-10.8,24.1s-3,44.7,1.5,59.2c3.3,10.6,14.4,20.8,20.2,25.6
			c1.6,28.2,11.5,72.5,27.8,87.7c-0.7,12-1.4,25.8-2.6,38.4c-6-7.1-19.7-24-26.2-38.6c-8.5-19.1-14.8-50.6-25-48.7
			c-10.2,2,12.2,62,24.8,81.4c8,12.3,17.7,23,23.6,29.2c-2.1,13.7-2.5,26-2.5,34.5c0,2.5-2.2,4.4-4.7,4.1c0,0,0,0,0,0
			c-63.5-7.6-89.6-3.4-163.9,7.6c-15,2.2-28.5,4.5-41.2,6.5c-3.3-0.3-7-0.4-9.7,0.4c-6,1.7-21.6,0-21.6,0l8-4.3c0,0,11-7.1,15.9-9.4
			s10.6-5.7,10.6-5.7s-10.9,2-19.7,6s-21.1,10.3-21.1,10.3l7.8-7.1c0,0,15.3-13.4,18.2-16s7.4-8.3,7.4-8.3s-21.1,11.7-27,16.6
			c-5.9,4.9-14.3,14.9-14.3,14.9s3.9-11.7,5-14.3c1.1-2.6,6.6-19.1,8.6-22.6s4.7-13.4,4.7-13.4s-12.7,16.9-21.9,40.6
			c-1.2,0.9,2.7-42.6,3.6-58.9c-6.5,17.7-7.2,68.6-7.2,68.6l-3.5-5c0,0-1.6-11.6-2.1-17.3S655,634,655,634s-0.4,12,0,13.4
			s-1.2,11.4,0,19.1s-1.5,12.3-1.5,12.3l-1.3-7.2c0,0-1.8-9.1-2.4-10.5c-0.6-1.4-0.3-6.3-1.6-12.9s-3.1-12.8-3.1-12.8v6
			c0,0,0.5,16.3,1.3,23.1c0.9,6.9,1.8,17.7,1.8,17.7l-1.8-3.1c0,0-7.1-10.9-9.1-15.1c-2-4.3-8-14.6-8-14.6s3.4,13.4,5.7,19.1
			c1.7,4.3,6.8,12.5,9.6,16.1c-3.6-1.4-9.1-3.5-14.3-5.5c-8.6-3.2-12-3.6-12-3.6l27.3,12.9c-21.6,2.2-43.6,3.1-69.8,1.8
			c-27.9-1.4-67.2-6.5-107.9-12.2c0-0.7,0-1.4-0.1-2.2c-0.2-7.6,3.1-14.8,9.1-19.5c1.8-1.4,3.4-2.9,4.6-4.5
			c4.9-6.3,9.1-19.1,10-23.4s-2-6.9-6.3-3.7c-4.3,3.1-2.9,12.9-8,19.1c-2.7,3.3-6.3,4.8-9.2,5.5c0.2-10.4,0-32.5-0.1-51.3
			c0-7.3,3.7-14.2,9.9-18c2.9-1.8,5.6-3.8,7.2-6c4.4-5.9,5.7-15.8,4.7-25.3c2.1-0.7,5.9-2.1,10.3-4.9c6.9-4.5,7.6-10.8,8-16.5
			c0.4-5.7-0.2-9.1,0-12.8s-5.5-5.6-5.5,0c0,0,0.4,6.7-0.8,11.4s-1.3,8.2-5.9,11.6c-2.6,1.9-5.2,2.7-7,2.9
			c-0.6-11.1,0.8-27.3,0.5-32.4c-0.3-6-1.6-7.3-6.1-6.1s-2.8,21.3-3.3,33.2s1.4,16.7-2.4,24.5c-2.1,4.4-6.4,7.3-9.7,9.1
			c-0.4-17.8-2.9-35-1.2-45.6c1.9-11.8,1.5-28.2,0-35.4s-0.4-16.4-8.8-17.5c-8.4-1.1-9.5,8-9.6,14.9c0,6.9,0,20.2,0,30.5
			c0,10.3-1.1,38.2-0.3,46.5c0.6,6.5,0.2,32.7,0.1,49.9c0,3.4-3.6,5.7-6.7,4.2c-2.6-1.3-5-3.2-6.3-5.9c-4-8.3-6.6-13.4-7.7-19.4
			c-1.1-6-2.3-25.3-1.7-31.6c0.6-6.4,1.1-21.8-6.3-22.4c-7.4-0.6-5.1,4.6-7.1,15.1s-0.6,21.4,0,34s0.9,20.6,5.4,26.9
			s9.7,14.7,22.9,19.1l0.1,0c4.4,1.5,7.4,5.7,7.4,10.3v32.9c-37.6-5.4-75-10.9-104.8-14.3c3.1-0.9,6.9-2,10.4-3.2
			c7.5-2.4,12.8-7.5,12.8-7.5l-29.1,7.8c0,0,9.7-6.9,17.5-10.2c7.7-3.3,10.5-11.3,10.5-11.3s-15.2,9.7-18.5,10.8
			c-3.3,1.2-11.3,5-11.3,5s14.3-13.6,18.6-16.6c4.3-3,10.1-12,10.1-12s-8.5,4.1-11.7,7.2s-14.2,11.3-14.2,11.3l-7,5.2
			c0,0,8.4-11.7,10.6-16.2s6.3-15.7,6.3-15.7l0.9-5.9c0,0-5.6,5.4-7.8,9.5c-2.2,4.1-10.2,17.7-10.2,17.7l-3.7,6.6
			c0,0,2.5-13.5,2.8-16.8c0.3-3.3,2.3-18.7,2.3-18.7l-0.9-13.1c0,0-5.5,18.3-6,25.5s-3.8,21.8-3.8,21.8s-3.9-21.5-4.4-32.9
			c-0.5-11.4-6.7-39.3-6.7-39.3s-4,13.3-1.3,23.4c2.6,10.1,7.9,53.8,7.9,53.8s-7.3-15.6-11-27.9c-3.7-12.3-9.8-25.9-9.8-25.9
			s2.6,12,3.7,20.5s12.1,36,12.1,36s-9.7-10.2-13.5-14.2s-17-17.4-20.1-19.7s-8-6.2-8-6.2s6.4,10.2,9,14
			c2.6,3.9,11.7,14.8,11.7,14.8l10.4,10.5c0,0-7.7-2.8-12.5-5.5c-4.8-2.7-12-6.1-12-6.1l-16.2-4.3c0,0,9.4,5.8,11.9,7.8
			c2.5,2.1,17.2,9.4,17.2,9.4l15.2,6.9c-60.9-1.2-106.6,14.2-141.5,22.2C123.3,689.2,0,707.5,0,707.5V800h163.8h914.3H1220v-80.8
			C1174.3,719.6,1112.9,700.9,1078.1,690.9z"/>
	</g>
	<g id="LUZ" class="st1">
		
			<radialGradient id="SVGID_00000017510238711918205810000012180474141527412629_" cx="400.36" cy="400.36" r="400.36" gradientTransform="matrix(1 0 0 -1 0 800)" gradientUnits="userSpaceOnUse">
			<stop  offset="0" style="stop-color:#FFFFFF"/>
			<stop  offset="1" style="stop-color:#FFFFFF;stop-opacity:0"/>
		</radialGradient>
		
			<circle style="opacity:0.57;fill:url(#SVGID_00000017510238711918205810000012180474141527412629_);enable-background:new    ;" cx="400.4" cy="399.6" r="400.4"/>
	</g>
</g>
<g id="Capa_2">
	<g id="muro">
		<polygon class="st21" points="1220.2,96.9 1202.7,87.9 1189.8,96.9 1001,96.9 958.5,74.3 949.1,48 940.5,96.9 882.4,96.9 
			720.6,96.9 701.1,77.6 667.7,96.9 335.3,96.9 270.3,66 265.2,96.9 66.4,96.9 35.2,92.9 0.2,96.9 10.8,0 1220.2,0 		"/>
		<polygon class="st22" points="1220.2,96.9 1192.1,87.9 1179.2,96.9 990.5,96.9 947.9,74.3 938.6,48 929.9,96.9 871.9,96.9 
			710.1,96.9 690.6,77.6 657.2,96.9 324.8,96.9 259.8,66 254.6,96.9 55.9,96.9 22.6,90.4 0.2,96.9 0.2,0 1220.2,0 		"/>
		
			<rect x="609.7" y="-600.9" transform="matrix(1.780471e-03 -1 1 1.780471e-03 600.0694 619.325)" class="st23" width="1" height="1220"/>
		<rect x="157.4" y="8.8" class="st23" width="1" height="88"/>
		<rect x="276.1" y="9.1" class="st23" width="1" height="64.6"/>
		<rect x="414.8" y="8.8" class="st23" width="1" height="88"/>
		<rect x="839.6" y="8.8" class="st23" width="1" height="88"/>
		<rect x="968.2" y="9.3" class="st23" width="1" height="77.4"/>
		<rect x="1097.9" y="10.8" class="st23" width="1" height="86.1"/>
		<path class="st24" d="M22.6,90.4c0,0,25.9-47.9,32.6-49s92.7-9.7,92.7-9.7l9.3-12l51.5,21.7l36-17.4L276,43.4v30.4L259.8,66
			l-5.2,30.9l-96.8-19.3l7,10.7l-109,8.6L22.6,90.4z"/>
		<polygon class="st24" points="416.7,19.7 499.1,41.4 607.5,37.6 690.6,77.6 657.2,96.9 488.1,96.9 415.8,82.3 		"/>
		<polygon class="st24" points="859.2,0 1018.5,30 968.4,36.9 1042.2,96.9 948.1,74.3 938.8,48 930.1,96.9 893.6,69.4 910.7,96.9 
			839.8,58.3 727.4,36.9 735.8,58.3 687.5,9.1 		"/>
		<polygon class="st24" points="859.2,0 1018.5,30 968.4,36.9 1042.2,96.9 948.1,74.3 938.8,48 930.1,96.9 893.6,69.4 910.7,96.9 
			839.8,58.3 727.4,36.9 735.8,58.3 687.5,9.1 		"/>
		<path class="st24" d="M1220.2,0v96.9l-28.1-9l21-10.3l-114.2-19.3l-1,38.6c0,0-57.1-96.9-54.5-96.9S1220.2,0,1220.2,0z"/>
		<g>
			<path class="st23" d="M690.6,77.6c0.9-1.2,1.8-2.5,2.5-3.8c0.1-0.2,0.2-0.3,0.2-0.4l0,0c0,0-0.1,0-0.2,0c-0.1,0-0.1,0-0.3,0.1
				l0,0c0,0-0.1,0-0.2-0.1c0-0.1,0-0.2,0-0.2s0,0,0-0.1s0,0,0.1-0.1l0.1-0.1l0.1-0.1l0.5-0.3c0.6-0.4,1.3-0.8,2.1-1
				c0.4-0.1,0.8-0.1,1.3,0c0.4,0.1,0.8,0.3,1.1,0.5s0.6,0.2,0.9,0.2c0.2,0,0.2-0.1,0.5-0.2c0.2-0.1,0.5-0.1,0.7-0.2
				c0.9-0.1,1.6,0.1,2.4,0.3c0.7,0.2,1.5,0.4,2.1,0.4c0.2,0,0.3,0,0.4-0.1c0.1,0,0.1,0,0.1-0.1c0-0.2-0.1-0.6-0.2-0.9
				c-0.1-0.1-0.1-0.3-0.2-0.3c-0.1,0,0.1,0,0,0c0,0-0.1,0-0.2,0.1c0,0,0,0-0.1,0.1c0,0-0.1,0-0.3,0.1c-0.1,0-0.1,0-0.3-0.1
				c-0.1-0.1-0.2-0.2-0.2-0.2c-0.1-0.2,0-0.2,0-0.3v-0.1c0-0.2,0.1-0.4,0.1-0.6c0.2-0.7,0.4-1.5,0.7-2.2s0.6-1.4,0.9-2.1
				c1.4-2.8,3-5.3,4.7-7.8l0.2,0.6c-0.4-0.2-0.7-0.4-1-0.8c-0.1-0.2-0.2-0.5-0.2-0.8s0.2-0.5,0.3-0.7c0.6-0.7,1.4-0.9,2-1.1
				c1.3-0.5,2.5-1.3,3.8-2c0.6-0.3,1.4-0.6,2.1-0.7c0.8,0,1.4,0.2,2.2,0.2c1.4,0.1,2.9,0.1,4.3,0c-1.4,0.2-2.9,0.3-4.3,0.3
				c-0.7,0-1.5-0.1-2.1-0.1c-0.7,0.1-1.3,0.3-1.9,0.7c-1.2,0.7-2.4,1.6-3.7,2.2c-0.3,0.2-0.7,0.3-1,0.4c-0.3,0.2-0.6,0.3-0.7,0.5
				c-0.2,0.2-0.2,0.3,0,0.5c0.1,0.2,0.4,0.4,0.6,0.5l0.4,0.2l-0.3,0.4c-1.7,2.5-3.3,5.1-4.6,7.8c-0.3,0.7-0.6,1.3-0.9,2
				c-0.2,0.7-0.5,1.4-0.7,2.1c-0.1,0.2-0.1,0.4-0.1,0.5l0,0c0,0,0,0,0-0.1c0,0-0.1-0.1-0.1-0.2c-0.1-0.1-0.2-0.1-0.2-0.1
				c-0.2,0-0.2,0-0.2,0l0,0c0.1,0,0.2-0.1,0.3-0.2s0.3-0.1,0.6-0.1c0.2,0,0.4,0.2,0.5,0.3c0.2,0.2,0.3,0.4,0.4,0.6
				c0.1,0.4,0.3,0.8,0.2,1.4c0,0.3-0.3,0.6-0.6,0.7s-0.5,0.1-0.7,0.1c-0.9,0-1.6-0.3-2.3-0.5s-1.5-0.4-2.1-0.4c-0.2,0-0.3,0-0.4,0.1
				c-0.1,0-0.4,0.2-0.6,0.2c-0.5,0.1-1-0.1-1.3-0.3c-0.7-0.4-1.3-0.6-2-0.5s-1.3,0.5-2,0.9l-0.5,0.3l-0.1,0.1l0,0l0,0l0,0
				c0,0,0,0,0-0.2c-0.3,0.2-0.4,0.2-0.4,0.2l0,0c0,0,0.1,0,0.2,0c0.1,0,0.2,0,0.3,0s0.2,0,0.2,0.1c0.1,0.1,0.1,0.2,0.1,0.3
				c0,0.3-0.2,0.4-0.3,0.6C692.6,75.3,691.6,76.4,690.6,77.6z"/>
		</g>
		<polygon class="st23" points="691.1,71.8 690.1,71.8 686.3,9.1 687.3,9.1 		"/>
		<g>
			<path class="st23" d="M259.8,67c-0.1-1.4-0.1-2.8-0.2-4.3c0-0.7-0.1-1.4-0.1-2.1c0-0.7,0-1.5,0-2.2c0-0.2,0-0.4,0-0.4
				s-0.1,0-0.2-0.1l-1-0.3c-0.7-0.2-1.4-0.5-2-1c-0.3-0.2-0.6-0.4-0.8-0.5S255,56,254.6,56c-0.7,0-1.4-0.1-2.2-0.1
				c-2.8-0.2-5.7-0.5-8.5-0.9c-0.7-0.1-1.4-0.2-2.1-0.4c-0.2,0-0.4-0.1-0.6-0.2c-0.1,0-0.2-0.1-0.4-0.2c0,0-0.1,0-0.1-0.1
				c0,0-0.1-0.1-0.1-0.2c-0.1-0.2,0.1-0.5,0.2-0.5l0.1-0.1c0.2-0.2,0.4-0.4,0.6-0.7c0.9-1.1,1.7-2.3,2.4-3.4v-0.1l0,0l2.6-2.1
				l-0.1,0.1c0.4-1.6,0.7-3.2,1.1-4.8c-0.2,1.6-0.4,3.3-0.6,4.9v0.1l-0.1,0.1l-2.5,2.2l0.1-0.1c-0.7,1.2-1.4,2.5-2.3,3.6
				c-0.2,0.3-0.4,0.6-0.8,0.9l-0.1,0.1l0,0l0,0l0,0c0,0,0.2-0.2,0.1-0.4c0-0.1-0.1-0.1-0.1-0.2c0,0-0.1,0,0,0h0.1
				c0.1,0,0.3,0.1,0.5,0.1c0.7,0.1,1.4,0.2,2.1,0.3c2.8,0.4,5.6,0.6,8.4,0.9c0.7,0.1,1.4,0.1,2.1,0.2c0.4,0,0.8,0,1.2,0.2
				s0.7,0.5,0.9,0.7c0.5,0.4,1.1,0.7,1.8,1l1,0.4c0.2,0.1,0.4,0.1,0.6,0.5c0.1,0.3,0,0.5,0,0.7c-0.1,0.7-0.1,1.4-0.1,2.1
				c0,0.7,0,1.4-0.1,2.1C259.9,64.2,259.9,65.6,259.8,67z"/>
		</g>
		<g>
			<path class="st23" d="M158.4,96.9c1.1-1.5,2.2-3,3.3-4.4l0.1-0.2l0.2,0.1c0.4,0.3,0.9,0.5,1.4,0.7s1,0.2,1.5,0.2l-0.2,0.1
				l1.3-1.1l-0.1,0.3c-0.1-2.5-0.1-5-0.1-7.5v-0.4h0.5h3.4l-0.5,0.3c0.5-1.6,1-3.2,1.6-4.8l0,0l0,0c0.5-0.9,0.9-1.7,1.5-2.5
				s1.1-1.6,2-2.2c0.2-0.2,0.5-0.3,0.9-0.3c0.3,0,0.6,0.1,0.8,0.1c0.5,0.1,0.9,0.3,1.4,0.5c0.9,0.4,1.7,0.8,2.6,1.2
				c0.9,0.4,1.7,0.8,2.6,1.2c0.4,0.2,0.9,0.4,1.3,0.5c0.2,0.1,0.4,0.1,0.6,0.2c0.1,0,0.3-0.1,0.5-0.2c1.4-1.1,2.7-2.5,4.1-3.9
				c-1.2,1.5-2.4,2.9-3.8,4.2c-0.2,0.1-0.4,0.4-0.8,0.4c-0.3,0-0.5-0.1-0.7-0.1c-0.5-0.1-0.9-0.3-1.4-0.5c-0.9-0.3-1.8-0.7-2.6-1.1
				c-0.9-0.4-1.7-0.7-2.6-1c-0.4-0.2-0.9-0.3-1.3-0.4c-0.2-0.1-0.4-0.1-0.6-0.1c-0.1,0-0.3,0.1-0.4,0.2c-0.6,0.5-1.2,1.3-1.7,2
				c-0.5,0.8-1,1.6-1.4,2.4v-0.1c-0.5,1.6-1.1,3.2-1.6,4.8l-0.1,0.3h-0.3h-3.4l0.5-0.5c0,2.5,0,5-0.1,7.5V93l-0.1,0.1l-1.3,1
				l-0.1,0.1h-0.1c-0.6,0-1.1-0.2-1.7-0.3c-0.5-0.2-1-0.5-1.5-0.9h0.3C160.8,94.1,159.6,95.5,158.4,96.9z"/>
		</g>
		<g>
			<path class="st23" d="M175.1,75.4l-1.6-3.4l-0.1-0.2h0.2l2.4-0.1l-0.2,0.3l-0.1-4.1l0.1,0.2c-0.7-1-1.4-1.9-2.1-2.8
				c-0.4-0.4-0.7-0.9-1.1-1.3c-0.4-0.4-0.9-0.8-1.1-0.8c-1.3-0.1-2.4-0.3-3.6-0.5c-1.2-0.2-2.3-0.5-3.4-0.8l-0.2-0.1l-0.1-0.2
				c-0.3-0.8-0.5-1.7-0.7-2.5s-0.4-1.7-0.6-2.5h0.1c0.4,0.8,0.7,1.6,1.1,2.4c0.3,0.8,0.7,1.6,1,2.4l-0.3-0.3
				c1.2,0.2,2.3,0.4,3.5,0.6c1.1,0.2,2.3,0.5,3.4,0.6c0,0,0.5,0.1,0.6,0.2c0.2,0.1,0.3,0.2,0.4,0.3c0.3,0.2,0.5,0.4,0.7,0.7
				c0.4,0.5,0.8,0.9,1.1,1.4c0.7,1,1.4,1.9,2,2.9l0.1,0.1V68l-0.1,4.1v0.2h-0.2l-2.4-0.1L174,72L175.1,75.4L175.1,75.4z"/>
		</g>
		<g>
			<path class="st23" d="M22.6,90.4c-1.1-2.7-2.1-5.4-3.2-8.1L19.3,82h0.4h2.9h-0.1l5.8-2.4l-0.1,0.7l-5.9-4.5l0.3,0.1h-2.9h-0.5
				v-0.5v-5.1v-0.1v-0.1l4.5-12l0.1-0.3h0.3l8.2,0.1h-0.1c1.5-0.9,3.1-1.8,4.6-2.6c1.5-0.9,3.1-1.7,4.7-2.6c-1.5,1-3,1.9-4.5,2.9
				s-3,1.9-4.5,2.8h-0.1h-0.1l-8.2,0.1l0.4-0.3l-4.3,12V70v5.1L19.7,75h2.9h0.2l0.1,0.1l5.8,4.6l0.6,0.4l-0.7,0.3l-5.8,2.2h-0.1
				h-0.1h-2.9l0.2-0.3C20.8,84.9,21.8,87.7,22.6,90.4z"/>
		</g>
		<g>
			<path class="st23" d="M28.5,82c1.5-0.1,3-0.2,4.5-0.2s3-0.1,4.5-0.1l-0.3,0.6l-2.4-4.6l-0.2-0.5l0.5-0.2c1.7-0.6,3.4-1.3,5.2-1.8
				l2.6-0.9c0.9-0.3,1.7-0.6,2.6-0.9l0.3-0.1v0.3c0,1.4-0.1,2.8,0,4.2c0,1.4,0,2.8,0.1,4.2l-0.2-0.2c2.4-0.1,4.8-0.2,7.2-0.2h0.9
				l-0.5,0.7l-2.7,3.5v-0.5c0.9,1.7,1.9,3.4,2.8,5.1l-0.9-0.1c0.8-1,1.7-1.9,2.5-2.8l0.4-0.4l0.4,0.4c1.8,1.9,3.6,3.8,5.5,5.7
				c1.8,1.9,3.6,3.8,5.3,5.8l-0.2,0c-2-1.8-3.9-3.5-5.8-5.3c-1.9-1.8-3.8-3.6-5.7-5.5h0.8c-0.8,1-1.6,1.9-2.5,2.9l-0.5,0.6L52.3,91
				c-0.9-1.7-1.8-3.4-2.7-5.2l-0.2-0.3l0.2-0.2l2.8-3.4l0.3,0.7c-2.4,0-4.8-0.1-7.2-0.2h-0.2v-0.2c0-1.4,0-2.8,0.1-4.2
				c0-1.4,0-2.8,0-4.2l0.3,0.2c-0.9,0.3-1.7,0.7-2.6,1l-2.5,1c-1.7,0.7-3.4,1.3-5.1,2l0.2-0.6l2.2,4.5l0.3,0.6h-0.6
				c-1.5,0-3-0.1-4.5-0.1s-3-0.1-4.5-0.2L28.5,82L28.5,82z"/>
		</g>
		<g>
			<path class="st23" d="M301.6,8.8l7.6,10.8l-0.2-0.1l8.4-0.1h0.1l0.1,0.1L333,30.7L348.4,42l0.1,0.1v0.1l5.2,15.9v0.1v0.1
				l-1.3,6.9l-0.2-0.5l3.1,1.8h-0.4l6.5-1.8h0.2l0.1,0.1l4.2,1.8l0.3,0.1V67l-0.1,10.6v0.2l-0.2,0.1c-5.9,3-11.8,6.1-17.7,9.1
				l0.1-0.1l-0.1,10l-0.1-10v-0.1h0.1c5.8-3.2,11.7-6.3,17.5-9.5l-0.2,0.3L365.3,67l0.3,0.4l-4.2-1.8h0.3l-6.5,1.8l-0.2,0.1
				l-0.2-0.1l-3.1-1.8l-0.3-0.2l0.1-0.3l1.3-6.9v0.2l-5.2-15.9l0.2,0.2l-15.3-11.4l-15.3-11.5l0.2,0.1l-8.4-0.1h-0.1l-0.1-0.1
				L301.6,8.8z"/>
		</g>
		<g>
			<path class="st23" d="M348.1,42.4c1.8-0.1,3.5-0.2,5.3-0.2s3.5-0.1,5.3-0.1l-0.4,0.2c0.9-1.8,1.8-3.6,2.7-5.3l0.2-0.4l0.4,0.3
				c1.4,0.9,2.8,1.8,4.1,2.7l-0.5,0.1l2.6-3.5c0.9-1.2,1.7-2.4,2.6-3.6l0.1-0.1l0.1,0.1c1.8,0.8,3.6,1.6,5.4,2.4l5.4,2.3
				c3.6,1.6,7.2,3.2,10.8,4.8h-0.5c3-1.6,6-3.3,9-4.9l-0.1,0.1c1.4-1.6,2.7-3.1,4.1-4.7c1.4-1.5,2.8-3.1,4.2-4.6l0.1,0.1
				c-1.3,1.6-2.5,3.3-3.8,4.9c-1.3,1.6-2.6,3.2-3.9,4.8v0.1h-0.1c-2.9,1.7-5.9,3.3-8.9,5l-0.2,0.1l-0.2-0.1
				c-3.6-1.7-7.1-3.3-10.7-5.1l-5.3-2.6c-1.8-0.9-3.5-1.7-5.3-2.5l0.2-0.1c-0.8,1.2-1.7,2.4-2.5,3.6l-2.4,3.7l-0.2,0.3l-0.3-0.2
				c-1.4-0.8-2.8-1.7-4.2-2.6l0.6-0.2c-0.9,1.8-1.9,3.5-2.8,5.3l-0.1,0.2h-0.2c-1.8,0-3.5-0.1-5.3-0.1
				C351.7,42.7,349.9,42.6,348.1,42.4L348.1,42.4z"/>
		</g>
		<g>
			<path class="st23" d="M288.4,8.8c1,0.2,1.8,0.6,2.7,1c0.9,0.4,1.8,0.8,2.6,1.3c1.7,0.9,3.5,1.8,5.2,2.7c3.4,1.9,6.8,3.8,10.2,5.7
				l0.2,0.1v0.2c-0.3,1.6-0.5,3.2-0.7,4.9c-0.1,0.8-0.1,1.6-0.2,2.4c0,0.8,0,1.6,0.2,2.3c0,0.2,0.1,0.3,0.2,0.4s0.1,0.1,0.3,0.1
				c0.4,0,0.8-0.1,1.2-0.2c0.8-0.2,1.6-0.4,2.4-0.6c1.6-0.5,3.1-1,4.6-1.6l0.2-0.1l0.2,0.2l7.7,7.2l-0.2-0.1l20.3,6.6l20.3,6.6l0,0
				l0,0l8.4,4.4l0.7,0.4l-0.6,0.4l-8.4,5.5L366,58l6.8,13.5l0.1,0.2l-0.1,0.2l-7,11.6v-0.3l15,13.7l-15.2-13.2l-0.1-0.1l0.1-0.2
				l6.8-11.7V72l-7-13.5l-0.2-0.3l0.3-0.2l8.4-5.5v0.8l-8.4-4.4h0.1l-20.3-6.6L325,35.6h-0.1l-0.1-0.1l-7.7-7.2l0.4,0.1
				c-1.6,0.5-3.1,1.1-4.7,1.5c-0.8,0.2-1.6,0.4-2.4,0.6c-0.4,0.1-0.8,0.1-1.3,0.2c-0.2,0-0.7-0.1-0.8-0.4c-0.2-0.2-0.3-0.5-0.3-0.7
				c-0.2-0.9-0.2-1.7-0.2-2.5s0.1-1.7,0.2-2.5c0.2-1.6,0.5-3.3,0.8-4.9l0.1,0.3c-3.3-2-6.7-4-10.1-5.9c-1.7-1-3.4-1.9-5.1-2.8
				c-0.9-0.5-1.7-0.9-2.6-1.3C290.3,9.5,289.4,9,288.4,8.8z"/>
		</g>
		<polygon class="st25" points="348.1,42.4 365.7,48.4 374.1,52.8 365.7,58.3 365.7,67 361.6,65.2 355.1,67 352,65.2 353.3,58.3 		
			"/>
	</g>
</g>
</svg>
