<?xml version="1.0" encoding="utf-8"?>
<!-- Generator: Adobe Illustrator 24.2.3, SVG Export Plug-In . SVG Version: 6.00 Build 0)  -->
<svg version="1.1" id="Capa_1" xmlns="http://www.w3.org/2000/svg" xmlns:xlink="http://www.w3.org/1999/xlink" x="0px" y="0px"
	 viewBox="0 0 457.5 465.5" style="enable-background:new 0 0 457.5 465.5;" xml:space="preserve">
<style type="text/css">
	.st0{fill:#F8E0D8;}
	.st1{clip-path:url(#SVGID_2_);}
	.st2{fill:#6584F3;}
	.st3{fill:#3C3278;}
	.st4{fill:#FB6A55;}
</style>
<circle class="st0" cx="229.5" cy="233" r="223.5"/>
<g>
	<defs>
		<circle id="SVGID_1_" cx="229.5" cy="233" r="223.5"/>
	</defs>
	<clipPath id="SVGID_2_">
		<use xlink:href="#SVGID_1_"  style="overflow:visible;"/>
	</clipPath>
	<g class="st1">
		<g>
			<g>
				<g>
					<path class="st2" d="M11.3,767.3h386.8c1.6-14.8-57.6-329.1-127.2-430.2c-7.9-11.5-75.5-19.8-100.4,8.7
						C39,496.9,8.1,763.7,11.3,767.3z"/>
				</g>
				<g>
					<path class="st3" d="M393.3,733v34.4h4.8C398.4,764.7,396.7,752.2,393.3,733z"/>
					<path class="st3" d="M321.5,448.2v319.1h9V475.2C327.5,466.1,324.6,457,321.5,448.2z"/>
					<path class="st3" d="M249.6,328.5v438.9h9V330.6C255.9,329.8,252.9,329.1,249.6,328.5z"/>
					<path class="st3" d="M177.8,339.4v428h9V334.2C183.5,335.7,180.5,337.4,177.8,339.4z"/>
					<path class="st3" d="M105.9,442.1v325.2h9V425.6C111.8,431.1,108.8,436.6,105.9,442.1z"/>
					<path class="st3" d="M34.1,635.9v131.5h9v-165c-2.9,10-5.5,19.7-7.9,29.2C34.8,633,34.4,634.5,34.1,635.9z"/>
					<path class="st3" d="M170.5,345.9c-2.1,2.4-4.2,4.8-6.2,7.3h116.5c-1.8-3.1-3.5-6.1-5.3-9H172.2
						C171.6,344.7,171,345.3,170.5,345.9z"/>
					<path class="st3" d="M120.5,416.1c-1.8,3-3.5,6-5.2,9h197.9c-1.2-3-2.3-6-3.4-9H120.5z"/>
					<path class="st3" d="M80.1,496.9h257.1c-0.9-3-1.8-6-2.7-9H83.9C82.6,490.9,81.3,493.9,80.1,496.9z"/>
					<path class="st3" d="M53.3,568.7h303.9c-0.8-3-1.6-6-2.3-9H56.3C55.3,562.8,54.3,565.8,53.3,568.7z"/>
					<path class="st3" d="M32.9,640.6h341.6c-0.7-3-1.3-6-2.1-9H35.2c-0.4,1.4-0.7,2.9-1.1,4.3C33.7,637.5,33.3,639,32.9,640.6z"/>
					<path class="st3" d="M17.8,712.4h371.7c-0.5-2.9-1.1-5.9-1.7-9H19.4C18.9,706.5,18.3,709.5,17.8,712.4z"/>
				</g>
			</g>
			<g>
				<path class="st4" d="M280.1,363.3c11,28.4,52.4,128.2,74.9,199.7c15.1,48,20.9,88.3,24.2,98.9c0,0-114.2-36.7-139.9-36.7
					c-39.6-0.1-103.1,82.6-87.6,93c24.5,16.3,141.3,71.7,234.5,89.1c50.7,9.5,146.2-55,138.7-106.2
					C514.3,629.2,384.4,439.7,334.9,386C309.3,358.1,266.7,328.6,280.1,363.3z"/>
				<g>
					<path class="st2" d="M531.8,716.3c-2.4,51.8-67.2,95.4-104.7,97.7c-64.8,3.9-259.2-52.7-259.2-52.7l75.6-145.6
						c0,0,132.3,44.9,135.6,46.2l0-0.1c-1.2-3.9-33.8-126.3-48.3-166.9c-0.8-2.2-1.7-4.5-2.5-6.9c-4.2-11.2-9.9-26.1-16.3-42.1
						l-0.1-0.1c-3.5-8.9-7.2-18.2-10.9-27.3l0-0.1c-16-39.7-31.5-77.5-31.5-77.5c22.3,3.7,44.3,15.4,80.4,53.2
						C385.8,432,535.8,630.8,531.8,716.3z"/>
					<g>
						<path class="st3" d="M465.2,552.4V802c3-1.6,6-3.3,9-5.1V567.2c-1.5-2.5-3-5-4.5-7.4C468.2,557.3,466.7,554.8,465.2,552.4z"/>
						<path class="st3" d="M393.3,447.6v364.8c3.1,0.4,6.1,0.7,9,0.9V459.6C399.3,455.4,396.3,451.4,393.3,447.6z"/>
						<path class="st3" d="M321.5,367.3v103c2.5,6.5,4.8,12.4,6.7,17.6c0,0,0,0,0,0.1c0.8,2.1,1.6,4.2,2.2,6.1v-119
							C327.4,372.3,324.4,369.7,321.5,367.3z"/>
						<path class="st3" d="M321.5,642.2v157.8c3,0.7,6,1.3,9,1.9V645.3C327.5,644.3,324.5,643.3,321.5,642.2z"/>
						<path class="st3" d="M249.6,617.8v165.5c1.3,0.3,2.6,0.7,3.9,1c1.7,0.4,3.4,0.8,5.1,1.3V620.9
							C255.1,619.7,252.1,618.7,249.6,617.8z"/>
						<path class="st3" d="M177.8,742.2v21.9c2.6,0.7,5.6,1.6,9,2.5v-41.7L177.8,742.2z"/>
						<path class="st3" d="M270.8,344.2c0.9,2.1,2.1,5.2,3.7,9H302c-6.8-4.1-13.1-7-19.3-9H270.8z"/>
						<path class="st3" d="M300,416.1c0.3,0.8,0.7,1.5,0.9,2.3v0.1c0.9,2.2,1.8,4.4,2.6,6.6h72.3c-2.5-3.1-4.9-6.1-7.2-9H300z"/>
						<path class="st3" d="M328.2,487.9C328.2,487.9,328.2,487.9,328.2,487.9c0.8,2.2,1.6,4.2,2.3,6.2c0.1,0.3,0.2,0.5,0.3,0.8
							c0.2,0.7,0.5,1.3,0.7,2h97.5c-2.1-3-4.2-6-6.3-9H328.2z"/>
						<path class="st3" d="M350.8,559.8c0.9,3,1.7,6,2.6,9h121.7c-0.3-0.5-0.6-1-0.9-1.5c-1.5-2.5-3-5-4.5-7.4H350.8z"/>
						<path class="st3" d="M370.9,631.6c0.9,3.2,1.7,6.2,2.5,9h139.1c-1.2-3-2.6-6-4-9H370.9z"/>
						<path class="st3" d="M230.6,640.6h86.2c-9-3-18-6.1-26.6-9h-54.9L230.6,640.6z"/>
						<path class="st3" d="M193.3,712.4h338.6c0-2.9-0.2-5.9-0.5-9H197.9L193.3,712.4z"/>
						<path class="st3" d="M218.7,775.3c9.5,2.5,19.9,5.2,30.9,8c1.3,0.3,2.6,0.7,3.9,1h238.4c3.5-2.8,6.8-5.8,10-9H218.7z"/>
					</g>
					<g>
						<path class="st3" d="M218.3,729.8c5.4-10.3,10.9-20.6,16.3-30.9c5.3-10.1,10.7-20.1,16.1-30.1c5.6-10.4,11.5-20.7,16-31.6
							c0.1-0.2-0.2-0.4-0.3-0.2c-6.8,9-12.4,18.9-18,28.6c-5.8,10.1-11.4,20.3-17,30.5c-5.5,10-10.8,20.1-16,30.3
							c-5.3,10.4-10.7,21.3-14.6,32.3c-0.2,0.4,0.5,0.9,0.8,0.4C207.7,749.8,213.1,739.7,218.3,729.8z"/>
						<path class="st3" d="M419.5,683.3l-40.4-21.4l-0.1-0.1l0-0.1c-1.2-3.9-33.8-126.3-48.3-166.9c-0.8-2.2-1.7-4.5-2.5-6.9
							c-4.2-11.2-9.9-26.1-16.3-42.1L419.5,683.3z"/>
						<path class="st3" d="M453,701.1c-11.2-8.4-23.3-15.9-35.5-22.8c-6.1-3.4-12.3-6.6-18.7-9.5c-6.8-3-14-5.2-20.7-8.3
							c-0.5-0.2-0.9,0.6-0.4,0.8c6.3,2.9,12.3,6.8,18.4,10.1c6.3,3.5,12.7,6.8,19.1,10.1c12.6,6.5,25,13.3,37.5,20
							C452.9,701.8,453.3,701.3,453,701.1z"/>
					</g>
				</g>
			</g>
			<g>
				<g>
					<path class="st4" d="M423.6,669.8c-10.1,0.1-71.3-16.2-80.3-7.8c-54.3,51.2-71.5,40.9-83.1,47.6
						c-89.5,51.5-209,112-251.7,112.4c-64.7,0.5-90.5-53.8-79.7-105.1c21.3-101.4,158-299.2,219.9-351.7
						c32.8-27.8,30.2,14.1,16.6,59.8c-8,26.7-21.9,66.5-36.1,105.5C116.8,565.1,83.4,654,82.8,656.1l0,0.1c-0.1,0.1-0.1,0.2-0.1,0.2
						c0,0.2,0.2,0.3,0.7,0.1c2.8-0.5,79.4-36.6,156.4-56.4c27.1-7,83.6-16.9,103.9-7.9c12,5.4,12.2,12.6,12.2,12.6s9.7-0.9,19.8,7.5
						c6.8,5.6,8.9,13.4,8.9,13.4s10.6,1.5,16.1,7.6c6.6,7.3,7.1,15,7.1,15C422.1,652.1,423.6,669.8,423.6,669.8z"/>
					<g>
						<path class="st3" d="M333.2,602.6c-8.2,0.1-16.1,1.3-24.1,2.7c-0.5,0.1-0.5,0.9,0.1,0.9c7.9-0.9,15.8-1,23.8-1.3
							c7.9-0.3,15.9-0.4,23.7-0.3c0,0,0.1-0.1,0-0.1C348.7,603.2,341.1,602.5,333.2,602.6z"/>
						<path class="st3" d="M384.4,625.2c-14-3.8-25.2-6-42.8-3.8c-0.6,0.1-0.5,0.9,0,0.9c16.7-1,27.6,0.7,42.7,3.2
							C384.5,625.5,384.5,625.2,384.4,625.2z"/>
						<path class="st3" d="M407.6,647.8c-14.1-5.8-24.9-7.6-40.5-7.6c-0.6,0-0.7,0.8-0.2,0.9c15,1.4,25.9,3.6,40.4,7.3
							C407.8,648.6,408,648,407.6,647.8z"/>
						<path class="st3" d="M236.1,601c-6.7,0.9-13.4,2.9-20,4.5c-7,1.7-14,3.6-20.9,5.9c-13.7,4.5-27.1,10-40.2,16
							c-0.5,0.2-0.2,1,0.3,0.8c13.4-4.7,26.9-9.1,40.5-13.4c6.7-2.1,13.3-4.3,19.9-6.5c6.8-2.2,13.9-3.9,20.6-6.5
							C236.7,601.6,236.6,600.9,236.1,601z"/>
					</g>
				</g>
				<g>
					<path class="st2" d="M182.5,615.5c14.2-4.8,20.6-4.8,20.6-4.8l80.5,136c0,0-221.8,79.9-267.4,84.5
						c-45.5,4.7-97.4-31.2-98.2-88.4c-1.2-80.4,129.8-273.4,195.7-348c30.2-34.2,65.4-59,74.4-53.4c10.6,6.6-8.7,49.6-18.8,81.7
						c-18.7,59.2-85.9,233.4-85.9,233.4S165.7,621.2,182.5,615.5z"/>
					<g>
						<path class="st3" d="M249.6,689.2v69.5c3.2-1.1,6.2-2.2,9-3.2v-52.1H258L249.6,689.2z"/>
						<path class="st3" d="M177.8,342.3v56.3c3.3-9.1,6.5-18.2,9-26.5v-31.3C184.6,340.3,181.6,340.8,177.8,342.3z"/>
						<path class="st3" d="M177.8,617.2v166.4c3-1,6-2.1,9-3V614.1c-1.3,0.4-2.7,0.9-4.2,1.4C181.3,615.9,179.7,616.5,177.8,617.2z"
							/>
						<path class="st3" d="M105.9,403.9v193.8c2.9-7.5,5.9-15.5,9-23.8V393.5c-0.4,0.4-0.8,0.8-1.1,1.3
							C111.3,397.7,108.6,400.7,105.9,403.9z"/>
						<path class="st3" d="M105.9,646.9v160.2c3-0.9,6-1.9,9-2.8V643.1C111.8,644.4,108.7,645.7,105.9,646.9z"/>
						<path class="st3" d="M34.1,499.5v328.4c2.8-0.6,5.8-1.4,9-2.2V486.5c-0.3,0.5-0.7,0.9-1,1.4c-2.1,3-4.2,6-6.3,9
							C35.3,497.8,34.7,498.6,34.1,499.5z"/>
						<path class="st3" d="M-37.7,616.7v201.8c2.9,1.7,5.9,3.3,9,4.7V600.3C-31.9,605.8-34.9,611.3-37.7,616.7z"/>
						<path class="st3" d="M159,353.2h32.1c0.4-3.8,0.3-6.8-0.7-9h-16.9C169.2,346.3,164.3,349.4,159,353.2z"/>
						<path class="st3" d="M88.7,425h80.1c0.2-0.7,0.4-1.3,0.6-1.9c0.7-2.3,1.5-4.7,2.3-7H95.9C93.5,418.9,91.1,421.9,88.7,425z"/>
						<path class="st3" d="M35.9,496.9h107.7c1.1-3,2.2-6,3.3-9H42.1C40,490.9,37.9,493.9,35.9,496.9z"/>
						<path class="st3" d="M-10.5,568.7h127.3c1.1-3,2.2-5.9,3.4-9H-5C-6.9,562.8-8.7,565.7-10.5,568.7z"/>
						<path class="st3" d="M120.9,640.6h99.9l-5.3-9h-73.2C135.2,634.6,127.8,637.6,120.9,640.6z"/>
						<path class="st3" d="M-49.9,640.6H89.6c1-2.7,2.2-5.7,3.4-9H-45.4C-47,634.6-48.4,637.6-49.9,640.6z"/>
						<path class="st3" d="M-77.7,712.4h341.1l-4.7-8v-1H-75.3C-76.2,706.5-77.1,709.5-77.7,712.4z"/>
						<path class="st3" d="M-75.4,775.3c1.3,3.1,2.7,6.1,4.3,9h246.7c0.7-0.3,1.5-0.5,2.2-0.7c3-1,6-2.1,9-3
							c5.1-1.8,10.2-3.5,15.1-5.2H-75.4z"/>
					</g>
					<g>
						<path class="st3" d="M202.4,610.5c-12.5,0.7-66.5,19.5-93,30.9c-26.4,11.3-51.8,24.8-75.6,40.9c-13.5,9.1-26.3,19-38.9,29.2
							c-0.4,0.4,0,1.1,0.5,0.7c23.3-16.7,48.2-31.5,73.4-45.1c25.1-13.5,50.6-26.4,77.1-36.7c15.1-5.9,41.1-14.7,55.9-18.6
							C205.9,610.7,202.8,610.5,202.4,610.5z"/>
						<path class="st3" d="M149.2,491.6c-3.4,5.5-6.8,10.9-9.7,16.6c-0.1,0.3-0.3,0.5-0.4,0.8c4.3-13,8.4-26.1,12.3-39.3
							c0.2-0.8-1.1-1.2-1.4-0.5c-19.1,48.3-36.7,97.1-53.9,146.1c-4.8,13.7-9,27.5-13.4,41.4c-0.2,0.5,0.6,0.7,0.8,0.3
							c5.2-11.9,10.5-23.6,15.3-35.7c4.8-12.1,9.2-24.3,13.7-36.4c7.9-21.3,15.4-42.7,22.6-64.2c2.3-3.8,4.6-7.5,6.7-11.4
							c3.1-5.6,5.7-11.4,8.3-17.3C150.4,491.4,149.5,491.1,149.2,491.6z"/>
						<path class="st3" d="M229.7,717c-5.9-10-11.7-20.1-17.6-30.1c-5.8-9.8-11.4-19.7-17.1-29.6c-5.8-10.2-11.5-20.7-18.4-30.3
							c-0.1-0.2-0.4,0-0.3,0.2c4,10.5,9.5,20.5,14.8,30.4c5.5,10.2,11.2,20.4,16.9,30.6c5.6,9.9,11.4,19.8,17.3,29.5
							c6,10.1,12.4,20.4,19.7,29.5c0.3,0.4,1,0.1,0.8-0.4C241.1,736.6,235.3,726.7,229.7,717z"/>
						<path class="st3" d="M286.8,746.9c-6.7-13.2-17.1-26.1-24.8-38.6c-0.3-0.5-1,0-0.7,0.5c7,11.8,13.4,24.4,20.1,36.4
							C251,757.7,218.6,769,187.5,780c-31.9,11.3-64,22-96.5,31.4c-18.2,5.2-36.4,10.9-54.7,15.7c-1.1,0.3-0.8,1.2,0.3,1
							c32.9-6.2,65.2-15.7,97.1-25.8c32.5-10.3,64.6-21.8,96.5-33.8C248.2,761.8,287.4,748,286.8,746.9z"/>
					</g>
				</g>
				<g>
					<path class="st4" d="M234,601.1c-41.9,10.7-90.1,28.4-111.7,36.8c-0.6,0.2-1.1,0.4-1.6,0.6c-19,7.5-30.8,13-33.6,13.5
						c-0.2-0.1-0.4-0.3-0.6-0.4l0-0.1c-2-1.4-3.9-2.5-5.9-3.2c-5.4-1.9-56.9-8.4-55.6-24.3c1.3-15.8,22.3-14.8,25.3-14.6
						c-3.3-0.7-31.3-7.3-22.2-21.3c6.4-9.9,34.1-8.5,36.9-8.3c-2.8-0.9-28.5-9.3-19.7-23.6c6.3-10.2,37.3-8.9,40.8-8.3
						c-2.9-1.1-25.8-4.9-15.1-17.2c7.4-8.6,65.7,0.1,91.5,13.1C201.2,563,234,601.1,234,601.1z"/>
					<g>
						<path class="st3" d="M122.3,637.9c-0.6,0.2-1.1,0.4-1.6,0.6c-8.9-6.9-42.8-24.9-69.3-28.3c-1.6-0.2-1.8-1.2,0-1.1
							C84.2,610.6,113.7,629.9,122.3,637.9z"/>
						<path class="st3" d="M66.4,580.8c36.7,7.3,53.3,15.4,84.8,35.4c0.4,0.3,0.9-0.4,0.5-0.7c-29.4-22-47.7-32.9-85-35.7
							C65,579.8,64.7,580.5,66.4,580.8z"/>
						<path class="st3" d="M87.4,548.7c35.2,9.4,53.7,17.5,82.1,40.4c0.7,0.5,1.5-0.3,0.9-0.9c-26.7-25.9-49.8-36.2-82.6-40.5
							C85.5,547.4,85.1,548.1,87.4,548.7z"/>
					</g>
				</g>
			</g>
			<g>
				<g>
					<g>
						<g>
							<path class="st4" d="M263.6,394.2c-20.8,7.5-61.3-21.1-78.8-45.9c-1.2-1.7-0.6-21.2-1-44.9c-0.3-14.4-0.9-30.4-2.6-45
								l93.9,11.8c0,0-5.5,31.6-2.5,56.9c0.3,2.1,0.7,4.1,1.3,5.9c0.1,0.3,0.2,0.6,0.2,1C277.3,345.2,283.7,386.9,263.6,394.2z"/>
						</g>
						<path class="st3" d="M274.1,334c0.2,0.6,0.4,1.3,0.5,2c-56.2-2.4-77.6-27.1-91.4-50.8c-0.4-9-1-18.2-2-26.9l93.9,11.8
							c0,0-5.5,31.6-2.5,57c0.2,2.1,0.7,4,1.3,5.9C274,333.3,274,333.7,274.1,334z"/>
					</g>
					<g>
						<g>
							<path class="st4" d="M155.8,141.6c-9.8,32.6,7.7,126.8,30.9,147.7c33.7,30.3,88.8,33.1,114.5-7.4c25-39.3,0-161.5-26-180.5
								C237,73.4,170.3,93.4,155.8,141.6z"/>
						</g>
						<g>
							<g>
								<path class="st3" d="M235.9,194.4c-0.1-0.2-0.4,0.4-0.4,0.7c1.3,6.3,1.8,13.8-3.5,16.9c-0.2,0.1-0.1,0.4,0.1,0.3
									C238.9,210,238.2,200.1,235.9,194.4z"/>
								<path class="st3" d="M229,188.8c-10.3,1.1-7.4,21.7,2.1,20.7C240.6,208.5,237.7,187.9,229,188.8z"/>
							</g>
							<g>
								<path class="st3" d="M274.8,188.5c0-0.3,0.5,0.2,0.6,0.5c0.7,6.4,2.6,13.6,8.7,15c0.2,0,0.2,0.4,0,0.4
									C276.8,204.3,274.4,194.7,274.8,188.5z"/>
								<path class="st3" d="M279.6,181.1c10.2-2.2,13.9,18.3,4.5,20.3C274.8,203.4,271.1,182.9,279.6,181.1z"/>
							</g>
							<path class="st3" d="M219.6,180.5c2.7-1.1,5-2.6,7.6-3.9c2.9-1.5,5.4-2.5,7-5.5c0.9-1.6,0-4.2-1.4-5.2
								c-3.5-2.3-7.5-1.3-11.1,0.4c-3.9,1.9-6.4,4.3-8.2,8.2C211.7,178.2,216,182,219.6,180.5z"/>
							<path class="st3" d="M286.1,169.6c-2.9-0.1-5.6-0.6-8.5-1c-3.3-0.4-5.9-0.4-8.5-2.6c-1.4-1.2-1.5-3.9-0.5-5.4
								c2.4-3.4,6.5-3.9,10.5-3.6c4.3,0.4,7.5,1.7,10.6,4.7C292.6,164.6,289.9,169.6,286.1,169.6z"/>
							<path class="st3" d="M241.9,253.3c1.7,1.3,3.6,3.1,5.9,3c2.2-0.1,4.7-1.5,6.6-2.6c0.2-0.1,0.4,0.1,0.3,0.3
								c-1.3,2.7-4.6,4.7-7.6,4.6c-3-0.1-4.7-2.4-5.8-4.9C241.2,253.3,241.6,253.1,241.9,253.3z"/>
							<g>
								<g>
									<path class="st3" d="M245.9,233.2c4.4,5,10,7.3,15.9,7.6c2.6,0.2,5.3-0.1,7.9-0.7c0.5-0.1,1-0.2,1.5-0.4
										c0.5-0.1,0.9-0.2,1.4-0.4c0.7-0.2,1.1-0.9,1.1-1.6l0,0c0-0.2-0.1-0.4-0.2-0.6c0,0,0,0,0,0l-0.1-0.6
										c-0.6-4.9-2.1-12.3-2.1-12.3c1.9,0.6,11.7,3.5,11.2,0.9c-4.3-21.1-9-44.5-17.7-64.6c-0.3-0.7-1.3-0.4-1.1,0.3
										c3.3,20.4,10.2,40.1,13.8,60.6c-3.1-0.7-8.1-2.1-10.7-1.7c-0.7,0.3,3.2,14.3,3.3,16.5c0,0,0,0.1,0,0.2
										c-8.1,2.2-14.7,0.6-23.5-3.8C245.9,232.2,245.5,232.7,245.9,233.2z"/>
								</g>
							</g>
						</g>
						<g>
							<path class="st3" d="M167.4,225.4c16.9-3.9,13.4-47.3,13.4-47.3s20.6-10,23.8-50c0,0,18.1,37.5,88.5,22.5
								c0,0,2.6-17.2-8.6-36.6c0,0,9.8,13.1,21.4,36.7c0,0,11.6-60.8-40.8-77c-20.8-6.5-51.3-2-95.6,25.2c0,0-11.4-27-16.4-22.9
								c-5,4.1,7.6,29.2,7.6,29.2s-21-4.5-24,0.1c-2.6,3.9,17.5,7.3,17.5,7.3s-30.3,12.8-21.8,48.3
								C140.2,193.4,159,227.3,167.4,225.4z"/>
							<path class="st3" d="M159.9,111.5c-18.5,1-33.8,16-34.9,34.6c-0.6,10.3,3,21.1,7.1,30.4c4.5,10.2,10.8,19,17.7,27.7
								c0.4,0.5,1.1-0.2,0.7-0.7c-6.3-7.7-11-17-14.6-26.3c-3.4-8.7-6.7-18.4-7.1-27.9c-0.9-18.7,12.9-34.2,31.2-36.8
								C160.6,112.4,160.5,111.5,159.9,111.5z"/>
							<path class="st3" d="M223.6,67.4c-11.8,3.6-23.3,9.4-33.7,16c-10,6.3-19.7,13.4-27.1,22.7c-0.4,0.5,0.2,1.1,0.7,0.7
								c16.7-15.1,37.7-25.7,58.6-33.8c19.5-7.5,43.3-9.7,60,5.2c0.3,0.2,0.7-0.1,0.4-0.4C267.4,62,243.5,61.3,223.6,67.4z"/>
						</g>
						<g>
							<path class="st4" d="M176.2,218.3c0,0-22-30-35.6-22c-13.6,7.9,3.4,51.7,19.8,57.3c16.4,5.7,21.9-9.4,21.9-9.4L176.2,218.3z"
								/>
							<path class="st3" d="M145.7,208.7c-0.3,0-0.3,0.3-0.1,0.4c11.5,4.3,17.7,14.8,22.2,25.6c-3.5-4.1-8.1-6.3-13.7-2.2
								c-0.3,0.2,0,0.7,0.3,0.6c4.6-1.1,8-0.4,11.3,3.3c2.3,2.6,3.9,5.9,5.6,8.9c0.6,1,2.4,0.4,2-0.7c0-0.1-0.1-0.2-0.1-0.3
								C173.1,229.9,161.3,209.8,145.7,208.7z"/>
						</g>
					</g>
				</g>
			</g>
			<path class="st3" d="M282.8,350.3c0-0.2-0.3-0.2-0.3,0c1.8,18.7,4.7,62-27,60.6c-12.8-0.5-24.6-7.5-34.6-14.3
				c-10.2-7-19.3-15.3-27.6-24.2c-9.2-9.9-12.3-14.5-19-21.5c-0.4-0.4-1.1,0.1-0.8,0.5c6.9,10.5,7.5,12.9,16.5,23.3
				c8.7,10,18.5,19.3,29.8,26.8c10.6,7,23.2,13.9,36.7,13.8c12.9,0,22-7.7,25.4-18.9C286.5,381.9,285.8,365,282.8,350.3z"/>
		</g>
	</g>
</g>
</svg>
