<?xml version="1.0" encoding="utf-8"?>
<!-- Generator: Adobe Illustrator 24.2.3, SVG Export Plug-In . SVG Version: 6.00 Build 0)  -->
<svg version="1.1" id="Capa_1" xmlns="http://www.w3.org/2000/svg" xmlns:xlink="http://www.w3.org/1999/xlink" x="0px" y="0px"
	 viewBox="0 0 457.5 465.5" style="enable-background:new 0 0 457.5 465.5;" xml:space="preserve">
<style type="text/css">
	.st0{fill:#F8E0D8;}
	.st1{clip-path:url(#SVGID_2_);}
	.st2{fill:#6584F3;}
	.st3{fill:#C36358;}
	.st4{fill:#3C3278;}
	.st5{fill:#D64C9E;}
	.st6{fill:#FAA2B6;}
	.st7{fill:#ED776A;}
	.st8{fill:#FFFFFF;}
</style>
<circle class="st0" cx="228.1" cy="230.6" r="219.9"/>
<g>
	<defs>
		<circle id="SVGID_1_" cx="228.1" cy="230.6" r="219.9"/>
	</defs>
	<clipPath id="SVGID_2_">
		<use xlink:href="#SVGID_1_"  style="overflow:visible;"/>
	</clipPath>
	<g class="st1">
		<g>
			<g>
				<g>
					<path class="st2" d="M517.5,731.8c-0.1-0.9-0.3-1.8-0.5-2.7c0.2,1.1,0.4,2.2,0.6,3.3C517.5,732.2,517.5,732,517.5,731.8z"/>
					<path class="st2" d="M369,758c0.5,0.3,1,0.6,1.6,0.8l0.2-0.4l0,0c-0.5-0.1-1.1-0.2-1.6-0.3C369.1,758.1,369.1,758.1,369,758z"
						/>
				</g>
			</g>
			<g>
				<g>
					<g>
						<g>
							<path class="st3" d="M156.8,342.9C63.6,447.8-49.2,664-23.9,705.4c28.2,46,162.6-103.3,158-110
								c-3.9-5.7,39.8-135.1,71.5-229.7C237.3,271.1,179.9,317,156.8,342.9z"/>
						</g>
						<g>
							<path class="st4" d="M156.8,342.9C63.6,447.8-49.2,664-23.9,705.4c28.2,46,162.6-103.3,158-110
								c-3.9-5.7,39.8-135.1,71.5-229.7C237.3,271.1,179.9,317,156.8,342.9z"/>
							<g>
								<path class="st0" d="M73.4,479.4c0.5,6.1-5,11.3-9.4,14.8c-4.4,3.5-10.1,6.4-15.6,4.7c5.3-9.4,10.8-18.7,16.5-27.9
									C69.2,471.2,73,474.5,73.4,479.4z"/>
								<path class="st0" d="M206.1,309c-4.4-0.9-9.7,2.1-13.2,6.2c-5.5,2.6-10.9,7-9.3,13c1.1,4.3,5.3,7,9.5,7
									c4.2,0.1,7.9-2.2,11-4.9c3.2-2.9,6.9-6.7,7.9-11.1C213,315,210.7,309.9,206.1,309z"/>
								<path class="st0" d="M125,391.4c-2.7,1.7-6,3.2-9.2,2.9c5.3-7.3,10.6-14.3,15.8-21C137.1,378.5,130,388.2,125,391.4z"/>
								<path class="st0" d="M173.3,382.7c-0.3-3.2-3.3-5.3-6.4-5c-0.1,0-0.2,0-0.3,0.1c-0.4-0.1-0.9-0.1-1.5,0.1
									c-4.8,1.3-11,4.8-12.1,10.1c-1.4,6.9,7,9.3,11.9,6.7C169.1,392.5,173.8,387.7,173.3,382.7z"/>
								<path class="st0" d="M101.5,432.1c-2.4-1.5-4.8-1.7-7.3-0.1c-0.7,0.4-1.4,1-2,1.7c-0.5,0.3-1,0.7-1.5,1.2
									c-1.9,1.9-2.3,4.4-1.6,7c0.4,1.5,2.3,2.6,3.8,2.4c4.2-0.6,8.1-3.4,9.6-7.5C103.1,435.2,103,433.1,101.5,432.1z"/>
								<path class="st0" d="M200.9,357.3c-0.3-2-1.6-3.6-3.6-4.1c-1.6-0.4-3,0.3-4.3,1.2c-0.8,0.5-1.4,1.2-2.1,1.8
									c-1.2,0.5-2.3,1.2-3,2.1c-1.3,1.7-1,4.5,1,5.5c1,1.2,2.8,1.7,4.3,1.1c0.3-0.1,0.6-0.3,0.8-0.4c0.8-0.1,1.5-0.3,2.3-0.6
									C198.9,362.9,201.3,360.3,200.9,357.3z"/>
							</g>
						</g>
					</g>
					<g>
						<path class="st4" d="M66.9,753.2l23.4-158.6c0,0-37.5-65.5-15.8-112.5c11-23.8,86.3-140.2,126.9-169.6
							c38.1-27.6,90.2-2.4,108,21.6c51,69.1,75.9,193.5,104.3,419.2H66.9z"/>
						<path class="st5" d="M135.2,385.5c-7.7,10.6-15.2,21.3-22.5,32.1c2-4.2,4-8.4,6-12.6c0.1-0.3-0.3-0.6-0.5-0.3
							c-2.7,5.3-5.3,10.6-7.7,16c-9.8,14.5-19.4,29.3-28.6,44.2c-3.9,6.3-7.5,12.8-10.1,19.8c-2.5,6.8-4.1,13.9-5,21
							c-0.8,7.2-0.9,14.4-0.3,21.6c0.6,7.4,1.5,14.8,3.1,22c1.9,8.2,4.4,16.3,7.8,24.1c1.6,3.8,3.4,7.6,5.2,11.2
							c1.7,3.4,5.2,10.2,5.1,10.5c-0.7,3.8-1.4,6.5-1.9,9.7c-0.5,3.3-1,6.5-1.5,9.8c-1,6.5-9.4,69.9-10.4,76.4
							c-1.9,12.9-3.5,25.9-5.1,38.8c-0.9,7.4-1.4,15-2.5,22.4c0,0.3,0.4,0.4,0.5,0.1c1.1-6.5,2.7-12.8,3.8-19.3
							c1.2-6.5,2.4-12.9,3.6-19.4c2.4-13,11.9-83,13.9-96.1c0.6-3.6,1.1-7.3,1.7-10.9c0.6-3.6,1.5-8.4,1.4-12.1
							c0,0-11.6-23.9-16.1-40.6c-1.9-7-3.8-14.3-4.6-21.6c-0.8-7.1-0.8-14.3-0.3-21.4c0.6-7.1,1.9-14.2,4.1-21
							c2.3-7,5.5-13.6,9.1-20c7.6-13.5,15.6-26.7,23.8-39.8c9.3-14.9,18.6-29.7,28.2-44.4C135.8,385.5,135.4,385.3,135.2,385.5z"/>
						<g>
							<path class="st0" d="M293.1,400.8c-1.1-2-3.3-3.2-5.6-3.2c-0.2,0-0.3,0-0.5,0c-0.2,0-0.3,0-0.5,0.1c-1-0.1-2,0-3,0.3
								c-5.4,1.5-10.6,8.4-11.1,14.4c-1.1,2.1-1.3,4.5,0.4,7.1c2.9,4.5,8.9,3.9,12.8,1.3C292.4,417.4,296.7,407.1,293.1,400.8z"/>
							<path class="st0" d="M326.1,360.2c-1.7-6.7-9.5-9.2-14.7-4.6c-3.5,3-6.9,8.2-8.2,13.1c-1.5,1.7-2.9,3.6-4,5.8
								c-1.7,3.5-0.3,7.5,3.5,8.7c6.5,2,12.4-2.2,16.6-6.9C323,372.2,327.6,366.1,326.1,360.2z"/>
							<path class="st0" d="M293.5,517.8c-1.7-6.7-9.5-9.2-14.7-4.6c-3.5,3-6.9,8.2-8.2,13.1c-1.5,1.7-2.9,3.6-4,5.8
								c-1.7,3.5-0.3,7.5,3.5,8.7c6.5,2,12.4-2.2,16.6-6.9C290.4,529.8,295,523.8,293.5,517.8z"/>
							<path class="st0" d="M330.9,402.4c-4.9-1.6-8.4,2.1-10.7,5.9c-0.5,0.8-1.2,1.8-1.8,2.8c-2.5,2-4.4,4.8-5.1,8
								c-0.9,4,2.2,7.4,6.1,7.7c3.9,0.4,7.5-1.9,10.2-4.4C334.4,418.1,340.5,405.5,330.9,402.4z"/>
							<path class="st0" d="M270,366.2c-3.3-1-6.7,0.3-9.1,2.6c-0.8,0.8-1.5,1.7-2.1,2.6c-3.1,2-5.8,4.4-5.5,8.9
								c0.2,3.7,3,6.5,6.7,6.7c3.7,0.2,7-2.2,9.8-4.5c2.7-2.2,5.6-5.1,5.8-8.8C275.8,370.3,273.4,367.2,270,366.2z"/>
							<path class="st0" d="M241.8,412c-2.5-1.6-5.7-1.3-8.1,0.3c-1.8,1.2-3.6,3.5-4.4,5.8c-2.2,2-3.5,4.7-2.6,8.1
								c0.8,2.9,3.3,5.5,6.4,5.6c2.9,0.1,5.4-1.5,7.3-3.7C243.8,424.3,247.5,415.7,241.8,412z"/>
							<path class="st0" d="M260.7,438.6c-2.6-1.1-5.2-0.8-7.6,0.1c-7.7-0.5-13.3,6.9-14.6,14.1c-0.6,3.5,0,7.6,3.2,9.6
								c4.1,2.5,8.8-0.4,12.2-2.7c3.8-2.5,7-6,8.6-10.3C264,445.8,264.9,440.4,260.7,438.6z"/>
							<path class="st0" d="M219.9,505.4c-0.9-3.1-4.1-4.7-7.1-3.9c-0.1,0-0.2,0.1-0.3,0.1c-0.5,0-0.9,0.1-1.5,0.3
								c-4.5,2.1-10,6.6-10.2,12c-0.3,7,8.4,8,12.9,4.6C217.3,515.8,221.2,510.3,219.9,505.4z"/>
							<path class="st0" d="M263.3,484.8c-4-2.6-8.8-0.7-11.6,2.6c-0.8,1-1.7,2.1-2.4,3.3c-4.3,3.3-7.7,7.8-9.1,13.2
								c-1.2,4.6,1.7,8.9,6.3,9.8c4.7,0.9,9.3-1.5,12.6-4.7C264.3,503.5,272.3,490.6,263.3,484.8z"/>
							<path class="st0" d="M297.5,448.5c-0.9-3.2-4-4.6-7.1-3.5c-2.7,1-5.8,3.7-7.6,6.8c-0.7,0.5-1.4,1.1-1.9,1.9
								c-1.3,2-1.5,4.7-0.2,6.8c3.5,5.7,12.3-0.1,15-3.8C297.4,454.4,298.3,451.3,297.5,448.5z"/>
							<path class="st0" d="M313.3,466.5c-2.6-1.1-5.1-0.9-7.2,1.1c-0.6,0.6-1.2,1.3-1.7,2c-0.5,0.4-0.9,0.9-1.3,1.4
								c-1.6,2.2-1.6,4.7-0.4,7.2c0.7,1.4,2.7,2.2,4.2,1.7c4.1-1.3,7.4-4.7,8.2-9C315.3,469.3,314.9,467.2,313.3,466.5z"/>
							<path class="st0" d="M180.8,462.8c-0.6-1.9-2.2-3.3-4.2-3.4c-1.6-0.1-3,0.8-4,1.9c-0.6,0.7-1.2,1.4-1.8,2.2
								c-1.1,0.7-2,1.5-2.6,2.6c-1,1.8-0.3,4.6,2,5.2c1.2,1,3,1.2,4.4,0.4c0.3-0.2,0.5-0.4,0.7-0.6c0.7-0.2,1.5-0.5,2.1-1
								C179.7,468.6,181.7,465.7,180.8,462.8z"/>
						</g>
						<g>
							<path class="st0" d="M212,319.3c-1,4.3-4.7,8.2-7.9,11.1c-3.1,2.7-6.8,5-11,4.9c-4.2-0.1-8.3-2.7-9.5-6.9
								c6.4-6.6,12.4-12.1,17.8-16c1.6-1.2,3.3-2.3,5-3.3C210.8,310.2,213,315.1,212,319.3z"/>
							<path class="st0" d="M173.3,382.7c-0.3-3.2-3.3-5.3-6.4-5c-0.1,0-0.2,0-0.3,0.1c-0.4-0.1-0.9-0.1-1.5,0.1
								c-4.8,1.3-11,4.8-12.1,10.1c-1.4,6.9,7,9.3,11.9,6.7C169.1,392.5,173.8,387.7,173.3,382.7z"/>
							<path class="st0" d="M102.9,434.8c0,0.7-0.1,1.3-0.3,1.9c-0.9,2.4-2.5,4.3-4.6,5.6C99.5,439.9,101.2,437.4,102.9,434.8z"/>
							<path class="st0" d="M200.9,357.3c-0.3-2-1.6-3.6-3.6-4.1c-1.6-0.4-3,0.3-4.3,1.2c-0.8,0.5-1.4,1.2-2.1,1.8
								c-1.2,0.5-2.3,1.2-3,2.1c-1.3,1.7-1,4.5,1,5.5c1,1.2,2.8,1.7,4.3,1.1c0.3-0.1,0.6-0.3,0.8-0.4c0.8-0.1,1.5-0.3,2.3-0.6
								C198.9,362.9,201.3,360.3,200.9,357.3z"/>
						</g>
					</g>
					<g>
						<g>
							<path class="st3" d="M-23.9,705.4c23.8,30.5,84.4,33.4,236.3,55.1c21,3,82-139.7,59.8-144c-28.1-5.5-138.2-20.7-146.4-20.8
								C56.7,594.9-40.1,684.6-23.9,705.4z"/>
							<g>
								<path class="st3" d="M241.7,611.1c0,0,64.2,6.3,96.9,20.1c43.8,18.4,74,52.4,85.8,67.3c24.6,31.3,62.6,124,37.8,139.6
									c-22.4,14.1-56.5-82.6-56.5-82.6s51,92.9,20.8,104.9c-30.1,12-63.3-102.5-63.3-102.5s50.2,96.6,17.2,104.1
									c-25,5.7-60.8-96.3-60.8-96.3s42.6,83.3,17.2,90.2c-28.1,7.7-67.1-84.4-67.1-84.4c-67.6,6.7-102.5-17.7-125.3-38.1
									C139,728.4,241.7,611.1,241.7,611.1z"/>
								<g>
									<path class="st4" d="M390.2,722.2c6.4,10.7,12.9,21.5,18.3,32.7c5.4,11.2,10.4,22.6,14.8,34.3c10.6,28.6,12.8,48.2,12.6,47
										c-6.3-28.3-25.1-68.8-30.5-80c-5.4-11.2-10.2-22.7-15.6-33.9C389.7,722.1,390.1,722,390.2,722.2z"/>
									<path class="st4" d="M349.4,741c7.6,14,15.6,27.6,22.5,42c6.9,14.3,12.2,28.4,18.1,43.1c0.5,1.1-0.3,1-0.8-0.1
										c-6.5-14.5-13.6-27.3-20.3-41.7c-6.6-14.3-12.8-29-19.9-43.1C348.9,741,349.3,740.8,349.4,741z"/>
									<path class="st4" d="M311.4,750.9c12.6,20.8,21.4,43.9,29.5,66.8c0.4,1.1-0.6,0.9-1-0.3c-9.4-22.4-16.6-40-29.2-66.1
										C310.5,750.9,311.1,750.4,311.4,750.9z"/>
								</g>
							</g>
						</g>
						<g>
							<path class="st4" d="M290.2,612.2L165.2,759.4c0,0-170.8-11.9-190.5-56.9c-19.7-45,110.4-110.6,150.9-107.1
								C166.1,598.9,290.2,612.2,290.2,612.2z"/>
							<path class="st4" d="M59.8,614.9c9.8-6.7,37.7-22.6,65.8-19.5c0.3,0,0.3,0.5,0,0.5c-23,0.7-55.5,13.7-65.6,19.4
								C59.7,615.5,59.5,615.1,59.8,614.9z"/>
							<path class="st5" d="M138.7,733.9c49.1-52.1,92.9-114.2,101.3-124.5c0.4-0.5-0.4-1.1-0.8-0.6
								c-7.7,10.5-65.4,76.2-101.4,124.5C137.4,733.9,138.2,734.4,138.7,733.9z"/>
						</g>
					</g>
					<g>
						<g>
							<path class="st3" d="M334.4,366.9C434.9,494.7,472.8,724.3,417,742.2c-50.9,16.4-260.5-36.1-322.9-57.3
								c-18.3-6.2,38.3-148.7,57.9-142.1c23.7,8,153.3,38.7,155.8,38.8c5.4,0.1-23.4-141.2-35.8-205.3
								C254.9,287,296.7,318.9,334.4,366.9z"/>
							<g>
								<path class="st3" d="M-15.4,489.3c-10.6,12-2,26.3-2,26.3s-12.4,3.3-18.7,13.9c-7.2,12.1,8.6,28.7,8.6,28.7
									s-11.8,5.9-17.4,17.8c-5.7,12.3,7.8,31.3,7.8,31.3s-8,11.6-5.4,25.2c4.4,23.4,38.1,36.6,59.5,45.3
									c21.4,8.6,90.1,13.1,103.2,15.3l56.7-136.8c0,0-84.9-66-111.5-72.6C43,478.1-3.5,475.7-15.4,489.3z"/>
								<g>
									<path class="st4" d="M-15.6,513.7c25.2,0.2,49,7.8,73.2,14.1c0.5,0.1,0.3,1-0.2,0.8c-24-6.5-49-8.2-73.1-13.8
										C-16.4,514.7-16.3,513.7-15.6,513.7z"/>
									<path class="st4" d="M-26.4,556.5c5.7,0.2,11.3,2.3,16.7,4c5.8,1.8,11.6,3.8,17.4,5.8c11.5,4,22.9,8.3,34.2,13
										c0.5,0.2,0.3,1-0.2,0.8c-11.5-4-23-7.8-34.7-11.3c-5.8-1.8-11.7-3.5-17.5-5.1c-5.4-1.6-11.3-2.7-16.3-5.5
										C-27.5,557.7-27.2,556.5-26.4,556.5z"/>
									<path class="st4" d="M-36.6,607.4c5,0,10.3,2.7,14.9,4.4c5.2,1.9,10.4,3.9,15.7,5.8c10.5,3.8,20.9,7.5,31.5,11
										c0.5,0.2,0.3,1-0.2,0.8c-10.8-3.4-21.6-6.7-32.3-10.2c-5.3-1.7-10.5-3.5-15.8-5.2c-4.5-1.5-10.2-2.9-13.9-6
										C-37,607.7-36.8,607.4-36.6,607.4z"/>
								</g>
							</g>
						</g>
						<g>
							<path class="st4" d="M306,575.8c1.6-1-28.5-137.4-38.6-208.6c-10.1-71.2,21.7-64.4,67.5-3.5c49,65.2,136.3,241.7,106,372.4
								c-9.8,42.3-313-17-313-17l40.9-174.3C168.8,544.8,303.5,577.3,306,575.8z"/>
							<g>
								<path class="st0" d="M285.6,420.7c-2.6,1.7-6.1,2.6-9,1.6c-0.9-5.2-1.8-10.2-2.7-15.2c2-4.3,5.8-8.1,9.6-9.2
									c1-0.3,2-0.4,3-0.3c0.1,0,0.3,0,0.5,0h0.5c2.3,0,4.5,1.2,5.6,3.2C296.7,407.1,292.4,417.4,285.6,420.7z"/>
								<path class="st0" d="M326.1,360.2c-1.7-6.7-9.5-9.2-14.7-4.6c-3.5,3-6.9,8.2-8.2,13.1c-1.5,1.7-2.9,3.6-4,5.8
									c-1.7,3.5-0.3,7.5,3.5,8.7c6.5,2,12.4-2.2,16.6-6.9C323,372.2,327.6,366.1,326.1,360.2z"/>
								<path class="st0" d="M330.9,402.4c-4.9-1.6-8.4,2.1-10.7,5.9c-0.5,0.8-1.2,1.8-1.8,2.8c-2.5,2-4.4,4.8-5.1,8
									c-0.9,4,2.2,7.4,6.1,7.7c3.9,0.4,7.5-1.9,10.2-4.4C334.4,418.1,340.5,405.5,330.9,402.4z"/>
								<path class="st0" d="M275.6,373.8c-0.2,3.7-3.1,6.6-5.8,8.8c0,0,0,0-0.1,0.1c-0.9-5.4-1.7-10.6-2.3-15.5
									c-0.1-0.4-0.1-0.9-0.2-1.2c0.9-0.1,1.8,0,2.8,0.3C273.4,367.2,275.8,370.3,275.6,373.8z"/>
								<path class="st0" d="M369.8,418.8c-0.1,0.1-0.1,0.1-0.2,0.1c-4.4,3.4-13.1,2.5-12.9-4.6c0.1-3.6,2.6-6.7,5.4-9
									C364.7,409.7,367.2,414.2,369.8,418.8z"/>
								<path class="st0" d="M295.7,456.7c-2,2.8-7.4,6.6-11.5,6.1c-0.7-3.5-1.4-7-2-10.5c0.2-0.2,0.4-0.4,0.6-0.5
									c1.8-3.1,4.8-5.7,7.6-6.8c3.1-1.1,6.2,0.3,7.1,3.5C298.3,451.3,297.4,454.4,295.7,456.7z"/>
								<path class="st0" d="M313.3,466.5c-2.6-1.1-5.1-0.9-7.2,1.1c-0.6,0.6-1.2,1.3-1.7,2c-0.5,0.4-0.9,0.9-1.3,1.4
									c-1.6,2.2-1.6,4.7-0.4,7.2c0.7,1.4,2.7,2.2,4.2,1.7c4.1-1.3,7.4-4.7,8.2-9C315.3,469.3,314.9,467.2,313.3,466.5z"/>
								<path class="st0" d="M334.3,362.9c-0.1-0.1-0.3-0.2-0.4-0.4c-0.1-0.1-0.2-0.3-0.3-0.5C333.8,362.3,334.1,362.6,334.3,362.9z
									"/>
							</g>
							<g>
								<path class="st5" d="M167.6,701.2c18.4-60.7,28.6-127.2,31.2-138.7c0.1-0.5-0.8-0.7-0.9-0.1c-2,11.4-21.8,86.2-31.3,138.7
									C166.6,701.6,167.4,701.8,167.6,701.2z"/>
								<path class="st5" d="M363,595.9c-5.8-1-160.6-44.6-194.5-49.8c-0.5-0.1-0.1-1.9,0.5-1.8c104,18.3,189.5,46.2,196,48.8
									C372.8,596.2,373.9,597.8,363,595.9z"/>
								<path class="st5" d="M304.5,577.2c0.1-0.3-19.2-89.9-21.1-93.1c-1.9-3.4-5.9-10.9-7.6-14.4c-3.3-7.1-6.3-14.3-9.3-21.4
									c-0.3-0.6,0.6-1,0.9-0.5c3.3,6.9,7.3,13.5,11.2,20.1c2,3.2,3.9,6.5,5.9,9.7c0.2,0.2-9.5-51-10.9-60.1
									c-0.1-0.7,0.6-0.9,0.8-0.3c2.9,9.1,32.2,149.1,35,160.4C309.5,577.6,307.5,577.6,304.5,577.2z"/>
								<path class="st5" d="M190.4,729.9c-10.1-2.8-50.6-9.3-60.5-10.8c1-3.6,3.8-18.1,3.6-22.2c0-0.4-0.6-0.6-0.8-0.3
									c-2.3,3.4-6.2,21.2-7.4,25.4c-0.2,0.8,54.6,7.7,65.1,8.2C190.6,730.4,190.7,730,190.4,729.9z"/>
							</g>
						</g>
					</g>
				</g>
				<path class="st3" d="M205,310.1c-10.5,8-68.3,102.8-63.5,109.9c4.7,7.1,88.4,15.4,94.9,10.6c6.5-4.7,36-116.7,36-116.7
					L205,310.1z"/>
				<g>
					<g>
						<g>
							<path class="st3" d="M272.2,313.9c-1.8,6-33.2,44-61,41.1c-9.1-1-6-50.7-6-50.7l-0.6-3.7l-8.6-52.1l62.6-35.3l9-4.6
								c0,0,1.4,14.4,3,32.3c0.1,0.8,0.2,1.7,0.2,2.6c0.1,1,0.2,2,0.3,2.9c0.3,2.7,0.5,5.4,0.7,8.1c0.2,2.1,0.3,4.1,0.4,6.3
								c0.2,2.2,0.3,4.3,0.4,6.5C273.7,289,273,311.3,272.2,313.9z"/>
							<path class="st4" d="M270.6,240.9c-17.1,40.1-50.7,54.9-66,59.7l-8.6-52.1l62.6-35.3l9-4.6
								C267.7,208.6,269.1,223,270.6,240.9z"/>
							<path class="st6" d="M205.2,304.3c0,0,35.9,5.8,68-11.8c0,0,2.5,9.9-0.4,14.7c0,0-33.7,19.2-67.6,7.2
								C205.2,314.4,202.6,309.1,205.2,304.3z"/>
						</g>
						<g>
							<path class="st3" d="M127,175.9c-6.2,92.4,48.5,106.5,68.4,107.9c18.1,1.2,79.8,2.9,95.5-88.3
								c15.7-91.3-25.3-123.4-66.5-128.3C183.1,62.2,133.1,83.5,127,175.9z"/>
							<g>
								<path class="st6" d="M154,162c2.1,0.6,4.1,0.8,6.3,1.2c2.4,0.4,4.3,1,6.6,0c1.3-0.5,2-2.4,1.6-3.7c-1-3-3.8-4.2-6.7-4.9
									c-3.1-0.7-5.7-0.4-8.6,1C150.5,157,151.3,161.2,154,162z"/>
								<path class="st6" d="M219.2,160.3c-2.2-0.3-4.1-0.9-6.2-1.4c-2.4-0.6-4.3-0.8-6.1-2.7c-0.9-1-0.8-3,0.1-4
									c2.1-2.3,5.2-2.3,8.1-1.8c3.1,0.6,5.4,1.9,7.4,4.4C224.5,157.2,222.1,160.7,219.2,160.3z"/>
								<g>
									<g>
										<path class="st4" d="M204.9,180.6c0.1-0.2,0.5,0.3,0.5,0.6c-0.5,6.3,0,13.6,5.7,15.9c0.2,0.1,0.1,0.4-0.1,0.4
											C204,196.1,203.4,186.5,204.9,180.6z"/>
										<path class="st4" d="M210.8,174.2c10.2-0.3,10.1,20,0.7,20.3C202.2,194.9,202.3,174.5,210.8,174.2z"/>
									</g>
									<path class="st4" d="M214.8,175.3c1.8,1.2,3.5,3.2,5.6,3.4c2.5,0.3,4.4-1.9,6-3.9c0.2-0.2,0.3,0,0.3,0.2
										c0,3.9-1.5,7.9-5.7,8.5c-3.8,0.5-6.5-2.9-7.5-6.9C213.4,175.9,214.1,174.9,214.8,175.3z"/>
								</g>
								<g>
									<g>
										<path class="st4" d="M166.4,175.9c0-0.2-0.5,0.3-0.5,0.6c0.1,6.3-0.8,13.6-6.5,15.6c-0.2,0.1-0.2,0.4,0,0.4
											C166.4,191.5,167.5,181.9,166.4,175.9z"/>
										<path class="st4" d="M160.9,169.3c-10.1-0.9-11.2,19.4-1.8,20.3C168.3,190.3,169.4,170,160.9,169.3z"/>
									</g>
									<path class="st4" d="M156.6,170.4c-1.7,1-3.4,2.9-5.3,2.9c-2.2,0-3.8-2.3-5.1-4.4c-0.1-0.2-0.3-0.1-0.3,0.2
										c-0.3,3.9,0.8,8,4.5,8.9c3.4,0.9,6-2.3,7.2-6.2C157.7,171.1,157.2,170,156.6,170.4z"/>
								</g>
								<path class="st4" d="M198.7,229.5c-1.4,1.5-2.9,3.6-5.1,3.9c-2.2,0.3-4.8-0.6-6.8-1.3c-0.2-0.1-0.4,0.2-0.3,0.3
									c1.7,2.4,5.2,3.7,8.1,3.1c2.8-0.6,4.1-3.1,4.7-5.8C199.4,229.4,198.9,229.3,198.7,229.5z"/>
								<g>
									<path class="st4" d="M172.7,206.3c0,0-1.4,9.4-1.5,13.8c0,0.4,1.1,0.6,2.6,0.7c0.1,0,0.1,0.1,0.2,0
										c7.8,1.3,15.8-1.2,20.6-7.6c0.3-0.4-0.2-0.9-0.7-0.6c-5.9,4.2-12.4,5.2-19.4,5.2c-0.3-1.2,3-16,2.3-16.1
										c-2.4-0.2-7.2,1.3-10.1,2.1c2.5-19.7,8-38.8,10.2-58.4c0.1-0.7-0.9-0.9-1.2-0.3c-7.3,19.6-10.6,42.2-13.6,62.4
										C161.7,210.2,170.9,207,172.7,206.3z"/>
								</g>
								<g>
									<path class="st4" d="M175.1,219.2c0,0,3.9,6,9.5,8.4c2.1,0.9,4.4,1.3,6.8,0.8c5-1,5.4-5.5,4.8-9.5
										c-0.5-3.2-1.8-6.1-1.8-6.1S186.7,219.2,175.1,219.2z"/>
									<path class="st6" d="M184.7,227.5c2.1,0.9,4.4,1.3,6.8,0.8c5-1,5.4-5.5,4.8-9.5C190.9,219.2,185.4,222.4,184.7,227.5z"/>
								</g>
							</g>
							<path class="st6" d="M281.6,205.8c4.6-5.7,34.8-35.4,36.8-51c1.2-9.1-13.2-34.3-13.2-34.3l12.9-8.2l-11.7,2.8l18-28.3
								l-21.8,18.4c0,0-3.2-23.4-5.1-29.1c-1.9-5.7-38.8-37.1-38.8-37.1l10.8,20.1c0,0-68.1-29.9-76.8-29.4
								C171,31,123.3,64.4,123.3,64.4l50.9-6.7c0,0-49.2,18.9-59.4,27.6c-10.1,8.7-17,52.5-17,52.5l45.1-28.6l-16.6,24.5
								c0,0,38.7,6.9,50.1,6.7c24-0.2,79.6-18.7,79.6-18.7s-1.9,21-1.1,27.6c1.3,11.4,11.8,35.6,11.8,35.6l6.3-19L281.6,205.8z"/>
							<g>
								<g>
									<path class="st3" d="M272.5,199.6c0,0,19.6-29.3,32.9-22.4c13.3,6.9-1.1,49.1-16.4,55.2c-15.3,6-21.1-8-21.1-8L272.5,199.6
										z"/>
									<path class="st4" d="M301,189.3c0.2,0,0.3,0.3,0.1,0.4c-10.7,4.6-16.2,14.7-20,25.2c3.1-4.1,7.5-6.3,12.9-2.6
										c0.3,0.2,0,0.6-0.3,0.6c-4.4-0.9-7.6,0-10.5,3.6c-2.1,2.5-3.4,5.7-4.9,8.7c-0.5,1-2.2,0.5-1.9-0.6c0-0.1,0.1-0.2,0.1-0.3
										C276,210.4,286.3,190.9,301,189.3z"/>
								</g>
							</g>
						</g>
					</g>
				</g>
			</g>
			<g>
				<g>
					<path class="st7" d="M369.2,758.1c0.5,0.1,1,0.3,1.6,0.4l0,0C370.3,758.3,369.7,758.2,369.2,758.1z"/>
					<g>
						<path class="st2" d="M517,729.1c0.2,1.1,0.4,2.2,0.6,3.3c0-0.2,0-0.4-0.1-0.6C517.3,730.9,517.2,730,517,729.1z"/>
						<path class="st2" d="M517,729.1c0.2,1.1,0.4,2.2,0.6,3.3c0-0.2,0-0.4-0.1-0.6C517.3,730.9,517.2,730,517,729.1z"/>
						<path class="st2" d="M362.2,774.2L362.2,774.2c1.6,0.4,3.2,0.8,4.8,1.2C365.4,775,363.8,774.6,362.2,774.2z"/>
					</g>
				</g>
			</g>
			<path class="st8" d="M517,729.1c0.2,1.1,0.4,2.2,0.6,3.3c0-0.2,0-0.4-0.1-0.6C517.3,730.9,517.2,730,517,729.1z"/>
		</g>
	</g>
</g>
</svg>
