<?xml version="1.0" encoding="utf-8"?>
<!-- Generator: Adobe Illustrator 24.2.3, SVG Export Plug-In . SVG Version: 6.00 Build 0)  -->
<svg version="1.1" id="Capa_1" xmlns="http://www.w3.org/2000/svg" xmlns:xlink="http://www.w3.org/1999/xlink" x="0px" y="0px"
	 viewBox="0 0 437 162" style="enable-background:new 0 0 437 162;" xml:space="preserve">
<style type="text/css">
	.st0{fill:#FFFFFF;}
</style>
<g id="eYOICW.tif">
	<g>
		<path class="st0" d="M60.5,30.2c5.3,5.4,10.7,10.7,16,16.1c4.5,4.5,9,9.1,13.6,13.6c0.8,0.8,0.8,1.2,0,2c-3.1,3-6.2,6.1-9.3,9.3
			c-0.9,0.9-1.4,0.9-2.3,0c-5.7-5.8-11.5-11.5-17.2-17.2c-0.8-0.8-1.3-0.8-2.1,0c-5.7,5.8-11.5,11.5-17.2,17.2
			c-0.9,0.9-1.3,0.8-2.2,0c-3-3.1-6.1-6.1-9.2-9.2c-1.1-1.1-1.1-1.1,0-2.3c9.4-9.4,18.8-18.8,28.1-28.1c0.4-0.4,0.8-0.8,1.2-1.3
			C60.3,30.2,60.4,30.2,60.5,30.2z"/>
		<path class="st0" d="M424.5,79.7c-0.6,0.3-1.2,0.2-1.8,0.2c-10,0-20,0-29.9,0c-1.8,0-1.9-0.1-1.9-1.9c0-13.5,0-26.9,0-40.4
			c0-1.8,0.1-1.8,1.8-1.8c9.9,0,19.8,0,29.7,0c1.7,0,1.7,0,1.7,1.8c0,1.7,0,3.5,0,5.2c0,1.7,0,1.8-1.7,1.8c-6.7,0-13.3,0-20,0
			c-1.8,0-1.8,0-1.8,1.8c0,1.8,0,3.7,0,5.5c0,1.1,0.4,1.4,1.4,1.4c5.8,0,11.6,0,17.3,0c1.9,0,1.9,0,1.9,1.9c0,1.8-0.1,3.6,0,5.4
			c0,1.2-0.4,1.5-1.5,1.5c-5.9,0-11.7,0-17.6,0c-1.3,0-1.7,0.4-1.6,1.6c0.1,2,0.1,4,0,6c0,1.2,0.4,1.6,1.6,1.6c6.8,0,13.6,0,20.4,0
			c0.6,0,1.2,0,1.9,0.1C424.5,74.1,424.5,76.9,424.5,79.7z"/>
		<path class="st0" d="M123.1,117.9c1-0.7,1.6-1.8,2.4-2.7c0.5-0.5,0.9-0.6,1.4-0.1c2.2,1.8,4.7,3,7.6,3.1c1.5,0.1,3.1,0,4.4-0.9
			c2-1.4,2-4.1-0.1-5.4c-1.8-1.1-4-1.4-6-2c-1.5-0.4-3-0.9-4.5-1.6c-5.7-2.5-5.3-10.7-0.8-13.6c2.9-1.9,6.1-2.1,9.3-1.7
			c2.6,0.3,5,1.3,7.1,2.9c0.6,0.5,0.8,0.9,0.3,1.5c-0.7,0.9-1.2,2.2-2.1,2.7c-1,0.5-1.9-0.9-2.9-1.3c-2.2-0.9-4.4-1.6-6.8-1.1
			c-1.7,0.4-2.8,1.4-2.9,2.8c-0.2,1.8,0.4,2.8,2.2,3.6c1.9,0.8,3.9,1.2,5.8,1.7c1.2,0.4,2.4,0.8,3.6,1.4c3,1.4,4.6,3.7,4.5,7
			c0,3.3-1.5,6-4.6,7.4c-4.3,2-8.7,1.6-13.1-0.1c-1.9-0.7-3.5-1.9-5.1-3.2C123.1,118.2,123.1,118.1,123.1,117.9z"/>
		<path class="st0" d="M302.5,123.1c-2.3-0.5-4.6-1-6.7-2.3c-5.3-3.3-8-9.9-6.5-16.5c1.4-6.2,6.4-10.7,12.6-11.5
			c4.7-0.6,9,0.5,12.7,3.6c0.7,0.6,0.9,1.1,0.2,1.8c-0.6,0.6-1.2,1.3-1.7,2c-0.6,0.8-1.2,0.8-1.9,0.2c-2-1.7-4.3-2.8-7-2.7
			c-5,0-9,3.6-9.5,8.6c-0.3,3.3,0.2,6.4,2.6,8.9c3.1,3.3,7.9,4,11.9,1.7c0.9-0.5,1.8-1.2,2.6-1.9c0.6-0.5,1-0.4,1.4,0.1
			c0.4,0.4,0.8,0.8,1.2,1.2c1.5,1.5,1.5,1.5-0.2,3c-2.4,2-5.1,3.3-8.2,3.6c-0.2,0-0.5,0.1-0.7,0.2
			C304.3,123.1,303.4,123.1,302.5,123.1z"/>
		<path class="st0" d="M154.4,56.9c1.7,0.8,3.2,1.6,4.6,2.7c4.7,3.7,5.1,14.3-2.5,18.1c-2.4,1.2-4.9,1.9-7.5,2.1
			c-7.6,0.5-15.2,0.2-22.8,0.3c-1.3,0-1.3-0.8-1.3-1.7c0-10.3,0-20.7,0-31c0-3.2,0-6.5,0-9.7c0-1.5,0.1-1.6,1.6-1.6
			c6.2,0,12.4-0.1,18.6,0c3.2,0,6.2,0.6,9.2,2c6.9,3.4,7.6,13.7,1.4,18.1C155.3,56.2,154.9,56.5,154.4,56.9z M141.4,71.2
			c1.3,0,2.7,0,4,0c1.7,0,3.3-0.1,4.9-0.8c1.5-0.7,2.2-1.8,2.3-3.4c0.1-2.8-1.1-4.4-4.1-4.9c-4.3-0.7-8.7-0.2-13-0.3
			c-0.7,0-0.8,0.5-0.8,1.1c0,2.4,0,4.7,0,7.1c0,0.9,0.4,1.2,1.3,1.2C137.7,71.2,139.6,71.2,141.4,71.2z M140.9,44.6
			c-1.9,0-3.4,0-5,0c-1,0-1.4,0.4-1.4,1.4c0,2.1,0,4.1,0,6.2c0,1,0.4,1.4,1.4,1.4c2.4,0,4.7,0,7.1,0c1.2,0,2.5,0,3.7-0.4
			c2.3-0.7,3.4-2,3.3-4.3c0-2.2-1.1-3.5-3.5-4.1C144.6,44.3,142.5,44.7,140.9,44.6z"/>
		<path class="st0" d="M204.9,52.8c0,1.4,0,2.8,0,4.2c0,7.1,0,14.1,0,21.2c0,1.7-0.1,1.8-1.8,1.8c-2.2,0-4.4,0-6.6,0
			c-1,0-1.4-0.4-1.4-1.4c0-13.8,0-27.5,0-41.3c0-1.1,0.4-1.5,1.5-1.5c2,0,4.1,0,6.1,0c1,0,1.7,0.3,2.3,1.1
			c6.1,8.1,12.3,16.2,18.4,24.2c0.3,0.4,0.5,0.8,1,1c0.3-0.4,0.2-1,0.2-1.4c0-7.7,0-15.5,0-23.2c0-1.7,0-1.8,1.7-1.8
			c2,0,4.1,0,6.1,0c1.9,0,1.9,0.1,1.9,1.9c0,12.1,0,24.1,0,36.2c0,1.6,0,3.2,0,4.7c0,0.9-0.3,1.4-1.3,1.4c-2,0-4,0-6,0
			c-0.9,0-1.4-0.5-1.9-1.2c-5-6.6-10-13.1-14.9-19.7c-1.7-2.2-3.3-4.3-5-6.5C205.1,52.7,205,52.7,204.9,52.8z"/>
		<path class="st0" d="M304.2,52.6c0,0.6,0,1.1,0,1.5c0,8,0,16,0,24.1c0,1.7-0.1,1.8-1.8,1.8c-2.2,0-4.3,0-6.5,0
			c-1,0-1.5-0.3-1.5-1.4c0-13.8,0-27.6,0-41.4c0-1,0.3-1.3,1.3-1.3c2.2,0,4.4,0,6.6,0c0.8,0,1.3,0.3,1.8,0.9c6,7.9,12,15.8,18,23.6
			c0.5,0.6,1,1.2,1.5,1.9c0.4-0.5,0.3-1,0.3-1.5c0-7.7,0-15.4,0-23.1c0-1.9,0-1.9,2-1.9c2,0,3.9,0,5.9,0c1.9,0,1.9,0,1.9,2
			c0,9.5,0,19,0,28.4c0,3.9,0,7.9,0,11.8c0,1.8-0.1,1.9-1.9,1.9c-1.7,0-3.4,0-5.1,0c-0.9,0-1.6-0.3-2.1-1.1
			c-6.4-8.4-12.8-16.9-19.3-25.3C305,53.3,304.8,52.9,304.2,52.6z"/>
		<path class="st0" d="M41,88.2c0.6,0.1,0.8,0.5,1.1,0.8c5.7,5.7,11.4,11.4,17.1,17.1c1.3,1.3,1.3,1.3,2.5,0
			c5.6-5.6,11.3-11.3,16.9-16.9c0.8-0.8,1.3-0.9,2.2,0c3.1,3.2,6.2,6.3,9.3,9.3c0.8,0.8,0.7,1.3,0,2c-9.6,9.5-19.1,19.1-28.6,28.7
			c-0.8,0.8-1.2,0.8-2,0c-9.6-9.6-19.2-19.2-28.8-28.8c-0.7-0.7-0.7-1.1,0-1.8c3.2-3.2,6.4-6.4,9.6-9.6C40.5,88.7,40.8,88.4,41,88.2
			z"/>
		<path class="st0" d="M264.2,70c-2.6,0-5.2,0-7.7,0c-1,0-1.5,0.3-1.9,1.2c-1,2.5-2.1,5-3,7.5c-0.4,0.9-0.9,1.3-1.9,1.2
			c-2.3,0-4.6,0-6.9,0c-1.6,0-1.7-0.1-1.1-1.6c3.4-8,6.8-15.9,10.1-23.9c2.5-5.8,5-11.7,7.4-17.6c0.4-1,1-1.5,2.1-1.4
			c2,0.1,4.1,0.1,6.1,0c1,0,1.5,0.3,1.9,1.2c4.5,10.7,9.1,21.4,13.6,32.1c1.3,3.1,2.7,6.3,4,9.4c0.6,1.5,0.6,1.7-1,1.7
			c-2.4,0-4.8,0-7.2,0c-0.9,0-1.4-0.3-1.8-1.2c-1-2.6-2.1-5.1-3.1-7.6c-0.3-0.9-0.9-1.2-1.8-1.2C269.5,70.1,266.8,70,264.2,70z
			 M264.3,47.5c-0.4,1-0.7,1.7-1,2.4c-1.4,3.4-2.7,6.8-4.2,10.1c-0.4,1-0.2,1.2,0.8,1.2c2.8,0,5.6,0,8.5,0c1.3,0,1.4-0.1,1-1.3
			c-0.5-1.2-0.9-2.3-1.4-3.5C266.8,53.6,265.6,50.7,264.3,47.5z"/>
		<path class="st0" d="M366,71.5c3.9,0.1,7.2-1.6,10.1-4.2c0.8-0.7,1.3-0.7,2,0.1c1.4,1.5,2.9,3,4.4,4.4c0.7,0.6,0.7,1.1,0.1,1.8
			c-4.2,4.3-9.3,6.7-15.4,7c-5.5,0.3-10.6-0.8-15.1-4c-5.7-4.1-8.8-9.8-9.3-16.8c-0.5-7.4,1.8-13.7,7.2-18.7c3.5-3.2,7.6-5,12.3-5.6
			c4.7-0.6,9.3-0.1,13.7,1.7c2.3,1,4.4,2.4,6.2,4.1c0.5,0.5,0.7,0.9,0.1,1.6c-1.7,1.9-3.3,3.8-5,5.8c-0.5,0.6-0.9,0.3-1.4-0.1
			c-1.4-1.2-2.8-2.2-4.5-3c-8.2-3.9-17.5,1.3-18.4,10.3c-0.3,3,0,5.8,1.3,8.5C356.7,69,360.6,71.5,366,71.5z"/>
		<path class="st0" d="M175.2,102.2c-0.6,0.3-0.8,0.8-1,1.1c-2.4,3.5-4.7,7-7.1,10.6c-1.1,1.7-1.1,1.7-2.2,0
			c-2.4-3.6-4.8-7.1-7.1-10.7c-0.2-0.3-0.5-0.6-0.7-1c-0.3,0.6-0.2,1-0.2,1.5c0,5.8,0,11.6,0,17.3c0,1.2-0.3,1.7-1.6,1.6
			c-0.7-0.1-1.3,0-2,0c-1.6,0-1.7-0.1-1.7-1.8c0-3.7,0-7.5,0-11.2c0-4.9,0-9.8,0-14.7c0-1.6,0.1-1.7,1.7-1.7c4,0,4,0,6.1,3.3
			c2,3.1,4,6.2,6,9.3c0.7,1.1,0.8,1,1.5-0.1c2.4-3.8,4.9-7.6,7.3-11.5c0.5-0.8,1.1-1.2,2.1-1.2c1.1,0.1,2.2,0,3.2,0c0.7,0,1,0.3,1,1
			c0,0.4,0,0.8,0,1.2c0,8.5,0,17,0,25.4c0,1.7,0,1.7-1.7,1.8c-0.7,0-1.4,0-2.1,0c-1.1,0.1-1.5-0.4-1.4-1.4c0-5.8,0-11.6,0-17.5
			C175.2,103.3,175.2,102.8,175.2,102.2z"/>
		<path class="st0" d="M182.5,57.9c0,6.8,0,13.6,0,20.4c0,1.2-0.4,1.7-1.6,1.7c-2.2-0.1-4.5-0.1-6.7,0c-1.1,0-1.5-0.4-1.5-1.5
			c0-13.8,0-27.5,0-41.3c0-1.1,0.4-1.5,1.5-1.4c2.3,0.1,4.6,0.1,6.9,0c1.1,0,1.5,0.4,1.5,1.5C182.5,44.2,182.5,51,182.5,57.9z"/>
		<path class="st0" d="M419,112.6c0-4.9,0-9.8,0-14.7c0-1.2,0-2.4,0-3.6c0-0.8,0.3-1.2,1.1-1.1c1,0,1.9,0,2.9,0c1,0,1.3,0.4,1.3,1.3
			c0,3.6,0,7.2,0,10.8c0,5.2,0,10.5,0,15.7c0,1.2-0.4,1.5-1.6,1.6c-2,0.2-3.3-0.6-4.5-2.2c-4.4-5.9-9-11.7-13.5-17.5
			c-0.2-0.2-0.3-0.6-0.7-0.7c-0.3,0.4-0.1,0.9-0.1,1.3c0,5.7,0,11.5,0,17.2c0,1.7,0,1.8-1.7,1.8c-4,0-3.4,0.5-3.4-3.3
			c0-8.1,0-16.2,0-24.3c0-1.7,0-1.6,1.7-1.8c2.2-0.2,3.6,0.5,4.9,2.3c4.1,5.6,8.4,10.9,12.6,16.4c0.2,0.3,0.5,0.6,0.8,0.9
			C418.8,112.7,418.9,112.7,419,112.6z"/>
		<path class="st0" d="M220.6,107.8c0-4.4,0-8.7,0-13.1c0-1.1,0.3-1.6,1.5-1.5c4.7,0.2,9.5-0.3,14.2,0.3c6.6,0.8,10.1,7,7.6,13.1
			c-0.9,2.2-2.7,3.7-4.9,4.5c-1,0.4-1,0.8-0.4,1.6c2.1,2.9,4.2,5.8,6.2,8.7c0.2,0.3,0.7,0.6,0.5,1.1c-0.2,0.4-0.8,0.2-1.2,0.2
			c-1.1,0-2.2-0.1-3.2,0c-1,0.1-1.7-0.4-2.2-1.2c-1.8-2.7-3.8-5.4-5.6-8.1c-0.5-0.7-1-1-1.9-1c-1.3,0.1-2.6,0.1-3.9,0
			c-1,0-1.3,0.3-1.3,1.3c0,2.5,0,5,0,7.5c0,1.1-0.3,1.5-1.4,1.5c-4.6-0.1-3.8,0.6-3.9-3.7C220.6,115.2,220.6,111.5,220.6,107.8z
			 M225.9,102.8C225.9,102.8,225.9,102.8,225.9,102.8c0,1,0,2.1,0,3.1c0,1.7,0,1.8,1.7,1.8c2,0,4,0,6,0c0.8,0,1.5-0.1,2.2-0.3
			c2.3-0.7,3.6-2.6,3.5-4.8c-0.2-2.4-1.7-4-4.3-4.3c-2.7-0.3-5.4-0.2-8.1-0.2c-0.7,0-1,0.3-1,1.1
			C225.9,100.3,225.9,101.5,225.9,102.8z"/>
		<path class="st0" d="M345.2,107.9c0,4.3,0,8.6,0,13c0,1.8,0,1.8-1.8,1.8c-0.5,0-1,0-1.5,0c-2,0-2,0-2-1.9c0-3,0-6,0-9
			c0-1.2-0.4-1.6-1.6-1.6c-3.5,0.1-7.1,0.1-10.6,0c-1.2,0-1.6,0.4-1.5,1.6c0.1,3.1,0,6.2,0,9.4c0,1.1-0.4,1.6-1.5,1.5
			c-0.8-0.1-1.7,0-2.5,0c-1,0-1.3-0.3-1.3-1.3c0-3,0-5.9,0-8.9c0-5.9,0-11.8,0-17.7c0-1.2,0.4-1.6,1.6-1.6c3.7,0,3.7,0,3.7,3.8
			c0,2.4,0,4.7,0,7.1c0,1,0.4,1.4,1.4,1.4c3.7,0,7.3,0,11,0c1,0,1.4-0.4,1.4-1.4c0-3.1,0-6.2,0-9.2c0-1.2,0.3-1.6,1.5-1.6
			c3.8,0,3.8,0,3.8,3.7C345.2,100.6,345.2,104.2,345.2,107.9z"/>
		<path class="st0" d="M377.4,122.6c-1.8,0.5-2.8-0.5-3.4-2.4c-0.4-1.3-1.1-2.5-1.6-3.8c-0.3-0.7-0.7-1-1.4-1c-3.9,0-7.7,0-11.6,0
			c-0.8,0-1.2,0.3-1.5,1c-0.7,1.7-1.5,3.4-2.1,5c-0.3,0.8-0.8,1.1-1.6,1.1c-1,0-2,0-3,0c-1.3,0-1.1-0.6-0.7-1.4
			c1.8-4.1,3.6-8.2,5.4-12.3c2.1-4.9,4.3-9.7,6.4-14.6c0.4-0.9,0.9-1.4,1.9-1.3c4.2,0.1,3.2-0.5,4.8,3.1c3.6,8.2,7.2,16.4,10.8,24.7
			c0.1,0.2,0.1,0.3,0.2,0.5c0.6,1.4,0.5,1.5-1.1,1.5C378.5,122.6,378.1,122.6,377.4,122.6z M365.2,99.4c-1.6,3.7-3,7.1-4.5,10.5
			c-0.3,0.8,0,0.9,0.7,0.9c1.9,0,3.8,0,5.7,0c3,0,3,0,1.8-2.7C367.8,105.4,366.6,102.6,365.2,99.4z"/>
		<path class="st0" d="M212.9,122.6c-0.4,0-0.8,0-1.1,0c-1.1,0.1-1.7-0.4-2-1.4c-0.6-1.6-1.3-3.1-1.9-4.6c-0.3-0.9-0.8-1.2-1.7-1.2
			c-3.7,0-7.5,0-11.2,0c-0.9,0-1.4,0.3-1.7,1.1c-0.6,1.7-1.4,3.3-2.1,4.9c-0.3,0.8-0.8,1.2-1.7,1.1c-0.9,0-1.8,0-2.7,0
			c-1.3,0-1.4-0.2-0.9-1.4c1.4-3.4,2.9-6.7,4.4-10c2.5-5.6,4.9-11.2,7.4-16.9c0.4-0.9,0.9-1.3,1.9-1.3c3.4,0,3.4,0,4.8,3.2
			c3.5,8.1,7.1,16.2,10.6,24.3c1,2.2,1,2.2-1.4,2.2C213.3,122.6,213.1,122.6,212.9,122.6z M200.4,110.9c1.3,0,2.6,0,3.9,0
			c0.9,0,1-0.3,0.7-1c-1.3-3.1-2.7-6.2-4-9.3c-0.1-0.2-0.2-0.6-0.5-0.6c-0.3,0-0.3,0.3-0.4,0.6c-1.3,3.1-2.7,6.3-4,9.4
			c-0.3,0.8,0,1,0.7,1C197.9,110.9,199.2,110.9,200.4,110.9z"/>
		<path class="st0" d="M71.5,80.1c-0.1,0.4-0.3,0.6-0.6,0.8c-3.2,3.2-6.5,6.5-9.7,9.7c-0.7,0.7-1.2,0.7-1.8,0
			c-3.2-3.3-6.4-6.5-9.6-9.8c-0.6-0.6-0.6-1,0-1.6c3.3-3.3,6.6-6.6,9.9-9.9c0.5-0.5,0.9-0.5,1.5,0c3.3,3.3,6.6,6.7,10,10
			C71.3,79.6,71.6,79.8,71.5,80.1z"/>
		<path class="st0" d="M98.8,69c0.5,0,0.7,0.3,0.9,0.5c3.3,3.3,6.5,6.5,9.8,9.8c0.6,0.6,0.6,1,0,1.6c-3.2,3.2-6.4,6.4-9.5,9.7
			c-0.7,0.8-1.2,0.7-1.9,0c-3.2-3.2-6.4-6.4-9.6-9.6c-0.6-0.6-0.8-1-0.1-1.6c3.3-3.3,6.6-6.6,9.9-9.9C98.4,69.2,98.7,69.1,98.8,69z"
			/>
		<path class="st0" d="M32.9,80c0,0.4-0.3,0.6-0.5,0.8c-3.3,3.3-6.6,6.6-9.9,9.9c-0.6,0.6-1,0.6-1.5,0c-3.3-3.3-6.6-6.6-9.9-9.9
			c-0.6-0.6-0.5-1,0-1.5c3.3-3.3,6.6-6.6,9.9-9.9c0.5-0.5,0.9-0.6,1.5,0c3.3,3.3,6.6,6.6,9.9,10C32.6,79.6,32.8,79.8,32.9,80z"/>
		<path class="st0" d="M263.1,110.5c0,3.6,0,7.1,0,10.7c0,1-0.3,1.5-1.4,1.4c-0.8-0.1-1.7-0.1-2.5,0c-1.2,0.1-1.5-0.5-1.5-1.5
			c0-3.5,0-7,0-10.5s0-7,0-10.5c0-2,0-2-2-2c-2,0-3.9,0-5.9,0c-1,0-1.4-0.4-1.4-1.4c0.1-4.3-0.6-3.6,3.5-3.6c6.2,0,12.4,0,18.6,0
			c1.7,0,1.7,0,1.7,1.7c0,3.8,0.5,3.3-3.3,3.3c-1.5,0-3.1,0-4.6,0c-1,0-1.4,0.3-1.4,1.4C263.1,103.2,263.1,106.9,263.1,110.5z"/>
		<path class="st0" d="M391,108c0,4.4,0,8.7,0,13.1c0,1.1-0.4,1.6-1.5,1.5c-0.8-0.1-1.7,0-2.5,0c-1,0-1.3-0.4-1.3-1.3
			c0-3.6,0-7.2,0-10.9c0-5.2,0-10.5,0-15.7c0-1.2,0.4-1.6,1.6-1.6c3.7,0,3.7,0,3.7,3.6C391,100.6,391,104.3,391,108z"/>
	</g>
</g>
</svg>
