<?xml version="1.0" encoding="utf-8"?>
<!-- Generator: Adobe Illustrator 24.2.3, SVG Export Plug-In . SVG Version: 6.00 Build 0)  -->
<svg version="1.1" id="Capa_1" xmlns="http://www.w3.org/2000/svg" xmlns:xlink="http://www.w3.org/1999/xlink" x="0px" y="0px"
	 viewBox="0 0 560 253" style="enable-background:new 0 0 560 253;" xml:space="preserve">
<style type="text/css">
	.st0{fill:#FFFFFF;}
	.st1{fill:url(#SVGID_1_);}
	.st2{fill:#FC0001;}
	.st3{fill:#FB6D01;}
	.st4{fill:#EFA204;}
	.st5{fill:#FACF67;}
	.st6{fill:#FCE8B3;}
	.st7{fill:#F7931E;}
	.st8{fill:url(#SVGID_2_);}
	.st9{fill:url(#SVGID_3_);}
	.st10{fill:url(#SVGID_4_);}
	.st11{fill:url(#SVGID_5_);}
	.st12{fill:url(#SVGID_6_);}
	.st13{fill:url(#SVGID_7_);}
	.st14{fill:url(#SVGID_8_);}
	.st15{fill:url(#SVGID_9_);}
	.st16{fill:url(#SVGID_10_);}
	.st17{fill:url(#SVGID_11_);}
	.st18{fill:url(#SVGID_12_);}
	.st19{fill:url(#SVGID_13_);}
	.st20{fill:url(#SVGID_14_);}
	.st21{fill:url(#SVGID_15_);}
	.st22{fill:url(#SVGID_16_);}
	.st23{fill:url(#SVGID_17_);}
	.st24{fill:url(#SVGID_18_);}
	.st25{fill:url(#SVGID_19_);}
	.st26{fill:url(#SVGID_20_);}
	.st27{fill:url(#SVGID_21_);}
	.st28{fill:url(#SVGID_22_);}
	.st29{fill:url(#SVGID_23_);}
	.st30{fill:url(#SVGID_24_);}
	.st31{fill:url(#SVGID_25_);}
	.st32{fill:url(#SVGID_26_);}
	.st33{fill:url(#SVGID_27_);}
	.st34{fill:url(#SVGID_28_);}
	.st35{fill:url(#SVGID_29_);}
	.st36{fill:url(#SVGID_30_);}
	.st37{fill:url(#SVGID_31_);}
	.st38{fill:#FCB670;}
	.st39{fill:url(#SVGID_32_);}
	.st40{fill:url(#SVGID_33_);}
	.st41{fill:url(#SVGID_34_);}
</style>
<path class="st0" d="M534.8,74.6l4.5-26.2l-18.9,18.8c-0.2,0.2-0.3,0.3-0.5,0.5c-2.2-3-3.8-4.7-3.9-4.8l-10.9-11.7
	c-2.3-6.8-7-10.8-8.5-11.9l-19.8-15l6.5,24c0.2,0.8,0.3,2.2,0.2,2.9c-7.2,4.4-11.2,10-12.1,16.5c-0.4,2.8-0.1,5.6,0.8,8.5
	c-0.5,0-0.9,0-1.4,0c-0.6,0-1.2,0-1.8,0.1l0.3-1.3l-14.2,4.8c-0.2,0.1-0.4,0.1-0.7,0.2c-0.6,0.2-1.2,0.4-2,0.7c-1,0.4-2.3,1-3.6,1.7
	c-0.1,0-0.2,0.1-0.3,0.1l2-11.5l-3.6,0.6c-1.7-2.3-4.3-3.7-7.3-3.7c-2.1,0-3.7,0.7-4.4,1l-2,0.9c-0.2,0-0.5,0-0.7,0
	c-0.7,0-1.3,0.1-2,0.2l-3.2,0.5l-2,2.5c-1.3,1.6-2.1,3.5-2.4,5.4c-1.2,0.5-2.4,1-3.6,1.6l-0.3,0.1c-3.9,1.9-6.6,4.9-7.7,8.7
	c-0.7,1.5-1,3-1,4.6c-0.3-0.7-0.6-1.3-1-2c0,0,0,0,0,0c-0.1-1-0.2-1.9-0.4-2.9l0-0.3c-0.1-1.1-0.3-2.2-0.4-3.2
	c-0.1-0.9-0.3-1.7-0.5-2.3c0-0.2-0.1-0.4-0.2-0.6L404,66.2l-4.6,5.2c-0.5-0.1-0.9-0.1-1.4-0.1c-0.8,0-1.6,0.1-2.4,0.3
	c-3.2,0.8-5,3-5.8,4.4c-3.9,0.9-6.8,3.9-7.5,7.7c-0.7-0.5-1.5-0.9-2.4-1.2c-0.9-0.3-1.9-0.5-2.9-0.6c-2.7-2.1-5.7-3.3-9-3.5
	c-0.2-0.1-0.4-0.1-0.5-0.2c-0.2-0.1-0.4-0.2-0.6-0.3l-7.5-4l-3.1,5.8c-2.4,0.5-4.7,1.5-6.7,2.8c-0.4,0.3-0.6,0.4-0.7,0.5
	c-2.5,0.8-4.9,2-7.3,3.6c-0.1-0.3-0.3-0.6-0.4-1c-1.5-3.2-4.1-5.5-7.5-6.8c-0.1,0-0.2-0.1-0.2-0.1c-4-2.8-8-4.5-12.1-5.3l-0.5-0.1
	c-4.6-0.9-9.4-1.8-14.1-2.6l-0.8-0.1c-1.3-0.2-2.9-0.5-4.7-0.5c-1.8,0-3.5,0.3-5.1,0.8c-0.7,0.2-1.4,0.6-2,1H292c-1.2,0-2.5,0-3.8,0
	c-1.6,0-4,0.3-6.3,1.7c-0.3,0.2-0.6,0.3-1.3,0.3c-6.2,0.2-11.8,2-16.6,5.3c-0.2,0.1-0.3,0.2-0.5,0.3c-3.9-2.2-8.2-3.7-13.2-4.7
	c-5.7-1.1-11.9-1.7-18.9-1.9c-0.2,0-0.4,0-0.6,0c-1.1,0-2,0.1-2.9,0.1l-0.1,0c-0.3,0-0.7,0.1-1,0.1l-10.3,0.5l0.4,1.7
	c-0.2,0-0.4,0-0.6,0c-1.9,0.1-4.8,0.4-7.9,2.1c-0.9,0.5-1.3,0.6-1.3,0.6c-2.9,0.6-5.6,1.2-8.2,2c-0.2-1.4-0.4-2.8-0.1-4
	c0.3-1.5,0.4-2.9,0.4-4.1c0-0.3,0-0.7,0.1-1l1.4-17.6l-7.1,4.8L189,54l-5.6,6.1c-0.1,0.1-0.3,0.3-0.4,0.4c-0.9,0.1-1.7,0.3-2.5,0.6
	c-3.8,1.5-6.4,5.3-6.4,9.3c0,0.6,0.1,1.5,0.4,2.6c-1.6,1.9-3.1,4.3-3.4,7.8c0,0.1-0.1,0.5-0.5,1.2c-1.3,0.7-2.8,1.9-3.9,3.6
	c-0.9,1.4-1.8,3-2.6,4.8c-0.3,0.8-0.6,1.6-0.7,2.4c-0.1,0.2-0.6,0.7-0.7,0.8c-1,0.9-1.8,1.8-2.6,2.8l3.1-8.6h-1.6
	c0.2-1,0.3-2.1,0.2-3.3c-0.1-0.6,0.5-1.9,0.7-2.5c0.5-1.2,1-2.8,1.1-4.6c0.1-0.2,0.2-0.4,0.3-0.7c0.1-0.3,0.2-0.6,0.4-0.9
	c1.2-3,2.4-6.2,3.9-10.1c0.5-1.4,0.6-2.7,0.7-3.4l0-0.2l1-6.6L157,50.4l-4,5.5l-0.1,0.2c-0.4,0.5-0.9,1.2-1.5,2.2
	c-1,1.9-2,3.8-3,5.7l-1,1.9c-2.8,0.9-4.9,2.9-6.3,5.8l-0.8,1.5c-0.6,1.1-1.1,2.2-1.6,3.3c-3.3,2.1-4.9,4.8-5.6,6.8
	c-0.2,0.5-0.4,0.9-0.6,1.3c-0.4,0.8-0.9,1.7-1.4,2.6c-0.6,1.1-1.2,2.2-1.8,3.4c-0.6,1.1-2.1,4.1-1.2,7.7c-0.1,0.4-0.3,1.1-0.4,1.7
	c-0.2,0.6-0.3,1.1-0.4,1.7c-0.1,0.4-0.2,0.7-0.2,0.9c-0.2,0.3-0.5,0.6-0.7,0.9c-0.2-1.7-0.3-3.4-0.2-5c0-0.6,0.1-1.2,0.1-1.7
	c0-0.6,0.1-1.6,0.1-2c2-3.5,2-7.7-0.1-11.2l-7-11.7l-6.5,10c-2,0.7-3.7,2-4.9,3.8c-2.8,0.3-5.2,1.6-6.8,3.6c0.1-0.5,0.1-0.9,0.2-1.4
	c0-0.4,0.1-0.7,0.1-1.1c0.3-1.3,0.6-2.3,0.6-2.3l0.8-3.6l-2.1-3.1c-0.2-0.3-0.5-0.8-1.1-1.3c-0.1-0.3-0.1-0.5-0.2-0.8
	c-3.8-13.7-14.2-21.6-28.7-21.6c-0.4,0-0.9,0-1.4,0c-1.3-3-3.5-5.3-6.2-6.5c-1.6-0.7-3.3-1.1-5.2-1.1c-3.6,0-6.9,1.5-7.8,1.9
	l-2.3,1.1l1,2.7c-0.4,0-0.8-0.1-1.2-0.1h-5.8l-1.1,2.7l-9-24.4l-5.5,30.9c-0.1,0.5-1.8,11,6.7,19.6l-1.5,3.4c-0.8,2-1.7,5.8,2.2,9.8
	c0.2,0.2,0.4,0.4,0.5,0.5c1.8,7,6.5,10,10.9,10.7c1.5,4.3,4.1,7.8,7.6,10.2c2,1.3,4.3,2.3,6.8,2.9c0.9,0.6,1.9,1.1,3,1.4
	c0,0.9,0.1,1.9,0.2,2.8c0.4,4.5,0.2,9.1,0,14l0,0.7c-0.1,2.4-0.1,4.9,0.1,8c0.1,1.7,0.2,3.3,0.4,4.8c0.2,2.5,0.4,4.9,0.4,7.1
	c-0.1,4.1,0,8.1,0.1,11.9c0.1,4.6,1.6,9.1,4.2,13.2c2.5,3.9,5.8,6.4,10,7.5c1.5,0.4,3,0.6,4.6,0.6c4.7,0,9.2-1.9,12.6-5
	c-0.6,1.6-1.2,3.2-2,4.6c-1.2,2.1-1.6,4.4-1.2,6.6c-1,2.5-0.6,4.9-0.4,5.7l1.2,7l7,0.1l0.2,0c0.3,0,0.5,0,0.8,0
	c2.1,0,4.1-0.6,5.7-1.8c0.8,0.2,1.6,0.3,2.5,0.3c1,0,1.9-0.1,2.9-0.4c4.2-1.2,7-4.9,7.2-9.4l0.6-2.2c1.1-0.9,2-1.8,2.8-2.7
	c2.1-2.3,4.1-4.6,6-6.8l1.7-2c3.9-2.7,5-6.8,5.5-8.6c0.3-1.2,0.6-2.4,0.8-3.5c0.1-0.4,0.1-0.7,0.2-1.1c0.1-0.5,0.2-1,0.3-1.5
	c0-0.1,0-0.2,0.1-0.3c0.8-1.9,1.4-3.7,2-5.4c0,0,0.2-0.7,0.3-0.8c0,0,0.3,0,0.3,0l0.1,0.7c-0.2,0.9-0.5,1.7-0.7,2.6
	c-0.6,2.3-0.7,4.4-0.2,6.3c0,0-0.1,0.7-0.1,0.7c-0.2,1.1-0.5,2.2-0.7,3.2c-0.2,1-0.8,3.2-0.8,3.2c-0.5,2.1-1,4.1-1.5,6.2
	c-1,3.5-0.4,6.8,1.8,9.5l8.7,10.8l5.6-12.7l0.7-1.6c0.5-1.2,1.1-2.3,1.5-3.5c0.3-0.8,0.7-1.6,1-2.4l0.4-0.2c3.5-2.4,4.5-4.9,5.3-7.6
	c0-0.1,0.1-0.2,0.2-0.4c0.1-0.1,0.2-0.2,0.3-0.3c0.4-0.4,0.9-0.8,1.3-1.3c0.7-0.7,1.7-1.9,2.4-3.5c1.1-2.5,2.2-4.7,3.1-6.9
	c0.5-1.1,0.8-2.2,0.9-3.3c1-0.1,1.9-0.3,2.8-0.6c0,0.5,0,1,0,1.5c0,1.3,0.2,2.3,0.4,3l0.1,0.3c0.3,1.9,1.1,3.7,2.4,5
	c0.2,1.2,0.4,2.4,0.5,3.6c0.1,0.9,0.4,3.3,2.2,5.9c0.1,0.5,0.2,1.1,0.3,1.7c0.1,0.8,0.2,1.6,0.4,2.3c0.1,0.7,0.1,1.4,0,2.5
	c-0.3,1.9-0.4,3.7-0.5,5.5l-0.1,1.2c-0.1,1.4,0.1,2.5,0.2,3.1l0.8,5.7l6,1.4l2.8,0.6c-0.1,0.4-0.4,1.4-0.4,1.4
	c-0.4,1.5-0.5,2.7-0.5,3.6c0,0.1,0,0.2,0,0.2l-0.6,6.7l13.6,4.6l0.7-1.2l0.4,1.7l10.2-19c0.1-0.2,0.2-0.3,0.2-0.4
	c0.3-0.5,0.8-1.3,1.1-2.4c0.6-1.7,1-3.3,1.4-4.7c1.4-1.7,2.5-3.5,3.2-5.4c0.6-1.5,1-3,1.4-4.5c0.2-0.9,0.5-1.8,0.8-2.7
	c0.4-1.1,1.4-4.4,0.4-8.1c0.1-0.8,0.3-1.9,0.5-2.2c0.6-0.8,1.1-1.5,1.5-2.2l0.1-0.1c0.2-0.3,0.4-0.7,0.7-1c1.3-1.8,2.3-3.7,3-6.1
	c0.2-0.6,0.4-1.3,0.6-1.9c2.7,1.4,5.4,2.8,8,4.4c-0.3,0-0.6,0.1-0.8,0.1c-0.5,0.1-1,0.1-1.6,0.2c-1.8,0.2-3.2,1-3.9,1.4l-5.7,2.6
	l2.2,13.5l6.8,0.4c0.6,0,1.2,0.1,1.9,0.1c1.1,0.1,2.2,0.1,3.4,0.2l-1.1,2.5l13.7-0.8c0.2,0,0.4,0,0.7,0c0.7,0,1.5-0.1,2.4-0.2
	c0.9-0.1,1.8-0.3,2.7-0.4c0.9-0.1,1.8-0.3,2.7-0.4c0.4-0.1,0.8-0.1,1.3-0.2c0,0,0,0,0.1,0c1.1,0.3,2.3,0.5,3.5,0.6
	c0,0.6,0.1,1.2,0.1,1.8l3.2,26.4l12-22.1c0.7,0.7,1.5,1.4,2.2,2.1c1.9,1.9,4.2,2.9,6.8,2.9c1.6,0,3.9-0.4,6.2-2.3l6.2-5.2l-3.5-4.6
	l-4.5-7.8c0.5-0.2,0.9-0.3,1.3-0.3c0.1,0,0.2,0,0.4,0c0.7,0.1,1.3,0.1,2,0.1c1.2,0,2.4-0.1,3.5-0.4c7-1.8,13.1-4,18.7-6.8
	c3.9-2,7.1-4,10-6.2c0.4,0.8,0.9,1.6,1.4,2.3c1.9,2.9,4.6,6.5,8.9,8.9c3.7,2,7.5,3.5,10.4,4.6c1.9,0.7,3.9,1,5.9,1
	c2.9,0,5.7-0.7,8.4-2.1c0.7-0.4,1.3-0.7,2-1.1c1.8-1,3.5-1.9,5.2-2.7c2.6-1.2,5.2-2.9,8-5.1c1.1-0.9,2.2-1.8,3.2-2.8
	c-0.8,1.9-1.6,3.9-2.4,5.8c-0.5,1.1-0.9,2.3-1.3,3.5c-0.3,1-0.5,1.8-0.6,2.4l-0.1,0.3l-1.8,9.1l0.5,0.1c-0.3,1.2-0.7,3-0.3,5.1
	c0,0.1-0.1,0.2-0.1,0.4c-0.4,1.1-0.7,2-1,2.8l-0.2,0.5c-0.2,0.6-0.4,1.3-0.5,2c-0.1,0.4-0.3,1.1-0.3,1.2c-1.1,2.1-2.2,4.4-3.3,7.3
	c-0.1,0.1-0.2,0.4-0.3,0.6c-0.2,0.5-0.5,1-0.7,1.5c-0.5,1.2-0.7,2.3-0.8,2.9l-2.6,13.2l13.1-3.4c3.3-0.9,5.8-3,6.9-6
	c0.2-0.2,0.4-0.5,0.5-0.6l0.5-0.6c1-1.2,1.9-2.6,2.8-4.2c0.2-0.4,0.4-0.8,0.6-1.1l0.1-0.1c3.9-1.7,5.3-5,5.9-6.4l0-0.1
	c0.3-0.8,0.6-1.5,1-2.3c0.2-0.6,0.5-1.2,0.7-1.8c1.8-1.4,3.1-3.2,4-5.4l0.4-1c0.9-2.1,1.8-4.3,2.7-6.4c0.2-0.6,0.5-1.2,0.8-1.9
	l6.1,8.4l3.7-19.4c0.1-0.4,0.1-0.8,0.2-1.2l1.5,0.6l0.6-12.4c0-0.4,0-0.7,0-1v-0.2c0-0.1,0-0.3,0.1-0.4c0.9-1.6,1.4-3.2,1.8-4.3
	c0,0,0.2-0.5,0.2-0.7c0.2-0.5,0.4-1.1,0.7-1.7l0.4-0.9c0.1-0.3,0.2-0.5,0.4-0.8c0.3-0.7,0.7-1.6,1-2.6c0.3-0.9,0.6-1.9,0.9-2.8
	c0.1-0.3,0.2-0.6,0.3-0.9c1.8-1.3,3.2-3.1,4.2-5.3c0.8-1.9,1.5-3.7,1.9-5.5c0.3-1.4,0.6-2.6,1.1-3.7l-3.3,15.6l-0.3,0.3
	c-3,3.1-3,6.4-2.8,8.2c0.1,0.6,0.2,1.2,0.3,1.8l0,0.1c0,0.1,0,0.2,0.1,0.3l-0.7,3.4c-0.2,0.6-0.5,2.2-0.2,4.2
	c0.2,0.9,0.4,1.6,0.6,2.2c0,0.2,0.1,0.4,0.2,0.6c-0.3,2.6,0.6,5.2,2.4,7.2l0.1,0.1c1.1,1.2,2.3,2.5,3.6,3.8c1.7,1.7,4.1,2.8,6.5,2.9
	c1.6,2,3.8,3.4,6.5,4.2c1.8,0.5,3.9,1,6.4,1c0.9,0,1.7-0.1,2.6-0.2c1.2,0.5,2.5,0.7,3.9,0.7c1.3,0,2.6-0.2,4-0.7
	c0.3-0.1,0.7-0.1,1.1-0.1c0.2,0,0.5,0,0.7,0c0.8,0.1,1.4,0.1,2,0.1c2.4,0,4.5-0.4,6.4-1.4c0.1,0,0.1,0,0.2,0
	c8.7-1.6,12.7-6.9,14.5-11.1c0.1-0.2,0.2-0.4,0.3-0.6c0,0,0.2-0.5,0.4-0.7c2.4-1.6,4.2-3.9,5.4-6.9c1.2-3,1.7-6.3,1.5-9.8
	c-0.5-6.8-2.4-12.7-5.6-17.9c1,0.1,1.2,0.1,1.5,0.1c0.9,0,1.2,0,22.4-3.7l3.5-0.6l2-2.9c0.1-0.1,0.5-0.7,1.1-1.7
	c4.7-2.7,8.2-6.5,10.3-11.4c0.8-1.7,1.4-3.5,1.7-5.2c2.3-6.3,3-13.1,2.1-19.8c0.1-0.1,0.2-0.2,0.3-0.3
	C531.5,89.1,532.5,87.8,534.8,74.6z M468.5,109.5c0.8-0.7,1.6-1.3,2.5-1.7c0.1,0.1,0.1,0.2,0.2,0.3l-0.8,1.4
	c-0.7,0.4-1.4,0.8-2.1,1.2c0-0.3-0.1-0.5-0.1-0.7C468.4,109.6,468.5,109.5,468.5,109.5C468.5,109.5,468.5,109.5,468.5,109.5z
	 M446,147l-0.8,1.1l-0.4-0.7c-0.3-0.5-0.5-1.2-0.1-2.7c0.1-0.7,0.3-1.3,0.4-2c0.1,0.1,0.1,0.2,0.2,0.3c0.1,1.2,0.3,2.3,0.4,3.1
	C445.8,146.4,445.9,146.7,446,147z M432.4,122.9c1-1.1,1.8-2.2,2.5-3.2c0.3,0.8,0.7,1.7,1.2,2.4c0,0.7,0.1,1.4,0.3,2.2l-1.5-0.3
	l-3.4,3.4c-0.5,0.6-1,1.1-1.4,1.7l-0.9-1.6C430.2,125.6,431.3,124.2,432.4,122.9z M362.4,140.9c0,0.6-1.2,2-1.8,2.6
	c-0.1,0.1-0.2,0.3-0.3,0.4c0,0-0.1,0.1-0.1,0.1c-0.7,0.2-1.5,0.4-2.3,0.7c-1.2,0.4-2.5,0.7-3.8,1.2c-0.1,0-0.4-0.1-0.7-0.2
	c0,0,0,0,0,0c0-0.1-0.1-0.2-0.1-0.4c1.4-2.4,1.6-4.6,1.7-5.4c0.2-2.1,0.4-3.9,0.5-5.7c0.2-3.4,1.3-6,3.5-8.2c2-2,4.5-4.7,6.4-8.3
	c0.1-0.2,0.2-0.3,0.3-0.4l1.5-2.2c0.1,0.1,0.2,0.2,0.3,0.4c0.5,0.6,1,1.1,1.3,1.4l0.3,0.3l1.2,1.3c0,0.1,0,0.2,0,0.3
	c-1.6,1.8-2.7,4.2-3,6.6c-0.2,1.7-0.9,3.5-2.1,5.8C363.6,134.3,362.6,137.6,362.4,140.9z M264.7,145.9c-0.4,1.2-0.7,2.5-1,3.7
	c-0.9-1.3-1.9-2.4-3-3.3c-1.8-1.4-4-3-6.6-4.7c0.4-0.3,0.9-0.6,1.4-1c1.3-1,2.6-2.2,4.2-3.6c1.4,2.2,3.6,3.8,6.1,4.3
	c0,0.2,0.1,0.3,0.1,0.5c0,0.1,0,0.1,0,0.1C265.5,143.3,265.1,144.6,264.7,145.9z M240.9,110.5c-0.2-1.5,0.1-3.4,0.5-5.6
	c0.2-1,0.4-2,0.5-3c0.2,0,0.7,0,0.7,0c0.2,0,0.8,0,2,0.9c1.3,1,2.7,1.9,4.1,2.5c0.1,0.1,0.2,0.1,0.3,0.1c-0.1,0.1-0.1,0.3-0.2,0.5
	c-0.1,0.2-0.5,0.6-0.9,1C245.3,107.5,242.9,108.7,240.9,110.5z M200.4,101.7h2.9c0,0,0.6,0,0.8,0c0.4,0,0.9,0,1.3-0.1
	c0.3,0,0.6-0.1,1-0.1c1.2-0.1,2.7-0.2,4.3-0.6c0.4-0.1,0.8-0.1,1.2-0.1c0.1,0,0.1,0,0.2,0c-0.6,0.6-1.1,1.4-1.5,2.2l-0.2,0.3
	c-0.2,0.3-0.4,0.6-0.5,0.7c-1.7,1.7-3,3.7-3.8,6c-1.9-1.5-4.6-3.6-6-4.7C200.1,104.3,200.2,103,200.4,101.7z"/>
<linearGradient id="SVGID_1_" gradientUnits="userSpaceOnUse" x1="28.9929" y1="163.875" x2="534.8901" y2="163.875" gradientTransform="matrix(1 0 0 -1 0 290)">
	<stop  offset="0.102" style="stop-color:#4F0C00"/>
	<stop  offset="0.9836" style="stop-color:#4F0C00"/>
</linearGradient>
<path class="st1" d="M522.4,69.1c-1,1-1.9,2.1-2.6,3.3c-3-4.6-5.7-7.6-5.8-7.7l-11.4-12.1c-1.6-5.1-5-9.1-7.7-11.1l-13.2-10l4.3,16
	c0.3,1.2,0.8,5-0.7,5.8c-6.7,4-10.4,8.9-11.1,14.7c-0.5,3.8,0.4,7.6,2.6,11.6c-2.1-0.4-4.1-0.6-6-0.6c-1.5,0-2.9,0.1-4.3,0.4
	c-0.4,0.1-0.8,0.2-1.1,0.2l0.1-0.4l-9.5,3.2c-0.2,0.1-0.5,0.2-0.7,0.2c-0.5,0.2-1.1,0.3-1.7,0.6c-1,0.4-2.2,1-3.5,1.6
	c-0.2,0.1-0.4,0.2-0.6,0.3c-1,0.5-2.3,1.1-3.5,2.1c-0.6,0.5-1.2,1.1-1.7,1.6c0.4-1.3,0.6-2.5,0.9-3.7c0.1-0.5,0.2-1,0.3-1.5
	c0.1-0.4,0.1-0.7,0.2-1.1l1.4-8.2l-1.6,0.2c-1-2.4-3.2-4-5.8-4c-1.5,0-2.6,0.5-3.2,0.8l-2.8,1.2c-0.4-0.1-0.8-0.1-1.2-0.1
	c-0.5,0-1,0-1.6,0.1l-2.1,0.3l-1.4,1.7c-1.4,1.7-2,3.7-1.9,5.7c-1.9,0.6-3.6,1.3-5.1,2.1l-0.3,0.1c-3.3,1.6-5.4,4-6.2,7.2
	c-0.9,1.8-1.1,3.7-0.6,5.4c0,0.1-0.1,0.3-0.1,0.4c-1.4,1.5-2.7,2.8-4,4.3c-0.2,0.2-0.5,0.5-0.7,0.8c0.1-2.3-0.1-5.2-1.8-8
	c-0.1-0.2-0.2-0.5-0.3-1c-0.1-1.1-0.3-2.2-0.4-3.2c-0.1-1.1-0.3-2.1-0.4-3.2c-0.1-0.7-0.3-1.4-0.4-1.9c0-0.2-0.1-0.4-0.2-0.7
	l-2.6-10.6l-2.1,2.5c-0.7-0.3-1.5-0.5-2.4-0.5c-0.6,0-1.1,0.1-1.7,0.2c-2.3,0.6-3.6,2.3-4.1,3.2c-0.2,0.3-0.3,0.7-0.5,1
	c-3.9,0.2-6.8,3.2-6.7,7.1c0,1.2,0.3,2.3,0.8,3.3c-0.5,0.7-1,1.4-1.4,2.3l-0.5,1c0,0.1-0.1,0.1-0.1,0.2c0.1-1.2,0-2.4-0.5-3.5
	c-0.8-1.8-2.3-3.1-4.2-3.7c-0.8-0.3-1.8-0.4-2.6-0.4c-0.1,0-0.2,0-0.4,0c-0.1-0.1-0.2-0.2-0.3-0.2c-0.1-0.1-0.3-0.2-0.4-0.3
	c-2.3-1.9-5-2.8-7.8-2.9c-0.1-0.1-0.3-0.1-0.4-0.2c-0.2-0.1-0.5-0.2-0.8-0.3l0,0c-0.2-0.1-0.4-0.2-0.6-0.4l-5-2.7l-2.4,4.5
	c-2.6,0.3-4.9,1.2-6.9,2.6c-0.6,0.4-1.1,0.7-1.2,0.8c-3.8,1.2-6.9,3.2-9.7,5.4c-0.4-1.4-1-2.8-1.7-4.2c-1.2-2.5-3.2-4.3-5.9-5.3
	c-0.3-0.1-0.6-0.3-0.9-0.4c-3.7-2.5-7.3-4.1-11-4.9l-0.5-0.1c-4.6-0.9-9.3-1.8-14.1-2.6l-0.8-0.1c-1.2-0.2-2.6-0.5-4.2-0.5
	c-1.5,0-2.9,0.2-4.2,0.7c-0.7,0.2-1.4,0.6-2,1.1l-3.1,0c-1.2,0-2.5,0-3.7,0c-1.3,0-3.1,0.3-4.9,1.3c-0.8,0.4-1.5,0.6-2.5,0.7
	c-5.7,0.2-10.7,1.8-15.1,4.8c-0.6,0.4-1.4,0.9-2.1,1.3c-4-2.5-8.5-4.2-13.7-5.2c-5.5-1.1-11.6-1.7-18.5-1.8c-0.2,0-0.3,0-0.5,0
	c-0.9,0-1.8,0.1-2.7,0.1c-0.4,0-0.8,0.1-1.2,0.1l-6.9,0.4l0.4,1.6c-1.4,0.1-2.7,0.2-4.1,0.2c-1.6,0.1-4.1,0.3-6.7,1.7
	c-1.1,0.6-1.8,0.8-2.2,0.9c-3.9,0.8-7.5,1.7-10.8,2.9c0-0.1,0-0.2-0.1-0.2c-0.7-2.8-1.2-5.5-0.8-7.9c0.2-1.3,0.3-2.6,0.4-3.7
	c0-0.4,0-0.8,0.1-1.2l0.9-11.7l-4.1,2.8c0,0,0,0-0.1,0l-4.1-3.8l-3.7,4.1c-0.4,0.4-0.8,0.8-1.1,1.2c-0.1,0-0.2,0-0.3,0
	c-0.9,0-1.8,0.2-2.6,0.5c-2.7,1-4.6,3.8-4.5,6.6c0,0.6,0.1,1.9,0.9,3.3c-1.6,1.6-3.6,3.8-3.9,7.4c-0.1,0.8-0.4,1.7-1.3,3.1
	c-1.1,0.5-2.5,1.4-3.5,3c-0.8,1.3-1.6,2.8-2.4,4.5c-0.4,0.8-0.6,1.6-0.6,2.5c0,0-0.3,0.3-0.3,0.3c-0.2,0.3-0.5,0.5-0.7,0.8
	c-0.1,0.2-0.4,0.4-0.4,0.5c-2.9,2.6-4.5,5.6-5,9.2c-0.1,0.9-0.3,1.7-0.6,2.4c-0.3,0.8-0.7,1.6-1.2,2.5c-0.3,0.6-0.6,1.1-0.9,1.7
	c-0.3,0.7-0.5,1.2-0.6,1.7l-0.1,0.3l-4,12.2l2.6-1.2c-0.1,0.2-0.6,1.3-0.6,1.3c-0.6,1.5-1.3,2.9-2,4.3c-0.7,1.5-1.4,3-2,4.5
	c-0.4,1-1.2,2.7-1,4.8c-0.1,0-0.3,0.1-0.4,0.1c-0.4,0.1-0.8,0.1-1.2,0.2l-4.9,0.8c0.7-1.8,1.4-3.6,2-5.4c0.9-2.5,1.9-5.1,2.8-7.6
	c0.6-1.5,1-3.8,0.2-6c0,0,0-0.2,0.2-0.6c1.8-4.8,3.6-9.6,5.4-14.4l2.3-6.1c0.1-0.4,0.3-0.8,0.5-1.3l3-8.2h-1.7l0-0.1
	c0.6-1.2,1.7-3.3,1.4-5.8c-0.1-1,0.2-2.2,0.9-3.8c0.4-1.1,0.9-2.5,0.9-4.1c0-0.2,0.3-0.8,0.5-1.3c0.1-0.3,0.2-0.6,0.3-0.8
	c1.2-3,2.4-6.2,3.8-10c0.4-1.1,0.5-2,0.6-2.7c0-0.1,0-0.2,0-0.3l0.7-4.4l-8.7-3.6l-2.6,3.6c-0.1,0.1-0.1,0.2-0.2,0.2
	c-0.3,0.4-0.8,1-1.2,1.8c-1.1,2-2.2,4.1-3.2,6.2c-0.4,0.8-0.9,1.7-1.3,2.5l-0.1,0c-3.7,0.8-5.1,3.7-5.6,4.6l-0.8,1.5
	c-0.7,1.3-1.3,2.7-2,4.1c-3.1,1.7-4.5,4-5.1,5.7c-0.2,0.6-0.5,1.2-0.7,1.7c-0.5,0.9-0.9,1.8-1.4,2.6c-0.6,1.1-1.2,2.2-1.8,3.3
	c-0.5,1-1.7,3.2-0.9,5.9c0.2,0.6-0.2,1.7-0.5,2.9c-0.1,0.5-0.3,1.1-0.4,1.6c-0.1,0.4-0.3,1.3-0.5,1.6c-2,2.4-3.5,5-4.8,7.6
	c-0.1-0.8-0.2-1.6-0.3-2.4c-0.7-3.6-1.4-7.3-1.2-10.9c0-0.6,0.1-1.1,0.1-1.7c0.1-1.6,0.1-2.6,0.5-3.2c1.6-2.7,1.6-5.7,0-8.4
	l-4.6-7.8l-4.6,7.2c-2.3,0.4-4.1,1.9-4.9,4.1c-0.1,0-0.3,0-0.4,0h-0.2c-3.4,0.1-5.2,1.7-6.1,3c-0.9,1.3-1.8,3.5-0.6,6.7
	c0.1,0.3,0.2,0.5,0.3,0.8c-0.8,0.8-1.6,1.7-2.3,2.9c-0.5,0.8-0.8,1.5-0.9,2.1c0,0.1-0.1,0.2-0.1,0.3c0,0.1-0.1,0.1-0.1,0.2
	c-0.7,0.8-1.2,1.6-1.6,2.3c0,0-0.1,0.1-0.1,0.1c0-0.9,0-1.8-0.1-2.5c0-0.4,0-0.8,0-1.2c0-0.6-0.1-1.2-0.1-1.7c0-0.3-0.1-0.6-0.1-0.7
	l0.1-1.9c0.3-3.7,0.5-7.5,0.9-11.2c0-0.4,0.1-0.8,0.1-1.2c0.3-1.4,0.6-2.6,0.6-2.6l0.6-2.4l-1.4-2c-0.2-0.3-0.7-0.9-1.3-1.5
	c-0.1-0.5-0.2-0.9-0.3-1.4C93.2,63.7,84,56.7,70.7,56.7c-1.1,0-2.2,0.1-3.3,0.2c-0.7-2.5-2.4-5.5-5.5-6.9c-1.2-0.6-2.5-0.8-4-0.8
	c-3.1,0-6,1.3-6.5,1.6l2.6,7.1c-1-0.3-1.6-0.8-1.9-1c-1.2-1.4-2.7-2.1-4.5-2.1h-3.8l-1.4,3.6c-0.4,1-1,3.5,1.1,6
	c0,0.1,0.1,0.1,0.1,0.2c0.3,0.5,0.8,1.2,1.3,2c-3.3-1.8-4.9-5.7-5-5.9L32.8,41l-3.7,20.6c-0.1,0.5-2,12.3,9.7,20.1l-3.1,0l-1.5,3.4
	c-0.7,1.6-1,4.1,1.6,6.7c0.3,0.3,1,1,1.1,1.4c1.6,6.6,6.1,9,9.9,9.1c0.3,0.5,0.6,0.9,0.9,1.4c1.2,3.9,3.5,7,6.6,9.1
	c1.9,1.2,4.1,2.1,6.5,2.7c1.3,1,2.9,1.6,4.7,1.6c-0.1,1.6,0,3.3,0.1,4.9c0.4,4.7,0.2,9.4,0.1,14.4l0,0.7c-0.1,2.3-0.1,4.7,0.1,7.8
	c0.1,1.6,0.2,3.2,0.4,4.7c0.2,2.6,0.4,5.1,0.4,7.4c-0.1,4,0,8,0.1,11.7c0.1,4.1,1.4,8.1,3.8,11.8c2.1,3.3,4.9,5.4,8.4,6.3
	c1.2,0.3,2.5,0.5,3.8,0.5c6.3,0,12-3.9,14.3-9.7c1-2.5,2-5,3-7.6l0.2,1.5l1,0.1c-0.2,1.9-0.5,3.7-0.9,5.4l-0.1,0.5
	c-1.1,4.9-2.1,9.6-4.4,13.5c-1.1,1.8-1.2,3.7-0.7,5.4c-1.1,2.1-0.8,4.2-0.6,4.9l0.8,4.7l4.7,0.1l0.2,0c0.2,0,0.4,0,0.7,0
	c2.1,0,3.9-0.8,5.1-2.1c1.1,0.5,2.2,0.7,3.1,0.7l0,0c0.7,0,1.4-0.1,2.1-0.3c3.1-0.9,5.1-3.8,5.2-7.1l0.9-3.4
	c1.2-0.9,2.3-1.9,3.2-2.9c2-2.2,4-4.6,6-6.8c0.7-0.8,1.3-1.5,1.9-2.2c3.3-2.1,4.2-5.5,4.6-7.2c0.3-1.1,0.5-2.2,0.8-3.3
	c0.1-0.4,0.2-0.8,0.2-1.1c0.1-0.4,0.2-0.9,0.2-1.3c0-0.2,0.1-0.6,0.1-0.7c0.8-1.9,1.4-3.7,2-5.4l0.2-0.6c0.2-0.6,0.4-1.2,0.7-1.9
	c0.1-0.1,0.1-0.3,0.2-0.4l2.4,0.2c0.6,0.1,1.2,0.1,1.7,0.1c0.3,0,0.6,0,0.8,0.1c0,0.3,0,0.6,0,0.9l0.2,2.8c-0.3,1-0.6,2-0.9,3
	c-0.5,1.9-0.6,3.6-0.1,5.2c0,0.1,0.1,0.3-0.1,1L141,174c-0.2,1.1-0.5,2.2-0.8,3.3c-0.2,1-0.5,2.1-0.8,3.1c-0.5,2.1-1,4.2-1.5,6.3
	c-0.8,2.7-0.4,5,1.3,7l5.8,7.2l3.8-8.4l0.7-1.6c0.5-1.2,1-2.3,1.5-3.4c0.4-1,0.9-2.1,1.3-3.1l1.1-0.7c2.8-1.9,3.5-3.6,4.2-6.1
	c0.1-0.4,0.4-0.9,0.6-1.3c0.1-0.1,0.4-0.4,0.6-0.6c0.4-0.4,0.8-0.7,1.1-1.1c0.6-0.6,1.4-1.5,1.9-2.8c1.1-2.5,2.1-4.7,3-6.8
	c0.7-1.6,0.9-3.2,0.7-4.7c2.4-0.2,4.8-0.6,7.3-1.5c0.4,0.1,0.8,0.2,1.2,0.3c0,0.1,0,0.3,0,0.4c0,1.4,0,2.8,0,4.2
	c0,1,0.2,1.9,0.3,2.5c0,0.1,0.1,0.3,0.1,0.4c0.3,1.7,1.1,3.1,2.2,4.1c0.2,1.6,0.5,3.1,0.7,4.6c0.2,1.2,0.6,3.1,2,5
	c0,0.1,0.1,0.2,0.1,0.4c0.1,0.6,0.2,1.4,0.4,2.2c0.1,0.7,0.2,1.5,0.3,2.2c0.2,1,0.2,2,0,3.4c-0.2,1.8-0.4,3.6-0.5,5.3l-0.1,1.2
	c-0.1,1,0.1,1.9,0.2,2.3l0,0.1l0.6,3.9l4.1,0.9l4.7,1l1.9-4.3l0.1-0.1c0.2-0.4,0.5-1.1,0.7-1.9c0.2-0.8,0.4-1.6,0.6-2.4
	c0,1.5-0.1,2.7-0.5,3.8c-1.1,3.1-2,6.3-2.9,9.3l-0.1,0.2c-0.3,1.1-0.4,2.1-0.4,2.9c0,0.1,0,0.3,0,0.4l-0.4,4.5l9.2,3.1l2.3-4.1
	c0.2-0.4,0.4-0.7,0.6-1.1l0.4,1.4l6.8-12.7c0.1-0.2,0.2-0.4,0.3-0.5c0.3-0.5,0.6-1.1,0.9-1.9c0.6-1.9,1.1-3.6,1.6-5.1
	c0-0.1,0-0.1,0.2-0.3c1.3-1.5,2.3-3.1,2.9-4.7c0.5-1.5,0.9-2.9,1.3-4.3c0.3-0.9,0.5-1.9,0.8-2.8c0.6-1.7,1.1-4.2,0.2-7
	c0.2-2,0.5-3.3,1.2-4.2c0.5-0.7,1-1.4,1.4-2c0.3-0.4,0.6-0.9,0.9-1.3c1.1-1.5,1.9-3.2,2.6-5.2c0.4-1.3,0.9-2.7,1.5-3.9
	c0.2-0.3,0.3-0.6,0.5-1c0.3,0.1,0.6,0.2,0.7,0.2c4.5,2.3,9.2,4.7,13.5,7.6c0.8,0.6,1.8,1.1,3,1.6c0.4,0.2,1,0.5,1.8,0.7
	c-1.1,0.2-2.4,0.4-3.9,0.4c-2.1,0-4.1,0.3-6.1,0.6c-0.5,0.1-1.1,0.1-1.6,0.2c-1.4,0.2-2.4,0.8-2.9,1l-0.1,0l-3.8,1.8l1.5,9.2
	l4.5,0.3c0.6,0,1.3,0.1,1.9,0.1c1.5,0.1,3.1,0.2,4.6,0.2c0.9,0,1.9,0.1,2.8,0.1l-0.9,2.1l9.2-0.5c0.3,0,0.5,0,0.8,0
	c0.6,0,1.3-0.1,2.1-0.2c0.9-0.1,1.7-0.3,2.6-0.4c0.9-0.2,1.9-0.3,2.8-0.5c0.4-0.1,0.8-0.1,1.1-0.2c0.2,0,0.5-0.1,0.8-0.1
	c1.4,0.4,2.8,0.6,4.2,0.6c0.7,0,1.4-0.1,2-0.1c-0.2,1.4-0.2,2.8,0,4.4l2.2,17.6l8.5-15.6c0.4-0.7,0.7-1.4,1-2c1.6,1.5,3.3,3.1,5,4.7
	c1.4,1.4,3,2.1,4.8,2.1c1.1,0,2.7-0.3,4.3-1.6l4.1-3.5l-3.3-4.3c0,0-0.9-1.2-0.9-1.2l0.6,0.1l-4.6-8c1-0.4,2-0.8,3-1.2
	c0.8-0.3,1.6-0.5,2.4-0.5c0.2,0,0.5,0,0.7,0c0.5,0.1,1.1,0.1,1.6,0.1c1,0,1.9-0.1,2.8-0.3c6.8-1.7,12.7-3.9,18.1-6.6
	c5-2.5,8.9-5.2,12.2-8.3c0.8,1.9,1.7,3.6,2.8,5.3c1.7,2.6,4.1,5.8,7.9,7.9c3.5,1.9,7.2,3.4,10,4.4c1.6,0.6,3.2,0.9,4.9,0.9
	c2.4,0,4.8-0.6,7-1.8c0.7-0.4,1.3-0.7,2-1.1c1.9-1,3.6-1.9,5.4-2.8c2.4-1.1,4.8-2.6,7.4-4.7c5.1-4.1,9.4-9.2,13.1-15.5
	c-0.2,1.1-0.3,2.2-0.2,3.3c-1.5,3.5-2.9,7-4.4,10.4c-1.1,2.7-2.2,5.3-3.4,8c-0.5,1.1-0.9,2.2-1.2,3.2c-0.2,0.8-0.4,1.5-0.5,2
	c0,0.1,0,0.3-0.1,0.4l-1.2,6.1l0.8,0.1c-0.3,0.8-0.5,1.7-0.8,2.5l0,0.1c-0.3,1-0.8,2.8-0.3,4.8c0,0.1,0.1,0.4-0.4,1.6
	c-0.4,0.9-0.6,1.8-0.9,2.6l-0.2,0.5c-0.2,0.6-0.3,1.2-0.5,1.8c-0.2,0.7-0.4,1.5-0.6,1.9c-1.1,2-2.1,4.2-3.2,7
	c-0.1,0.2-0.2,0.5-0.4,0.8c-0.2,0.4-0.5,0.9-0.6,1.3c-0.4,0.9-0.5,1.7-0.6,2.2l-1.7,8.8l8.8-2.3c2.5-0.7,4.3-2.3,5-4.5
	c0.1-0.2,0.6-0.8,0.9-1.2l0.5-0.6c0.9-1.1,1.7-2.3,2.5-3.8c0.4-0.6,0.7-1.3,1-2l1-0.5c2.9-1.3,4-3.7,4.5-4.9l0-0.1
	c0.3-0.7,0.6-1.4,0.9-2.2c0.3-0.8,0.6-1.6,0.9-2.2c0.1-0.2,0.1-0.3,0.2-0.4c1.6-1.2,2.8-2.7,3.6-4.7l0.4-1c0.9-2.1,1.8-4.3,2.7-6.4
	c0.7-1.6,1.6-4.1,1.4-7.2c0.1-0.3,0.2-0.5,0.3-0.8l6.2,8.6l2.5-12.9c0.3-1.8,0.4-3.4,0.3-4.9l1.5,0.7l0.4-8.2c0-0.3,0-0.6,0-0.9
	c0-0.1,0-0.3,0-0.4c0-0.3,0.1-0.5,0.1-0.8c0-0.1,0-0.2,0-0.3c1-1.5,1.5-3,1.9-4.3c0.1-0.2,0.2-0.5,0.3-0.8c0.2-0.6,0.5-1.2,0.8-1.9
	l0.4-0.9c0.1-0.3,0.2-0.6,0.4-0.9c0.3-0.7,0.7-1.5,1-2.4c0.3-0.9,0.6-1.8,0.9-2.7c0.2-0.6,0.4-1.2,0.6-1.9c1.4-0.9,2.9-2.3,4-4.7
	c0.8-1.8,1.3-3.4,1.7-5c0.5-2,0.9-3.8,1.8-5.3c1.2-2.2,2.5-3.9,3.8-5.3c1.4-1.5,2.4-2.9,3-4.4c1.1-2.7,2.2-5.5,3.3-8.3
	c-0.2,1.7-0.3,3.5-0.1,5.4c0.2,2.9,1,5.5,2.5,7.7c-0.1,1.9,0.4,4.5,3,7c0.1,0.1,0.2,0.2,0.2,0.2l-6.4-1.5l-2.2,2.3
	c-1.8,1.8-2.3,4-2.7,5.3c0,0.2-0.1,0.4-0.2,0.6c0,0.1-0.1,0.2-0.1,0.3l-0.4-0.7l-2.2,10.6l-0.8,0.9c-2.1,2.2-2.2,4.6-2,5.8
	c0.1,0.5,0.2,1.1,0.3,1.6c0.1,0.3,0.1,0.5,0.2,0.8c0,0.1,0,0.3,0.1,0.4l-0.8,3.9c-0.1,0.4-0.4,1.6-0.1,3c0.1,0.8,0.3,1.4,0.5,2
	c0.1,0.4,0.3,1,0.3,1.2c-0.3,1.9,0.3,3.9,1.6,5.4l0.1,0.1c1.1,1.2,2.2,2.5,3.5,3.7c1.3,1.3,3.2,2.1,5,2.1c0.2,0,0.5,0,0.7,0
	c0.1,0,0.2,0.1,0.4,0.2c1,1.6,2.6,3.3,5.7,4.1c1.6,0.4,3.5,0.9,5.6,0.9c1,0,2-0.1,2.9-0.3c1.1,0.5,2.3,0.8,3.5,0.8
	c1,0,2-0.2,3.1-0.6c0.6-0.2,1.3-0.3,2-0.3c0.3,0,0.6,0,1,0c0.7,0.1,1.2,0.1,1.8,0.1c2.1,0,3.9-0.4,5.6-1.3c0.2,0,0.4-0.1,0.5-0.1
	c7.5-1.3,10.8-5.9,12.3-9.4c0.1-0.3,0.3-0.6,0.5-0.9c0.1-0.3,0.3-0.5,0.4-0.8c0.1-0.3,0.2-0.4,0.2-0.4c2.2-1.3,3.8-3.3,4.9-6
	c1.1-2.6,1.5-5.4,1.2-8.5c-0.6-7.3-2.8-13.5-6.6-18.8c-0.6-0.8-1.2-1.6-1.8-2.5c0.5-0.1,1-0.2,1.4-0.3c5,0.7,5.4,0.7,5.8,0.7
	c0.6,0,1,0,22-3.6l2.3-0.4l1.3-1.9c0.1-0.1,0.7-0.9,1.3-2.2c4.5-2.4,7.8-5.9,9.8-10.5c0.7-1.6,1.3-3.2,1.6-4.8
	c2.4-6.4,3-13.3,1.8-19.9c0.4-0.3,0.7-0.7,1-1.1c0.7-1,1.6-2.2,3.8-14.8l3-17.5L522.4,69.1z M142,142.8c0.1-0.2,0.2-0.5,0.3-0.7
	l0.1,0.5C142.2,142.7,142.1,142.8,142,142.8z M196.8,159c0-0.1-0.1-0.1-0.1-0.2c-0.4-0.8-0.6-1.6-0.8-2.7c0.5-0.1,1-0.2,1.5-0.3
	c0,0.2,0.1,0.4,0.1,0.6C197.3,157.3,197.1,158.1,196.8,159z M216.7,99.4c-0.4,0.7-0.7,1.3-1,1.8c-0.1,0.2-0.3,0.5-0.4,0.7
	c-1.3,0.9-2,2-2.3,2.7c-0.1,0.1-0.2,0.3-0.3,0.4c-0.3,0.4-0.6,0.9-0.8,1.1c-2.3,2.3-3.7,5.4-4,9.1c-0.5-0.4-0.9-0.7-1.4-1.1
	c-0.4-0.3-9.3-7.2-9.3-7.2c-0.1-2.5,0.3-5.1,0.8-8l0.1-0.7c0.3-0.1,0.6-0.2,0.8-0.2l0.3,1h4.2c0,0,0.6,0,0.7,0c0.3,0,0.7,0,1-0.1
	c0.4,0,0.7-0.1,1.1-0.1c1.2-0.1,2.5-0.2,3.9-0.5c0.6-0.1,1.2-0.2,1.9-0.2c1.3,0,2.7,0.3,4.3,0.9c0.2,0.1,0.4,0.2,0.6,0.2
	C216.8,99.2,216.7,99.3,216.7,99.4z M275.9,93.7c2.4,0.6,4.6,0.7,6.6,0.7c0.1,0.2,0.3,0.4,0.4,0.6c-0.1,0.1-0.2,0.1-0.2,0.1
	c-0.5,0.2-0.9,0.4-1.2,0.6c-1.9,0.7-3.4,2-4.5,3.6c-0.4-1.6-0.9-3.1-1.6-4.7c-0.2-0.4-0.3-0.7-0.5-1.1L275.9,93.7z M241.1,114.4
	c-1,1.2-2.1,2.3-3.5,3.2c0.6-2.3,0.7-4.5,0.4-6.7c-0.2-1.9,0.1-4,0.6-6.4c0.2-1,0.4-2.1,0.5-3.1c0.1-0.6,0.2-1.2,0.3-1.8
	c0-0.2,0.1-0.3,0.1-0.5h1c0.6,0,1.2,0,1.9,0c0.1,0,0.2,0,0.2,0c0.8,0,2,0.2,3.7,1.5c1.2,0.9,2.4,1.6,3.6,2.2c1.4,0.7,2,1.3,2.1,1.6
	c0.1,0.4,0,1.3-0.8,2.9c-0.3,0.6-1.1,1.5-1.9,2.3C246,110,243.2,111.7,241.1,114.4z M268.5,142.7c-0.4,1.3-0.8,2.7-1.1,4
	c-0.7,2.5-1.4,5-2.1,7.5c0,0.2-0.1,0.3-0.1,0.5c-0.9-0.4-1.8-0.9-2.8-1.4l0,0c-0.9-2-2-3.6-3.5-4.7c-2.9-2.2-6.3-4.6-10.1-6.7
	c0.5-0.4,1-0.7,1.4-1.1c0.3-0.2,0.8-0.5,1.2-0.8c0.7-0.4,1.4-0.9,2.2-1.5c1.4-1.1,2.8-2.4,4.6-4c0.6-0.6,1.2-1.1,1.6-1.6
	c0.3-0.3,0.6-0.6,0.9-0.9c0.3,3.9,3.2,6.8,6.8,6.8h0.1c0.2,0,0.5,0,0.7,0c-0.1,0.9,0,2,0.4,3.1C268.8,142,268.6,142.5,268.5,142.7z
	 M293,147.6c0.1-0.3,0.2-0.6,0.4-1c0.1,0.1,0.3,0.2,0.5,0.3C293.5,147.1,293.2,147.4,293,147.6z M314.5,100.5c-2,0.1-3.9,1-5.6,2.5
	c-0.4,0.3-0.7,0.6-1.1,0.9c-0.5,0.4-1.2,1-1.8,1.5c0.4-2.7,0.4-5.6,0-8.6c0.1,0,0.1,0,0.2-0.1c0.5-0.2,1.1-0.3,1.9-0.3
	c1.2,0,2.5,0.2,4,0.5c1.1,0.9,2.2,1.6,3.2,2C315,99.6,314.7,100,314.5,100.5z M323.9,127.5l-0.4,2.2c-0.5-0.4-1.1-0.8-1.7-1.2
	c-0.4-0.3-0.8-0.5-1.2-0.7c1-0.7,1.9-1.6,2.8-2.4c0.1,0.6,0.3,1.1,0.5,1.5C323.9,127.1,323.9,127.3,323.9,127.5z M373.3,119.9
	c-1.6,1.4-2.8,3.6-3.1,5.8c-0.3,2-1,4.2-2.4,6.7c-1.5,2.8-2.4,5.8-2.6,8.7c-0.1,1.3-0.9,2.4-2.4,4.3c-0.2,0.2-0.5,0.6-0.6,0.7
	c-0.4,0.3-0.7,0.5-0.8,0.6c-0.9,0.3-1.8,0.6-2.8,0.8c-1.3,0.4-2.6,0.7-4,1.2c-0.1,0.1-0.3,0.1-0.5,0.1c-0.5,0-1.1-0.2-1.6-0.3
	c-1.1-0.3-2-0.5-2.3-3.7c0,0,0-0.2,0-0.2c1.5-2.1,1.8-4.3,1.9-5.1c0.2-2,0.4-3.8,0.5-5.5c0.2-4.1,1.6-7.3,4.4-10
	c1.9-1.8,4.3-4.4,6-7.8c0,0,0.3-0.4,0.4-0.6l2.8-4.1c0.5,0.1,1,0.1,1.5,0.1c0.1,0,0.3,0,0.4,0c0.5,0.7,1.1,1.3,1.6,2
	c0.4,0.5,0.8,0.9,1.1,1.2l0.3,0.3l2,2c0.1,0.7,0.1,1.4,0.1,2C373.3,119.6,373.3,119.8,373.3,119.9z M453,156.1
	c-0.3-0.1-0.6-0.2-1-0.3l-0.1-1.1l-3.9,0.1l-0.5-0.1c-0.8-0.7-1.8-1.3-2.8-1.6c-0.1-0.1-0.4-0.1-0.9-1.2c-0.4-0.8-0.8-1.6-1.1-2.4
	l-0.4-0.9c-0.7-1.3-0.8-2.8-0.4-4.6c0.6-2.6,1.1-5.1,1.6-7.6c0.2-0.9,0.2-1.7,0.2-2.2c0-0.1,0-0.3,0-0.4l0.1-1.2
	c0.5,1.3,1.2,2.3,2,3.3c-0.2,1.7,0.3,3.7,2.2,5.9c0.1,1.4,0.3,2.8,0.5,3.8c0.1,0.7,0.4,1.3,0.6,1.8l-1.9,2.5l5.3,3.1
	c0.2,0.1,0.5,0.3,0.8,0.5l2.3,3.3C454.8,156.7,453.9,156.5,453,156.1z M461.2,156.9c-1,0.1-1.8,0.2-2.6,0.2l0.6-3.4
	c0.8-0.4,1.4-1,1.7-1.3l0.2-0.2c0,0,0,0,0,0c0,0.2,0,0.3,0,0.5c0.1,0.7,0.1,1.4,0.1,2.2c0,0.6,0.1,1.2,0.1,1.7
	C461.4,156.7,461.3,156.8,461.2,156.9z M472.5,111.7c-2.2,1.1-4.4,2.4-6,4.1c-0.1-0.1-0.2-0.3-0.3-0.4c-0.4-0.5-0.5-0.9-0.6-1.3
	c-0.1-0.3-0.2-0.8-0.2-1c0.3-1.3,0.1-2.4,0-3.1c0-0.1,0-0.2,0-0.2c0.3-1.2,0.7-1.8,1.2-2.3c1.7-1.6,3.6-2.6,5.9-3
	c0.7,1.4,1.4,2.6,2.1,3.7L472.5,111.7L472.5,111.7z M499.7,75.9c-0.1-0.3-0.2-0.6-0.3-1l0.9,0.9c-0.1,0.2-0.2,0.3-0.3,0.5
	C499.8,76.2,499.7,76,499.7,75.9z"/>
<g>
	<path class="st2" d="M74.1,104.6c-24.2,8-25.6-22.1-25.6-22.1s6.7,11.2,9.5,8.9c2.8-2.2-0.7-9.1-12.3-14.9
		c-11.7-5.8-9.9-15.9-9.9-15.9S39.5,70.8,49,71c9.5,0.2,13.5-0.4,20.8,7.6s6.8-9.7-2.6-10.1c-14.5-0.6-17.2-8.4-18.4-9.9
		s3.2,5.3,14,2.9c10.8-2.4,24.9-1.8,29.4,14.3C94,82.2,86,94.3,81.9,98.6C78.1,102.8,74.1,104.6,74.1,104.6z"/>
	<path class="st3" d="M87.3,87.2C86.2,64.3,78,59.9,67.9,62.5c-10.1,2.6-11.3,1-11.3,1s2.7,3.1,10.3,2.7
		c7.7-0.4,15.3,10.8,11.8,19.4c-3.5,8.5-0.2,11.8-0.5,11.3c-0.3-0.5-3.9-13.1-10.6-18.2c-7.7-5.9-9.7-5.2-20.2-4.9
		c-3.6,0.1-6.7-1.5-6.7-1.5s0,2.2,12.1,4.8c11,2.3,10.3,18.1,4.6,16.5s-6.7-4.3-6.7-4.3s1.3,11.8,8.5,16.1
		c7.2,4.3,16.8,1.5,20.5-4.2C83.3,95.4,87.6,93.5,87.3,87.2z"/>
	<path class="st4" d="M79.8,99.8c-5.7,10.4-16.2,9.8-21.3,6.4c-5.1-3.4-5-10.3-5-10.3s3.8,4.4,8.2,1.5c2.9-1.9,4.1-8.3-0.1-15
		c-2.6-4.1-4.2-7-4.2-7s16.5,5.8,21.4,10.2c4.9,4.4,4.9,6.5,4.9,6.5s-0.1-2.3,0.9-8.2c1.2-6.8,0.9-8.4-3-13.8
		c-3.4-4.7-12.2-6.6-12.2-6.6s9.3-4.1,18.4,5.7C101.4,83.9,79.8,99.8,79.8,99.8z"/>
	<path class="st5" d="M55.5,99.7c8.4,9.1,17.8,9.1,22.9,2.1c5.1-7,1.5-12.7-2.5-16.5c-6.4-6-15-7.1-15-7.1S72.2,90.7,68,96.7
		C63.8,102.7,55.5,99.7,55.5,99.7z"/>
	<path class="st5" d="M84.9,95.7c-5.6-5.3-4.1-14.4-2.5-20.4c1.5-6-0.6-8.2-0.6-8.2s3,0.3,3.7,4.7c0.7,4.3-1,11.2,2.2,8.9
		c3.2-2.3,0.2-7.5,0.2-7.5s4.6,4.3,5.1,8.1C93.3,85,84.9,95.7,84.9,95.7z"/>
	<path class="st6" d="M87.2,89.1c-3,9.2-9.8,12.3-12.4,5.3c-2.7-7.1,1.7-13.9,1.7-13.9s1.8,10.2,6.4,6.8
		C87.4,84,87.2,89.1,87.2,89.1z"/>
	<path class="st6" d="M79.9,100.3c-7.8-6.9-10.9-0.7-14.9,1.7s-6.5,1.6-6.5,1.6s3.6,6.1,8.8,4.3C72.6,106.2,79.9,100.3,79.9,100.3z"
		/>
	<path class="st6" d="M72.4,94.2c-9.9,0.8-13.1-3.9-13.5-9.8c-0.4-6-6.8-6.6-6.8-6.6s7.4-0.9,10.1,6.2
		C64.8,91.1,72.4,94.2,72.4,94.2z"/>
	<path class="st2" d="M49.1,94.6c-5-3.9-2.2-7.3-7.6-9.1c-2.6-0.9,1.2,0.9,2.1,4.4C44.9,96,49.1,94.6,49.1,94.6z"/>
	<path class="st2" d="M55,53.8c6.2-1.6,8.4,5.8,8.3,4.3c0-0.7-0.5-4-2.7-5C58.4,52.1,55,53.8,55,53.8z"/>
	<path class="st6" d="M86.4,92.8c-7.1-6.1-3.9-14.1-3.9-14.1s1.4,5.7,4.8,3.1c3.3-2.7,2.3-4.7,2.3-4.7l2.2,3.3L86.4,92.8z"/>
	<path class="st0" d="M80.4,101.4c0,0-5.3,6-11.3,7.8c-6,1.8-5.9-3.4,0-5.8c5.9-2.3,2.3-4.4,2.3-4.4s1.9-0.5,4.7,0.7
		s4.1-3.4,1.6-4.7c-2.5-1.3-1.8-7.3-1.8-7.3s0.7,4.1,4.5,4.9c3.9,0.7,5.8-4.9,5.4-5.7s3.4,0.5,4.5-3c1.1-3.6,1.6-4.3,2.5-4.4
		c1-0.1,1.7,1,1.7,1s-1.8,7.8-2.2,8.1C92,88.6,80.4,101.4,80.4,101.4z"/>
	<path class="st6" d="M71.2,65.6c1.9,6.1,6.2,6.2,7.7,9.5c1.5,3.3,0.4-5.4-2.6-6.2S71.2,65.6,71.2,65.6z"/>
</g>
<g>
	<path class="st2" d="M489.2,56.2c-13.5,8.1-8.6,18-1.1,25.6c9.3,9.4,13,24.5-7.2,31c-15.5,5-9,9.6-9,9.6s35.4,8,47.8-14.9
		c10.8-19.9-9-40.9-9-40.9s2.5,15.3-8.3,14.2c-9.3-1-9.5-10.2-5.4-18.4c5.4-10.7-4.7-18.4-4.7-18.4S495,52.8,489.2,56.2z"/>
	<path class="st3" d="M494.7,83c-13.3-5.3-12.8-18.1-9.6-21.3c4.3-4.5,6.5-3.7,8.5-6c2.5-2.9,1.1-8.3,1.1-8.3s6.5,7.5,1.1,13.5
		C491.2,65.9,490,76.1,494.7,83z"/>
	<path class="st3" d="M512.9,70.5c18.7,19.7,8.5,45-5,49.8c-13.5,4.8-15.6,4.6-20.9,1.5c-5.2-3.1,1.4-15.9,11-18.2
		c9.5-2.3,4.9-4.6,0.4-9.9S495.6,78,495.6,78s6.9,8.1,13.4,5C515.1,80,512.9,70.5,512.9,70.5z"/>
	<path class="st4" d="M499.9,85.5c-3.4,11.9,14.2,14.2,11.9,23.3c-2.3,9.2-19.4,11.5-19.4,11.5s20.9,4.3,27.3-9.9
		c5.4-12.1-4.5-17.8-11.3-18.4C500.2,91.3,499.9,85.5,499.9,85.5z"/>
	<path class="st4" d="M515.1,74.5c12.2,16.1,4.2,26.5-0.8,21.3C509.2,90.7,518.4,83.5,515.1,74.5z"/>
	<path class="st4" d="M491.2,88.9c9.5,7.8,12.8,16.4,9.2,24.1c-3.6,7.7-19.4,10.7-16.9,1.7c2.5-9,10.2-10.7,10.2-17.4
		C493.7,90.7,491.2,88.9,491.2,88.9z"/>
	<path class="st5" d="M513.2,114c8.8-7.4,6.1-15.1-0.7-18.5c-6.8-3.4-7.4-2.5-7.4-2.5s5.4,6.2,6.8,9.2c2.5,5.2,0.9,11.9-5.4,15.3
		C500.2,120.9,508.7,117.8,513.2,114z"/>
	<path class="st5" d="M492.8,58.2c-6.8,4.4-11,7.3-9.4,14.2c2.1,8.8,9.4,8.4,9.4,8.4s-4.7-4.8-4.1-10.7
		C489.2,64.1,492.8,58.2,492.8,58.2z"/>
	<path class="st2" d="M503.5,75.7c5.6-5.7,1.4-8.1,0.5-12.6c-0.7-3.4,1.6-6.9,1.6-6.9s-5.8,6.1-3.4,10.1
		C506.1,72.8,503.5,75.7,503.5,75.7z"/>
	<path class="st2" d="M527.4,71.2c-5.5,5.5-3.6,13.5-2.8,12.4C525.5,82.4,527.4,71.2,527.4,71.2z"/>
	<path class="st6" d="M495.8,122.5c-13.9,2.8-15-1.5-16.5-4.7s6.7-11.4,15.8-8.5c14.6,4.6,10.2-8.9,10.2-8.9s7.3,2.6,4.3,12.5
		C506.9,121.9,498.5,122,495.8,122.5z"/>
	<path class="st3" d="M491.4,93.7c-4.1,5.9-3.6,9.9-1.8,14.3c1.8,4.4-1.8,8-1.3,8c0.5,0,7-5.9,4.1-12.6
		C489.6,96.8,491.4,93.7,491.4,93.7z"/>
	<path class="st0" d="M481.9,124.8c0,0-5.8,1.7-5.5-0.6c0.2-2.3,9.4-7.1,14-6s9.1-5.9,9.1-5.9s0.8,4.8-0.4,6.5
		c-1.2,1.7-1.2,1.7-1.2,1.7s7.1-3.1,9.1-5.6c2-2.6,1.7-6.4,1.7-6.4s3.1,1.8,3.1,5.6S509,122,509,122s-20.5,3.6-21,3.6
		S481.9,124.8,481.9,124.8z"/>
	<path class="st6" d="M517.5,84.2c5.4,5.9,6.5,11.5,2,20c0.6-3.9-3.1-6.9-3.1-6.9s3.5-3.2,3.4-6.2C519.7,88.5,517.5,84.2,517.5,84.2
		z"/>
	<path class="st5" d="M515.3,95.3c2.3-6.4-2-8.8-5.4-11.1c-3.4-2.3-3.1-8.3-3.1-8.3s-4.3,4.4-1.7,10.8
		C506.9,91.4,515.3,95.3,515.3,95.3z"/>
</g>
<g>
	<path class="st7" d="M158.1,158.9c-0.9,2-1.4,4-1,6.1c0.1,0.6-0.1,1.2-0.3,1.8c-0.9,2.2-1.9,4.4-2.9,6.6c-0.2,0.5-0.6,0.9-1,1.3
		c-0.7,0.8-1.6,1.4-2.2,2.3c-0.6,0.9-1.1,1.9-1.5,2.9c-0.6,1.8-0.7,2.2-2,3.1c-0.1-0.4-0.1-0.7-0.2-1c-0.1-0.4-0.1-0.7-0.3-1.4
		c-0.4,0.6-0.6,0.9-0.8,1.2c-1.1,2.5,0.1,3.8-0.9,6.3c-0.7,1.6-3.6,4.4-4.4,6.2c-0.7-0.9-0.3-1.6-0.1-2.2c0.7-3.1,1.5-6.3,2.2-9.4
		c0.3-1.3,0.6-2.7,0.9-4c0.3-1.3,0.4-2.5,0-3.9c-0.2-0.6-0.1-1.5,0.1-2.1c0.7-2.4,1.4-4.9,2.2-7.5c-0.5-0.1-0.9-0.1-1.4-0.2
		c-0.1-1.7,0.8-3.2,1.4-4.5c-1.6-0.5-3-1.1-4.5-1.4c-1.4-0.3-2.9-0.3-4.6-0.4c0.6-0.7,1-1.1,1.6-1.8c-2.9-0.2-5.5-0.4-8.4-0.6
		c0.1,3.1-1.4,5.7-2.3,8.4c-0.6,1.9-1.2,3.8-2,5.6c-0.4,0.9-0.5,2-0.7,3.1c-0.3,1.4-0.6,2.8-0.9,4.2c-0.5,1.7-1,3.4-2.8,4.2
		c-0.1,0.1-0.2,0.2-0.3,0.3c-2.8,3.2-5.5,6.4-8.3,9.5c-1.2,1.3-2.5,2.3-4,3.3c-0.2,0.7-0.4,1.4-0.6,2.2c-1.7-0.8-0.3-3.1-2.2-3.7
		c-0.6,1.5-1.4,2.9-2.8,3.5c-1-1.1,0.1-2.3-0.3-3.7c-1.9,2.2-2.6,5.3-5.2,6.5c-0.7-0.4-0.6-0.9-0.3-1.5c2.8-4.9,4-10.3,5.2-15.6
		c0.6-2.8,0.9-5.8,1.3-8.6c0.1-0.5,0.1-1,0-1.5c-0.1-1.5-0.2-1.6-1.9-1.8c-0.2-2-0.6-4.1-0.7-6.2c-0.2-3-0.4-6.1-0.6-9.1
		c-0.1-1.6-0.2-1.8-1.6-2.5c-0.2,0.6-0.5,1.1-0.7,1.6c-3.3,8.4-6.6,16.9-9.9,25.3c-1.8,4.5-6.8,7-11.4,5.8c-2.2-0.6-3.8-2-5-3.9
		c-1.7-2.7-2.8-5.7-2.9-8.9c-0.1-3.8-0.2-7.6-0.1-11.4c0.1-4.2-0.5-8.4-0.8-12.6c-0.1-2.4-0.2-4.8-0.1-7.2c0.2-5.3,0.4-10.5,0-15.8
		c-0.4-4.6,0.2-9,1.9-13.3c0.6-1.5,1.1-3,1.7-4.5c1.5-3.7,3.1-7.3,4.1-11.2c0.4-1.7,1.2-3.4,2.1-4.9c1.1-2,1.8-2.2,4.1-1.8
		c0.2,0,0.4,0,0.7,0c1.6-2.3-0.4-4.7,0-7.2c0.5,0.3,0.9,0.4,1.1,0.6c0.4,0.7,0.8,1.6,1.1,2.3c0.3,0.5,0.6,1.1,0.9,1.8
		c0.7-0.8,0.4-1.5,0.3-2.2c-0.5-1.8-1-3.6-1.4-5.4c-0.3-1.2-0.2-1.2,0.8-2.6c0.3,0.7,0.6,1.3,0.9,1.8c0.6,1.2,1,2.5,1.7,3.7
		c1.3,2.5,2.1,5.1,1.7,8c-0.5,4.4-0.8,8.9-1.1,13.3c-0.1,1,0.2,2,0.2,2.9c0,1.7,0.2,3.5,0,5.2c-0.4,4.6-1,9.2-1.6,13.9
		c-0.1,0.6-0.2,1.1-0.4,1.6c-1.6,3.3-2,6.9-2.3,10.5c-0.1,0.9-0.2,1.9-0.4,2.8c-0.5,2.2-0.2,4.4,0,6.7c0.1,1.7,0.3,3.3,0.5,5.4
		c0.2-0.7,0.4-0.9,0.4-1.2c0.1-5,1.5-9.5,4-13.8c1.2-2.1,2.1-4.5,2.8-6.9c0.7-2.1,1.8-3.9,3.3-5.5c0.6-0.6,1.2-1.1,1.7-1.7
		c0.3-0.4,0.4-1,0.5-1.5c0.1-0.3-0.1-0.6-0.2-0.9c-0.5-2.3-0.6-4.4,1.1-6.4c0.9-1.2,1.6-2.6,2.7-3.7c0.3-0.3,0.3-0.8,0.5-1.2
		c0.2-0.6,0.4-1.2,0.7-1.7c1.3-2.1,2.9-3.6,5.4-2.7c0.9-1.3,1.8-2.4,2.6-3.5c0.3-0.4,0.4-0.9,0.6-1.3c0.7-1.8,1.4-3.6,2.7-5.1
		c0.5-0.5,0.6-1.3,1-2c0.4-0.7,0.8-1.3,1.4-2.2c0.7,1.1,0.3,2,0,2.6c-1.4,2.3-1.2,4.8-1.3,7.3c-0.3,4.2,0.5,8.3,1.2,12.4
		c0.4,2,0.4,3.9-0.2,5.9c-0.4,1.5-0.8,3-1.3,4.5c-0.6,1.6-0.7,3.1-0.3,4.7c0.3,1.5,0.4,2.9,0.6,4.4c0.1,0.8-0.1,1.3-0.6,2
		c-0.6,0.8-1,2-0.8,2.9c0.4,3.1,1.1,6.2,1.7,9.3c0.3-0.2,0.6-0.6,1-0.7c1.8-0.6,2.3-1.9,2.5-3.5c0.3-3.4,1.8-6.4,2.5-9.7
		c0.7-3.3,2-6.3,3.2-9.4c1.8-4.7,3.7-9.1,6.9-13c0.8-1,1.2-2.4,1.5-3.8c0.6-2.4,1.6-4.8,0.9-7.5c-0.1-0.5,0.2-1.2,0.5-1.7
		c1-2,2.1-3.9,3.2-5.9c0.4-0.8,0.8-1.6,1-2.4c0.5-1.3,1.5-2.2,2.6-2.8c1.1-0.5,1.7-1.3,2.2-2.4c0.9-1.8,1.8-3.7,2.7-5.5
		c0.4-0.7,0.7-1.5,1.7-1.7c0,1,0,2,0,3.3c0.6-0.5,1-0.6,1.1-0.9c2.5-4.7,4.9-9.3,7.4-14c0.3-0.5,0.6-0.9,1-1.4
		c0.2,0.1,0.3,0.1,0.5,0.2c-0.1,0.6-0.1,1.3-0.3,1.9c-1.2,3.3-2.5,6.6-3.8,9.9c-0.5,1.3-1.2,2.6-1.2,4.1c0,0.7-0.3,1.5-0.5,2.2
		c-0.8,2.1-1.5,4.1-1.2,6.5c0.1,0.9-0.5,1.9-0.9,2.8c-1.3,2.6-2.3,5.2-2.8,8.2c0.5,0,0.9,0,1.5,0c-0.3,0.7-0.5,1.3-0.7,1.9
		c-2.6,6.8-5.1,13.7-7.7,20.5c-0.6,1.5-0.8,2.9-0.2,4.5c0.2,0.6,0,1.5-0.2,2.1c-1.9,5.3-4,10.6-5.9,15.9c-1.1,3-2,6-3.1,9.2
		c3.5,0.1-1.1-2.5,1.6-4.4c1.5-1.1,10.7,1.1,12.6,1c1-0.1,1.4-0.7,1.1-1.8c1.4-0.2,2.8-0.5,4.1-0.6c0.9-0.1,1.5-0.5,1.8-1.4
		c0.4-1.4,1.2-2.6,0.5-4.3c-0.2-0.5,0.2-1.4,0.5-2.1c1.3-2.9,2.7-5.9,4-8.8c1.4-3.3,2.9-6.6,4.2-9.9c0.5-1.3,0.5-2.8,0.7-4.2
		c0,0-2.5,1.1-2.7,1.2c0.2-0.5,0.2-0.9,0.4-1.3c0.7-1.5,1.6-3,2.2-4.5c0.5-1.2,0.8-2.5,1-3.8c0.3-2.3,1.5-4.2,3.2-5.7
		c0.5-0.5,1-1.1,1.5-1.6c0.4-0.4,0.8-0.9,1.3-1.2c0.6-0.4,0.8-0.8,0.6-1.6c-0.1-0.5-0.1-1.1,0.1-1.6c0.6-1.3,1.2-2.6,2-3.8
		c0.3-0.5,0.9-0.9,1.5-1.1c0.9-0.3,1.4-0.9,1.9-1.7c1.1-1.8,2.1-3.7,2.3-5.8c0.2-2,1.6-3.3,2.9-4.6c0.2-0.2,0.7-0.2,1-0.2
		c0.5,0,1,0.2,1.5,0.3c0.8-1.1,0.6-2.8,2.1-3.8c0.2,1.1,0.4,1.9,0.7,3.2c1.1-2.3,0.9-4.7,3.1-6.1c-0.1,1.4-0.1,2.9-0.4,4.3
		c-0.6,3.5,0,6.9,0.8,10.3c0.5,2.1,1.2,4.2,1.8,6.5c0.2-0.1,0.6-0.2,0.9-0.3c4.7-2.2-2.1-5.1,2.9-6c1.3-0.2,13.8-0.4,15-1
		c1.4-0.7,3.3,0,4.8-0.1c3.6-0.2,7.3-0.5,11-0.8c-0.1-0.5-0.2-0.9-0.4-1.5c1.4-0.1,2.7-0.2,3.9-0.2c5.9,0.2,11.8,0.6,17.5,1.8
		c5.1,1,10,2.8,14.4,6.3c1.9-1.1,1.9-3.2,3.8-4.5c3.7-2.5,11.7-6.8,16-7c1.9-0.1,1.5,3.9,3.1,3.1c0.7-0.4,1.5-0.5,2.3-0.6
		c2.9-0.1,5.7,0,8.6,0c0.6,0,1.3-0.1,2-0.2c-0.2-0.5-0.3-0.8-0.4-1c0.1-0.1,0.2-0.2,0.3-0.3c2.2-0.7,4.3-0.2,6.4,0.2
		c4.8,0.8,9.6,1.7,14.4,2.7c3.3,0.7,6.2,2.1,8.9,4c0.6,0.4,1.4,0.8,2.1,1.1c1.2,0.4,2.1,1.3,2.7,2.4c2.4,5,3.2,10.2,0.8,15.4
		c-0.8,1.8-1.9,3.5-3.1,5.1c-2.6,3.4-5.6,6.4-9.2,8.9c-0.5,0.3-1,0.8-1.4,1.2c-2.8,3.4-6.5,5.5-10.3,7.5c-0.4,0.2-0.8,0.4-1.1,0.6
		c0,0-0.1,0.1-0.1,0.2c3.2,1.6,6.6,3.1,9.6,5c3,1.9,5.7,4.4,8.7,6.8c0.2-0.9,0.4-1.9,0.6-2.9c0.5-2.9,0.9-5.8,1.4-8.6
		c0.1-0.5,0.1-1,0.3-1.4c0.3-0.9,0.3-1.7-0.4-2.4c-0.6-0.6-0.5-1.3-0.3-2.1c0.5-1.8,1-3.6,1.5-5.5c-0.5-0.2-0.9-0.4-1.4-0.6
		c0-0.2-0.1-0.4,0-0.5c1.6-3.8,3.7-7.3,6.3-10.5c0.4-0.4,0.8-0.7,1.2-1.1c0.9-0.8,1.8-1.7,1.6-3.2c0-0.3,0.2-0.7,0.4-1
		c0.2-0.4,0.5-0.7,0.8-1c3.6-3.4,7.3-6.7,12.2-8.3c1-0.3,1.9-0.9,2.7-1.5c1.4-0.9,2.9-1.4,4.5-1.7c1-0.1,2-0.2,2.8-0.3
		c0.4-0.7,0.7-1.4,1.1-2.1c0.5,0.3,0.9,0.5,1.2,0.7c1,0.3,2,0.9,3,0.9c1.8,0,3.3,0.5,4.6,1.6c0.5,0.4,1.1,0.8,1.6,1.3
		c0.7,0.7,1.4,1.1,2.5,0.7c0.4-0.2,1-0.1,1.5,0c0.7,0.2,1.1,0.8,0.8,1.6c-0.3,0.7-0.6,1.3-1,2c1.1,2.1,2.8,3.9,2.9,6.4
		c-0.9,0.6-1.8,0.3-2.7,0.2c-0.4,0-1,0.2-1.2,0.5c-0.4,0.5,0,0.9,0.4,1.2c0.5,0.4,1-6,1.6-5.6c0.5,0.3-3.6-4.7,4,4
		c0.4-0.3-0.6-0.1,0,0c1.7,0.2,6.9,6.5,6,8c-0.1,0.2-5.7-2.5-5.9-2.3c0.8,1.1,1.7,2.2,2.3,3.3c1.3,2.3,1.6,4.8,1.8,7.3
		c0.1,1.7,0.2,3.3,1.2,4.8c0.4,0.5,0.4,1.4,0.3,2.1c-0.4,2.9-0.9,5.8-1.4,8.6c-0.3,1.7-0.8,3.4-1.2,5.1c0,0.2,0,0.4,0,0.7
		c0.4-0.1,0.8-0.2,1.4-0.4c-0.2,1-0.2,1.9-0.5,2.6c-0.4,1.2-0.8,2.4-1.4,3.4c-3.5,6.9-7.9,13-14,17.9c-1.9,1.6-4,2.9-6.2,4
		c-2.6,1.2-5.1,2.6-7.6,3.9c-2.4,1.2-4.9,1.5-7.4,0.6c-3.1-1.1-6.3-2.4-9.2-4c-2.5-1.4-4.4-3.7-5.9-6.1c-2.6-4-4.1-8.5-4.5-13.2
		c-0.2-2.8-0.2-5.5-0.4-8.3c-0.5,1.6-1.5,3-0.9,4.9c0.5,1.7,0.1,3.3-1.4,4.5c-0.4,0.3-0.7,0.7-0.9,1.2c-0.5,1.6-1.6,2.8-2.8,3.9
		c-3.4,3.4-7.3,5.9-11.5,8.1c-5.4,2.7-11.1,4.7-16.9,6.1c-0.8,0.2-1.6,0.2-2.4,0.1c-2-0.2-4,0.1-5.8,0.8c-2.4,0.9-4.9,1.9-7.2,2.9
		c-0.6,0.3-1.1,0.9-1.6,1.2c0.6,1.1,1.1,1.9,1.8,3.1c-1-0.1-1.7-0.2-2.9-0.4c1.3,1.6,2.3,2.8,3.3,4.1c1,1.4,2,2.8,3.1,4.2
		c1,1.3,2,2.6,3,3.9c-0.8,0.7-1.2,0.1-1.6-0.3c-2-1.9-4.1-3.8-6.1-5.8c-0.9-0.8-1.6-1.7-2.5-2.5c-0.7-0.6-1.5-1.2-2.4-1.9
		c-1.7,2.9-2.4,6.1-3.9,8.8c-0.4-3.3,0.9-6.3,1.6-9.5c-1.3-0.4-2.6-1-4-0.6c-0.8,0.2-1.6,0.3-2.4,0.5c-1.8,0.5-3.7,0.6-5.5,0
		c-1.4-0.5-2.8,0-4.2,0.2c-1.8,0.2-3.7,0.6-5.5,0.9c-0.7,0.1-1.4,0.1-2.4,0.1c0.6-1.3,1.9-1.3,2.6-2.4c-2.3-0.1-4.4,0.6-6.5,0.8
		c-2.2,0.1-4.5,0.1-6.7,0c-2.1-0.1-4.2-0.2-6.4-0.4c0-0.1-0.1-0.3-0.1-0.4c0.4-0.2,0.8-0.5,1.2-0.6c2.3-0.3,4.7-0.7,7-0.8
		c3.5-0.1,6.8-0.6,9.9-2.2c0.7-0.4,1.6-0.5,2.5-0.7c1.7-0.5,3.4-1.1,4.9-2.4c-0.4-0.4-0.8-0.7-1.1-1c-2.1-1.4-4.2-2.9-6.4-4.2
		c-1.2-0.8-2.4-1.5-4-1c-0.4,0.1-1-0.1-1.4-0.3c-0.7-0.3-1.5-0.7-2.1-1.1c-4.5-3-9.3-5.5-14.1-7.9c-0.9-0.4-1.9-0.6-2.8-1
		c-1.3-0.5-2.5-1-3.9-1.6c-0.2,0.8-0.6,1.5-0.7,2.3c-0.2,1.2-0.7,2.3-1.3,3.4c-0.8,1.5-1.4,3.2-1.9,4.8c-0.4,1.3-0.9,2.4-1.7,3.5
		c-0.8,1-1.4,2.2-2.2,3.2c-1.8,2.3-2.1,5-2.4,7.7c0,0.5,0,1,0.2,1.4c0.6,1.3,0.3,2.5-0.1,3.8c-0.8,2.3-1.3,4.6-2.1,6.9
		c-0.4,1-1,2-1.8,2.8c-0.7,0.8-1.2,1.6-1.4,2.5c-0.5,1.7-1,3.3-1.5,5c-0.1,0.4-0.4,0.7-0.7,1.4c-0.3-1.2-0.5-2-0.9-3.2
		c-1.2,2.9-2.1,5.6-3.3,8.1c-1.2,2.4-2.2,5-3.5,7.4c-0.2-0.1-0.4-0.1-0.6-0.2c0.1-0.8,0-1.6,0.2-2.3c0.9-3.1,1.8-6.2,2.9-9.2
		c0.9-2.7,0.8-5.5,0.9-8.3c0-0.1,0-0.3-0.1-0.4c-1.1-1.7-0.6-3.4-0.2-5.1c0.4-2.1,0.5-4.2,0.8-6.4c-0.6,0.1-0.9,0.1-1.5,0.1
		c0.1-0.7,0.2-1.4,0.3-2c1.4-6.8,3.5-13.4,5.6-20.1c0.3-0.9,0.5-1.7,0-2.7c-0.2-0.5-0.2-1.2,0-1.8c0.5-1.9,1.1-3.7,1.7-5.8
		c-2.8,0.2-5.5,0.5-8.2,0.7c0,0.1,0,0.2,0,0.3c1.3,0.2,2.6,0.4,4.2,0.7c-0.7,0.2-1.1,0.4-1.4,0.5c-2.5,0.5-5,0.9-7.5,1.5
		c-1.7,0.4-1.7,0.6-1.8,2.3c-0.1,2.8,0.2,5.4,1.5,7.9c0.3,0.5,0.3,1.2,0.3,1.8c-0.1,3-0.1,6.1-0.2,9.1c0,0.5-0.1,1-0.4,1.4
		c-0.8,1.2-0.8,2.5-0.8,3.9c0.1,1.8,0,3.6,0,5.5c-0.1,0.1-0.3,0.1-0.4,0.1c-0.4-0.6-0.8-1.2-1.2-1.8c-0.1,0,1.8,0,1.6,0
		c-0.1,0.8-0.3,1.5-0.2,2.2c0.3,1.8-0.1,3.6-0.6,5.3c-0.5,2-2.9,4.1-3.4,6.1c-0.1,0.4-0.3,0.8-0.5,1.2c-0.1,0-0.3-0.1-0.4-0.1
		c-0.1-0.4-0.2-0.8-0.2-1.2c0.1-2,0.2-4.1,0.5-6.1c0.2-1.7,0.3-3.4,0-5.2c-0.3-1.5-0.4-3.1-0.8-4.6c-0.2-0.9-0.6-1.8-1.1-2.5
		c-0.6-0.7-0.8-1.5-0.9-2.4c-0.4-2.7-0.8-5.4-1.2-8.2c-0.9,0.3-1.6,0.4-1.7-0.5c-0.1-0.7-0.3-1.3-0.3-2c0-2.5,0.1-5.1,0.1-7.6
		c0-1.2-0.1-2.3-0.1-3.7c-1,0.3-1.8,0.6-2.6,0.8c-1.1,0.3-2.1,0.7-3.1-0.3c-0.2-0.2-1-0.3-1.4-0.1c-3.4,1.6-7,1.9-10.7,2
		C158.8,158.8,158.5,158.8,158.1,158.9z M262.7,94.1c1.4,1.2,3.3,4,4.6,6.8c2.1,4.6,2.2,9.2,0.5,13.9c-1,2.8-2.6,5.2-4.4,7.5
		c-2.5,3.3-5.7,6-8.9,8.7c-1.1,0.9-2.1,2.1-3.1,3.1c-1.4,1.3-2.8,2.6-4.3,3.8c-1.1,0.8-2.3,1.5-3.3,2.3c-1.4,1.1-2.8,2-4.4,2.7
		c-2.2,0.8-4,2.4-6.1,3.9c1.2,0.4,2.2,0.6,3.1,1c5.9,2,11.1,5.4,16.1,9.2c0.8,0.6,1.4,1.6,1.8,2.6c0.4,1,0.9,1.8,1.8,2.3
		c2,1,3.9,2.1,6,2.9c1.4,0.4,2.8,0.6,3.8,1.7c1.2-0.5,2.2-0.9,2.7-2.2c-0.5,0-0.8,0-1.3,0c-0.3-1.6,0.1-3.1,0.5-4.6
		c1-3.8,2.2-7.6,3.2-11.4c0.4-1.5,0.8-3,0.1-4.5c-0.2-0.4-0.1-1.1,0-1.6c0.4-1.8,0.8-3.5,1.1-5.3c0.1-0.6,0.2-1.3,0.3-2.1
		c-1.5,0.2-2-0.7-2.1-1.8c-0.9-0.5-2-0.1-2.4-1.4c1.1-0.4,2.1-0.7,3.1-1c-2.4-1.1-5.1-0.9-7.5-2.4c1.3-0.8,1.3-0.8,3-0.7
		c2.1,0.1,4.2,0.4,6.3-0.2c0.2-0.1,0.3-0.2,0.5-0.3c0-0.3-0.1-0.7-0.1-1.3c0.8,0,1.5-0.1,2.4-0.1c0-0.7,0.1-1.5,0.1-2.3
		c0-1-0.3-2.1,0.1-2.9c1-2.1,0.5-4.6,1.8-6.6c0.1-0.2,0-0.5,0-0.7c0.1-1.5,0.1-3,0.2-4.4c0.1-1.7,0.9-3.1,2.6-3.7
		c0.4-0.1,0.6-0.4,1-0.5c1.3-0.5,2.2-1.3,3-2.4c1.3-1.6,2.6-3.2,4.7-3.7c0.9-0.2,1.1-0.9,0.9-1.8c-0.3-1.4-1.1-1.9-3.1-2
		c-0.8,1.2-1.5,1.6-2.4,1.2c-1.4-0.5-0.8-1.8-0.9-2.8c-3.2-0.5-6.5,0-9.8-0.9c0.8-0.7,1.5-1.2,2.2-1.8c-3-0.5-6,0-8.6,1.4
		C266.1,92.6,264.4,93.3,262.7,94.1z M361,108.7c-1.9,2.7-3.6,5.2-5.3,7.7c-0.2,0.4-0.5,0.7-0.7,1.1c-1.2,2.5-3,4.5-5,6.4
		c-3.9,3.8-5.8,8.4-6.1,13.8c-0.1,1.7-0.2,3.5-0.5,5.2c-0.1,1.1-0.4,2.2-1.4,3c-0.8,0.6-1,1.5-0.7,2.5c0.1,0.3,0.1,0.7,0.2,1.1
		c0.5,4.1,2.1,7.3,6.5,8.5c1.9,0.5,3.6,0.8,5.4,0.1c2.2-0.8,4.5-1.3,6.7-2.1c0.9-0.3,1.6-0.9,2.4-1.4c0.6-0.4,1.1-1,1.5-1.6
		c1.8-2.2,3.5-4.5,3.7-7.5c0.1-2.2,0.8-4.3,1.9-6.4c1.5-2.7,2.6-5.6,3-8.7c0.1-0.8,0.6-1.7,1.2-2.2c1.6-1.4,2-3.2,1.9-5.2
		c-0.1-1.9-0.3-3.8-0.4-5.8c0-0.6,0-1.2,0.1-1.7c1.4-0.2,1.5,1.6,2.8,1.4c0-0.2,0-0.4,0-0.6c-1.1-3-3-5.4-5.5-7.3
		c-0.5-0.4-1.3-0.5-1.9-0.7c-0.1,0.1-0.1,0.2-0.2,0.3c0.5,0.5,1,1,1.5,1.6c0.2,0.3,0.4,0.9,0.3,0.9c-0.9,0.8-0.1,1.4,0,2.1
		c0.1,0.6,0.3,1.2-0.4,1.9c-0.4-0.5-0.8-0.8-1.2-1.2c-1-1.2-1.9-2.3-2.8-3.5c-0.5-0.6-1-1-1.9-0.8
		C364.4,110.2,362.6,109.9,361,108.7z M199.1,135.7c-0.4-1.5-1.3-2.4-2.5-3.1c-0.6-0.4-1.1-0.8-0.9-1.8c0.7,0.1,1.3,0.2,1.8,0.4
		c1.2,0.5,2,0.2,2.7-0.7c-0.3-1.2-1.5-2.1-1.3-3.6c0.8,0.2,1.5,0.3,2.3,0.4c-0.4-2.3-3.1-3.4-3-6.3c0.9,0.7,1.4,1.1,1.9,1.5
		c2,1.6,4.1,3.3,6.1,4.8c0.7,0.5,1.5,1.1,2.5,1c0.2-0.9,0.3-1.8,0.7-2.6c0.8-1.7,1.1-3.5,1.2-5.4c0.1-2.3,0.7-4.5,2.4-6.3
		c0.7-0.7,1.3-1.6,1.9-2.5c0.3-0.3,0.4-0.9,0.7-1.1c1.6-1,2.1-2.7,3-4.2c0.8-1.3,1.9-2.6,3.2-3.5c0.6-0.4,1.9,0.1,2.8,0.2
		c0.1,0,0.2-0.1,0.4-0.1c0.8-1,0.7-2.7,2.4-3.1c0.1,0.9,0.2,1.8,0.3,2.8c1.4-1.1,1.8-2.4,2-4c-3.5-0.2-6.8-0.9-10.1-0.5
		c-1.4,0.2-2.8,0-4.2-0.5c-3.1-1.2-6.2-1.7-9.5-1c-1.4,0.3-2.8,0.3-4.2,0.5c-0.4,0-0.8,0-1.2,0c0-0.1-0.1-0.3-0.1-0.4
		c0.9-0.6,1.8-1.1,2.8-1.6c-0.6-0.3-1.2-0.4-1.7-0.3c-2.1,0.4-4.1,0.8-6.2,1.3c-1.7,0.4-3.4,1.1-5,1.6c-0.2,1.1-0.4,1.9-0.6,2.8
		c-0.8,5.4-1.9,10.8,0,16.1c0,0.1,0.1,0.2,0.1,0.4c0.3,1.8,0.2,3.6-1.1,5.1c-0.6,0.7-0.6,1.4-0.5,2.3c0.4,2.7,0.7,5.4,1,8.1
		c0.3,3.9,0.5,7.8,0,11.7c-0.1,0.6,0,1.3,0.3,1.8c0.6,0.9,1.4,1.9,2.3,2.2c3.4,1.3,1.6-2.5,5.3-2.2c0.6-1.5,6.9,1.1,7.1-0.4
		c-1-0.7-2-1.2-2.7-1.9c-0.9-0.8-0.9-1.3-0.3-2.2c0.7-1.1,0.8-1.5-0.2-2.4c-0.7-0.6-1.5-1.1-2.2-1.6c-0.5-0.4-1.1-0.6-0.8-1.4
		C198.2,135.9,198.6,135.8,199.1,135.7z M224.4,131.1c2-0.3,3.9-0.6,5.7-0.9c0.4-0.1,0.8-0.2,1.2-0.4c4.2-2,8.3-4.1,11.2-7.9
		c1.2-1.6,2.9-2.7,5-2.8c0.7-0.1,1.6-0.5,2.1-1c1.3-1.3,2.7-2.7,3.5-4.3c2.8-5.5,1.5-9.6-4-12.2c-0.9-0.4-1.7-1-2.5-1.6
		c-2.3-1.8-4.8-2.8-7.7-2.7c-1.4,0.1-2.9,0-4.3,0c-2.3,0.1-3.4,1-3.7,3.3c-0.2,1.3-0.4,2.6-0.6,3.8c-0.5,3.7-1.6,7.3-1.1,11
		c0.3,2.4-0.2,4.7-1.1,6.9c-0.7,1.7-1.7,3.3-2.6,4.9C225.1,128.5,224.5,129.6,224.4,131.1z M296.2,95.7c0.4,1.7,0.8,3.3,1,5
		c0.9,6.1,0.3,11.9-3.5,17c-0.4,0.5-0.5,1.3-0.9,2.1c2.3-0.2,4.3-0.6,6.1-1.5c0.8-0.4,1.5-1,2.3-1.2c2.2-0.6,3.9-1.8,5.5-3.3
		c0.9-0.9,2-1.7,3-2.5c0.8-0.7,1.7-1.2,2.8-1c1.6,0.2,2.7-0.6,3.4-1.8c0.8-1.4,1.5-3,2.2-4.5c1-2.1-0.1-4.4-1.9-5.2
		c-1.5-0.8-3.2-1.3-4.3-2.8c-0.1-0.1-0.3-0.2-0.5-0.2c-3.4-0.5-6.7-1.4-10.1-0.2c-0.6,0.2-1.2,0.2-1.8,0.2
		C298.5,95.7,297.4,95.7,296.2,95.7z M287.2,142.3c-0.9,2.5-1.6,4.9-2.5,7.3c-0.6,1.7-1.2,3.4-3,4.3c-0.2,0.1-0.4,0.4-0.6,0.7
		c-1.2,2.2-1.4,4.6-1.3,7.3c1.2-0.4,2.2-0.7,3.2-1c2.4-0.8,4.9-1.5,7.2-2.3c1.2-0.4,2.6-0.9,3.1-2.1c0.5-1.1,1.3-1.4,2.2-1.8
		c1.4-0.5,3-1,4.3-1.7c2.2-1.2,4.5-2.1,7-2.3c0.4,0,0.8-0.1,1.1-0.2c-0.7-0.7-1.4-1.1-2.1-1.3c-1.8-0.3-3.7-0.6-5.5-0.7
		c-1.7,0-3.2-0.4-4.6-1.3c-2.6-1.6-5.3-3.2-7.9-4.8C287.7,142.5,287.5,142.4,287.2,142.3z M175.4,143c0-0.7,0-1.6,0-2.6
		c0-0.7-0.2-1.4-0.1-2c0.1-3.5,0.2-7.1,0.2-10.6c0-0.6-0.1-1.2-0.2-1.9c-0.5,0.5-0.7,1-0.9,1.5c-0.2,1.1-0.9,1.8-1.8,2.2
		c-1.1,0.4-1.5,1.2-1.8,2.3c-1,4.2-2.2,8.4-4.2,12.3c-0.1,0.2-0.1,0.4-0.2,0.9c2.2,0.1,4.1-0.3,6.1-1.1
		C173.2,143.7,174.1,143.5,175.4,143z M291.4,95.1c0.4,0.3,0.7,0.6,1.2,0.9C292.6,94.9,292.2,94.9,291.4,95.1z"/>
	<path class="st7" d="M443.8,164.6c0.2,2,1.3,2.6,3.9,2.6c-0.4-0.6-0.9-1.2-1.3-1.8c0.1-0.1,0.2-0.2,0.2-0.3
		c0.4,0.1,0.8,0.1,1.1,0.3c3.7,1.6,7.6,1.6,11.5,1.2c2.4-0.3,5.1-3.2,4.9-5.7c-0.1-1.5-0.2-3-0.3-4.4c-0.1-1.2-0.4-2.3,0.2-3.5
		c0.2-0.4,0-1.2-0.3-1.7c-1.6-2.9-4-5.4-6.4-7.7c-0.8-0.8-1.4-0.6-2.1,0.4c-0.2,0.3-0.3,0.6-0.4,0.8c-0.1,0.3-0.3,0.5-0.5,0.9
		c-0.4-0.4-0.8-0.7-1.3-1.2c-0.4,1.9-0.7,3.6-1.1,5.6c-0.4-0.6-0.8-0.9-0.8-1.2c-0.2-1.2-0.4-2.4-0.5-3.7c-0.1-1.1-0.2-2.1-1.2-2.8
		c0,0-0.1-0.1-0.1-0.1c-1.2-1.3-1.2-1.5,0.1-3c-0.3-1.1-1.1-1.8-2-2.5c-0.8-0.7-1.2-1.5-1.5-2.5c-0.4-1.3-0.9-2.6-1.5-3.8
		c-0.4-0.8-1-1.4-1.6-2c-0.9-0.9-1.5-1.8-1.1-3.1c0.3-1.1-0.3-1.9-0.9-2.7c-1.1-1.6-1.6-3.4-1.7-5.2c-0.2-2.8,0-5.7,1.2-8.2
		c0.7-1.6,1.5-3.2,1.9-4.9c0.3-1.1,0.4-2.3,0.7-3.4c0.1-0.6,0.3-1.3,0.7-1.8c0.9-1.2,1.9-2.3,3-3.2c0.9-0.7,2-1.2,3-1.7
		c1-0.5,2.1-1,3.2-1.5c0.5-0.2,1.1-0.4,2-0.7c-0.2,0.8-0.3,1.3-0.4,1.8c0.9,0.4,1.4-0.2,1.9-0.6c2.5-1.9,5.1-3.5,8.3-4.1
		c3.5-0.7,6.9-0.1,10.3,0.8c0.9,0.2,1.6,1.2,2.5,1.5c3.2,1.1,5.2,3.9,7.9,5.7c1.1,0.7,3.5-2.3,3.7-0.9c0.3,3.3,2.5,8.8,2,12
		c-0.4,2.2-5.6,5.1-7.9,5.2c-0.2,0-0.4,0.1-0.6,0.1c-0.2,0.3-0.5,0.7-0.7,1.1c-0.2,0.3-0.4,0.6-0.7,1c-0.4-0.5-0.7-0.9-1.1-1.4
		c-1.5,1.3-0.6,3.7-2.4,4.9c-1.2-1.4,0.5-3.3-0.9-4.5c1-1.8,0.8-3.4-0.3-5c-1.1-1.8-2.1-3.6-3-5.5c-0.4-0.9-0.8-1.5-1.9-1.4
		c-4.5,0.3-8.6,1.7-12,4.9c-1.7,1.6-2.4,3.6-3,5.7c-0.1,0.5,0,1.1,0.1,1.7c0,0.4,0.2,0.9,0.1,1.3c-0.3,1.2,0,2.2,0.2,3.4
		c0.3,1.3,0.8,2.4,1.6,3.4c0.4,0.5,0.7,1.2,0.9,1.8c0.3,0.9,1,1.3,1.5,2c0.5,0.6,0.2,1.8,0.7,2.3c0.8,1,1.9,1.8,3,2.4
		c1.3,0.8,2.3,1.8,3.2,3.1c2,2.8,4,5.5,6,8.3c3.4,4.8,5.1,10.1,5.5,15.9c0.2,2-0.1,4-0.8,5.8c-0.6,1.4-1.4,2.5-2.6,3.3
		c-1.1,0.7-1.8,1.6-2.4,2.8c-0.3,0.7-0.7,1.3-1,2c-1.5,3.6-4.4,5.4-8.1,6.1c-0.5,0.1-1.2,0-1.6,0.3c-1.5,1-3.1,1-4.8,0.9
		c-1.8-0.1-3.6-0.1-5.3,0.5c-1,0.3-1.9,0.4-2.8-0.3c-0.8-0.6-1.7-0.6-2.7-0.3c-2.2,0.6-4.3,0.2-6.4-0.4c-1.1-0.3-2.2-0.9-2.6-2.2
		c-0.1-0.4-0.7-0.9-1.1-1.1c-1.4-0.6-2.7-1.5-4.4-1.2c-0.4,0.1-0.9-0.2-1.2-0.4c-1.2-1.2-2.3-2.4-3.4-3.6c-0.1-0.2-0.3-0.5-0.3-0.7
		c0.4-1.9-0.5-3.5-0.8-5.3c0-0.2,0.1-0.4,0.1-0.7c0.5,0.2,0.9,0.4,1.4,0.7c0.1-0.3,0.3-0.6,0.3-0.8c-0.3-2.1-0.5-4.2-0.9-6.3
		c-0.1-0.8-0.4-1.6-0.5-2.4c0-0.3,0.1-0.6,0.5-1.1c0.3,0.6,0.6,1.2,1.1,2.1c0.1-0.6,0.2-1,0.4-1.8c0.7,1.1,1.2,2,1.7,2.9
		c0.5-1.4-0.1-2.7-0.1-4.1c0-1.4-0.1-2.9,0-4.3c0.1-1.4,0.4-2.7,0.7-4c0.3-1.4,0.6-2.8,1.1-4.1c0.4-1.3,0.5-2.7,1.5-3.7
		c0.2,0,4.3-5.4,4.5-5.4c0,0.6-1.9,7.4-2,8c-0.5,2.5,0.5,9.5,0,12c-0.6,2.9-4.1,0.5-2.8,3.2c0.5,1,1,2,1.5,3c0.9,2,2.2,3.6,4.3,4.3
		c0.4,0.1,0.8,0.4,1,0.8C441.7,164.2,442.6,164.6,443.8,164.6z M430.8,161c0.2,2,0.8,2.9,2.1,3.3C432.2,163.2,431.5,162.1,430.8,161
		z"/>
	<path class="st7" d="M381.5,183.8c-0.5-0.1-0.8-0.1-1.2-0.1c0.1-0.6,0.2-1.2,0.4-1.8c0.3-0.9,0.6-1.9,1-2.8
		c2.6-6.3,5.3-12.6,7.9-18.9c0.2-0.5,0.5-1.1,0.4-1.6c-0.4-1.7,0.1-3.2,0.9-4.6c1.1-1.9,1.2-3.6-0.1-5.3c-2.2-2.8-1.3-5.6,0.1-8.3
		c0.6-1.2,0.8-2.2,0.5-3.6c-0.8-3.5-1.3-7.1-2-10.6c-0.2-0.8-0.7-1.6-1.1-2.3c-0.3-0.6-0.8-1.1-0.9-1.7c-0.5-2.1-0.6-4.4-2.2-6.2
		c-0.2-0.2-0.1-0.7-0.2-1.1c-0.8-2.5-0.7-5.2-1.9-7.6c-0.5-1-0.3-1.9,0.2-2.8c1.2-2.2,2.3-4.4,3.4-6.6c0.9-1.9,2.2-3.2,4.5-2.8
		c0.2,0,0.4-0.1,0.5-0.1c0.5-0.7,1-1.4,1.5-2.2c0.6,0.5,1,0.8,1.6,1.2c1-1.8,0.4-4,2-5.8c0.2,0.9,0.4,1.4,0.5,2
		c0.3,2.2,0.5,4.3,0.8,6.4c0.1,1.1,0.5,2.1,1,3.1c1.1,1.8,1.1,3.9,0.9,6c0,0.2-0.1,0.5-0.2,0.7c-1.1,5.2-1.2,3.7,0.7,8.4
		c0.4,0.9,0.6,1.6-0.3,2.3c-0.6,0.4-0.5,1.1-0.2,1.7c0.2,0.6,0.4,1.2,0.7,1.7c0.9,1.6,1.1,3.2,0.3,5c-0.5,1,0.4,1.6,0.9,2.6
		c1-2.4,1.9-4.6,2.8-6.7c0.3-0.6,0.4-1.3,0.8-1.9c1.2-1.8,1.9-3.9,2.3-6c0.4-2.1,1.4-4,2.8-5.6c1.8-2,3.7-4,5.7-6.1
		c-1-0.9,0.3-1.8,0.4-2.9c-1-0.7-1-1.6-0.4-2.7c0.1-0.2,0.2-0.3,0.2-0.5c0.4-1.9,1.5-3,3.3-3.8c1.9-0.9,3.6-1.8,5.7-2.2
		c0.9-0.2,1.4-0.8,1.9-1.4c0.4-0.5,0.7-1.3,1.6-1c0.9,0.2,1.4,0.8,1.4,1.8c0,0.1,0.1,0.2,0.2,0.3c0.5-0.3,1-0.7,1.6-1
		c0.4,0.7,0.7,1.3,1.2,2c1.2-1.2,1.6-2.6,2.2-3.8c0.4-0.9,0.4-0.9,1.8-1.1c-0.1,0.4-0.1,0.8-0.2,1.2c-0.4,1.8-0.7,3.5-1.2,5.2
		c-0.8,2.8-1.7,5.5-2.6,8.3c-0.2,0.7-0.6,1.4-1.1,1.9c-1.3,1.3-1.7,2.9-2.3,4.6c-1.5,4-3,8-4.6,12c-0.4,1-1.1,1.9-1.9,2.7
		c-1.8,1.9-3.2,4.1-4.5,6.3c-1.2,2.1-1.8,4.4-2.4,6.8c-0.3,1.4-0.8,2.7-1.4,4c-0.5,1.1-1.3,2.1-2.6,2.5c-0.5,0.2-0.9,0.8-1.1,1.3
		c-0.7,1.9-1.2,3.9-1.9,5.8c-0.3,1-0.8,1.9-1.2,2.9c-0.4,1-0.9,2-1.3,3.1c-0.5,1.4-0.9,2.9-1.8,4.2c-0.5,0.8-0.6,1.9-0.7,2.8
		c-0.1,0.6-0.1,1.2-0.1,2c-0.5-0.2-0.9-0.4-1.3-0.6c-0.8,0.6-0.9,1.6-0.9,2.5c0,1.6,0.1,3.2,0.2,4.8c0.1,1.6,0.2,3.3-0.1,4.9
		c-1.4-1.9-1.2-4.3-2.1-6.5c-2,1.8-4.1,3.2-4.9,5.8c-0.6,1.8-1.2,3.5-1.8,5.3c-0.2,0.6-0.3,1.2-0.2,1.8c0.1,1.7-0.3,3.2-1,4.7
		c-1.1,2.5-2.1,5-3.2,7.5c-0.4,1-1,1.8-1.9,2.4c-0.8,0.5-1.3,1.4-1.7,2.3c-0.7,1.5-1.2,3.1-1.9,4.6c-0.4,0.8-0.7,1.7-1.7,2.1
		c-0.9-0.9,0.1-1.9-0.4-3.1c-0.5,0.8-0.9,1.4-1.2,2c-1,2-2,4-3.1,5.9c-0.6,1-1.2,2-2,2.9c-1,1.1-2,2.2-2.4,3.7
		c-0.1,0.3-0.5,0.6-1,0.7c0.1-0.3,0.1-0.7,0.2-1c0.4-0.8,0.8-1.5,1.1-2.3c0.9-2.2,1.8-4.3,2.9-6.4c0.8-1.4,1-3.1,1.5-4.7
		c0.3-0.9,0.5-1.8,0.9-2.6c0.7-1.6,1.1-3.3,0.6-5.1c-0.1-0.6,0.1-1.3,0.3-2c0.8-2.6,1.6-5.1,2.3-7.6
		C381.4,184.8,381.4,184.4,381.5,183.8z"/>
	<path class="st7" d="M107.4,97.9c0.1,0.8,0.3,1.4,0.3,2.1c0,0.8-0.5,1.2-1.2,1.4c-0.8,0.3-1.1-0.4-1.4-0.9
		c-0.1-0.2-0.2-0.4-0.3-0.7c-0.5-1.4-0.1-2.1,1.5-2.1C106.5,97.9,106.8,97.9,107.4,97.9z"/>
	<path class="st7" d="M390.8,89.9c0,1.1-0.5,1.7-1.2,1.7c-0.9,0-1.9-1-1.9-2c0-0.8,0.5-1.3,1.4-1.4
		C390.1,88.2,390.8,88.9,390.8,89.9z"/>
	<path class="st7" d="M428.9,82.4c1-0.2,1.9,0,2.3,1.1c0.3,0.8-0.1,1.5-0.8,1.9c-0.4,0.2-1.2,0.2-1.5,0
		C428.1,84.5,428,83.5,428.9,82.4z"/>
	<path class="st7" d="M181.4,75.9c-0.9-0.3-1.7-0.7-1.7-1.7c0-0.4,0.5-1.1,0.9-1.2c0.5-0.2,1.3-0.2,1.6,0.6
		C182.5,74.5,182.1,75.3,181.4,75.9z"/>
	<path class="st7" d="M458.9,147.8c0,0.8-0.6,1-1.2,1.1c-0.8,0.1-1.2-0.4-1.3-1.4c-0.1-0.7,0.5-1.4,1.1-1.4
		C458.2,146.1,458.9,147,458.9,147.8z"/>
	<path class="st7" d="M482.8,119.3c-0.1-0.4-0.2-0.7-0.2-1c-0.1-0.7-0.1-1.4,0.8-1.7c0.6-0.1,1.5,0.7,1.5,1.3
		c0.1,0.7-0.4,1.2-1.4,1.4C483.4,119.4,483.2,119.4,482.8,119.3z"/>
	<path class="st7" d="M83.4,73.1c0,1.2-0.3,1.8-0.9,1.7c-0.3-0.1-0.8-0.6-0.7-0.8C81.8,72.9,82.5,73,83.4,73.1z"/>
	<path class="st7" d="M395.6,85.2c-0.6,0.2-1.3,0.7-1.6-0.2c-0.1-0.3,0.4-1,0.7-1C395.6,83.7,395.7,84.3,395.6,85.2z"/>
	<path class="st7" d="M113.4,93.8c0.1,0.6,0.5,1.3-0.6,1.5c-0.6,0.1-1-0.2-0.9-0.8C112,93.7,112.6,93.6,113.4,93.8z"/>
	<path class="st7" d="M158.7,121.7c0.4,0.4,0.8,0.8,0.7,0.9c-0.1,0.3-0.4,0.6-0.7,0.9c-0.3-0.3-0.7-0.5-0.8-0.8
		C158,122.5,158.4,122.1,158.7,121.7z"/>
	<path class="st7" d="M435.9,80.7c0.6-0.3,1.2-0.5,1.5,0.3c0.1,0.2-0.2,0.8-0.4,0.9C436.1,82,435.8,81.5,435.9,80.7z"/>
	<path class="st7" d="M186.7,71.7c-0.4-0.4-0.7-0.7-0.7-0.9c0-0.2,0.4-0.5,0.6-0.7c0.2,0.2,0.6,0.4,0.6,0.7
		C187.2,70.9,186.9,71.2,186.7,71.7z"/>
	<path class="st7" d="M479.5,121.9c-0.4,0.3-0.7,0.6-0.9,0.6c-0.2,0-0.4-0.4-0.7-0.6c0.3-0.2,0.5-0.5,0.8-0.5
		C478.9,121.3,479.1,121.6,479.5,121.9z"/>
	<path class="st7" d="M454.2,152.1c-0.3,0.3-0.5,0.6-0.7,0.6c-0.3,0-0.6-0.3-0.8-0.4c0.2-0.2,0.4-0.7,0.6-0.7
		C453.5,151.5,453.8,151.9,454.2,152.1z"/>
	<path class="st7" d="M291.4,95.1c0.8-0.2,1.3-0.2,1.2,0.9C292.1,95.7,291.8,95.4,291.4,95.1z"/>
	<path class="st7" d="M430.8,161c0.7,1.1,1.4,2.2,2.1,3.3C431.6,163.9,431,163,430.8,161z"/>
	<path class="st7" d="M263.4,135.2c0-0.8,0.5-1.3,1.4-1.3c1,0,1.7,0.5,1.8,1.3c0.1,0.8-1,1.8-2,1.8C264,137,263.5,136.3,263.4,135.2
		z"/>
	<path class="st7" d="M259.5,130.3c-0.2-0.8-0.2-1.4,0.8-1.5c0.6-0.1,0.8,0.3,0.8,0.8C260.9,130.6,260.2,130.4,259.5,130.3z"/>
	<path class="st7" d="M270.7,126.3c-0.6,0.3-0.9,0.7-1.2,0.7c-0.3-0.1-0.6-0.4-0.7-0.8c-0.1-0.5,0.3-0.8,0.7-0.7
		C269.8,125.5,270.1,125.8,270.7,126.3z"/>
	<path class="st7" d="M195.8,128.8c-0.9,0.2-1.8,0.3-2.6,0.4c-0.6-0.8-1.1-1.4-0.4-2.4c0.4-0.6,1-0.8,1.6-0.6
		C195.4,126.6,195.9,127.4,195.8,128.8z"/>
	<path class="st7" d="M193.2,139.6c-0.9,0-1.4-0.4-1.5-1.2c-0.1-0.8,0.7-1.9,1.4-1.9c0.8,0,1.9,1.1,1.9,2
		C195,139,194.2,139.5,193.2,139.6z"/>
	<path class="st7" d="M194.9,148.4c-0.7,0.1-1.2-0.2-1.2-0.9c-0.1-0.7,0.9-1.6,1.7-1.6c0.8,0,1.2,0.5,1.2,1.3
		C196.6,148.1,196.2,148.4,194.9,148.4z"/>
	<path class="st7" d="M195.6,120.2c-0.7,0.4-1.1,0.6-1.5,0.7c-0.1,0-0.6-0.6-0.5-0.7c0.1-0.3,0.4-0.7,0.8-0.8
		C194.7,119.3,195,119.8,195.6,120.2z"/>
	<path class="st7" d="M191.7,129.3c0.4,0.8,0.7,1.1,0.7,1.5c0,0.2-0.5,0.4-0.8,0.7c-0.2-0.3-0.6-0.6-0.6-0.9
		C190.9,130.3,191.3,130,191.7,129.3z"/>
</g>
<g>
	
		<linearGradient id="SVGID_2_" gradientUnits="userSpaceOnUse" x1="230.4323" y1="80.4901" x2="230.4323" y2="231.2201" gradientTransform="matrix(1 0 0 -1 0 290)">
		<stop  offset="0" style="stop-color:#ED1C24"/>
		<stop  offset="0.3357" style="stop-color:#F15A24"/>
		<stop  offset="0.6612" style="stop-color:#C1272D"/>
		<stop  offset="1" style="stop-color:#F7931E"/>
	</linearGradient>
	<path class="st8" d="M162.1,152.9c-0.9,2-1.4,4-1,6.1c0.1,0.6-0.1,1.2-0.3,1.8c-0.9,2.2-1.9,4.4-2.9,6.6c-0.2,0.5-0.6,0.9-1,1.3
		c-0.7,0.8-1.6,1.4-2.2,2.3c-0.6,0.9-1.1,1.9-1.5,2.9c-0.6,1.8-0.7,2.2-2,3.1c-0.1-0.4-0.1-0.7-0.2-1c-0.1-0.4-0.1-0.7-0.3-1.4
		c-0.4,0.6-0.6,0.9-0.8,1.2c-1.1,2.5-2.1,5.1-3.1,7.6c-0.7,1.6-1.4,3.1-2.2,4.9c-0.7-0.9-0.3-1.6-0.1-2.2c0.7-3.1,1.5-6.3,2.2-9.4
		c0.3-1.3,0.6-2.7,0.9-4c0.3-1.3,0.4-2.5,0-3.9c-0.2-0.6-0.1-1.5,0.1-2.1c0.7-2.4,1.4-4.9,2.2-7.5c-0.5-0.1-0.9-0.1-1.4-0.2
		c-0.1-1.7,0.8-3.2,1.4-4.5c-1.6-0.5-3-1.1-4.5-1.4c-1.4-0.3-2.9-0.3-4.6-0.4c0.6-0.7,1-1.1,1.6-1.8c-2.9-0.2-5.5-0.4-8.4-0.6
		c0.1,3.1-1.4,5.7-2.3,8.4c-0.6,1.9-1.2,3.8-2,5.6c-0.4,0.9-0.5,2-0.7,3.1c-0.3,1.4-0.6,2.8-0.9,4.2c-0.5,1.7-1,3.4-2.8,4.2
		c-0.1,0.1-0.2,0.2-0.3,0.3c-2.8,3.2-5.5,6.4-8.3,9.5c-1.2,1.3-2.5,2.3-4,3.3c-0.2,0.7-0.4,1.4-0.6,2.2c-1.7-0.8-0.3-3.1-2.2-3.7
		c-0.6,1.5-1.4,2.9-2.8,3.5c-1-1.1,0.1-2.3-0.3-3.7c-1.9,2.2-2.6,5.3-5.2,6.5c-0.7-0.4-0.6-0.9-0.3-1.5c2.8-4.9,4-10.3,5.2-15.6
		c0.6-2.8,0.9-5.8,1.3-8.6c0.1-0.5,0.1-1,0-1.5c-0.1-1.5-0.2-1.6-1.9-1.8c-0.2-2-0.6-4.1-0.7-6.2c-0.2-3-0.4-6.1-0.6-9.1
		c-0.1-1.6-0.2-1.8-1.6-2.5c-0.2,0.6-0.5,1.1-0.7,1.6c-3.3,8.4-6.6,16.9-9.9,25.3c-1.8,4.5-6.8,7-11.4,5.8c-2.2-0.6-3.8-2-5-3.9
		c-1.7-2.7-2.8-5.7-2.9-8.9c-0.1-3.8-0.2-7.6-0.1-11.4c0.1-4.2-0.5-8.4-0.8-12.6c-0.1-2.4-0.2-4.8-0.1-7.2c0.2-5.3,0.4-10.5,0-15.8
		c-0.4-4.6,0.2-9,1.9-13.3c0.6-1.5,1.1-3,1.7-4.5c1.5-3.7,3.1-7.3,4.1-11.2c0.4-1.7,1.2-3.4,2.1-4.9c1.1-2,1.8-2.2,4.1-1.8
		c0.2,0,0.4,0,0.7,0c1.6-2.3-0.4-4.7,0-7.2c0.5,0.3,0.9,0.4,1.1,0.6c0.4,0.7,0.8,1.6,1.1,2.3c0.3,0.5,0.6,1.1,0.9,1.8
		c0.7-0.8,0.4-1.5,0.3-2.2c-0.5-1.8-1-3.6-1.4-5.4c-0.3-1.2-0.2-1.2,0.8-2.6c0.3,0.7,0.6,1.3,0.9,1.8c0.6,1.2,1,2.5,1.7,3.7
		c1.3,2.5,2.1,5.1,1.7,8c-0.5,4.4-0.8,8.9-1.1,13.3c-0.1,1,0.2,2,0.2,2.9c0,1.7,0.2,3.5,0,5.2c-0.4,4.6-1,9.2-1.6,13.9
		c-0.1,0.6-0.2,1.1-0.4,1.6c-1.6,3.3-2,6.9-2.3,10.5c-0.1,0.9-0.2,1.9-0.4,2.8c-0.5,2.2-0.2,4.4,0,6.7c0.1,1.7,0.3,3.3,0.5,5.4
		c0.2-0.7,0.4-0.9,0.4-1.2c0.1-5,1.5-9.5,4-13.8c1.2-2.1,2.1-4.5,2.8-6.9c0.7-2.2,1.8-3.9,3.3-5.5c0.6-0.6,1.2-1.1,1.7-1.7
		c0.3-0.4,0.4-1,0.5-1.5c0.1-0.3-0.1-0.6-0.2-0.9c-0.5-2.3-0.6-4.4,1.1-6.4c0.9-1.2,1.6-2.6,2.7-3.7c0.3-0.3,0.3-0.8,0.5-1.2
		c0.2-0.6,0.4-1.2,0.7-1.7c1.3-2.1,2.9-3.6,5.4-2.7c0.9-1.3,1.8-2.4,2.6-3.5c0.3-0.4,0.4-0.9,0.6-1.3c0.7-1.8,1.4-3.6,2.7-5.1
		c0.5-0.5,0.6-1.3,1-2c0.4-0.7,0.8-1.3,1.4-2.2c0.7,1.1,0.3,2,0,2.6c-1.4,2.3-1.2,4.8-1.3,7.3c-0.3,4.2,0.5,8.3,1.2,12.4
		c0.4,2,0.4,3.9-0.2,5.9c-0.4,1.5-0.8,3-1.3,4.5c-0.6,1.6-0.7,3.1-0.3,4.8c0.3,1.5,0.4,2.9,0.6,4.4c0.1,0.8-0.1,1.3-0.6,2
		c-0.6,0.8-1,2-0.8,2.9c0.4,3.1,1.1,6.2,1.7,9.3c0.3-0.2,0.6-0.6,1-0.7c1.8-0.6,2.3-1.9,2.5-3.5c0.3-3.4,1.8-6.4,2.5-9.7
		c0.7-3.3,2-6.3,3.2-9.4c1.8-4.7,3.7-9.1,6.9-13c0.8-1,1.2-2.4,1.5-3.8c0.6-2.4,1.6-4.8,0.9-7.5c-0.1-0.5,0.2-1.2,0.5-1.7
		c1-2,2.1-3.9,3.2-5.9c0.4-0.8,0.8-1.6,1-2.4c0.5-1.3,1.5-2.2,2.6-2.8c1.1-0.5,1.7-1.3,2.2-2.4c0.9-1.8,1.8-3.7,2.7-5.5
		c0.4-0.7,0.7-1.5,1.7-1.7c0,1,0,2,0,3.3c0.6-0.5,1-0.6,1.1-0.9c2.5-4.7,4.9-9.3,7.4-14c0.3-0.5,0.6-0.9,1-1.4
		c0.2,0.1,0.3,0.1,0.5,0.2c-0.1,0.6-0.1,1.3-0.3,1.9c-1.2,3.3-2.5,6.6-3.8,9.9c-0.5,1.3-1.2,2.6-1.2,4.1c0,0.7-0.3,1.5-0.5,2.2
		c-0.8,2.1-1.5,4.1-1.2,6.5c0.1,0.9-0.5,1.9-0.9,2.8c-1.3,2.6-2.3,5.2-2.8,8.2c0.5,0,0.9,0,1.5,0c-0.3,0.7-0.5,1.3-0.7,1.9
		c-2.6,6.8-5.1,13.7-7.7,20.5c-0.6,1.5-0.8,2.9-0.2,4.5c0.2,0.6,0,1.5-0.2,2.1c-1.9,5.3-4,10.6-5.9,15.9c-1.1,3-2,6-3.1,9.2
		c3.5,0.1,6.8,0.5,9.4-1.4c1.5-1.1,2.9-1.9,4.8-2c1-0.1,1.4-0.7,1.1-1.8c1.4-0.2,2.8-0.5,4.1-0.6c0.9-0.1,1.5-0.5,1.8-1.4
		c0.4-1.4,1.2-2.6,0.5-4.3c-0.2-0.5,0.2-1.4,0.5-2.1c1.3-2.9,2.7-5.9,4-8.8c1.4-3.3,2.9-6.6,4.2-9.9c0.5-1.3,0.5-2.8,0.7-4.2
		c0,0-2.5,1.1-2.7,1.2c0.2-0.5,0.2-0.9,0.4-1.3c0.7-1.5,1.6-3,2.2-4.5c0.5-1.2,0.8-2.5,1-3.8c0.3-2.3,1.5-4.2,3.2-5.7
		c0.5-0.5,1-1.1,1.5-1.6c0.4-0.4,0.8-0.9,1.3-1.2c0.6-0.4,0.8-0.8,0.6-1.6c-0.1-0.5-0.1-1.1,0.1-1.6c0.6-1.3,1.2-2.6,2-3.8
		c0.3-0.5,0.9-0.9,1.5-1.1c0.9-0.3,1.4-0.9,1.9-1.7c1.1-1.8,2.1-3.7,2.3-5.8c0.2-2,1.6-3.3,2.9-4.6c0.2-0.2,0.7-0.2,1-0.2
		c0.5,0,1,0.2,1.5,0.3c0.8-1.1,0.6-2.8,2.1-3.8c0.2,1.1,0.4,1.9,0.7,3.2c1.1-2.3,0.9-4.7,3.1-6.1c-0.1,1.4-0.1,2.9-0.4,4.3
		c-0.6,3.5,0,6.9,0.8,10.3c0.5,2.1,1.2,4.2,1.8,6.5c0.2-0.1,0.6-0.2,0.9-0.3c4.7-2.2,9.6-3.6,14.7-4.6c1.3-0.2,2.6-0.8,3.8-1.5
		c1.4-0.7,2.7-1,4.3-1.1c3.6-0.2,7.3-0.5,11-0.8c-0.1-0.5-0.2-0.9-0.4-1.5c1.4-0.1,2.7-0.2,3.9-0.2c5.9,0.2,11.8,0.6,17.5,1.8
		c5.1,1,10,2.8,14.4,6.3c1.9-1.1,3.9-2,5.7-3.2c3.7-2.5,7.7-3.7,12.1-3.8c1.9-0.1,3.5-0.5,5.1-1.4c0.7-0.4,1.5-0.5,2.3-0.6
		c2.9-0.1,5.7,0,8.6,0c0.6,0,1.3-0.1,2-0.2c-0.2-0.5-0.3-0.8-0.4-1c0.1-0.1,0.2-0.2,0.3-0.3c2.2-0.7,4.3-0.2,6.4,0.2
		c4.8,0.8,9.6,1.7,14.4,2.7c3.3,0.7,6.2,2.1,8.9,4c0.6,0.4,1.4,0.8,2.1,1.1c1.2,0.4,2.1,1.3,2.7,2.4c2.4,5,3.2,10.2,0.8,15.4
		c-0.8,1.8-1.9,3.5-3.1,5.1c-2.6,3.4-5.6,6.4-9.2,8.9c-0.5,0.3-1,0.8-1.4,1.2c-2.8,3.4-6.5,5.5-10.3,7.5c-0.4,0.2-0.8,0.4-1.1,0.6
		c0,0-0.1,0.1-0.1,0.2c3.2,1.7,6.6,3.1,9.6,5c3,1.9,5.7,4.4,8.7,6.8c0.2-0.9,0.4-1.9,0.6-2.9c0.5-2.9,0.9-5.8,1.4-8.6
		c0.1-0.5,0.1-1,0.3-1.4c0.3-0.9,0.3-1.7-0.4-2.4c-0.6-0.6-0.5-1.3-0.3-2.1c0.5-1.8,1-3.6,1.5-5.5c-0.5-0.2-0.9-0.4-1.4-0.6
		c0-0.2-0.1-0.4,0-0.5c1.6-3.8,3.7-7.3,6.3-10.5c0.4-0.4,0.8-0.7,1.2-1.1c0.9-0.8,1.8-1.7,1.6-3.2c0-0.3,0.2-0.7,0.4-1
		c0.2-0.4,0.5-0.7,0.8-1c3.6-3.4,7.3-6.7,12.2-8.3c1-0.3,1.9-0.9,2.7-1.5c1.4-0.9,2.9-1.4,4.5-1.7c1-0.1,2-0.2,2.8-0.3
		c0.4-0.7,0.7-1.4,1.1-2.1c0.5,0.3,0.9,0.5,1.2,0.7c1,0.3,2,0.9,3,0.9c1.8,0,3.3,0.5,4.6,1.6c0.5,0.4,1.1,0.8,1.6,1.3
		c0.7,0.7,1.4,1.1,2.5,0.7c0.4-0.2,1-0.1,1.5,0c0.7,0.2,1.1,0.8,0.8,1.6c-0.3,0.7-0.6,1.3-1,2c1.1,2.1,2.8,3.9,2.9,6.4
		c-0.9,0.6-1.8,0.3-2.7,0.2c-0.4,0-1,0.2-1.2,0.5c-0.4,0.5,0,0.9,0.4,1.2c0.5,0.4,1.1,0.8,1.7,1.2c0.5,0.3,0.9,0.3,1.5-0.1
		c0.4-0.3,1.2-0.4,1.7-0.3c1.7,0.2,2.1,1.2,1.2,2.7c-0.1,0.2-0.3,0.4-0.4,0.6c0.8,1.1,1.7,2.2,2.3,3.3c1.3,2.3,1.6,4.8,1.8,7.3
		c0.1,1.7,0.2,3.3,1.2,4.8c0.4,0.5,0.4,1.4,0.3,2.1c-0.4,2.9-0.9,5.8-1.4,8.6c-0.3,1.7-0.8,3.4-1.2,5.1c0,0.2,0,0.4,0,0.7
		c0.4-0.1,0.8-0.2,1.4-0.4c-0.2,1-0.2,1.9-0.5,2.6c-0.4,1.2-0.8,2.4-1.4,3.4c-3.5,6.9-7.9,13-14,17.9c-1.9,1.6-4,2.9-6.2,4
		c-2.6,1.2-5.1,2.6-7.6,3.9c-2.4,1.2-4.9,1.5-7.4,0.6c-3.1-1.1-6.3-2.4-9.2-4c-2.5-1.4-4.4-3.7-5.9-6.1c-2.6-4-4.1-8.5-4.5-13.2
		c-0.2-2.8-0.2-5.5-0.4-8.3c-0.5,1.6-1.5,3-0.9,4.9c0.5,1.7,0.1,3.3-1.4,4.5c-0.4,0.3-0.7,0.7-0.9,1.2c-0.5,1.6-1.6,2.8-2.8,3.9
		c-3.4,3.4-7.3,5.9-11.5,8.1c-5.4,2.7-11.1,4.7-16.9,6.1c-0.8,0.2-1.6,0.2-2.4,0.1c-2-0.2-4,0.1-5.8,0.8c-2.4,0.9-4.9,1.9-7.2,2.9
		c-0.6,0.3-1.1,0.9-1.6,1.2c0.6,1.1,1.1,1.9,1.8,3.1c-1-0.1-1.7-0.2-2.9-0.4c1.3,1.6,2.3,2.8,3.3,4.1c1,1.4,2,2.8,3.1,4.2
		c1,1.3,2,2.6,3,3.9c-0.8,0.7-1.2,0.1-1.6-0.3c-2-1.9-4.1-3.8-6.1-5.8c-0.9-0.8-1.6-1.7-2.5-2.5c-0.7-0.6-1.5-1.2-2.4-1.9
		c-1.7,2.9-2.4,6.1-3.9,8.8c-0.4-3.3,0.9-6.3,1.6-9.5c-1.3-0.4-2.6-1-4-0.6c-0.8,0.2-1.6,0.3-2.4,0.5c-1.8,0.5-3.7,0.6-5.5,0
		c-1.4-0.5-2.8,0-4.2,0.2c-1.8,0.2-3.7,0.6-5.5,0.9c-0.7,0.1-1.4,0.1-2.4,0.1c0.6-1.3,1.9-1.3,2.6-2.4c-2.3-0.1-4.4,0.6-6.5,0.8
		c-2.2,0.1-4.5,0.1-6.7,0c-2.1-0.1-4.2-0.2-6.4-0.4c0-0.1-0.1-0.3-0.1-0.4c0.4-0.2,0.8-0.5,1.2-0.6c2.3-0.3,4.7-0.7,7-0.8
		c3.5-0.1,6.8-0.6,9.9-2.2c0.7-0.4,1.6-0.5,2.5-0.7c1.7-0.5,3.4-1.1,4.9-2.4c-0.4-0.4-0.8-0.7-1.1-1c-2.1-1.4-4.2-2.9-6.4-4.2
		c-1.2-0.8-2.4-1.5-4-1c-0.4,0.1-1-0.1-1.4-0.3c-0.7-0.3-1.5-0.7-2.1-1.1c-4.5-3-9.3-5.5-14.1-7.9c-0.9-0.4-1.9-0.6-2.8-1
		c-1.3-0.5-2.5-1-3.9-1.6c-0.2,0.8-0.6,1.5-0.7,2.3c-0.2,1.2-0.7,2.3-1.3,3.4c-0.8,1.5-1.4,3.2-1.9,4.8c-0.4,1.3-0.9,2.4-1.7,3.5
		c-0.8,1-1.4,2.2-2.2,3.2c-1.8,2.3-2.1,5-2.4,7.7c0,0.5,0,1,0.2,1.4c0.6,1.3,0.3,2.5-0.1,3.8c-0.8,2.3-1.3,4.6-2.1,6.9
		c-0.4,1-1,2-1.8,2.8c-0.7,0.8-1.2,1.6-1.4,2.5c-0.5,1.7-1,3.3-1.5,5c-0.1,0.4-0.4,0.7-0.7,1.4c-0.3-1.2-0.5-2-0.9-3.2
		c-1.2,2.9-2.1,5.6-3.3,8.1c-1.2,2.4-2.2,5-3.5,7.4c-0.2-0.1-0.4-0.1-0.6-0.2c0.1-0.8,0-1.6,0.2-2.3c0.9-3.1,1.8-6.2,2.9-9.2
		c0.9-2.7,0.8-5.5,0.9-8.3c0-0.1,0-0.3-0.1-0.4c-1.1-1.7-0.6-3.4-0.2-5.1c0.4-2.1,0.5-4.2,0.8-6.4c-0.6,0.1-0.9,0.1-1.5,0.1
		c0.1-0.7,0.2-1.4,0.3-2c1.4-6.8,3.5-13.4,5.6-20.1c0.3-0.9,0.5-1.7,0-2.7c-0.2-0.5-0.2-1.2,0-1.8c0.5-1.9,1.1-3.7,1.7-5.8
		c-2.8,0.2-5.5,0.5-8.2,0.7c0,0.1,0,0.2,0,0.3c1.3,0.2,2.6,0.4,4.2,0.7c-0.7,0.2-1.1,0.4-1.4,0.5c-2.5,0.5-5,0.9-7.5,1.5
		c-1.7,0.4-1.7,0.6-1.8,2.3c-0.1,2.8,0.2,5.4,1.5,7.9c0.3,0.5,0.3,1.2,0.3,1.8c-0.1,3-0.1,6.1-0.2,9.1c0,0.5-0.1,1-0.4,1.4
		c-0.8,1.2-0.8,2.5-0.8,3.9c0.1,1.8,0,3.6,0,5.5c-0.1,0.1-0.3,0.1-0.4,0.1c-0.4-0.6-0.8-1.2-1.2-1.8c-0.1,0-0.2,0-0.4,0
		c-0.1,0.8-0.3,1.5-0.2,2.2c0.3,1.8-0.1,3.6-0.6,5.3c-0.5,2-0.9,4.1-1.4,6.1c-0.1,0.4-0.3,0.8-0.5,1.2c-0.1,0-0.3-0.1-0.4-0.1
		c-0.1-0.4-0.2-0.8-0.2-1.2c0.1-2,0.2-4.1,0.5-6.1c0.2-1.7,0.3-3.4,0-5.2c-0.3-1.5-0.4-3.1-0.8-4.6c-0.2-0.9-0.6-1.8-1.1-2.5
		c-0.6-0.7-0.8-1.5-0.9-2.4c-0.4-2.7-0.8-5.4-1.2-8.2c-0.9,0.3-1.6,0.4-1.7-0.5c-0.1-0.7-0.3-1.3-0.3-2c0-2.5,0.1-5.1,0.1-7.6
		c0-1.2-0.1-2.3-0.1-3.7c-1,0.3-1.8,0.6-2.6,0.8c-1.1,0.3-2.1,0.7-3.1-0.3c-0.2-0.2-1-0.3-1.4-0.1c-3.4,1.6-7,1.9-10.7,2
		C162.8,152.8,162.5,152.8,162.1,152.9z M266.7,88.1c1.4,1.2,3.3,4,4.6,6.8c2.1,4.6,2.2,9.2,0.5,13.9c-1,2.8-2.6,5.2-4.4,7.5
		c-2.5,3.3-5.7,6-8.9,8.7c-1.1,0.9-2.1,2.1-3.1,3.1c-1.4,1.3-2.8,2.6-4.3,3.8c-1.1,0.8-2.3,1.5-3.3,2.3c-1.4,1.1-2.8,2-4.4,2.7
		c-2.2,0.8-4,2.4-6.1,3.9c1.2,0.4,2.2,0.6,3.1,1c5.9,2,11.1,5.4,16,9.2c0.8,0.6,1.4,1.6,1.8,2.6c0.4,1,0.9,1.8,1.8,2.3
		c2,1,3.9,2.1,6,2.9c1.4,0.4,2.8,0.6,3.8,1.7c1.2-0.5,2.2-0.9,2.7-2.2c-0.5,0-0.8,0-1.3,0c-0.3-1.6,0.1-3.1,0.5-4.6
		c1-3.8,2.2-7.6,3.2-11.4c0.4-1.5,0.8-3,0.1-4.5c-0.2-0.4-0.1-1.1,0-1.6c0.4-1.8,0.8-3.5,1.1-5.3c0.1-0.6,0.2-1.3,0.3-2.1
		c-1.5,0.2-2-0.7-2.1-1.8c-0.9-0.5-2-0.1-2.4-1.3c1.1-0.4,2.1-0.7,3.1-1c-2.4-1.1-5.1-0.9-7.5-2.4c1.3-0.8,1.3-0.8,3-0.7
		c2.1,0.1,4.2,0.4,6.3-0.2c0.2-0.1,0.3-0.2,0.5-0.3c0-0.3-0.1-0.7-0.1-1.3c0.8,0,1.5-0.1,2.4-0.1c0-0.7,0.1-1.5,0.1-2.3
		c0-1-0.3-2.1,0.1-2.9c1-2.1,0.5-4.6,1.8-6.6c0.1-0.2,0-0.5,0-0.7c0.1-1.5,0.1-3,0.2-4.4c0.1-1.7,0.9-3.1,2.6-3.7
		c0.4-0.1,0.6-0.4,1-0.5c1.3-0.5,2.2-1.3,3-2.4c1.3-1.6,2.6-3.2,4.7-3.7c0.9-0.2,1.1-0.9,0.9-1.8c-0.3-1.4-1.1-1.9-3.1-2
		c-0.8,1.2-1.5,1.6-2.4,1.2c-1.4-0.5-0.8-1.8-0.9-2.8c-3.2-0.5-6.5,0-9.8-0.9c0.8-0.7,1.5-1.2,2.2-1.8c-3-0.5-6,0-8.6,1.4
		C270.1,86.6,268.4,87.3,266.7,88.1z M365,102.7c-1.9,2.7-3.6,5.2-5.3,7.7c-0.2,0.4-0.5,0.7-0.7,1.1c-1.2,2.5-3,4.5-5,6.4
		c-3.9,3.8-5.8,8.4-6.1,13.8c-0.1,1.7-0.2,3.5-0.5,5.2c-0.1,1.1-0.4,2.2-1.4,3c-0.8,0.6-1,1.5-0.7,2.5c0.1,0.3,0.1,0.7,0.2,1.1
		c0.5,4.1,2.1,7.3,6.5,8.5c1.9,0.5,3.6,0.8,5.4,0.1c2.2-0.8,4.5-1.3,6.7-2.1c0.9-0.3,1.6-0.9,2.4-1.4c0.6-0.4,1.1-1,1.5-1.6
		c1.8-2.2,3.5-4.5,3.7-7.5c0.1-2.2,0.8-4.3,1.9-6.4c1.5-2.7,2.6-5.6,3-8.7c0.1-0.8,0.6-1.7,1.2-2.2c1.6-1.4,2-3.2,1.9-5.2
		c-0.1-1.9-0.3-3.8-0.4-5.8c0-0.6,0-1.2,0.1-1.7c1.4-0.2,1.5,1.6,2.8,1.4c0-0.2,0-0.4,0-0.6c-1.1-3-3-5.4-5.5-7.3
		c-0.5-0.4-1.3-0.5-1.9-0.7c-0.1,0.1-0.1,0.2-0.2,0.3c0.5,0.5,1,1,1.5,1.6c0.2,0.3,0.4,0.9,0.3,0.9c-0.9,0.8-0.1,1.4,0,2.1
		c0.1,0.6,0.3,1.2-0.4,1.9c-0.4-0.5-0.8-0.8-1.2-1.2c-1-1.2-1.9-2.3-2.8-3.5c-0.5-0.6-1-1-1.9-0.8
		C368.4,104.2,366.6,103.9,365,102.7z M203.1,129.7c-0.4-1.5-1.3-2.4-2.5-3.1c-0.6-0.4-1.1-0.8-0.9-1.8c0.7,0.1,1.3,0.2,1.8,0.4
		c1.2,0.5,2,0.2,2.7-0.7c-0.3-1.2-1.5-2.1-1.3-3.6c0.8,0.2,1.5,0.3,2.3,0.4c-0.4-2.3-3.1-3.4-3-6.3c0.9,0.7,1.4,1.1,1.9,1.5
		c2,1.6,4.1,3.3,6.1,4.8c0.7,0.5,1.5,1.1,2.5,1c0.2-0.9,0.3-1.8,0.7-2.6c0.8-1.7,1.1-3.5,1.2-5.4c0.1-2.3,0.7-4.5,2.4-6.3
		c0.7-0.7,1.3-1.6,1.9-2.5c0.3-0.3,0.4-0.9,0.7-1.1c1.6-1,2.1-2.7,3-4.2c0.8-1.3,1.9-2.6,3.2-3.5c0.6-0.4,1.9,0.1,2.8,0.2
		c0.1,0,0.2-0.1,0.4-0.1c0.8-1,0.7-2.7,2.4-3.1c0.1,0.9,0.2,1.8,0.3,2.8c1.4-1.1,1.8-2.4,2-4c-3.5-0.2-6.8-0.9-10.1-0.5
		c-1.4,0.2-2.8,0-4.2-0.5c-3.1-1.2-6.2-1.7-9.5-1c-1.4,0.3-2.8,0.3-4.2,0.5c-0.4,0-0.8,0-1.2,0c0-0.1-0.1-0.3-0.1-0.4
		c0.9-0.6,1.8-1.1,2.8-1.6c-0.6-0.3-1.2-0.4-1.7-0.3c-2.1,0.4-4.1,0.8-6.2,1.3c-1.7,0.4-3.4,1.1-5,1.6c-0.2,1.1-0.4,1.9-0.6,2.8
		c-0.8,5.4-1.9,10.8,0,16.1c0,0.1,0.1,0.2,0.1,0.4c0.3,1.8,0.2,3.6-1.1,5.1c-0.6,0.7-0.6,1.4-0.5,2.3c0.4,2.7,0.7,5.4,1,8.1
		c0.3,3.9,0.5,7.8,0,11.7c-0.1,0.6,0,1.3,0.3,1.8c0.6,0.9,1.4,1.9,2.3,2.2c3.4,1.3,7,1.5,10.6,1.8c0.6-1.5,1.5-2.8,1.7-4.3
		c-1-0.7-2-1.2-2.7-1.9c-0.9-0.8-0.9-1.3-0.3-2.2c0.7-1.1,0.8-1.5-0.2-2.4c-0.7-0.6-1.5-1.1-2.2-1.6c-0.5-0.4-1.1-0.6-0.8-1.4
		C202.2,129.9,202.6,129.8,203.1,129.7z M228.4,125.1c2-0.3,3.9-0.6,5.7-0.9c0.4-0.1,0.8-0.2,1.2-0.4c4.2-2,8.3-4.1,11.2-7.9
		c1.2-1.6,2.9-2.7,5-2.8c0.7-0.1,1.6-0.5,2.1-1c1.3-1.3,2.7-2.7,3.5-4.3c2.8-5.5,1.5-9.6-4-12.2c-0.9-0.4-1.7-1-2.5-1.6
		c-2.3-1.8-4.8-2.8-7.7-2.7c-1.4,0.1-2.9,0-4.3,0c-2.3,0.1-3.4,1-3.7,3.3c-0.2,1.3-0.4,2.6-0.6,3.8c-0.5,3.7-1.6,7.3-1.1,11
		c0.3,2.4-0.2,4.7-1.1,6.9c-0.7,1.7-1.7,3.3-2.6,4.9C229.1,122.5,228.5,123.6,228.4,125.1z M300.2,89.7c0.4,1.7,0.8,3.3,1,5
		c0.9,6.1,0.3,11.9-3.5,17c-0.4,0.5-0.5,1.3-0.9,2.1c2.3-0.2,4.3-0.6,6.1-1.5c0.8-0.4,1.5-1,2.3-1.2c2.2-0.6,3.9-1.8,5.5-3.3
		c0.9-0.9,2-1.7,3-2.5c0.8-0.7,1.7-1.2,2.8-1c1.6,0.2,2.7-0.6,3.4-1.8c0.8-1.4,1.5-3,2.2-4.5c1-2.1-0.1-4.4-1.9-5.2
		c-1.5-0.8-3.2-1.3-4.3-2.8c-0.1-0.1-0.3-0.2-0.5-0.2c-3.4-0.5-6.7-1.4-10.1-0.2c-0.6,0.2-1.2,0.2-1.8,0.2
		C302.5,89.7,301.4,89.7,300.2,89.7z M291.2,136.3c-0.9,2.5-1.6,4.9-2.5,7.3c-0.6,1.7-1.2,3.4-3,4.3c-0.2,0.1-0.4,0.4-0.6,0.7
		c-1.2,2.2-1.4,4.6-1.3,7.3c1.2-0.4,2.2-0.7,3.2-1c2.4-0.8,4.9-1.5,7.2-2.3c1.2-0.4,2.6-0.9,3.1-2.1c0.5-1.1,1.3-1.4,2.2-1.8
		c1.4-0.5,3-1,4.3-1.7c2.2-1.2,4.5-2.1,7-2.3c0.4,0,0.8-0.1,1.1-0.2c-0.7-0.7-1.4-1.1-2.1-1.3c-1.8-0.3-3.7-0.6-5.5-0.7
		c-1.7,0-3.2-0.4-4.6-1.3c-2.6-1.6-5.3-3.2-7.9-4.8C291.7,136.5,291.5,136.4,291.2,136.3z M179.4,137c0-0.7,0-1.6,0-2.6
		c0-0.7-0.2-1.4-0.1-2c0.1-3.5,0.2-7.1,0.2-10.6c0-0.6-0.1-1.2-0.2-1.9c-0.5,0.5-0.7,1-0.9,1.5c-0.2,1.1-0.9,1.8-1.8,2.2
		c-1.1,0.4-1.5,1.2-1.8,2.3c-1,4.2-2.2,8.4-4.2,12.3c-0.1,0.2-0.1,0.4-0.2,0.9c2.2,0.1,4.1-0.3,6.1-1.1
		C177.2,137.7,178.1,137.5,179.4,137z M295.4,89.1c0.4,0.3,0.7,0.6,1.2,0.9C296.6,88.9,296.2,88.9,295.4,89.1z"/>
	
		<linearGradient id="SVGID_3_" gradientUnits="userSpaceOnUse" x1="461.107" y1="115.4414" x2="461.107" y2="207.3435" gradientTransform="matrix(1 0 0 -1 0 290)">
		<stop  offset="0" style="stop-color:#ED1C24"/>
		<stop  offset="0.3357" style="stop-color:#F15A24"/>
		<stop  offset="0.6612" style="stop-color:#C1272D"/>
		<stop  offset="1" style="stop-color:#F7931E"/>
	</linearGradient>
	<path class="st9" d="M447.8,158.6c0.2,2,1.3,2.6,3.9,2.6c-0.4-0.6-0.9-1.2-1.3-1.8c0.1-0.1,0.2-0.2,0.2-0.3
		c0.4,0.1,0.8,0.1,1.1,0.3c3.7,1.6,7.6,1.6,11.5,1.2c2.4-0.3,5.1-3.2,4.9-5.7c-0.1-1.5-0.2-3-0.3-4.4c-0.1-1.2-0.4-2.3,0.2-3.5
		c0.2-0.4,0-1.2-0.3-1.7c-1.6-2.9-4-5.4-6.4-7.7c-0.8-0.8-1.4-0.6-2.1,0.4c-0.2,0.3-0.3,0.6-0.4,0.8c-0.1,0.3-0.3,0.5-0.5,0.9
		c-0.4-0.4-0.8-0.7-1.3-1.2c-0.4,1.9-0.7,3.6-1.1,5.6c-0.4-0.6-0.8-0.9-0.8-1.2c-0.2-1.2-0.4-2.4-0.5-3.7c-0.1-1.1-0.2-2.1-1.2-2.8
		c0,0-0.1-0.1-0.1-0.1c-1.2-1.3-1.2-1.5,0.1-3c-0.3-1.1-1.1-1.8-2-2.5c-0.8-0.7-1.2-1.5-1.5-2.5c-0.4-1.3-0.9-2.6-1.5-3.8
		c-0.4-0.8-1-1.4-1.6-2c-0.9-0.9-1.5-1.8-1.1-3.1c0.3-1.1-0.3-1.9-0.9-2.7c-1.1-1.6-1.6-3.4-1.7-5.2c-0.2-2.8,0-5.7,1.2-8.2
		c0.7-1.6,1.5-3.2,1.9-4.9c0.3-1.1,0.4-2.3,0.7-3.4c0.1-0.6,0.3-1.3,0.7-1.8c0.9-1.2,1.9-2.3,3-3.2c0.9-0.7,2-1.2,3-1.7
		c1-0.5,2.1-1,3.2-1.5c0.5-0.2,1.1-0.4,2-0.7c-0.2,0.8-0.3,1.3-0.4,1.8c0.9,0.4,1.4-0.2,1.9-0.6c2.5-1.9,5.1-3.5,8.3-4.1
		c3.5-0.7,6.9-0.1,10.3,0.8c0.9,0.2,1.6,1.2,2.5,1.5c3.2,1.1,5.2,3.9,7.9,5.7c1.1,0.7,1.4,2.2,1.5,3.7c0.3,3.3,0,6.6-0.5,9.8
		c-0.4,2.2-0.9,2.8-3.3,2.9c-0.2,0-0.4,0.1-0.6,0.1c-0.2,0.3-0.5,0.7-0.7,1.1c-0.2,0.3-0.4,0.6-0.7,1c-0.4-0.5-0.7-0.9-1.1-1.4
		c-1.5,1.3-0.6,3.7-2.4,4.9c-1.2-1.4,0.5-3.3-0.9-4.5c1-1.8,0.8-3.4-0.3-5c-1.1-1.8-2.1-3.6-3-5.5c-0.4-0.9-0.8-1.5-1.9-1.4
		c-4.5,0.3-8.6,1.7-12,4.9c-1.7,1.6-2.4,3.6-3,5.7c-0.1,0.5,0,1.1,0.1,1.7c0,0.4,0.2,0.9,0.1,1.3c-0.3,1.2,0,2.2,0.2,3.4
		c0.3,1.3,0.8,2.4,1.6,3.4c0.4,0.5,0.7,1.2,0.9,1.8c0.3,0.9,1,1.3,1.5,2c0.5,0.6,0.2,1.8,0.7,2.3c0.8,1,1.9,1.8,3,2.4
		c1.3,0.8,2.3,1.8,3.2,3.1c2,2.8,4,5.5,6,8.3c3.4,4.8,5.1,10.1,5.5,15.9c0.2,2-0.1,4-0.8,5.8c-0.6,1.4-1.4,2.5-2.6,3.3
		c-1.1,0.7-1.8,1.6-2.4,2.8c-0.3,0.7-0.7,1.3-1,2c-1.5,3.6-4.4,5.4-8.1,6.1c-0.5,0.1-1.2,0-1.6,0.3c-1.5,1-3.1,1-4.8,0.9
		c-1.8-0.1-3.6-0.1-5.3,0.5c-1,0.3-1.9,0.4-2.8-0.3c-0.8-0.6-1.7-0.6-2.7-0.3c-2.2,0.6-4.3,0.2-6.4-0.4c-1.1-0.3-2.2-0.9-2.6-2.2
		c-0.1-0.4-0.7-0.9-1.1-1.1c-1.4-0.6-2.7-1.5-4.4-1.2c-0.4,0.1-0.9-0.2-1.2-0.4c-1.2-1.2-2.3-2.4-3.4-3.6c-0.1-0.2-0.3-0.5-0.3-0.7
		c0.4-1.9-0.5-3.5-0.8-5.3c0-0.2,0.1-0.4,0.1-0.7c0.5,0.2,0.9,0.4,1.4,0.7c0.1-0.3,0.3-0.6,0.3-0.8c-0.3-2.1-0.5-4.2-0.9-6.3
		c-0.1-0.8-0.4-1.6-0.5-2.4c0-0.3,0.1-0.6,0.5-1.1c0.3,0.6,0.6,1.2,1.1,2.1c0.1-0.6,0.2-1,0.4-1.8c0.7,1.1,1.2,2,1.7,2.9
		c0.5-1.4-0.1-2.7-0.1-4.1c0-1.4-0.1-2.9,0-4.3c0.1-1.4,0.4-2.7,0.7-4c0.3-1.4,0.6-2.8,1.1-4.1c0.4-1.3,0.5-2.7,1.5-3.7
		c0.2,0,0.4,0.1,0.5,0.1c0,0.6,0,1.3-0.1,1.9c-0.5,2.5-1,5-1.6,7.4c-0.6,2.9-0.5,5.7,0.8,8.3c0.5,1,1,2,1.5,3c0.9,2,2.2,3.6,4.3,4.3
		c0.4,0.1,0.8,0.4,1,0.8C445.7,158.2,446.6,158.6,447.8,158.6z M434.8,155c0.2,2,0.8,2.9,2.1,3.3C436.2,157.2,435.5,156.1,434.8,155
		z"/>
	
		<linearGradient id="SVGID_4_" gradientUnits="userSpaceOnUse" x1="408.285" y1="78.99" x2="408.285" y2="210.72" gradientTransform="matrix(1 0 0 -1 0 290)">
		<stop  offset="0" style="stop-color:#ED1C24"/>
		<stop  offset="0.3357" style="stop-color:#F15A24"/>
		<stop  offset="0.6612" style="stop-color:#C1272D"/>
		<stop  offset="1" style="stop-color:#F7931E"/>
	</linearGradient>
	<path class="st10" d="M385.5,177.8c-0.5-0.1-0.8-0.1-1.2-0.1c0.1-0.6,0.2-1.2,0.4-1.8c0.3-0.9,0.6-1.9,1-2.8
		c2.6-6.3,5.3-12.6,7.9-18.9c0.2-0.5,0.5-1.1,0.4-1.6c-0.4-1.7,0.1-3.2,0.9-4.6c1.1-1.9,1.2-3.6-0.1-5.3c-2.2-2.8-1.3-5.6,0.1-8.3
		c0.6-1.2,0.8-2.2,0.5-3.6c-0.8-3.5-1.3-7.1-2-10.6c-0.2-0.8-0.7-1.6-1.1-2.3c-0.3-0.6-0.8-1.1-0.9-1.7c-0.5-2.1-0.6-4.4-2.2-6.2
		c-0.2-0.2-0.1-0.7-0.2-1.1c-0.8-2.5-0.7-5.2-1.9-7.6c-0.5-1-0.3-1.9,0.2-2.8c1.2-2.2,2.3-4.4,3.4-6.6c0.9-1.9,2.2-3.2,4.5-2.8
		c0.2,0,0.4-0.1,0.5-0.1c0.5-0.7,1-1.4,1.5-2.2c0.6,0.5,1,0.8,1.6,1.2c1-1.8,0.4-4,2-5.8c0.2,0.9,0.4,1.4,0.5,2
		c0.3,2.2,0.5,4.3,0.8,6.4c0.1,1.1,0.5,2.1,1,3.1c1.1,1.8,1.1,3.9,0.9,6c0,0.2-0.1,0.5-0.2,0.7c-1.1,5.2-1.2,3.7,0.7,8.4
		c0.4,0.9,0.6,1.6-0.3,2.3c-0.6,0.4-0.5,1.1-0.2,1.7c0.2,0.6,0.4,1.2,0.7,1.7c0.9,1.6,1.1,3.2,0.3,5c-0.5,1,0.4,1.6,0.9,2.6
		c1-2.4,1.9-4.6,2.8-6.7c0.3-0.6,0.4-1.3,0.8-1.9c1.2-1.8,1.9-3.9,2.3-6c0.4-2.1,1.4-4,2.8-5.6c1.8-2,3.7-4,5.7-6.1
		c-1-0.9,0.3-1.8,0.4-2.9c-1-0.7-1-1.6-0.4-2.7c0.1-0.2,0.2-0.3,0.2-0.5c0.4-1.9,1.5-3,3.3-3.8c1.9-0.9,3.6-1.8,5.7-2.2
		c0.9-0.2,1.4-0.8,1.9-1.4c0.4-0.5,0.7-1.3,1.6-1c0.9,0.2,1.4,0.8,1.4,1.8c0,0.1,0.1,0.2,0.2,0.3c0.5-0.3,1-0.7,1.6-1
		c0.4,0.7,0.7,1.3,1.2,2c1.2-1.2,1.6-2.6,2.2-3.8c0.4-0.9,0.4-0.9,1.8-1.1c-0.1,0.4-0.1,0.8-0.2,1.2c-0.4,1.8-0.7,3.5-1.2,5.2
		c-0.8,2.8-1.7,5.5-2.6,8.3c-0.2,0.7-0.6,1.4-1.1,1.9c-1.3,1.3-1.7,2.9-2.3,4.6c-1.5,4-3,8-4.6,12c-0.4,1-1.1,1.9-1.9,2.7
		c-1.8,1.9-3.2,4.1-4.5,6.3c-1.2,2.2-1.8,4.4-2.4,6.8c-0.3,1.4-0.8,2.7-1.4,4c-0.5,1.1-1.3,2.1-2.6,2.5c-0.5,0.2-0.9,0.8-1.1,1.3
		c-0.7,1.9-1.2,3.9-1.9,5.8c-0.3,1-0.8,1.9-1.2,2.9c-0.4,1-0.9,2-1.3,3.1c-0.5,1.4-0.9,2.9-1.8,4.2c-0.5,0.8-0.6,1.9-0.7,2.8
		c-0.1,0.6-0.1,1.2-0.1,2c-0.5-0.2-0.9-0.4-1.3-0.6c-0.8,0.6-0.9,1.6-0.9,2.5c0,1.6,0.1,3.2,0.2,4.8c0.1,1.6,0.2,3.3-0.1,4.9
		c-1.4-1.9-1.2-4.3-2.1-6.5c-2,1.8-4.1,3.2-4.9,5.8c-0.6,1.8-1.2,3.5-1.8,5.3c-0.2,0.6-0.3,1.2-0.2,1.8c0.1,1.7-0.3,3.2-1,4.7
		c-1.1,2.5-2.1,5-3.2,7.5c-0.4,1-1,1.8-1.9,2.4c-0.8,0.5-1.3,1.4-1.7,2.3c-0.7,1.5-1.2,3.1-1.9,4.6c-0.4,0.8-0.7,1.7-1.7,2.1
		c-0.9-0.9,0.1-1.9-0.4-3.1c-0.5,0.8-0.9,1.4-1.2,2c-1,2-2,4-3.1,5.9c-0.6,1-1.2,2-2,2.9c-1,1.1-2,2.2-2.4,3.7
		c-0.1,0.3-0.5,0.6-1,0.7c0.1-0.3,0.1-0.7,0.2-1c0.4-0.8,0.8-1.5,1.1-2.3c0.9-2.2,1.8-4.3,2.9-6.4c0.8-1.4,1-3.1,1.5-4.7
		c0.3-0.9,0.5-1.8,0.9-2.6c0.7-1.6,1.1-3.3,0.6-5.1c-0.1-0.6,0.1-1.3,0.3-2c0.8-2.6,1.6-5.1,2.3-7.6
		C385.4,178.8,385.4,178.4,385.5,177.8z"/>
	
		<linearGradient id="SVGID_5_" gradientUnits="userSpaceOnUse" x1="109.5472" y1="92.7692" x2="109.5472" y2="96.6763" gradientTransform="matrix(1 0 0 -1 0 290)">
		<stop  offset="0" style="stop-color:#ED1C24"/>
		<stop  offset="0.3357" style="stop-color:#F15A24"/>
		<stop  offset="0.6612" style="stop-color:#C1272D"/>
		<stop  offset="1" style="stop-color:#F7931E"/>
	</linearGradient>
	<path class="st11" d="M109.2,193.3c1.5,0.3,1.9,0.7,2.1,1.9c0.1,0.9-0.3,1.7-1.1,1.9c-0.8,0.2-1.4-0.2-1.9-0.8
		c-0.6-0.7-0.5-1.3,0-2C108.6,194.1,108.9,193.7,109.2,193.3z"/>
	
		<linearGradient id="SVGID_6_" gradientUnits="userSpaceOnUse" x1="82.1132" y1="213.6836" x2="82.1132" y2="217.0461" gradientTransform="matrix(1 0 0 -1 0 290)">
		<stop  offset="0" style="stop-color:#ED1C24"/>
		<stop  offset="0.3357" style="stop-color:#F15A24"/>
		<stop  offset="0.6612" style="stop-color:#C1272D"/>
		<stop  offset="1" style="stop-color:#F7931E"/>
	</linearGradient>
	<path class="st12" d="M82.1,72.9c1.1,0,1.7,0.6,1.7,1.9c0,0.9-0.5,1.4-1.5,1.4c-1,0-1.8-0.8-1.9-1.9C80.4,73.5,80.9,73,82.1,72.9z"
		/>
	
		<linearGradient id="SVGID_7_" gradientUnits="userSpaceOnUse" x1="110.1155" y1="194.4294" x2="110.1155" y2="198.1196" gradientTransform="matrix(1 0 0 -1 0 290)">
		<stop  offset="0" style="stop-color:#ED1C24"/>
		<stop  offset="0.3357" style="stop-color:#F15A24"/>
		<stop  offset="0.6612" style="stop-color:#C1272D"/>
		<stop  offset="1" style="stop-color:#F7931E"/>
	</linearGradient>
	<path class="st13" d="M111.4,91.9c0.1,0.8,0.3,1.4,0.3,2.1c0,0.8-0.5,1.2-1.2,1.4c-0.8,0.3-1.1-0.4-1.4-0.9
		c-0.1-0.2-0.2-0.4-0.3-0.7c-0.5-1.4-0.1-2.1,1.5-2.1C110.5,91.9,110.8,91.9,111.4,91.9z"/>
	
		<linearGradient id="SVGID_8_" gradientUnits="userSpaceOnUse" x1="393.235" y1="204.3695" x2="393.235" y2="207.7131" gradientTransform="matrix(1 0 0 -1 0 290)">
		<stop  offset="0" style="stop-color:#ED1C24"/>
		<stop  offset="0.3357" style="stop-color:#F15A24"/>
		<stop  offset="0.6612" style="stop-color:#C1272D"/>
		<stop  offset="1" style="stop-color:#F7931E"/>
	</linearGradient>
	<path class="st14" d="M394.8,83.9c0,1.1-0.5,1.7-1.2,1.7c-0.9,0-1.9-1-1.9-2c0-0.8,0.5-1.3,1.4-1.4
		C394.1,82.2,394.8,82.9,394.8,83.9z"/>
	
		<linearGradient id="SVGID_9_" gradientUnits="userSpaceOnUse" x1="433.7815" y1="210.4892" x2="433.7815" y2="213.6589" gradientTransform="matrix(1 0 0 -1 0 290)">
		<stop  offset="0" style="stop-color:#ED1C24"/>
		<stop  offset="0.3357" style="stop-color:#F15A24"/>
		<stop  offset="0.6612" style="stop-color:#C1272D"/>
		<stop  offset="1" style="stop-color:#F7931E"/>
	</linearGradient>
	<path class="st15" d="M432.9,76.4c1-0.2,1.9,0,2.3,1.1c0.3,0.8-0.1,1.5-0.8,1.9c-0.4,0.2-1.2,0.2-1.5,0
		C432.1,78.5,432,77.5,432.9,76.4z"/>
	
		<linearGradient id="SVGID_10_" gradientUnits="userSpaceOnUse" x1="184.9542" y1="220.09" x2="184.9542" y2="223.0517" gradientTransform="matrix(1 0 0 -1 0 290)">
		<stop  offset="0" style="stop-color:#ED1C24"/>
		<stop  offset="0.3357" style="stop-color:#F15A24"/>
		<stop  offset="0.6612" style="stop-color:#C1272D"/>
		<stop  offset="1" style="stop-color:#F7931E"/>
	</linearGradient>
	<path class="st16" d="M185.4,69.9c-0.9-0.3-1.7-0.7-1.7-1.7c0-0.4,0.5-1.1,0.9-1.2c0.5-0.2,1.3-0.2,1.6,0.6
		C186.5,68.5,186.1,69.3,185.4,69.9z"/>
	
		<linearGradient id="SVGID_11_" gradientUnits="userSpaceOnUse" x1="461.6334" y1="147.1205" x2="461.6334" y2="149.9028" gradientTransform="matrix(1 0 0 -1 0 290)">
		<stop  offset="0" style="stop-color:#ED1C24"/>
		<stop  offset="0.3357" style="stop-color:#F15A24"/>
		<stop  offset="0.6612" style="stop-color:#C1272D"/>
		<stop  offset="1" style="stop-color:#F7931E"/>
	</linearGradient>
	<path class="st17" d="M462.9,141.8c0,0.8-0.6,1-1.2,1.1c-0.8,0.1-1.2-0.4-1.3-1.4c-0.1-0.7,0.5-1.4,1.1-1.4
		C462.2,140.1,462.9,141,462.9,141.8z"/>
	
		<linearGradient id="SVGID_12_" gradientUnits="userSpaceOnUse" x1="487.7595" y1="176.5726" x2="487.7595" y2="179.3201" gradientTransform="matrix(1 0 0 -1 0 290)">
		<stop  offset="0" style="stop-color:#ED1C24"/>
		<stop  offset="0.3357" style="stop-color:#F15A24"/>
		<stop  offset="0.6612" style="stop-color:#C1272D"/>
		<stop  offset="1" style="stop-color:#F7931E"/>
	</linearGradient>
	<path class="st18" d="M486.8,113.3c-0.1-0.4-0.2-0.7-0.2-1c-0.1-0.7-0.1-1.4,0.8-1.7c0.6-0.1,1.5,0.7,1.5,1.3
		c0.1,0.7-0.4,1.2-1.4,1.4C487.4,113.4,487.2,113.4,486.8,113.3z"/>
	
		<linearGradient id="SVGID_13_" gradientUnits="userSpaceOnUse" x1="101.6607" y1="91.3294" x2="101.6607" y2="93.1066" gradientTransform="matrix(1 0 0 -1 0 290)">
		<stop  offset="0" style="stop-color:#ED1C24"/>
		<stop  offset="0.3357" style="stop-color:#F15A24"/>
		<stop  offset="0.6612" style="stop-color:#C1272D"/>
		<stop  offset="1" style="stop-color:#F7931E"/>
	</linearGradient>
	<path class="st19" d="M100.8,198.6c-0.2-1-0.2-1.8,0.9-1.8c0.3,0,0.9,0.6,0.9,0.9C102.5,198.9,101.7,198.7,100.8,198.6z"/>
	
		<linearGradient id="SVGID_14_" gradientUnits="userSpaceOnUse" x1="86.5606" y1="221.1674" x2="86.5606" y2="222.9501" gradientTransform="matrix(1 0 0 -1 0 290)">
		<stop  offset="0" style="stop-color:#ED1C24"/>
		<stop  offset="0.3357" style="stop-color:#F15A24"/>
		<stop  offset="0.6612" style="stop-color:#C1272D"/>
		<stop  offset="1" style="stop-color:#F7931E"/>
	</linearGradient>
	<path class="st20" d="M87.4,67.1c0,1.2-0.3,1.8-0.9,1.7c-0.3-0.1-0.8-0.6-0.7-0.8C85.8,66.9,86.5,67,87.4,67.1z"/>
	
		<linearGradient id="SVGID_15_" gradientUnits="userSpaceOnUse" x1="398.7813" y1="210.5295" x2="398.7813" y2="212.1579" gradientTransform="matrix(1 0 0 -1 0 290)">
		<stop  offset="0" style="stop-color:#ED1C24"/>
		<stop  offset="0.3357" style="stop-color:#F15A24"/>
		<stop  offset="0.6612" style="stop-color:#C1272D"/>
		<stop  offset="1" style="stop-color:#F7931E"/>
	</linearGradient>
	<path class="st21" d="M399.6,79.2c-0.6,0.2-1.3,0.7-1.6-0.2c-0.1-0.3,0.4-1,0.7-1C399.6,77.7,399.7,78.3,399.6,79.2z"/>
	
		<linearGradient id="SVGID_16_" gradientUnits="userSpaceOnUse" x1="116.7529" y1="200.6001" x2="116.7529" y2="202.2878" gradientTransform="matrix(1 0 0 -1 0 290)">
		<stop  offset="0" style="stop-color:#ED1C24"/>
		<stop  offset="0.3357" style="stop-color:#F15A24"/>
		<stop  offset="0.6612" style="stop-color:#C1272D"/>
		<stop  offset="1" style="stop-color:#F7931E"/>
	</linearGradient>
	<path class="st22" d="M117.4,87.8c0.1,0.6,0.5,1.3-0.6,1.5c-0.6,0.1-1-0.2-0.9-0.8C116,87.7,116.6,87.6,117.4,87.8z"/>
	
		<linearGradient id="SVGID_17_" gradientUnits="userSpaceOnUse" x1="162.7064" y1="172.4443" x2="162.7064" y2="174.3143" gradientTransform="matrix(1 0 0 -1 0 290)">
		<stop  offset="0" style="stop-color:#ED1C24"/>
		<stop  offset="0.3357" style="stop-color:#F15A24"/>
		<stop  offset="0.6612" style="stop-color:#C1272D"/>
		<stop  offset="1" style="stop-color:#F7931E"/>
	</linearGradient>
	<path class="st23" d="M162.7,115.7c0.4,0.4,0.8,0.8,0.7,0.9c-0.1,0.3-0.4,0.6-0.7,0.9c-0.3-0.3-0.7-0.5-0.8-0.8
		C162,116.5,162.4,116.1,162.7,115.7z"/>
	
		<linearGradient id="SVGID_18_" gradientUnits="userSpaceOnUse" x1="440.6097" y1="214.1125" x2="440.6097" y2="215.6012" gradientTransform="matrix(1 0 0 -1 0 290)">
		<stop  offset="0" style="stop-color:#ED1C24"/>
		<stop  offset="0.3357" style="stop-color:#F15A24"/>
		<stop  offset="0.6612" style="stop-color:#C1272D"/>
		<stop  offset="1" style="stop-color:#F7931E"/>
	</linearGradient>
	<path class="st24" d="M439.9,74.7c0.6-0.3,1.2-0.5,1.5,0.3c0.1,0.2-0.2,0.8-0.4,0.9C440.1,76,439.8,75.5,439.9,74.7z"/>
	
		<linearGradient id="SVGID_19_" gradientUnits="userSpaceOnUse" x1="190.5668" y1="224.32" x2="190.5668" y2="225.97" gradientTransform="matrix(1 0 0 -1 0 290)">
		<stop  offset="0" style="stop-color:#ED1C24"/>
		<stop  offset="0.3357" style="stop-color:#F15A24"/>
		<stop  offset="0.6612" style="stop-color:#C1272D"/>
		<stop  offset="1" style="stop-color:#F7931E"/>
	</linearGradient>
	<path class="st25" d="M190.7,65.7c-0.4-0.4-0.7-0.7-0.7-0.9c0-0.2,0.4-0.5,0.6-0.7c0.2,0.2,0.6,0.4,0.6,0.7
		C191.2,64.9,190.9,65.2,190.7,65.7z"/>
	
		<linearGradient id="SVGID_20_" gradientUnits="userSpaceOnUse" x1="482.69" y1="173.5141" x2="482.69" y2="174.6489" gradientTransform="matrix(1 0 0 -1 0 290)">
		<stop  offset="0" style="stop-color:#ED1C24"/>
		<stop  offset="0.3357" style="stop-color:#F15A24"/>
		<stop  offset="0.6612" style="stop-color:#C1272D"/>
		<stop  offset="1" style="stop-color:#F7931E"/>
	</linearGradient>
	<path class="st26" d="M483.5,115.9c-0.4,0.3-0.7,0.6-0.9,0.6c-0.2,0-0.4-0.4-0.7-0.6c0.3-0.2,0.5-0.5,0.8-0.5
		C482.9,115.3,483.1,115.6,483.5,115.9z"/>
	
		<linearGradient id="SVGID_21_" gradientUnits="userSpaceOnUse" x1="457.41" y1="143.2825" x2="457.41" y2="144.4494" gradientTransform="matrix(1 0 0 -1 0 290)">
		<stop  offset="0" style="stop-color:#ED1C24"/>
		<stop  offset="0.3357" style="stop-color:#F15A24"/>
		<stop  offset="0.6612" style="stop-color:#C1272D"/>
		<stop  offset="1" style="stop-color:#F7931E"/>
	</linearGradient>
	<path class="st27" d="M458.2,146.1c-0.3,0.3-0.5,0.6-0.7,0.6c-0.3,0-0.6-0.3-0.8-0.4c0.2-0.2,0.4-0.7,0.6-0.7
		C457.5,145.5,457.8,145.9,458.2,146.1z"/>
	
		<linearGradient id="SVGID_22_" gradientUnits="userSpaceOnUse" x1="295.9646" y1="199.9728" x2="295.9646" y2="200.9797" gradientTransform="matrix(1 0 0 -1 0 290)">
		<stop  offset="0" style="stop-color:#ED1C24"/>
		<stop  offset="0.3357" style="stop-color:#F15A24"/>
		<stop  offset="0.6612" style="stop-color:#C1272D"/>
		<stop  offset="1" style="stop-color:#F7931E"/>
	</linearGradient>
	<path class="st28" d="M295.4,89.1c0.8-0.2,1.3-0.2,1.2,0.9C296.1,89.7,295.8,89.4,295.4,89.1z"/>
	
		<linearGradient id="SVGID_23_" gradientUnits="userSpaceOnUse" x1="435.835" y1="131.64" x2="435.835" y2="134.98" gradientTransform="matrix(1 0 0 -1 0 290)">
		<stop  offset="0" style="stop-color:#ED1C24"/>
		<stop  offset="0.3357" style="stop-color:#F15A24"/>
		<stop  offset="0.6612" style="stop-color:#C1272D"/>
		<stop  offset="1" style="stop-color:#F7931E"/>
	</linearGradient>
	<path class="st29" d="M434.8,155c0.7,1.1,1.4,2.2,2.1,3.3C435.6,157.9,435,157,434.8,155z"/>
	
		<linearGradient id="SVGID_24_" gradientUnits="userSpaceOnUse" x1="269.0221" y1="159.0068" x2="269.0221" y2="162.0921" gradientTransform="matrix(1 0 0 -1 0 290)">
		<stop  offset="0" style="stop-color:#ED1C24"/>
		<stop  offset="0.3357" style="stop-color:#F15A24"/>
		<stop  offset="0.6612" style="stop-color:#C1272D"/>
		<stop  offset="1" style="stop-color:#F7931E"/>
	</linearGradient>
	<path class="st30" d="M267.4,129.2c0-0.8,0.5-1.3,1.4-1.3c1,0,1.7,0.5,1.8,1.3c0.1,0.8-1,1.8-2,1.8
		C268,131,267.5,130.3,267.4,129.2z"/>
	
		<linearGradient id="SVGID_25_" gradientUnits="userSpaceOnUse" x1="264.2191" y1="165.6233" x2="264.2191" y2="167.2271" gradientTransform="matrix(1 0 0 -1 0 290)">
		<stop  offset="0" style="stop-color:#ED1C24"/>
		<stop  offset="0.3357" style="stop-color:#F15A24"/>
		<stop  offset="0.6612" style="stop-color:#C1272D"/>
		<stop  offset="1" style="stop-color:#F7931E"/>
	</linearGradient>
	<path class="st31" d="M263.5,124.3c-0.2-0.8-0.2-1.4,0.8-1.5c0.6-0.1,0.8,0.3,0.8,0.8C264.9,124.6,264.2,124.4,263.5,124.3z"/>
	
		<linearGradient id="SVGID_26_" gradientUnits="userSpaceOnUse" x1="273.6948" y1="169.066" x2="273.6948" y2="170.5672" gradientTransform="matrix(1 0 0 -1 0 290)">
		<stop  offset="0" style="stop-color:#ED1C24"/>
		<stop  offset="0.3357" style="stop-color:#F15A24"/>
		<stop  offset="0.6612" style="stop-color:#C1272D"/>
		<stop  offset="1" style="stop-color:#F7931E"/>
	</linearGradient>
	<path class="st32" d="M274.7,120.3c-0.6,0.3-0.9,0.7-1.2,0.7c-0.3-0.1-0.6-0.4-0.7-0.8c-0.1-0.5,0.3-0.8,0.7-0.7
		C273.8,119.5,274.1,119.8,274.7,120.3z"/>
	
		<linearGradient id="SVGID_27_" gradientUnits="userSpaceOnUse" x1="198.1225" y1="166.8" x2="198.1225" y2="169.8768" gradientTransform="matrix(1 0 0 -1 0 290)">
		<stop  offset="0" style="stop-color:#ED1C24"/>
		<stop  offset="0.3357" style="stop-color:#F15A24"/>
		<stop  offset="0.6612" style="stop-color:#C1272D"/>
		<stop  offset="1" style="stop-color:#F7931E"/>
	</linearGradient>
	<path class="st33" d="M199.8,122.8c-0.9,0.2-1.8,0.3-2.6,0.4c-0.6-0.8-1.1-1.4-0.4-2.4c0.4-0.6,1-0.8,1.6-0.6
		C199.4,120.6,199.9,121.4,199.8,122.8z"/>
	
		<linearGradient id="SVGID_28_" gradientUnits="userSpaceOnUse" x1="197.3481" y1="156.4526" x2="197.3481" y2="159.5799" gradientTransform="matrix(1 0 0 -1 0 290)">
		<stop  offset="0" style="stop-color:#ED1C24"/>
		<stop  offset="0.3357" style="stop-color:#F15A24"/>
		<stop  offset="0.6612" style="stop-color:#C1272D"/>
		<stop  offset="1" style="stop-color:#F7931E"/>
	</linearGradient>
	<path class="st34" d="M197.2,133.6c-0.9,0-1.4-0.4-1.5-1.2c-0.1-0.8,0.7-1.9,1.4-1.9c0.8,0,1.9,1.1,1.9,2
		C199,133,198.2,133.5,197.2,133.6z"/>
	
		<linearGradient id="SVGID_29_" gradientUnits="userSpaceOnUse" x1="199.1386" y1="147.5207" x2="199.1386" y2="150.1155" gradientTransform="matrix(1 0 0 -1 0 290)">
		<stop  offset="0" style="stop-color:#ED1C24"/>
		<stop  offset="0.3357" style="stop-color:#F15A24"/>
		<stop  offset="0.6612" style="stop-color:#C1272D"/>
		<stop  offset="1" style="stop-color:#F7931E"/>
	</linearGradient>
	<path class="st35" d="M198.9,142.4c-0.7,0.1-1.2-0.2-1.2-0.9c-0.1-0.7,0.9-1.6,1.7-1.6c0.8,0,1.2,0.5,1.2,1.3
		C200.6,142.1,200.2,142.4,198.9,142.4z"/>
	
		<linearGradient id="SVGID_30_" gradientUnits="userSpaceOnUse" x1="198.642" y1="175.0969" x2="198.642" y2="176.6092" gradientTransform="matrix(1 0 0 -1 0 290)">
		<stop  offset="0" style="stop-color:#ED1C24"/>
		<stop  offset="0.3357" style="stop-color:#F15A24"/>
		<stop  offset="0.6612" style="stop-color:#C1272D"/>
		<stop  offset="1" style="stop-color:#F7931E"/>
	</linearGradient>
	<path class="st36" d="M199.6,114.2c-0.7,0.4-1.1,0.6-1.5,0.7c-0.1,0-0.6-0.6-0.5-0.7c0.1-0.3,0.4-0.7,0.8-0.8
		C198.7,113.3,199,113.8,199.6,114.2z"/>
	
		<linearGradient id="SVGID_31_" gradientUnits="userSpaceOnUse" x1="195.6835" y1="164.5" x2="195.6835" y2="166.67" gradientTransform="matrix(1 0 0 -1 0 290)">
		<stop  offset="0" style="stop-color:#ED1C24"/>
		<stop  offset="0.3357" style="stop-color:#F15A24"/>
		<stop  offset="0.6612" style="stop-color:#C1272D"/>
		<stop  offset="1" style="stop-color:#F7931E"/>
	</linearGradient>
	<path class="st37" d="M195.7,123.3c0.4,0.8,0.7,1.1,0.7,1.5c0,0.2-0.5,0.4-0.8,0.7c-0.2-0.3-0.6-0.6-0.6-0.9
		C194.9,124.3,195.3,124,195.7,123.3z"/>
</g>
<path class="st38" d="M76,165c0,0,4-16,2-21s-5-22-2-30s3.8-17.6,3.8-17.6S78,117,78,122s-2,8,2,14s8,8,4,18S76,165,76,165z"/>
<path class="st38" d="M185,80c0,0,5,9,5,15s-1.5,15.7-1.5,15.7S198,74,185,80z"/>
<path class="st38" d="M200.6,180.5c0,0,13.4-21.5,8.4-24.5s0-8,0-8l7-4c0,0-7,4-7,8S210.2,162,200.6,180.5z"/>
<path class="st38" d="M280,137c1.1-1.7-5-7-2-8s-3-5-3-5s8,3,9-6c0.2-1.6,0.4-3,0.7-4.2c1.3-5.8,3.7-8,5.3-8.8c2-1,0,5,0,5l-3,9
	c0,0-6,2-3,5s-1,4-1,8s-8,15-5,19S270,152,280,137z"/>
<path class="st38" d="M338,111c0,0-3-16,18-19C356,92,342,96,338,111z"/>
<g>
	
		<linearGradient id="SVGID_32_" gradientUnits="userSpaceOnUse" x1="104.832" y1="91.7196" x2="108.2625" y2="91.7196" gradientTransform="matrix(1 0 0 -1 0 290)">
		<stop  offset="0" style="stop-color:#ED1C24"/>
		<stop  offset="0.3357" style="stop-color:#F15A24"/>
		<stop  offset="0.6612" style="stop-color:#C1272D"/>
		<stop  offset="1" style="stop-color:#F7931E"/>
	</linearGradient>
	<path class="st39" d="M106.2,196.3c1.5,0.3,1.9,0.7,2.1,1.9c0.1,0.9-0.3,1.7-1.1,1.9c-0.8,0.2-1.4-0.2-1.9-0.8
		c-0.6-0.7-0.5-1.3,0-2C105.6,197.1,105.9,196.7,106.2,196.3z"/>
	
		<linearGradient id="SVGID_33_" gradientUnits="userSpaceOnUse" x1="97.7387" y1="89.2127" x2="99.5868" y2="89.2127" gradientTransform="matrix(1 0 0 -1 0 290)">
		<stop  offset="0" style="stop-color:#ED1C24"/>
		<stop  offset="0.3357" style="stop-color:#F15A24"/>
		<stop  offset="0.6612" style="stop-color:#C1272D"/>
		<stop  offset="1" style="stop-color:#F7931E"/>
	</linearGradient>
	<path class="st40" d="M97.8,201.6c-0.2-1-0.2-1.8,0.9-1.8c0.3,0,0.9,0.6,0.9,0.9C99.5,201.9,98.7,201.7,97.8,201.6z"/>
</g>
<linearGradient id="SVGID_34_" gradientUnits="userSpaceOnUse" x1="74.4343" y1="219.3705" x2="77.7921" y2="219.3705" gradientTransform="matrix(1 0 0 -1 0 290)">
	<stop  offset="0" style="stop-color:#ED1C24"/>
	<stop  offset="0.3357" style="stop-color:#F15A24"/>
	<stop  offset="0.6612" style="stop-color:#C1272D"/>
	<stop  offset="1" style="stop-color:#F7931E"/>
</linearGradient>
<path class="st41" d="M76.1,68.9c1.1,0,1.7,0.6,1.7,1.9c0,0.9-0.5,1.4-1.5,1.4c-1,0-1.8-0.8-1.9-1.9C74.4,69.5,74.9,69,76.1,68.9z"
	/>
<path class="st38" d="M408,146c0,0,4-1,3-4s0-6,0-6l4-5c0,0-1.5-1.9-1.3-4.2c0.1-0.9,0.4-1.9,1.3-2.8c3-3,0,11,0,11l-3,3
	C412,138,414,147,408,146z"/>
</svg>
