<?xml version="1.0" encoding="utf-8"?>
<!-- Generator: Adobe Illustrator 24.2.3, SVG Export Plug-In . SVG Version: 6.00 Build 0)  -->
<svg version="1.1" id="Capa_1" xmlns="http://www.w3.org/2000/svg" xmlns:xlink="http://www.w3.org/1999/xlink" x="0px" y="0px"
	 viewBox="0 0 437 162" style="enable-background:new 0 0 437 162;" xml:space="preserve">
<style type="text/css">
	.st0{fill:#FFFFFF;}
</style>
<g>
	<path class="st0" d="M100.15,104.87c-0.85,2.04-1.38,3.97-1.03,6.09c0.09,0.56-0.09,1.21-0.32,1.75c-0.94,2.22-1.94,4.42-2.95,6.61
		c-0.23,0.49-0.59,0.92-0.96,1.32c-0.72,0.77-1.59,1.42-2.2,2.26c-0.63,0.88-1.15,1.9-1.47,2.93c-0.57,1.83-0.7,2.21-2.01,3.1
		c-0.08-0.38-0.15-0.7-0.22-1.02c-0.07-0.35-0.14-0.7-0.27-1.41c-0.38,0.58-0.64,0.88-0.78,1.22c-1.05,2.52-2.06,5.05-3.12,7.56
		c-0.66,1.57-1.38,3.12-2.17,4.9c-0.69-0.86-0.29-1.57-0.15-2.2c0.71-3.14,1.5-6.27,2.25-9.4c0.32-1.33,0.61-2.66,0.91-3.99
		c0.29-1.28,0.38-2.53,0-3.85c-0.19-0.65-0.05-1.46,0.13-2.14c0.67-2.45,1.42-4.87,2.2-7.49c-0.53-0.06-0.9-0.11-1.35-0.16
		c-0.12-1.72,0.81-3.17,1.35-4.53c-1.56-0.5-2.98-1.08-4.46-1.38c-1.41-0.29-2.88-0.28-4.62-0.43c0.61-0.69,1.01-1.15,1.62-1.84
		c-2.9-0.19-5.51-0.37-8.39-0.56c0.07,3.15-1.45,5.68-2.34,8.42c-0.61,1.88-1.19,3.75-2,5.57c-0.42,0.94-0.47,2.04-0.69,3.06
		c-0.3,1.39-0.56,2.8-0.93,4.17c-0.46,1.68-0.99,3.35-2.75,4.2c-0.11,0.05-0.19,0.16-0.27,0.26c-2.75,3.16-5.47,6.36-8.28,9.47
		c-1.15,1.27-2.51,2.34-3.96,3.31c-0.2,0.72-0.4,1.45-0.61,2.21c-1.73-0.79-0.3-3.06-2.17-3.74c-0.6,1.54-1.37,2.85-2.85,3.53
		c-1.04-1.08,0.07-2.28-0.33-3.73c-1.93,2.23-2.56,5.26-5.23,6.53c-0.72-0.42-0.57-0.94-0.26-1.46c2.81-4.85,3.97-10.27,5.17-15.64
		c0.63-2.83,0.91-5.75,1.33-8.63c0.07-0.49,0.05-0.99,0.02-1.49c-0.1-1.49-0.17-1.56-1.9-1.75c-0.25-2.03-0.56-4.11-0.73-6.19
		c-0.25-3.03-0.41-6.06-0.58-9.1c-0.1-1.65-0.17-1.8-1.56-2.51c-0.25,0.55-0.51,1.09-0.73,1.65c-3.3,8.42-6.59,16.85-9.91,25.27
		c-1.77,4.49-6.77,7-11.4,5.77c-2.22-0.59-3.83-1.98-5.04-3.87c-1.74-2.72-2.77-5.7-2.87-8.92c-0.12-3.78-0.2-7.57-0.09-11.35
		c0.12-4.24-0.53-8.41-0.75-12.62c-0.13-2.41-0.19-4.83-0.1-7.24c0.21-5.27,0.45-10.54-0.04-15.8c-0.43-4.59,0.21-9.02,1.88-13.32
		c0.58-1.5,1.11-3.03,1.73-4.51c1.52-3.66,3.14-7.27,4.08-11.15c0.42-1.72,1.22-3.38,2.07-4.95c1.09-2.01,1.77-2.21,4.05-1.84
		c0.18,0.03,0.36,0,0.66,0c1.62-2.32-0.38-4.66,0-7.25c0.46,0.26,0.89,0.37,1.05,0.63c0.44,0.74,0.76,1.56,1.14,2.34
		c0.26,0.54,0.55,1.06,0.91,1.76c0.68-0.84,0.45-1.53,0.27-2.23c-0.48-1.8-0.98-3.59-1.4-5.39c-0.27-1.16-0.2-1.19,0.79-2.55
		c0.33,0.7,0.61,1.26,0.87,1.84c0.56,1.23,1.04,2.51,1.67,3.69c1.35,2.52,2.08,5.09,1.74,8.02c-0.51,4.43-0.79,8.89-1.11,13.35
		c-0.07,0.97,0.15,1.96,0.18,2.94c0.04,1.73,0.18,3.48,0.02,5.2c-0.45,4.63-1.03,9.24-1.57,13.86c-0.06,0.55-0.18,1.12-0.42,1.61
		c-1.6,3.31-2.04,6.87-2.3,10.47c-0.07,0.92-0.18,1.85-0.37,2.75c-0.49,2.23-0.16,4.45-0.02,6.67c0.11,1.67,0.29,3.33,0.47,5.44
		c0.25-0.67,0.44-0.95,0.45-1.23c0.08-4.96,1.54-9.47,4.03-13.76c1.23-2.12,2.05-4.52,2.79-6.87c0.67-2.15,1.78-3.93,3.31-5.51
		c0.56-0.58,1.21-1.08,1.7-1.72c0.3-0.4,0.42-0.97,0.52-1.48c0.05-0.28-0.09-0.61-0.16-0.91c-0.52-2.3-0.59-4.38,1.12-6.44
		c0.95-1.15,1.56-2.63,2.67-3.74c0.28-0.28,0.35-0.76,0.52-1.15c0.24-0.57,0.41-1.17,0.72-1.7c1.28-2.13,2.93-3.55,5.44-2.68
		c0.94-1.28,1.79-2.39,2.58-3.53c0.28-0.4,0.45-0.87,0.63-1.33c0.7-1.79,1.4-3.57,2.69-5.06c0.46-0.54,0.6-1.35,0.96-2
		c0.37-0.67,0.82-1.29,1.38-2.16c0.68,1.13,0.33,1.98-0.02,2.56c-1.38,2.31-1.16,4.82-1.34,7.35c-0.29,4.21,0.46,8.28,1.24,12.36
		c0.38,2,0.37,3.94-0.15,5.89c-0.4,1.5-0.76,3.01-1.28,4.46c-0.57,1.57-0.65,3.12-0.35,4.75c0.27,1.46,0.4,2.95,0.58,4.42
		c0.09,0.75-0.05,1.32-0.55,2.02c-0.56,0.78-0.96,1.97-0.84,2.91c0.41,3.1,1.08,6.17,1.65,9.26c0.26-0.19,0.6-0.61,1.03-0.74
		c1.76-0.55,2.35-1.91,2.49-3.53c0.31-3.37,1.76-6.44,2.47-9.69c0.72-3.28,1.99-6.31,3.17-9.42c1.77-4.66,3.69-9.14,6.88-13.04
		c0.82-1,1.2-2.44,1.52-3.75c0.61-2.43,1.65-4.83,0.88-7.46c-0.14-0.49,0.24-1.19,0.51-1.73c1.03-1.98,2.13-3.92,3.16-5.9
		c0.4-0.76,0.75-1.55,1.04-2.36c0.48-1.32,1.47-2.16,2.64-2.75c1.07-0.54,1.74-1.33,2.23-2.37c0.88-1.85,1.81-3.67,2.71-5.5
		c0.35-0.71,0.66-1.48,1.74-1.71c0,1.01,0,1.96,0,3.32c0.59-0.47,0.99-0.64,1.15-0.93c2.47-4.65,4.91-9.32,7.37-13.97
		c0.26-0.49,0.65-0.91,0.98-1.37c0.16,0.07,0.32,0.13,0.47,0.2c-0.1,0.63-0.09,1.3-0.31,1.88c-1.23,3.31-2.48,6.61-3.78,9.88
		c-0.53,1.32-1.19,2.57-1.22,4.05c-0.02,0.72-0.27,1.47-0.54,2.15c-0.82,2.08-1.48,4.14-1.24,6.47c0.09,0.89-0.47,1.9-0.91,2.77
		c-1.3,2.55-2.28,5.2-2.81,8.15c0.5,0,0.93,0,1.52,0c-0.26,0.72-0.46,1.29-0.68,1.86c-2.56,6.85-5.13,13.69-7.69,20.54
		c-0.55,1.48-0.77,2.95-0.19,4.53c0.22,0.61,0.04,1.47-0.2,2.12c-1.93,5.3-3.96,10.56-5.88,15.86c-1.07,2.96-2,5.97-3.08,9.2
		c3.46,0.15,6.75,0.49,9.38-1.45c1.52-1.13,2.92-1.88,4.75-2.01c0.96-0.07,1.36-0.7,1.12-1.83c1.43-0.23,2.76-0.51,4.1-0.64
		c0.93-0.09,1.47-0.46,1.76-1.35c0.45-1.38,1.24-2.65,0.54-4.26c-0.24-0.54,0.17-1.45,0.46-2.12c1.3-2.95,2.7-5.85,4-8.8
		c1.45-3.29,2.91-6.57,4.18-9.93c0.49-1.3,0.47-2.79,0.68-4.2c0,0-2.49,1.13-2.69,1.22c0.17-0.51,0.25-0.91,0.42-1.26
		c0.73-1.51,1.57-2.96,2.19-4.51c0.47-1.19,0.79-2.48,0.96-3.75c0.32-2.34,1.47-4.16,3.19-5.7c0.54-0.48,0.98-1.07,1.49-1.6
		c0.41-0.42,0.79-0.89,1.27-1.22c0.6-0.41,0.8-0.82,0.61-1.55c-0.13-0.5-0.12-1.13,0.09-1.59c0.58-1.29,1.24-2.56,2-3.76
		c0.31-0.48,0.91-0.86,1.47-1.07c0.87-0.34,1.42-0.92,1.89-1.68c1.12-1.81,2.08-3.67,2.29-5.83c0.19-2.03,1.58-3.31,2.92-4.6
		c0.22-0.21,0.67-0.24,1.01-0.23c0.48,0.02,0.96,0.17,1.49,0.28c0.81-1.13,0.55-2.82,2.06-3.82c0.24,1.08,0.42,1.94,0.7,3.2
		c1.07-2.27,0.95-4.71,3.08-6.14c-0.12,1.43-0.11,2.88-0.37,4.28c-0.65,3.52,0.02,6.92,0.83,10.3c0.51,2.14,1.19,4.25,1.84,6.5
		c0.2-0.07,0.59-0.15,0.95-0.32c4.69-2.2,9.6-3.63,14.68-4.61c1.31-0.25,2.61-0.82,3.79-1.47c1.36-0.74,2.74-0.98,4.26-1.06
		c3.65-0.17,7.29-0.5,10.97-0.77c-0.13-0.53-0.22-0.87-0.37-1.48c1.39-0.07,2.66-0.22,3.93-0.19c5.89,0.15,11.76,0.62,17.54,1.75
		c5.15,1,10.01,2.83,14.39,6.27c1.88-1.05,3.9-2,5.71-3.24c3.66-2.51,7.72-3.65,12.07-3.81c1.86-0.07,3.51-0.49,5.12-1.39
		c0.66-0.37,1.51-0.54,2.28-0.56c2.85-0.06,5.71-0.01,8.56-0.03c0.65,0,1.3-0.1,2.03-0.16c-0.17-0.48-0.27-0.76-0.36-1.01
		c0.1-0.1,0.17-0.23,0.26-0.26c2.16-0.73,4.33-0.19,6.44,0.15c4.83,0.79,9.63,1.74,14.43,2.69c3.27,0.65,6.2,2.1,8.94,3.98
		c0.65,0.44,1.37,0.8,2.11,1.07c1.25,0.45,2.14,1.29,2.69,2.43c2.4,5.02,3.23,10.17,0.76,15.41c-0.84,1.78-1.91,3.49-3.11,5.05
		c-2.62,3.4-5.63,6.43-9.16,8.92c-0.5,0.35-0.99,0.77-1.37,1.25c-2.76,3.43-6.52,5.47-10.31,7.48c-0.38,0.2-0.75,0.42-1.12,0.64
		c-0.04,0.03-0.06,0.11-0.12,0.25c3.22,1.65,6.59,3.06,9.62,5.01c3.04,1.95,5.74,4.44,8.72,6.8c0.18-0.93,0.41-1.92,0.57-2.91
		c0.48-2.87,0.93-5.75,1.39-8.62c0.08-0.49,0.14-0.99,0.3-1.45c0.32-0.9,0.26-1.72-0.4-2.43c-0.59-0.63-0.53-1.29-0.3-2.05
		c0.55-1.77,1.02-3.57,1.55-5.47c-0.48-0.2-0.9-0.37-1.35-0.56c-0.01-0.19-0.08-0.39-0.02-0.54c1.59-3.81,3.73-7.28,6.34-10.46
		c0.35-0.43,0.83-0.74,1.25-1.11c0.93-0.84,1.83-1.69,1.6-3.15c-0.05-0.31,0.2-0.7,0.39-1c0.23-0.37,0.5-0.71,0.81-1.01
		c3.59-3.45,7.29-6.72,12.18-8.28c0.97-0.31,1.88-0.9,2.73-1.48c1.37-0.94,2.87-1.45,4.48-1.67c0.98-0.13,1.96-0.22,2.83-0.32
		c0.39-0.74,0.73-1.37,1.12-2.09c0.51,0.28,0.86,0.53,1.25,0.66c0.98,0.34,1.98,0.88,2.96,0.87c1.8-0.03,3.27,0.54,4.61,1.63
		c0.53,0.43,1.1,0.81,1.6,1.28c0.72,0.67,1.43,1.11,2.48,0.67c0.41-0.17,1-0.11,1.45,0.03c0.72,0.24,1.14,0.78,0.79,1.59
		c-0.29,0.68-0.63,1.34-0.96,2.02c1.09,2.08,2.76,3.88,2.85,6.4c-0.93,0.57-1.83,0.29-2.74,0.22c-0.41-0.03-0.99,0.16-1.24,0.47
		c-0.41,0.48,0.02,0.92,0.43,1.23c0.55,0.4,1.11,0.79,1.69,1.15c0.5,0.31,0.94,0.33,1.52-0.08c0.44-0.31,1.16-0.4,1.72-0.33
		c1.72,0.22,2.14,1.23,1.21,2.73c-0.13,0.21-0.28,0.41-0.41,0.6c0.79,1.12,1.67,2.16,2.32,3.33c1.26,2.27,1.64,4.8,1.8,7.35
		c0.11,1.68,0.16,3.29,1.16,4.77c0.36,0.53,0.37,1.43,0.27,2.12c-0.42,2.88-0.89,5.75-1.43,8.61c-0.32,1.7-0.8,3.37-1.2,5.05
		c-0.04,0.17-0.01,0.36-0.01,0.67c0.41-0.11,0.77-0.22,1.39-0.39c-0.18,1-0.23,1.85-0.49,2.64c-0.37,1.18-0.8,2.35-1.35,3.45
		c-3.47,6.88-7.9,13.03-13.97,17.89c-1.94,1.55-3.97,2.94-6.24,4c-2.58,1.21-5.08,2.59-7.6,3.91c-2.38,1.24-4.92,1.5-7.37,0.61
		c-3.13-1.14-6.26-2.41-9.17-4.02c-2.5-1.39-4.35-3.68-5.92-6.08c-2.64-4.02-4.08-8.49-4.5-13.25c-0.24-2.75-0.24-5.52-0.35-8.3
		c-0.51,1.57-1.49,2.98-0.9,4.89c0.51,1.68,0.1,3.31-1.38,4.53c-0.36,0.3-0.71,0.73-0.86,1.17c-0.53,1.59-1.62,2.77-2.76,3.92
		c-3.36,3.38-7.31,5.91-11.55,8.05c-5.39,2.72-11.07,4.66-16.92,6.13c-0.76,0.19-1.6,0.21-2.39,0.11c-2.03-0.25-3.96,0.05-5.83,0.78
		c-2.42,0.94-4.85,1.89-7.24,2.92c-0.62,0.27-1.1,0.85-1.59,1.25c0.62,1.08,1.1,1.92,1.76,3.07c-1.05-0.15-1.73-0.25-2.87-0.41
		c1.28,1.57,2.34,2.81,3.33,4.11c1.05,1.38,2.02,2.82,3.06,4.22c0.98,1.32,1.99,2.61,2.99,3.91c-0.82,0.69-1.21,0.07-1.56-0.26
		c-2.04-1.9-4.06-3.83-6.07-5.76c-0.85-0.82-1.62-1.71-2.5-2.5c-0.72-0.65-1.53-1.2-2.39-1.86c-1.73,2.91-2.41,6.05-3.92,8.84
		c-0.41-3.3,0.89-6.27,1.59-9.51c-1.33-0.42-2.6-0.96-4.05-0.63c-0.79,0.17-1.59,0.29-2.36,0.51c-1.84,0.53-3.66,0.6-5.48-0.02
		c-1.44-0.5-2.82-0.03-4.22,0.16c-1.84,0.25-3.67,0.62-5.5,0.89c-0.71,0.11-1.43,0.09-2.38,0.15c0.56-1.29,1.86-1.29,2.61-2.39
		c-2.33-0.05-4.39,0.65-6.49,0.76c-2.22,0.11-4.46,0.08-6.69,0.01c-2.12-0.06-4.23-0.24-6.35-0.37c-0.02-0.15-0.05-0.29-0.07-0.44
		c0.41-0.19,0.8-0.49,1.22-0.55c2.33-0.3,4.67-0.72,7.01-0.76c3.47-0.06,6.77-0.56,9.87-2.21c0.74-0.4,1.65-0.5,2.48-0.72
		c1.74-0.47,3.4-1.09,4.87-2.42c-0.42-0.37-0.75-0.72-1.14-0.98c-2.11-1.42-4.21-2.85-6.35-4.21c-1.2-0.76-2.43-1.48-4-1
		c-0.4,0.12-0.96-0.15-1.4-0.34c-0.73-0.33-1.46-0.71-2.12-1.15c-4.49-3.01-9.27-5.5-14.08-7.93c-0.87-0.44-1.85-0.64-2.77-0.99
		c-1.26-0.48-2.5-1-3.95-1.59c-0.24,0.75-0.56,1.52-0.71,2.33c-0.23,1.23-0.73,2.32-1.31,3.44c-0.79,1.53-1.35,3.19-1.85,4.84
		c-0.38,1.27-0.89,2.42-1.68,3.48c-0.78,1.04-1.43,2.18-2.22,3.21c-1.75,2.28-2.12,4.97-2.38,7.7c-0.04,0.48,0.01,1.02,0.2,1.45
		c0.55,1.29,0.33,2.51-0.08,3.79c-0.75,2.29-1.3,4.65-2.11,6.92c-0.36,1.02-1.02,1.99-1.75,2.8c-0.69,0.77-1.16,1.56-1.44,2.54
		c-0.48,1.67-0.99,3.32-1.52,4.98c-0.12,0.36-0.36,0.69-0.74,1.41c-0.32-1.21-0.54-2.01-0.85-3.18c-1.18,2.91-2.09,5.56-3.32,8.05
		c-1.21,2.43-2.18,5-3.52,7.36c-0.18-0.06-0.36-0.12-0.55-0.19c0.07-0.76,0.03-1.55,0.24-2.27c0.9-3.09,1.8-6.18,2.85-9.23
		c0.93-2.71,0.75-5.5,0.87-8.27c0.01-0.12-0.02-0.26-0.08-0.36c-1.08-1.68-0.57-3.38-0.22-5.15c0.41-2.05,0.54-4.16,0.8-6.4
		c-0.55,0.06-0.93,0.09-1.52,0.15c0.12-0.74,0.2-1.39,0.34-2.04c1.44-6.8,3.5-13.43,5.57-20.05c0.28-0.89,0.5-1.73-0.01-2.67
		c-0.25-0.46-0.17-1.2-0.03-1.76c0.48-1.85,1.06-3.68,1.67-5.76c-2.83,0.24-5.5,0.46-8.16,0.69c0,0.09,0,0.19,0,0.28
		c1.27,0.22,2.55,0.43,4.21,0.72c-0.71,0.23-1.06,0.39-1.44,0.47c-2.49,0.51-4.99,0.93-7.46,1.53c-1.7,0.41-1.72,0.62-1.76,2.31
		c-0.07,2.76,0.21,5.44,1.53,7.94c0.27,0.51,0.34,1.19,0.33,1.79c-0.05,3.03-0.13,6.07-0.25,9.1c-0.02,0.48-0.15,1.01-0.41,1.4
		c-0.81,1.22-0.82,2.54-0.76,3.92c0.08,1.82,0.02,3.65,0.02,5.48c-0.14,0.05-0.28,0.09-0.42,0.14c-0.39-0.59-0.78-1.19-1.17-1.78
		c-0.13,0.01-0.25,0.03-0.38,0.04c-0.08,0.75-0.31,1.53-0.2,2.25c0.27,1.84-0.14,3.56-0.59,5.31c-0.52,2.04-0.94,4.1-1.43,6.15
		c-0.1,0.41-0.32,0.78-0.49,1.18c-0.13-0.03-0.27-0.06-0.4-0.09c-0.06-0.39-0.19-0.79-0.16-1.17c0.14-2.04,0.23-4.09,0.5-6.11
		c0.24-1.74,0.28-3.45-0.04-5.18c-0.28-1.52-0.41-3.08-0.75-4.59c-0.2-0.88-0.55-1.8-1.09-2.5c-0.57-0.73-0.79-1.46-0.91-2.35
		c-0.36-2.69-0.8-5.37-1.24-8.22c-0.88,0.29-1.55,0.41-1.7-0.54c-0.1-0.67-0.31-1.34-0.31-2.01c-0.01-2.54,0.07-5.08,0.07-7.63
		c0-1.16-0.09-2.33-0.14-3.72c-1.01,0.32-1.81,0.57-2.61,0.81c-1.06,0.31-2.1,0.72-3.08-0.33c-0.24-0.25-1-0.27-1.37-0.09
		c-3.39,1.64-7.03,1.9-10.7,2.01C100.76,104.77,100.52,104.82,100.15,104.87z M204.72,40.14c1.42,1.19,3.33,4.01,4.58,6.8
		c2.06,4.58,2.22,9.23,0.52,13.94c-1,2.77-2.59,5.21-4.37,7.53c-2.55,3.33-5.72,6.01-8.89,8.69c-1.13,0.95-2.06,2.12-3.15,3.12
		c-1.4,1.29-2.84,2.56-4.33,3.76c-1.05,0.84-2.26,1.48-3.33,2.31c-1.38,1.06-2.75,2.03-4.42,2.66c-2.19,0.83-4,2.36-6.05,3.92
		c1.22,0.38,2.17,0.64,3.1,0.96c5.95,2.03,11.11,5.45,16.05,9.23c0.79,0.6,1.37,1.62,1.75,2.56c0.4,0.98,0.91,1.82,1.79,2.28
		c1.97,1.04,3.93,2.15,6.03,2.85c1.35,0.45,2.75,0.64,3.78,1.74c1.16-0.49,2.25-0.87,2.74-2.22c-0.47,0-0.81,0-1.26,0
		c-0.28-1.59,0.11-3.09,0.51-4.56c1.04-3.82,2.16-7.63,3.24-11.44c0.42-1.49,0.82-2.97,0.12-4.53c-0.2-0.45-0.06-1.1,0.04-1.63
		c0.35-1.76,0.78-3.51,1.14-5.27c0.13-0.64,0.17-1.31,0.27-2.14c-1.53,0.16-2.04-0.68-2.13-1.75c-0.86-0.47-2.03-0.12-2.36-1.35
		c1.09-0.36,2.09-0.69,3.09-1.02c-2.42-1.1-5.13-0.87-7.45-2.39c1.28-0.8,1.28-0.82,2.99-0.72c2.1,0.13,4.21,0.39,6.28-0.21
		c0.17-0.05,0.31-0.18,0.51-0.3c-0.03-0.35-0.06-0.7-0.1-1.26c0.75-0.04,1.46-0.07,2.44-0.12c0.05-0.74,0.12-1.51,0.14-2.27
		c0.03-0.98-0.28-2.11,0.09-2.93c0.95-2.12,0.45-4.6,1.81-6.58c0.11-0.17,0.01-0.48,0.02-0.72c0.06-1.48,0.06-2.96,0.19-4.43
		c0.15-1.72,0.89-3.08,2.64-3.69c0.35-0.12,0.65-0.36,1-0.49c1.26-0.47,2.18-1.31,3.02-2.36c1.28-1.59,2.56-3.2,4.73-3.71
		c0.86-0.2,1.08-0.93,0.91-1.78c-0.27-1.41-1.08-1.93-3.06-1.96c-0.79,1.16-1.5,1.59-2.36,1.25c-1.36-0.54-0.83-1.82-0.91-2.83
		c-3.21-0.54-6.45-0.04-9.82-0.88c0.82-0.68,1.45-1.19,2.19-1.79c-3-0.52-5.99,0.03-8.64,1.39
		C208.14,38.63,206.44,39.35,204.72,40.14z M303.01,54.74c-1.87,2.71-3.59,5.2-5.31,7.69c-0.25,0.36-0.53,0.69-0.72,1.08
		c-1.24,2.48-3.03,4.52-4.98,6.45c-3.85,3.78-5.77,8.41-6.06,13.77c-0.09,1.73-0.25,3.46-0.45,5.18c-0.13,1.11-0.42,2.16-1.36,2.96
		c-0.75,0.64-1.02,1.52-0.66,2.52c0.12,0.34,0.12,0.73,0.16,1.1c0.49,4.11,2.08,7.29,6.49,8.48c1.86,0.5,3.56,0.75,5.43,0.08
		c2.2-0.79,4.51-1.3,6.73-2.06c0.85-0.29,1.63-0.85,2.35-1.4c0.58-0.44,1.07-1.03,1.54-1.6c1.83-2.21,3.49-4.46,3.69-7.52
		c0.14-2.23,0.83-4.34,1.92-6.35c1.47-2.73,2.64-5.59,3.04-8.73c0.1-0.79,0.6-1.7,1.2-2.23c1.62-1.42,2.03-3.21,1.93-5.19
		c-0.09-1.92-0.31-3.83-0.44-5.75c-0.04-0.58,0.04-1.16,0.07-1.71c1.38-0.18,1.52,1.63,2.81,1.36c0-0.25,0.05-0.44-0.01-0.59
		c-1.15-2.97-3.03-5.4-5.54-7.32c-0.51-0.39-1.26-0.47-1.9-0.69c-0.06,0.11-0.12,0.23-0.18,0.34c0.5,0.53,1.03,1.04,1.48,1.62
		c0.21,0.26,0.44,0.87,0.34,0.95c-0.9,0.75-0.13,1.44,0.01,2.14c0.12,0.58,0.28,1.19-0.35,1.92c-0.44-0.46-0.83-0.8-1.16-1.2
		c-0.95-1.15-1.88-2.31-2.79-3.48c-0.5-0.64-1.05-1.01-1.91-0.81C306.41,56.22,304.57,55.93,303.01,54.74z M141.06,81.71
		c-0.38-1.48-1.31-2.44-2.52-3.14c-0.63-0.37-1.06-0.77-0.92-1.76c0.67,0.14,1.3,0.17,1.83,0.41c1.16,0.54,2.01,0.2,2.73-0.71
		c-0.31-1.25-1.53-2.13-1.33-3.64c0.81,0.15,1.5,0.27,2.26,0.41c-0.36-2.35-3.06-3.38-3.04-6.27c0.86,0.67,1.38,1.07,1.89,1.47
		c2.04,1.62,4.05,3.26,6.13,4.83c0.7,0.53,1.48,1.09,2.46,0.98c0.24-0.92,0.32-1.82,0.69-2.58c0.84-1.71,1.13-3.47,1.21-5.36
		c0.1-2.31,0.68-4.52,2.43-6.26c0.73-0.73,1.3-1.63,1.92-2.47c0.26-0.35,0.37-0.88,0.7-1.08c1.63-0.96,2.05-2.71,2.97-4.15
		c0.84-1.33,1.93-2.62,3.19-3.53c0.59-0.42,1.85,0.09,2.81,0.17c0.11,0.01,0.22-0.08,0.35-0.14c0.76-1,0.71-2.66,2.45-3.08
		c0.09,0.94,0.17,1.76,0.27,2.8c1.45-1.06,1.78-2.41,2.04-3.97c-3.46-0.17-6.75-0.87-10.11-0.47c-1.42,0.17-2.83,0.03-4.2-0.5
		c-3.06-1.19-6.18-1.69-9.46-0.96c-1.38,0.31-2.83,0.34-4.24,0.48c-0.39,0.04-0.78,0.01-1.17,0.01c-0.04-0.14-0.09-0.27-0.13-0.41
		c0.92-0.55,1.83-1.09,2.75-1.64c-0.59-0.3-1.16-0.39-1.7-0.29c-2.07,0.4-4.14,0.8-6.17,1.32c-1.72,0.44-3.39,1.07-5,1.58
		c-0.22,1.11-0.42,1.95-0.55,2.8c-0.83,5.37-1.92,10.75,0.01,16.13c0.04,0.12,0.07,0.24,0.09,0.36c0.27,1.83,0.25,3.61-1.06,5.09
		c-0.6,0.69-0.58,1.44-0.47,2.27c0.35,2.7,0.74,5.4,0.96,8.11c0.31,3.89,0.46,7.79,0.01,11.69c-0.07,0.58-0.04,1.33,0.28,1.75
		c0.64,0.85,1.39,1.85,2.31,2.21c3.37,1.32,6.98,1.51,10.62,1.76c0.62-1.5,1.51-2.84,1.72-4.34c-1.03-0.71-1.96-1.23-2.74-1.92
		c-0.88-0.77-0.89-1.34-0.29-2.24c0.74-1.1,0.76-1.46-0.2-2.35c-0.67-0.63-1.47-1.13-2.25-1.63c-0.54-0.35-1.06-0.64-0.8-1.45
		C140.19,81.94,140.59,81.84,141.06,81.71z M166.44,77.14c2.04-0.32,3.87-0.59,5.69-0.9c0.42-0.07,0.84-0.22,1.23-0.4
		c4.2-2.01,8.3-4.13,11.25-7.95c1.23-1.6,2.89-2.65,5.03-2.83c0.74-0.06,1.61-0.46,2.12-0.99c1.28-1.32,2.69-2.66,3.51-4.26
		c2.84-5.53,1.51-9.63-3.99-12.22c-0.88-0.42-1.73-0.96-2.5-1.55c-2.28-1.76-4.78-2.82-7.72-2.67c-1.42,0.07-2.85,0-4.27,0.04
		c-2.34,0.06-3.35,1-3.67,3.31c-0.18,1.28-0.43,2.56-0.6,3.84c-0.5,3.67-1.55,7.29-1.07,11.04c0.31,2.41-0.17,4.7-1.1,6.88
		c-0.73,1.7-1.67,3.31-2.58,4.92C167.15,74.53,166.5,75.64,166.44,77.14z M238.18,41.69c0.35,1.73,0.77,3.34,1.01,4.99
		c0.91,6.08,0.31,11.86-3.47,17c-0.39,0.54-0.52,1.26-0.86,2.12c2.34-0.24,4.26-0.64,6.07-1.47c0.78-0.36,1.48-0.99,2.29-1.2
		c2.19-0.56,3.87-1.85,5.46-3.35c0.94-0.89,2-1.67,2.96-2.54c0.82-0.73,1.7-1.21,2.84-1.04c1.56,0.22,2.67-0.56,3.38-1.82
		c0.82-1.45,1.48-2.99,2.21-4.49c0.99-2.05-0.11-4.37-1.86-5.23c-1.55-0.76-3.2-1.33-4.31-2.78c-0.1-0.13-0.32-0.19-0.5-0.22
		c-3.35-0.54-6.69-1.38-10.09-0.24c-0.57,0.19-1.21,0.23-1.82,0.25C240.46,41.72,239.41,41.69,238.18,41.69z M229.22,88.31
		c-0.86,2.5-1.63,4.91-2.53,7.28c-0.64,1.66-1.25,3.39-3.02,4.3c-0.25,0.13-0.43,0.45-0.57,0.72c-1.21,2.24-1.44,4.63-1.29,7.29
		c1.2-0.37,2.19-0.68,3.18-0.99c2.42-0.76,4.85-1.49,7.25-2.29c1.24-0.41,2.58-0.89,3.15-2.13c0.48-1.06,1.28-1.4,2.22-1.75
		c1.44-0.53,2.95-0.96,4.27-1.72c2.19-1.25,4.47-2.1,6.99-2.28c0.38-0.03,0.75-0.14,1.12-0.21c-0.66-0.67-1.35-1.14-2.09-1.27
		c-1.82-0.32-3.67-0.63-5.51-0.67c-1.68-0.04-3.17-0.43-4.58-1.28c-2.64-1.59-5.28-3.18-7.92-4.76
		C229.74,88.46,229.55,88.43,229.22,88.31z M117.35,89c0-0.73,0.02-1.64-0.01-2.55c-0.02-0.67-0.16-1.35-0.14-2.02
		c0.07-3.53,0.17-7.07,0.24-10.6c0.01-0.62-0.11-1.25-0.16-1.87c-0.51,0.52-0.74,1.02-0.86,1.54c-0.25,1.06-0.88,1.84-1.84,2.19
		c-1.15,0.43-1.52,1.25-1.79,2.34c-1.02,4.22-2.19,8.39-4.2,12.28c-0.11,0.2-0.13,0.45-0.23,0.86c2.18,0.05,4.15-0.29,6.05-1.09
		C115.24,89.73,116.1,89.46,117.35,89z M233.37,41.12c0.42,0.32,0.73,0.56,1.18,0.91C234.63,40.94,234.18,40.91,233.37,41.12z"/>
	<path class="st0" d="M385.82,110.57c0.19,1.96,1.26,2.62,3.9,2.59c-0.44-0.6-0.89-1.2-1.34-1.8c0.08-0.11,0.16-0.21,0.24-0.32
		c0.37,0.08,0.77,0.11,1.11,0.26c3.71,1.62,7.56,1.61,11.49,1.16c2.43-0.28,5.08-3.24,4.89-5.73c-0.11-1.48-0.17-2.96-0.28-4.44
		c-0.09-1.16-0.36-2.29,0.18-3.47c0.2-0.44-0.05-1.22-0.33-1.71c-1.65-2.95-3.97-5.38-6.36-7.73c-0.82-0.81-1.44-0.63-2.08,0.41
		c-0.16,0.26-0.28,0.55-0.41,0.83c-0.13,0.27-0.27,0.54-0.45,0.91c-0.42-0.39-0.75-0.7-1.33-1.24c-0.37,1.9-0.68,3.55-1.08,5.62
		c-0.43-0.61-0.77-0.89-0.83-1.21c-0.21-1.22-0.38-2.45-0.45-3.69c-0.06-1.1-0.24-2.09-1.23-2.75c-0.05-0.03-0.09-0.09-0.13-0.13
		c-1.2-1.28-1.2-1.49,0.07-2.99c-0.31-1.07-1.15-1.81-1.96-2.54c-0.77-0.69-1.22-1.51-1.54-2.47c-0.43-1.29-0.9-2.58-1.51-3.79
		c-0.37-0.75-0.98-1.41-1.59-2c-0.9-0.87-1.49-1.82-1.15-3.09c0.3-1.12-0.34-1.95-0.86-2.73c-1.07-1.61-1.56-3.37-1.7-5.24
		c-0.21-2.81,0.03-5.67,1.18-8.19c0.74-1.62,1.54-3.19,1.93-4.93c0.26-1.14,0.42-2.29,0.7-3.42c0.15-0.63,0.31-1.34,0.7-1.82
		c0.93-1.16,1.91-2.31,3.04-3.25c0.87-0.73,2-1.18,3.03-1.7c1.05-0.53,2.12-1.01,3.19-1.48c0.53-0.23,1.1-0.38,1.95-0.67
		c-0.18,0.82-0.28,1.3-0.39,1.81c0.91,0.38,1.36-0.25,1.87-0.63c2.51-1.86,5.15-3.47,8.27-4.05c3.49-0.66,6.92-0.12,10.29,0.76
		c0.91,0.24,1.62,1.16,2.53,1.48c3.22,1.12,5.18,3.95,7.93,5.73c1.14,0.74,1.41,2.23,1.55,3.65c0.32,3.3,0.01,6.55-0.51,9.8
		c-0.36,2.22-0.94,2.76-3.28,2.89c-0.18,0.01-0.36,0.06-0.6,0.11c-0.22,0.33-0.46,0.69-0.7,1.05c-0.2,0.3-0.42,0.59-0.7,0.98
		c-0.39-0.5-0.71-0.91-1.08-1.39c-1.45,1.32-0.6,3.72-2.36,4.88c-1.19-1.43,0.5-3.31-0.93-4.51c1.01-1.8,0.78-3.36-0.29-5
		c-1.13-1.75-2.1-3.63-2.97-5.52c-0.41-0.89-0.76-1.46-1.85-1.4c-4.55,0.26-8.59,1.73-11.96,4.88c-1.66,1.55-2.44,3.56-2.99,5.67
		c-0.13,0.51,0.02,1.1,0.06,1.65c0.03,0.43,0.22,0.88,0.13,1.27c-0.28,1.18-0.05,2.25,0.22,3.42c0.3,1.33,0.84,2.4,1.62,3.45
		c0.4,0.54,0.74,1.17,0.92,1.81c0.26,0.91,1.03,1.33,1.55,1.98c0.47,0.58,0.22,1.75,0.7,2.31c0.83,0.97,1.93,1.75,3.01,2.45
		c1.28,0.82,2.31,1.83,3.19,3.06c1.98,2.78,4.02,5.51,6.02,8.27c3.44,4.76,5.07,10.15,5.54,15.94c0.16,2-0.07,3.97-0.84,5.84
		c-0.56,1.35-1.39,2.53-2.64,3.29c-1.13,0.68-1.83,1.64-2.38,2.77c-0.33,0.67-0.7,1.32-0.99,2c-1.52,3.61-4.38,5.39-8.1,6.05
		c-0.55,0.1-1.2,0.02-1.62,0.3c-1.5,1.02-3.12,1.04-4.82,0.9c-1.8-0.15-3.6-0.05-5.33,0.54c-0.98,0.33-1.88,0.42-2.79-0.29
		c-0.77-0.6-1.71-0.58-2.67-0.3c-2.17,0.64-4.31,0.21-6.4-0.38c-1.15-0.32-2.16-0.86-2.58-2.17c-0.15-0.45-0.67-0.9-1.13-1.11
		c-1.38-0.65-2.72-1.49-4.4-1.19c-0.36,0.06-0.89-0.17-1.17-0.45c-1.17-1.18-2.28-2.41-3.4-3.65c-0.15-0.17-0.31-0.47-0.27-0.67
		c0.35-1.87-0.5-3.53-0.84-5.28c-0.03-0.16,0.06-0.35,0.13-0.67c0.46,0.24,0.86,0.44,1.37,0.71c0.1-0.28,0.31-0.56,0.28-0.81
		c-0.26-2.09-0.54-4.18-0.85-6.26c-0.12-0.8-0.35-1.57-0.46-2.37c-0.04-0.31,0.09-0.65,0.49-1.07c0.32,0.62,0.65,1.24,1.1,2.09
		c0.13-0.6,0.21-1,0.38-1.79c0.66,1.15,1.18,2.04,1.7,2.94c0.45-1.39-0.07-2.71-0.07-4.05c0-1.42-0.1-2.85,0.01-4.26
		c0.11-1.35,0.39-2.7,0.68-4.03c0.3-1.39,0.64-2.78,1.07-4.14c0.41-1.27,0.5-2.71,1.48-3.71c0.17,0.04,0.35,0.08,0.52,0.12
		c-0.04,0.63-0.01,1.28-0.13,1.89c-0.5,2.49-1.03,4.98-1.58,7.45c-0.64,2.88-0.5,5.66,0.83,8.34c0.5,1,1.02,1.98,1.48,3
		c0.9,2,2.16,3.59,4.33,4.31c0.38,0.13,0.79,0.42,1.01,0.76C383.67,110.25,384.59,110.61,385.82,110.57z M372.79,107.02
		c0.21,1.98,0.79,2.92,2.09,3.34C374.18,109.24,373.5,108.15,372.79,107.02z"/>
	<path class="st0" d="M323.46,129.81c-0.47-0.05-0.77-0.08-1.25-0.13c0.13-0.65,0.19-1.25,0.37-1.82c0.3-0.94,0.65-1.88,1.03-2.79
		c2.62-6.29,5.27-12.57,7.88-18.86c0.21-0.5,0.45-1.1,0.35-1.58c-0.36-1.71,0.12-3.25,0.94-4.64c1.1-1.86,1.2-3.59-0.15-5.29
		c-2.24-2.81-1.29-5.58,0.08-8.3c0.58-1.16,0.8-2.23,0.52-3.55c-0.75-3.51-1.29-7.07-2.01-10.58c-0.17-0.81-0.71-1.55-1.09-2.31
		c-0.3-0.59-0.76-1.12-0.91-1.74c-0.54-2.14-0.61-4.43-2.22-6.21c-0.21-0.23-0.1-0.72-0.22-1.07c-0.8-2.5-0.7-5.22-1.85-7.64
		c-0.46-0.98-0.33-1.89,0.17-2.84c1.16-2.19,2.26-4.41,3.38-6.62c0.94-1.86,2.2-3.16,4.51-2.8c0.17,0.03,0.36-0.07,0.5-0.1
		c0.49-0.73,0.95-1.43,1.49-2.25c0.6,0.46,1.05,0.81,1.62,1.25c0.99-1.79,0.43-4,2.03-5.83c0.21,0.86,0.41,1.42,0.48,1.99
		c0.29,2.15,0.53,4.31,0.83,6.45c0.15,1.09,0.45,2.1,1.05,3.11c1.08,1.81,1.1,3.89,0.86,5.96c-0.03,0.24-0.11,0.48-0.16,0.73
		c-1.08,5.23-1.17,3.69,0.74,8.38c0.35,0.87,0.58,1.6-0.34,2.29c-0.58,0.43-0.52,1.07-0.24,1.69c0.25,0.57,0.42,1.17,0.71,1.72
		c0.86,1.62,1.15,3.25,0.34,4.98c-0.46,1,0.36,1.59,0.86,2.61c1.01-2.38,1.93-4.56,2.84-6.73c0.26-0.63,0.43-1.31,0.79-1.88
		c1.18-1.85,1.89-3.86,2.3-6.01c0.41-2.1,1.35-4.01,2.79-5.6c1.82-2.02,3.72-3.98,5.7-6.07c-0.97-0.92,0.33-1.75,0.43-2.89
		c-0.98-0.67-0.98-1.62-0.4-2.66c0.09-0.16,0.17-0.34,0.21-0.52c0.43-1.88,1.53-2.98,3.32-3.85c1.85-0.89,3.65-1.79,5.67-2.19
		c0.87-0.17,1.38-0.75,1.89-1.39c0.4-0.5,0.7-1.29,1.57-1.04c0.85,0.24,1.38,0.8,1.35,1.76c0,0.09,0.12,0.18,0.21,0.31
		c0.5-0.32,1-0.65,1.56-1.01c0.4,0.67,0.74,1.27,1.18,2.01c1.17-1.23,1.6-2.59,2.2-3.85c0.44-0.92,0.44-0.92,1.76-1.13
		c-0.08,0.44-0.13,0.84-0.22,1.23c-0.38,1.75-0.69,3.52-1.18,5.24c-0.79,2.78-1.67,5.54-2.59,8.29c-0.23,0.69-0.64,1.38-1.15,1.9
		c-1.28,1.29-1.74,2.94-2.34,4.57c-1.46,4.01-3,8-4.62,11.96c-0.41,1-1.13,1.91-1.87,2.72c-1.78,1.92-3.23,4.05-4.54,6.32
		c-1.23,2.15-1.84,4.43-2.4,6.78c-0.33,1.38-0.82,2.73-1.39,4.03c-0.5,1.14-1.3,2.06-2.59,2.52c-0.48,0.17-0.93,0.8-1.11,1.31
		c-0.7,1.92-1.25,3.89-1.92,5.82c-0.34,0.99-0.81,1.93-1.21,2.9c-0.43,1.03-0.9,2.04-1.27,3.09c-0.51,1.45-0.88,2.92-1.79,4.23
		c-0.52,0.75-0.56,1.87-0.73,2.83c-0.11,0.59-0.07,1.21-0.11,2.02c-0.53-0.23-0.89-0.39-1.3-0.57c-0.81,0.63-0.91,1.56-0.89,2.48
		c0.03,1.61,0.13,3.22,0.23,4.83c0.1,1.63,0.2,3.27-0.11,4.93c-1.37-1.9-1.22-4.28-2.08-6.48c-2.05,1.75-4.09,3.24-4.93,5.81
		c-0.58,1.77-1.25,3.5-1.81,5.27c-0.18,0.57-0.26,1.22-0.21,1.82c0.14,1.67-0.31,3.18-0.96,4.68c-1.09,2.5-2.12,5.02-3.17,7.53
		c-0.41,0.99-0.95,1.77-1.91,2.4c-0.76,0.5-1.32,1.45-1.74,2.32c-0.73,1.5-1.25,3.1-1.93,4.63c-0.36,0.83-0.71,1.72-1.67,2.14
		c-0.92-0.87,0.15-1.91-0.43-3.07c-0.47,0.78-0.88,1.37-1.21,2c-1.05,1.97-2.03,3.97-3.11,5.93c-0.57,1.03-1.2,2.04-1.95,2.94
		c-0.95,1.15-1.98,2.2-2.44,3.67c-0.1,0.33-0.51,0.57-1.04,0.71c0.07-0.33,0.07-0.69,0.21-0.99c0.35-0.79,0.81-1.54,1.12-2.34
		c0.85-2.19,1.77-4.33,2.89-6.42c0.77-1.44,1.01-3.15,1.5-4.74c0.27-0.88,0.52-1.78,0.87-2.63c0.67-1.64,1.09-3.26,0.64-5.06
		c-0.15-0.59,0.09-1.32,0.28-1.96c0.75-2.55,1.57-5.09,2.33-7.63C323.41,130.82,323.4,130.38,323.46,129.81z"/>
	<path class="st0" d="M47.19,145.33c1.53,0.32,1.95,0.72,2.06,1.91c0.09,0.94-0.31,1.7-1.07,1.92c-0.82,0.24-1.43-0.16-1.94-0.75
		c-0.57-0.66-0.53-1.33,0.04-1.98C46.6,146.06,46.9,145.68,47.19,145.33z"/>
	<path class="st0" d="M20.08,24.95c1.05-0.04,1.65,0.63,1.71,1.92c0.04,0.88-0.49,1.41-1.47,1.44c-0.97,0.03-1.8-0.79-1.88-1.86
		C18.37,25.53,18.95,24.99,20.08,24.95z"/>
	<path class="st0" d="M49.41,43.95c0.11,0.78,0.27,1.44,0.28,2.1c0.02,0.78-0.53,1.22-1.21,1.45c-0.81,0.27-1.08-0.36-1.4-0.89
		c-0.13-0.21-0.25-0.43-0.33-0.66c-0.52-1.45-0.09-2.05,1.49-2.08C48.54,43.87,48.84,43.92,49.41,43.95z"/>
	<path class="st0" d="M332.79,35.95c0,1.09-0.45,1.7-1.25,1.68c-0.88-0.02-1.85-1.03-1.86-1.96c-0.01-0.83,0.51-1.35,1.37-1.39
		C332.11,34.24,332.79,34.89,332.79,35.95z"/>
	<path class="st0" d="M370.92,28.4c1.03-0.17,1.89-0.02,2.27,1.07c0.29,0.84-0.15,1.5-0.82,1.86c-0.39,0.21-1.21,0.25-1.45,0
		C370.11,30.51,370.03,29.49,370.92,28.4z"/>
	<path class="st0" d="M123.38,21.91c-0.9-0.26-1.72-0.65-1.73-1.65c-0.01-0.41,0.48-1.05,0.88-1.2c0.52-0.2,1.28-0.18,1.58,0.56
		C124.48,20.54,124.13,21.27,123.38,21.91z"/>
	<path class="st0" d="M400.89,93.78c0.03,0.82-0.56,1-1.18,1.08c-0.75,0.1-1.24-0.44-1.33-1.38c-0.06-0.7,0.5-1.41,1.11-1.39
		C400.16,92.12,400.86,92.96,400.89,93.78z"/>
	<path class="st0" d="M424.83,65.33c-0.09-0.39-0.18-0.68-0.21-0.98c-0.06-0.69-0.13-1.43,0.75-1.66c0.57-0.14,1.47,0.69,1.55,1.35
		c0.09,0.74-0.38,1.23-1.36,1.37C425.39,65.45,425.2,65.38,424.83,65.33z"/>
	<path class="st0" d="M38.82,150.65c-0.16-1-0.17-1.77,0.88-1.75c0.32,0,0.9,0.6,0.88,0.9C40.53,150.88,39.68,150.66,38.82,150.65z"
		/>
	<path class="st0" d="M25.38,19.14c0.03,1.22-0.3,1.82-0.9,1.67c-0.31-0.08-0.76-0.55-0.74-0.83
		C23.77,18.94,24.52,18.97,25.38,19.14z"/>
	<path class="st0" d="M337.57,31.17c-0.65,0.2-1.33,0.67-1.6-0.24c-0.08-0.27,0.4-0.96,0.72-1.04
		C337.61,29.66,337.66,30.34,337.57,31.17z"/>
	<path class="st0" d="M55.44,39.84c0.09,0.61,0.49,1.31-0.57,1.53c-0.62,0.13-0.99-0.17-0.95-0.77C54,39.67,54.61,39.57,55.44,39.84
		z"/>
	<path class="st0" d="M100.72,67.69c0.35,0.45,0.75,0.75,0.7,0.95c-0.08,0.34-0.44,0.61-0.68,0.92c-0.27-0.28-0.71-0.53-0.75-0.83
		C99.96,68.46,100.38,68.14,100.72,67.69z"/>
	<path class="st0" d="M377.87,26.66c0.62-0.28,1.22-0.54,1.47,0.33c0.07,0.24-0.18,0.82-0.37,0.86
		C378.07,28.03,377.84,27.47,377.87,26.66z"/>
	<path class="st0" d="M128.66,17.68c-0.36-0.44-0.72-0.69-0.72-0.94c0-0.23,0.38-0.47,0.6-0.71c0.23,0.22,0.6,0.4,0.65,0.65
		C129.23,16.92,128.92,17.21,128.66,17.68z"/>
	<path class="st0" d="M421.49,67.87c-0.41,0.29-0.67,0.61-0.94,0.62c-0.22,0-0.44-0.39-0.66-0.6c0.26-0.19,0.51-0.48,0.8-0.53
		C420.87,67.32,421.12,67.62,421.49,67.87z"/>
	<path class="st0" d="M396.19,98.12c-0.33,0.28-0.55,0.61-0.73,0.59c-0.29-0.03-0.56-0.29-0.83-0.45c0.19-0.25,0.36-0.7,0.57-0.72
		C395.47,97.53,395.76,97.86,396.19,98.12z"/>
	<path class="st0" d="M233.37,41.12c0.81-0.21,1.26-0.18,1.18,0.91C234.1,41.68,233.79,41.45,233.37,41.12z"/>
	<path class="st0" d="M372.79,107.02c0.7,1.13,1.39,2.22,2.09,3.34C373.59,109.94,373,109,372.79,107.02z"/>
	<path class="st0" d="M205.41,81.23c-0.03-0.8,0.51-1.31,1.42-1.33c0.96-0.02,1.72,0.51,1.8,1.26c0.09,0.84-0.98,1.84-1.96,1.83
		C205.95,82.98,205.45,82.28,205.41,81.23z"/>
	<path class="st0" d="M201.48,76.28c-0.19-0.81-0.19-1.42,0.8-1.51c0.58-0.05,0.82,0.34,0.77,0.81
		C202.93,76.62,202.2,76.38,201.48,76.28z"/>
	<path class="st0" d="M212.66,72.27c-0.6,0.35-0.94,0.71-1.18,0.65c-0.29-0.07-0.64-0.45-0.72-0.77c-0.15-0.53,0.28-0.81,0.74-0.71
		C211.82,71.52,212.08,71.85,212.66,72.27z"/>
	<path class="st0" d="M137.8,74.75c-0.94,0.16-1.76,0.3-2.61,0.45c-0.57-0.81-1.12-1.45-0.43-2.38c0.43-0.57,0.96-0.83,1.59-0.63
		C137.41,72.55,137.87,73.36,137.8,74.75z"/>
	<path class="st0" d="M135.18,85.55c-0.92,0.03-1.43-0.39-1.5-1.24c-0.07-0.82,0.73-1.87,1.42-1.88c0.8-0.01,1.95,1.15,1.92,1.96
		C137,85.03,136.24,85.51,135.18,85.55z"/>
	<path class="st0" d="M136.91,94.45c-0.7,0.12-1.16-0.21-1.23-0.95c-0.07-0.73,0.93-1.65,1.69-1.62c0.77,0.03,1.21,0.49,1.23,1.31
		C138.62,94.09,138.17,94.44,136.91,94.45z"/>
	<path class="st0" d="M137.63,66.23c-0.73,0.36-1.09,0.62-1.48,0.68c-0.14,0.02-0.55-0.55-0.49-0.73c0.11-0.32,0.45-0.73,0.75-0.78
		C136.66,65.35,136.99,65.77,137.63,66.23z"/>
	<path class="st0" d="M133.71,75.33c0.37,0.75,0.7,1.13,0.7,1.5c0,0.22-0.52,0.44-0.8,0.67c-0.23-0.3-0.62-0.58-0.65-0.91
		C132.92,76.32,133.28,76,133.71,75.33z"/>
</g>
</svg>
