<?xml version="1.0" encoding="utf-8"?>
<!-- Generator: Adobe Illustrator 25.4.1, SVG Export Plug-In . SVG Version: 6.00 Build 0)  -->
<svg version="1.1" id="Capa_1" xmlns="http://www.w3.org/2000/svg" xmlns:xlink="http://www.w3.org/1999/xlink" x="0px" y="0px"
	 viewBox="0 0 50 50" style="enable-background:new 0 0 50 50;" xml:space="preserve">
<style type="text/css">
	.st0{fill:#F39200;}
	.st1{fill:#FFFFFF;}
</style>
<g>
	<path class="st0" d="M26,3.6l6.3,12.8c0.1,0.3,0.4,0.5,0.7,0.5L47.2,19c0.8,0.1,1.1,1.1,0.5,1.6l-10.2,10c-0.2,0.2-0.3,0.5-0.3,0.8
		l2.4,14.1c0.1,0.8-0.7,1.4-1.4,1l-12.6-6.6c-0.3-0.1-0.6-0.1-0.9,0l-12.6,6.6c-0.7,0.4-1.5-0.2-1.4-1l2.4-14.1
		c0.1-0.3,0-0.6-0.3-0.8l-10.2-10C2.1,20,2.4,19.1,3.2,19l14.1-2.1c0.3,0,0.6-0.2,0.7-0.5l6.3-12.8C24.7,2.9,25.7,2.9,26,3.6z"/>
	<path class="st1" d="M38.7,47.1c-0.2,0-0.5-0.1-0.7-0.2l-12.6-6.6c-0.1-0.1-0.3-0.1-0.4,0l-12.6,6.6c-0.5,0.3-1.1,0.2-1.6-0.1
		c-0.5-0.3-0.7-0.9-0.6-1.4l2.4-14.1c0-0.1,0-0.3-0.1-0.4l-10.2-10c-0.4-0.4-0.5-1-0.4-1.5c0.2-0.5,0.6-0.9,1.2-1l14.1-2.1
		c0.1,0,0.2-0.1,0.3-0.2l6.3-12.8c0.2-0.5,0.8-0.8,1.3-0.8s1.1,0.3,1.3,0.8l6.3,12.8c0.1,0.1,0.2,0.2,0.3,0.2l14.1,2.1
		c0.6,0.1,1,0.5,1.2,1c0.2,0.5,0,1.1-0.4,1.5l-10.2,10c-0.1,0.1-0.1,0.2-0.1,0.4l2.4,14.1c0.1,0.6-0.1,1.1-0.6,1.4
		C39.3,47,39,47.1,38.7,47.1z M25.2,3.6c-0.1,0-0.3,0-0.4,0.2l-6.3,12.8c-0.2,0.4-0.6,0.7-1.1,0.8L3.2,19.5c-0.2,0-0.3,0.2-0.3,0.3
		S2.8,20,3,20.2l10.2,10c0.3,0.3,0.5,0.8,0.4,1.3l-2.4,14.1c0,0.2,0.1,0.4,0.2,0.4c0.1,0,0.2,0.1,0.4,0l12.6-6.6
		c0.4-0.2,0.9-0.2,1.4,0l12.6,6.6c0.2,0.1,0.4,0,0.4,0c0.1,0,0.2-0.2,0.2-0.4l-2.4-14.1c-0.1-0.5,0.1-1,0.4-1.3l10.2-10
		c0.2-0.2,0.1-0.3,0.1-0.4c0-0.1-0.1-0.2-0.3-0.3l-14.1-2.1c-0.5-0.1-0.9-0.4-1.1-0.8L25.5,3.8C25.4,3.6,25.2,3.6,25.2,3.6z"/>
</g>
</svg>
