<?xml version="1.0" encoding="utf-8"?>
<!-- Generator: Adobe Illustrator 24.2.3, SVG Export Plug-In . SVG Version: 6.00 Build 0)  -->
<svg version="1.1" xmlns="http://www.w3.org/2000/svg" xmlns:xlink="http://www.w3.org/1999/xlink" x="0px" y="0px"
	 viewBox="0 0 1220 800" style="enable-background:new 0 0 1220 800;" xml:space="preserve">
<style type="text/css">
	.st0{display:none;}
	.st1{display:inline;}
	.st2{opacity:0.32;fill:#FFC874;}
	.st3{opacity:0.16;fill:#FFC874;}
	.st4{opacity:0.56;fill:#491F0D;}
	.st5{display:inline;fill:#FFC350;}
	.st6{fill:url(#SVGID_1_);}
	.st7{opacity:0.33;fill:#491F0D;}
	.st8{opacity:0.16;fill:#FFC350;}
	.st9{fill:url(#SVGID_2_);}
	.st10{opacity:0.07;fill:#FFC350;}
	.st11{opacity:0.09;fill:#FFC350;}
	.st12{opacity:0.22;fill:#491F0D;}
	.st13{opacity:0.26;fill:#491F0D;}
	.st14{fill:url(#SVGID_3_);}
	.st15{fill:url(#SVGID_4_);}
	.st16{opacity:0.11;}
	.st17{display:inline;fill:url(#SVGID_5_);}
	.st18{display:inline;fill:url(#SVGID_6_);}
	.st19{display:inline;fill:url(#SVGID_7_);}
	.st20{opacity:0.57;fill:url(#SVGID_8_);}
</style>
<g id="SHAPE-10" class="st0">
	<g class="st1">
		<path class="st2" d="M475.11,234.23h416.58c0,0-56.85-3.5-80.47-5.5c-23.62-2-56.68-4.32-78.72-4.91
			c-22.04-0.59-29.12,6.59-55.89,0c-26.76-6.59-51.95-4.91-71.63,0C585.31,228.73,484.56,229.23,475.11,234.23z"/>
		<path class="st3" d="M5.93,170.95c0,0,31.49,1.07,79.76,1.07c48.28,0,44.08-2,106.53,0s78.19,6.56,130.66,8.28
			c52.48,1.72,87.56-8.06,175.5-9.17c87.93-1.11,92.13,3.15,156.15,4.69c64.02,1.54,55.62,2.2,124.89,0.2s97.6-6.67,125.94,0
			c28.34,6.67,101.28,12,153.49,13.33c52.21,1.33,163.99,0.61,163.99,0.61v37.5c0,0-212.53-13.93-272.35-15.36
			c-59.82-1.42-107.18,4.7-180.06-2.36c-72.88-7.06-104.36-2.92-172.58-6.32c-68.22-3.41-112.3,1.93-195.21,3.26
			c-82.91,1.33-102.85,3.33-161.63-2.67c-58.77-6-239.29-0.59-239.29-0.59L5.93,170.95z"/>
		<path class="st3" d="M-4.56,124.36c0,0,94.46,7,188.91,7s154.28-5,245.59-7s340.04-23,391.99-18c0,0-94.99-10-166.35-9
			s-138.53,3-231.67,5c-93.14,2-254.24-5.07-254.24-5.07l-186.81-3.93L-4.56,124.36z"/>
		<path class="st3" d="M0.16,107.36c0,0,83.44,8,199.93,10s173.31-1.34,286.52-10c113.21-8.66,198.88-16,273.4-14s91.83-7,162.67,0
			s114.03,11.85,138.09,10.93s162.07,0,162.07,0V54.36H0.16V107.36z"/>
		<path class="st2" d="M806.98,152.36c0,0,120.43,0,149.56,0c29.12,0,145.62,0,145.62,0s-51.16-2.57-73.2-7.28
			c-22.04-4.72-32.27-8.72-46.44-8.22c-14.17,0.5-8.66,3.51-35.42,2.51c-26.76-1.01-33.85-6.59-55.1-2.55
			C870.73,140.86,828.23,149.86,806.98,152.36z"/>
		<path class="st2" d="M641.68,143.72h156.64c0,0-22.04-6.01-37.78-8.01s-20.47,1-38.57,0
			C703.86,134.71,654.27,138.73,641.68,143.72z"/>
	</g>
</g>
<g id="SHAPE-9" class="st0">
	<g class="st1">
		<path class="st4" d="M632.99,193.01c0,0,10.64-8.28,17.73,0c0,0-9.46-2.36-17.73,7.69c-8.28-10.05-17.73-7.69-17.73-7.69
			C622.35,184.73,632.99,193.01,632.99,193.01z"/>
		<path class="st4" d="M563.37,175.2c0,0,5.32-4.14,8.87,0c0,0-4.73-1.18-8.87,3.84c-4.14-5.02-8.87-3.84-8.87-3.84
			C558.05,171.06,563.37,175.2,563.37,175.2z"/>
		<path class="st4" d="M692.7,128.75c0,0,5.32-4.14,8.87,0c0,0-4.73-1.18-8.87,3.84c-4.14-5.02-8.87-3.84-8.87-3.84
			C687.38,124.61,692.7,128.75,692.7,128.75z"/>
		<path class="st4" d="M751.62,148.52c0,0,3.78-2.94,6.31,0c0,0-3.36-0.84-6.31,2.73c-2.94-3.57-6.31-2.73-6.31-2.73
			C747.83,145.58,751.62,148.52,751.62,148.52z"/>
		<path class="st4" d="M602.85,138.91c0,0,7.45-5.79,12.41,0c0,0-6.62-1.66-12.41,5.38c-5.79-7.03-12.41-5.38-12.41-5.38
			C595.4,133.12,602.85,138.91,602.85,138.91z"/>
		<path class="st4" d="M638.39,158.05c0,0,5.32-4.14,8.87,0c0,0-4.73-1.18-8.87,3.84c-4.14-5.02-8.87-3.84-8.87-3.84
			C633.07,153.91,638.39,158.05,638.39,158.05z"/>
		<path class="st4" d="M572.23,218.56c0,0,2.66-2.07,4.43,0c0,0-2.36-0.59-4.43,1.92c-2.07-2.51-4.43-1.92-4.43-1.92
			C569.57,216.49,572.23,218.56,572.23,218.56z"/>
		<path class="st4" d="M525.31,242.27c0,0,2.66-2.07,4.43,0c0,0-2.36-0.59-4.43,1.92c-2.07-2.51-4.43-1.92-4.43-1.92
			C522.65,240.2,525.31,242.27,525.31,242.27z"/>
	</g>
</g>
<g id="SHAPE-8" class="st0">
	
		<ellipse transform="matrix(0.1647 -0.9863 0.9863 0.1647 -20.3086 626.5944)" class="st5" cx="359.81" cy="325.29" rx="76.81" ry="76.81"/>
</g>
<g id="SHAPE-7" class="st0">
	<g class="st1">
		<linearGradient id="SVGID_1_" gradientUnits="userSpaceOnUse" x1="561.1356" y1="545.3953" x2="561.1356" y2="345.7744">
			<stop  offset="0" style="stop-color:#FF9D00"/>
			<stop  offset="1" style="stop-color:#FF6600"/>
		</linearGradient>
		<path class="st6" d="M-1.64,170.14h31.39l16.6,12.94l3.69,43l16.6,9.56l27.67,27.07v29.38h24.91l55.81,29.33l175.84,21.71
			l42.43-19.37l16.6,4.34L469.98,400l63.79-18.04l28.34-28.93l9.29-26.07l12.91-5.57l10.15,15.45c0,0,1.77,22.41,6.42,30.71
			c4.65,8.3,12.07,14.41,12.07,14.41l22.13,3.74l6.92-31.59l13.49-53.04l53.85-21.28l4.61,42.34l32.01,37.22l136.81,1.46l55.37-98.1
			l12.91-44.6l24.67-19.37l21.45,9.33l18.43,84.03l30.07,75.45l78.25,151.09L0,552.71L-1.64,170.14z"/>
		<polygon class="st7" points="62.23,291.32 66.65,235.63 50.04,226.07 54.16,266.41 		"/>
		<polygon class="st8" points="584.3,321.38 574.16,364.31 533.77,381.96 562.1,353.02 571.39,326.95 		"/>
		<polygon class="st8" points="635.07,385.7 674.94,293.38 655.48,301.07 		"/>
	</g>
</g>
<g id="SHAPE-6" class="st0">
	<g class="st1">
		<linearGradient id="SVGID_2_" gradientUnits="userSpaceOnUse" x1="742.0358" y1="576.1564" x2="660.1825" y2="348.8935">
			<stop  offset="0" style="stop-color:#FF8000"/>
			<stop  offset="1" style="stop-color:#CF4A00"/>
		</linearGradient>
		<path class="st9" d="M475.44,393.24l18.06-48.36l36.59-12.52l30.07,4.81c0,0,7.36,26.96,13.2,30.82l13.99,5.3
			c0,0,7.38,21.67,15.51,28.41c8.13,6.74,51.45,0,51.45,0l28.68-61.63l16.7-94.36l5.14-35.64l63.13-24.88l20.22,10.43l13.48-20.2
			c0,0,20.7-8.21,27.93-7.25c7.22,0.96,33.22,5.78,33.22,5.78s21.19,26.96,28.41,33.7l3.85,12.65l19.26,10.94l7.22,69.77
			l93.89,189.28l-603.78,13.48L475.44,393.24z"/>
		<polygon class="st10" points="470.7,419.61 507.7,352.83 527.2,341.51 560.15,337.17 530.08,332.36 493.49,344.88 475.44,393.24 
			452.08,433.71 		"/>
		<path class="st11" d="M595.09,410.84h13.48l45.73-9.15c0,0-43.32,6.74-51.45,0c-8.13-6.74-15.51-28.41-15.51-28.41l-13.99-5.3
			l9.21,9.51L595.09,410.84z"/>
		<path class="st10" d="M699.68,245.7l-16.7,94.36l-28.68,61.63l-34.18,44.18l39.44,8.56c0,0,23.63-29.14,27.96-39.25
			c4.33-10.11,12.52-54.89,12.52-54.89l9.63-43.33l-7.7,6.26l-10.59,22.15l4.81-28.41l17.34-49.59l6.26-57.3l48.15-24.88
			l-63.13,24.88L699.68,245.7z"/>
		<path class="st12" d="M767.94,185.18c0,0,0.24,23.07,0,29.93s-1.69,31.42-1.69,31.42l-4.33,29.61l3.06,24.87l4.88-31.73
			l15.17-63.2l3.13-10.47L767.94,185.18z"/>
		<path class="st10" d="M764.98,301.01l-3.06,37.61l-13.72,47.67l-49.59,70.78l40.45,8.19l17.82-75.83l18.18-55.61l2.05-56.33
			l19.74-80.89l8.7-16.85l22.12-8.67l35.15,2.89c0,0-26-4.81-33.22-5.78c-7.22-0.96-27.93,7.25-27.93,7.25l-13.48,20.2l-18.3,73.67
			L764.98,301.01z"/>
		<polygon class="st13" points="844.98,185.18 818.98,273.62 838.24,376.65 831.29,494.4 1015.43,490.29 921.53,301.01 
			914.31,231.25 895.05,220.3 906.13,304.43 881.09,292.39 862.79,264.47 866.65,236.06 862.79,212.95 862.79,173.95 		"/>
	</g>
</g>
<g id="SHAPE-5" class="st0">
	<g class="st1">
		<linearGradient id="SVGID_3_" gradientUnits="userSpaceOnUse" x1="417.6233" y1="574.9892" x2="470.3902" y2="313.981">
			<stop  offset="0" style="stop-color:#F06500"/>
			<stop  offset="0.1814" style="stop-color:#DE5300"/>
			<stop  offset="0.476" style="stop-color:#C73C00"/>
			<stop  offset="0.755" style="stop-color:#BA2F00"/>
			<stop  offset="1" style="stop-color:#B52A00"/>
		</linearGradient>
		<path class="st14" d="M629.32,480.31l-0.17-12.05c1.55-1.42,4.39-4.07,5.64-5.57c1.77-2.12,3.53-8.66,3.89-11.31
			c0.35-2.65,1.59-7.42,0-7.24c-1.59,0.18-2.3,9.54-4.59,14.31c-1.35,2.81-3.47,4.75-4.99,5.88l-0.13-9.24
			c0,0,1.65-22.61-1.41-22.61c-2.5,0-2.49,14.13-2.4,24.32c-1.51-1.66-3.49-4.03-4.67-6.3c-2.12-4.06-2.47-8.83-3.89-8.83
			c-1.41,0-0.71,4.42,0,7.24c0.56,2.26,6.3,9.91,8.6,12.91c0,0.36,0,0.72,0,1.05v17.11c0,2.61-2.14,4.71-4.75,4.66l-16.21-0.32
			c0,0-52.94-16.73-77.47-15.79c-24.53,0.94-121.59-34.86-121.59-34.86l-36.75-82.92l-36.75-16.96h-48.06l-11.31,16.02v-50.88
			c0,0-1.88-19.79-9.42-24.5c-7.54-4.71-50.88-34.86-57.48-36.75c-6.6-1.88-24.5,0-24.5,0l-30.15,42.41v47.94l-28.27,11.42
			l-12.25,16.96l-5.65,36.75L84.8,428.94c0,0-27.33,23.56-34.86,27.33C42.4,460.03,0,474.7,0,474.7v63.55h692.57l180.67-50.88
			l-239.35-2.46C631.37,484.84,629.36,482.81,629.32,480.31z"/>
		<polygon class="st13" points="272.32,349.79 277.73,384.9 293.28,396.43 298.93,450.14 305.29,463.57 309.53,484.31 
			309.53,444.49 304.59,382.19 309.53,349.79 331.68,333.77 283.62,333.77 		"/>
		<path class="st13" d="M150.76,328.01l20.73,5.76l10.37,14.13l4.43,76.3l17.24,90.01l22.61,13.76c0,0-6.6-34.94-8.01-43.66
			c-1.41-8.73-4.22-42.85-4.71-57.84c-0.49-14.99-1.88-66.78-3.77-79.03c-1.88-12.25-19.32-40.99-21.2-49.94
			c-1.88-8.95-3.77-42.87-3.77-42.87l-3.77-16.96l-30.15,42.41V328.01z"/>
		<path class="st10" d="M213.78,281.94c3.18,6.36,12.37,14.49,12.37,14.49l4.24,28.97l8.48,8.36l-2.83-41.22l-2.59-37.81
			c-12.48-8.28-24.76-16.15-28.03-17.08l5.18,22.38C210.6,260.04,210.6,275.58,213.78,281.94z"/>
		<path class="st13" d="M110.25,356.38l-5.65,36.75L84.8,428.94c0,0-27.33,23.56-34.86,27.33C42.4,460.03,0,474.7,0,474.7v34.75
			l171.02-7.01l-34.86-54.65c0,0-6.6-34.86-8.48-42.87c-1.88-8.01-9.42-40.05-9.42-40.05l4.24-25.44L110.25,356.38z"/>
		<path class="st10" d="M332.59,334.19L332.59,334.19l30.3,19.48l9.54,38.87l28.62,45.94c0,0,19.43,18.02,27.21,22.61
			c7.77,4.59,57.24,14.84,57.24,14.84s25.44-4.95,35.69-4.95c10.22,0,37.88,1.49,38.01,1.5c-11.97-2.5-23.91-4.3-32.43-3.98
			c-24.53,0.94-121.59-34.86-121.59-34.86l-36.75-82.92L332.59,334.19z"/>
	</g>
</g>
<g id="SHAPE-4" class="st0">
	<g class="st1">
		<linearGradient id="SVGID_4_" gradientUnits="userSpaceOnUse" x1="892.074" y1="870.2061" x2="649.2605" y2="436.2015">
			<stop  offset="0" style="stop-color:#D54A00"/>
			<stop  offset="1" style="stop-color:#962100"/>
		</linearGradient>
		<path class="st15" d="M1187.5,301.53l-25.81-29.63c0,0-8.6-20.08-14.34-34.41c-4.78-42.06-5.74-54.49-5.74-54.49l-7.65-10.52
			v-16.25l-41.11-9.56l-49.71,18.16l-16.25,72.65l-11.47,44.93c0,0-34.41,11.47-36.33,25.81c-0.98,7.32-5.93,33.05-10.56,56.5
			c-5.33,27.05-22.55,50.24-46.9,63.17c-43.99,23.35-113.94,60.85-144.25,79.17c-38.64,23.35-141.93,11.44-194.03,12.81
			c2.16-7.23,5.76-20.23,3.9-20.61c-1.93-0.39-5.11,13.58-6.6,20.69c-0.14,0.01-0.28,0.01-0.42,0.01
			c0.05-5.74,0.05-24.34-2.17-24.14c-1.49,0.14-1.29,8.39-0.84,15.53c-1.59-6.95-3.7-14.7-5.11-14.28
			c-1.86,0.56,1.86,14.04,3.94,21.08c-5.76-4.55-12.81-9.72-13.68-8.45c-0.85,1.25,5.77,6.4,11.61,10.59
			c-5.56,0.4-10.24,1.05-13.79,2.04c-34.24,9.56-170.94,1.91-214.91,6.69c-43.97,4.78-228.47,33.46-228.47,33.46v68.35H1220V364.63
			L1187.5,301.53z"/>
		<path class="st13" d="M1015.43,282.41c0,0,19.6,6.45,23.18,14.34c3.58,7.89,7.17,45.89,7.17,45.89l13.62,46.12l16.49,100.85
			h-47.32l-6.45-86.04c0,0-0.72-13.62,4.3-30.11c5.02-16.49,2.15-27.96,2.15-27.96l-13.14-19.36V282.41z"/>
		<path class="st10" d="M940.86,433.93l9.33-5.14c9-4.96,15.56-13.41,18.13-23.37c3.7-14.33,8.82-34.31,10.3-40.8
			c2.39-10.52,5.26-53.06,5.26-53.06l5.49-16.4c-5.38,3.82-9.63,8.28-10.27,13.06c-0.98,7.32-5.93,33.05-10.56,56.5
			c-5.33,27.05-22.55,50.24-46.9,63.17c-27.36,14.52-64.76,34.52-96.42,51.97L940.86,433.93z"/>
		<path class="st10" d="M1045.73,243.32c-0.36-15.77,5.14-73.61,5.14-73.61l19.93-14.86l-27.58,10.08l-16.25,72.65l-11.47,44.93
			l15.87,7.3C1031.37,289.82,1046.09,259.1,1045.73,243.32z"/>
		<path class="st13" d="M1218.17,361.08l-30.68-59.55l-25.81-29.63c0,0-8.6-20.08-14.34-34.41c-4.78-42.06-5.74-54.49-5.74-54.49
			l-7.65-10.52v-16.25l-41.11-9.56v44.69l3.82,16.49l5.38,21.87l14.7,43.74l2.15,33.7l-3.58-21.15l-9.32-23.3l-13.14-3.23
			c0,0-6.21,7.89-8.36,17.92s0,93.92,0,93.92L1106,476.71l4.3,38.72h63.81H1220V368.45L1218.17,361.08z"/>
		<path class="st10" d="M1089.44,260.96l-20.62,8.68c-4.17,1.76-7.27,5.37-8.37,9.76l-8.29,33.1l2.35,16.87l9.12-18.22l4.78-34.89
			L1089.44,260.96z"/>
		<path class="st16" d="M647.43,521.11c0.33,0.07,67.07,13.7,95.38,21.57c28.38,7.89,86.45,0,110.83,0s64.53,10.04,64.53,10.04
			l35.85-37.28c0,0-97.51,1.43-134.79,0c-37.28-1.43-76.41,2.59-76.41,2.59h0C715.25,522.44,680.05,522.05,647.43,521.11z"/>
	</g>
</g>
<g id="SHAPE-3" class="st0">
	<linearGradient id="SVGID_5_" gradientUnits="userSpaceOnUse" x1="610" y1="913.5658" x2="610" y2="537.6895">
		<stop  offset="0" style="stop-color:#D54A00"/>
		<stop  offset="0.998" style="stop-color:#731700"/>
	</linearGradient>
	<path class="st17" d="M1220,503.09c0,0-228.49-14.88-257.16-8.6c-28.67,6.28-89.6,23.15-89.6,23.15s-17.58,5.06-35.13,10.96
		c-1.99,0.67-4.05-0.81-4.05-2.92c0.01-6.7-0.02-13.14-0.14-16.49c-0.05-1.4-0.1-3.57-0.14-6.28c4.08-4.4,14.06-15.56,16.06-21.65
		c2.53-7.69,6.64-37.53,6.96-44.17c0.32-6.64-5.38-10.75-6.01,0c-0.63,10.75-6.32,32.89-8.54,39.84c-1.33,4.17-5.49,8.67-8.62,11.62
		c-0.1-14.9-0.08-33.43,0.18-43.03c0.42-15.6,0-31.62-9.7-31.4c-5.86,0.13-6.03,16.21-5.27,33.09c-1.31-1.13-4.21-2.78-7.25-4.97
		c0-9.01-0.25-40.25-3.73-42.95c-3.55-2.76-1.74,30.37-1.23,38.78c-0.31-0.32-0.62-0.65-0.92-0.98
		c-4.23-4.81-6.38-23.75-10.49-24.07s-2.7,10.29-1.12,17.54c1.43,6.53,7.65,21.29,25.02,25.4c0.49,7.9,1.06,15.87,1.33,22.88
		c0.74,19.37,0.37,41.37,0.14,51.05c-0.07,3.04-1.9,5.75-4.68,6.97c-3.88,1.7-9.09,4.08-10.78,5.3
		c-11.24,8.16-31.2,16.58-31.2,16.58s-0.17,6.96-35.92,13.7c-35.75,6.75-45.78,12.68-61.39,15.18c-26.67,4.27-92.49,0-108.05,0
		s-85.56-9.28-88.09-9.28c-2.53,0-69.99-15.6-88.54-19.61c-9.02-1.95-31.18-12.11-54.39-22.62c-1.74-0.79-2.85-2.5-2.86-4.41
		c-0.02-8.58-0.06-21.63-0.09-35.88c-0.01-3.2,2.84-5.6,6.01-5.16c8.46,1.17,19.42-1.25,20.34-10.12
		c0.31-2.98,0.17-13.94-0.28-26.74c0,0,13.56-4.39,13.24-23.68c-0.32-19.29-2.85-19.92-5.06-18.97c-2.21,0.95,1.62,18.66-1.56,23.4
		c-0.28,0.42-0.59,0.83-0.92,1.23c-2.17,2.63-6.44,1.21-6.63-2.19c-0.89-15.65-2.14-29.4-3.54-30.66c-3.16-2.85-5.38,1.9-4.74,12.97
		c0.63,11.07,1.26,60.08-2.53,63.24c-2.01,1.65-5.03,0.24-5.04-2.36c-0.05-10.44-0.44-28.67-2.54-28.52
		c-2.13,0.15-1.73,18.72-1.35,28.98c0.06,1.69-1.44,3.01-3.11,2.73l-0.06-0.01c-1.3-0.22-2.25-1.34-2.25-2.65
		c-0.03-23.54-0.01-46.54,0.13-55.4c0.32-20.87-3.16-48.07-10.12-47.75s-3.16,39.53-2.21,77.16c0.08,3.22,0.16,6.5,0.25,9.8
		c0.06,2.37-1.51,4.5-3.81,5.07c-0.92,0.23-1.88,0.42-2.85,0.56c-0.42-11.63-0.54-109.21-3.71-109.03
		c-3.14,0.18-2.68,96.51-2.04,108.7c-1.26-0.45-2.32-1.22-3.02-2.44c-3.79-6.64,1.26-78.74-5.06-78.74s-4.74,79.37-2.21,84.75
		c2.05,4.35,10.63,4.17,18.05,3.76c2.72-0.15,5.03,1.98,5.1,4.71c0.43,16.3,0.85,31.79,1.13,42.39c0.12,4.34-4.33,7.32-8.3,5.57
		c-16.91-7.43-32.31-13.7-41.17-15.53c-1.87-0.39-4.01-0.81-6.36-1.27c4.05-2.87,12.52-8.95,13-9.92c0.63-1.26-5.69,1.9-7.91,2.53
		c-2.21,0.63-10.75,5.06-10.75,4.11s6.01-6.32,6.96-7.27s8.54-7.91,8.54-9.17s-6.64,2.53-12.33,6.96c-5.69,4.43-6.96,3.79-6.96,3.79
		l-1.58-3.08c0,0,3.79-10.83,5.06-13.05c1.26-2.21,5.69-12.65,5.69-12.65l-11.07,13.28c0,0-6.96,13.6-9.08,12.33
		c-2.12-1.26,0.23-15.49-0.09-16.44s0.32-13.6,0-21.82c-0.32-8.22-2.53-16.76-2.53-16.76s-4.11,15.5-2.43,26.82
		c1.68,11.33-1.68,23.14-1.68,23.14s-4.11-12.65-5.69-18.66c-1.58-6.01-12.33-18.66-12.33-18.66s3.48,16.76,6.32,23.4
		s5.38,13.6,5.38,13.6s-11.7-13.6-13.28-16.76c-1.58-3.16-12.33-6.96-12.33-6.96l5.69,5.38c0,0,3.16,4.74,5.06,8.54
		c1.9,3.79,9.49,13.28,9.49,13.28l-2.21-1.9c0,0-10.75-5.06-12.65-8.22c-1.9-3.16-10.44-2.85-10.44-2.85l3.48,2.53
		c0,0,5.38,7.27,8.85,10.75c1.89,1.9,5.19,4.16,7.81,5.84c-22.66-3.89-43.23-7.26-43.23-7.26L0,503.09v224.87l1220,23.87V503.09z"/>
</g>
<g id="SHAPE-2" class="st0">
	<linearGradient id="SVGID_6_" gradientUnits="userSpaceOnUse" x1="390.5442" y1="776.0989" x2="390.5442" y2="663.8841">
		<stop  offset="0" style="stop-color:#D54A00"/>
		<stop  offset="0.998" style="stop-color:#731700"/>
	</linearGradient>
	<path class="st18" d="M758.35,698.77c0,0-147.91-41.89-217.04-51.7c-69.13-9.82-94.68-0.24-138.69-9.82
		c-44.01-9.57-72.49-35.19-122.58-36.83c-50.09-1.64-54.06,35.15-119.18,12.67C95.75,590.61,0,581.61,0,581.61v148.1h781.09
		L758.35,698.77z"/>
</g>
<g id="SHAPE-1" class="st0">
	<linearGradient id="SVGID_7_" gradientUnits="userSpaceOnUse" x1="610" y1="1017.3505" x2="610" y2="651.9977">
		<stop  offset="0" style="stop-color:#A13400"/>
		<stop  offset="0.9961" style="stop-color:#4F0C00"/>
	</linearGradient>
	<path class="st19" d="M1078.1,690.92c-26.74-7.67-55.11-11.35-109.45-20.08c-6.23-1-10.74-6.47-10.55-12.77
		c0.58-19.18,1.75-54.35,3.4-84.9c8.91-2.31,34.44-10.03,40.81-24.08c7.74-17.09,10.77-66.96,10.08-77.07
		c-0.69-10.11,1.69-93.53,0.86-101.91c-0.83-8.39,2.11-52.67-5.3-52.29c-7.41,0.38-9.53,30.46-11.28,62.07
		c-1.75,31.61-4.45,89.12-6.12,108.15c-1.66,19.04-1.82,43.39-6.83,49.48c-0.91,1.11-2.33,2.16-4.04,3.14
		c0.07-18.43-0.14-64.51-4.1-64.54c-4.26-0.03-4.11,53.2-3.99,68.13c-3.04,1.09-6.07,1.98-8.44,2.62c0.38-5.11,0.78-9.79,1.2-13.87
		c4.13-40.54-3.86-75.26-0.79-104.01c3.07-28.75,3.44-80.55-9.13-80.64c-17.8-0.13-12.48,65.63-13.15,79.91
		c-0.58,12.25-3.18,71.53-5.06,97.54c-4.22-9.05-10.2-23.61-12.83-38.24c-4.27-23.78,1.03-84.77-8.24-88.17
		c-7.35-2.69-8.98,24.68-9.51,49.41c-3.49-3.1-10.05-10.34-11.34-21.97c-1.79-16.01,5.37-57.87,0.43-59.81
		c-4.94-1.94-9.95,6.41-10.84,24.12c-0.89,17.71-2.99,44.74,1.48,59.25c3.26,10.6,14.44,20.84,20.24,25.59
		c1.62,28.18,11.53,72.52,27.82,87.67c-0.67,12.01-1.44,25.76-2.57,38.43c-6.05-7.12-19.72-24.01-26.19-38.64
		c-8.45-19.11-14.82-50.63-24.99-48.68c-10.17,1.96,12.16,62.03,24.75,81.42c8.02,12.34,17.67,23.03,23.63,29.19
		c-2.07,13.72-2.54,25.97-2.51,34.5c0.01,2.49-2.18,4.42-4.65,4.12c-0.02,0-0.03,0-0.05-0.01c-63.53-7.63-89.62-3.43-163.91,7.63
		c-14.95,2.23-28.5,4.45-41.17,6.55c-3.32-0.3-7.03-0.37-9.69,0.39c-6,1.71-21.6,0-21.6,0l8.01-4.29c0,0,11.01-7.14,15.87-9.43
		c4.86-2.29,10.57-5.71,10.57-5.71s-10.86,2-19.72,6s-21.14,10.29-21.14,10.29l7.81-7.14c0,0,15.33-13.43,18.19-16
		c2.86-2.57,7.43-8.29,7.43-8.29s-21.14,11.71-27.03,16.57c-5.88,4.86-14.33,14.86-14.33,14.86s3.93-11.71,5.03-14.29
		c1.1-2.57,6.62-19.14,8.58-22.57c1.96-3.43,4.73-13.43,4.73-13.43s-12.69,16.86-21.94,40.57c-1.25,0.86,2.68-42.57,3.61-58.86
		c-6.5,17.72-7.21,68.58-7.21,68.58l-3.52-4.95c0,0-1.62-11.62-2.07-17.33c-0.45-5.71-2.32-19.14-2.32-19.14s-0.37,12,0,13.43
		c0.37,1.43-1.23,11.43,0,19.14c1.23,7.71-1.51,12.29-1.51,12.29l-1.34-7.23c0,0-1.81-9.06-2.38-10.48
		c-0.57-1.43-0.29-6.29-1.6-12.86s-3.14-12.85-3.14-12.85v5.99c0,0,0.46,16.29,1.32,23.14c0.86,6.86,1.83,17.72,1.83,17.72
		l-1.83-3.14c0,0-7.14-10.86-9.1-15.14c-1.95-4.29-8.02-14.57-8.02-14.57s3.41,13.43,5.67,19.14c1.72,4.35,6.79,12.49,9.62,16.14
		c-3.62-1.41-9.14-3.54-14.26-5.48c-8.57-3.24-12-3.62-12-3.62l27.35,12.91c-21.59,2.22-43.62,3.1-69.75,1.76
		c-27.92-1.43-67.16-6.46-107.9-12.16c-0.02-0.68-0.04-1.41-0.06-2.18c-0.19-7.56,3.14-14.82,9.08-19.5c1.77-1.4,3.4-2.91,4.59-4.46
		c4.86-6.29,9.14-19.14,10-23.43s-2-6.86-6.29-3.71c-4.29,3.14-2.86,12.86-8,19.14c-2.67,3.26-6.33,4.77-9.25,5.47
		c0.19-10.38,0-32.52-0.1-51.31c-0.04-7.3,3.66-14.16,9.88-17.97c2.9-1.78,5.59-3.83,7.18-5.99c4.35-5.93,5.73-15.81,4.68-25.27
		c2.14-0.65,5.89-2.07,10.27-4.93c6.86-4.48,7.62-10.77,8-16.48c0.38-5.71-0.19-9.14,0-12.76c0.19-3.62-5.51-5.56-5.52,0
		c0,0,0.38,6.67-0.76,11.43c-1.14,4.76-1.33,8.19-5.9,11.62c-2.57,1.93-5.2,2.65-7.02,2.92c-0.63-11.08,0.78-27.34,0.54-32.44
		c-0.29-6-1.56-7.29-6.1-6.15c-4.54,1.14-2.76,21.29-3.33,33.17s1.43,16.69-2.35,24.52c-2.13,4.41-6.37,7.35-9.66,9.08
		c-0.44-17.84-2.92-35.02-1.22-45.57c1.9-11.81,1.52-28.19,0-35.43c-1.52-7.24-0.38-16.38-8.76-17.52c-8.38-1.14-9.52,8-9.57,14.86
		c-0.04,6.86,0.04,20.19,0,30.48s-1.1,38.24-0.34,46.48c0.6,6.54,0.25,32.69,0.08,49.86c-0.03,3.43-3.64,5.66-6.72,4.15
		c-2.59-1.27-4.98-3.15-6.31-5.91c-4-8.29-6.57-13.43-7.71-19.43c-1.14-6-2.29-25.28-1.71-31.64c0.57-6.36,1.14-21.79-6.29-22.36
		c-7.43-0.57-5.14,4.57-7.14,15.14c-2,10.57-0.57,21.43,0,34s0.86,20.57,5.43,26.86c4.57,6.29,9.71,14.66,22.86,19.14l0.12,0.04
		c4.43,1.51,7.41,5.67,7.41,10.35v32.92c-37.56-5.36-75.02-10.88-104.79-14.32c3.07-0.9,6.86-2.04,10.35-3.15
		c7.53-2.4,12.81-7.46,12.81-7.46l-29.14,7.78c0,0,9.71-6.9,17.45-10.17c7.74-3.28,10.46-11.27,10.46-11.27s-15.2,9.68-18.53,10.84
		c-3.34,1.16-11.31,5.03-11.31,5.03s14.27-13.62,18.59-16.59c4.32-2.97,10.11-11.99,10.11-11.99s-8.52,4.1-11.68,7.25
		c-3.16,3.15-14.19,11.32-14.19,11.32l-6.99,5.22c0,0,8.42-11.66,10.6-16.16c2.18-4.5,6.33-15.74,6.33-15.74l0.91-5.86
		c0,0-5.57,5.38-7.77,9.45c-2.2,4.07-10.16,17.69-10.16,17.69l-3.71,6.64c0,0,2.52-13.49,2.8-16.78c0.28-3.29,2.34-18.68,2.34-18.68
		l-0.89-13.12c0,0-5.53,18.28-6.03,25.5c-0.5,7.22-3.77,21.85-3.77,21.85s-3.93-21.45-4.39-32.88c-0.45-11.43-6.68-39.28-6.68-39.28
		s-3.97,13.27-1.34,23.36c2.63,10.09,7.94,53.77,7.94,53.77s-7.34-15.58-11.05-27.92c-3.71-12.34-9.75-25.91-9.75-25.91
		s2.57,12.02,3.7,20.46c1.13,8.44,12.15,36.05,12.15,36.05s-9.73-10.23-13.53-14.19c-3.8-3.96-17.05-17.4-20.13-19.71
		s-8.01-6.17-8.01-6.17s6.36,10.17,9.01,14.03c2.64,3.86,11.66,14.81,11.66,14.81l10.41,10.54c0,0-7.71-2.75-12.54-5.47
		c-4.83-2.72-12.02-6.09-12.02-6.09L261,633.72c0,0,9.41,5.75,11.89,7.83c2.48,2.07,17.17,9.36,17.17,9.36l15.17,6.9
		c-60.94-1.24-106.57,14.21-141.46,22.2C123.3,689.25,0,707.51,0,707.51V800h163.77h914.33H1220v-80.81
		C1174.33,719.56,1112.87,700.89,1078.1,690.92z"/>
</g>
<g id="LUZ">
	<radialGradient id="SVGID_8_" cx="303.594" cy="496.4061" r="303.594" gradientUnits="userSpaceOnUse">
		<stop  offset="0" style="stop-color:#FFFFFF"/>
		<stop  offset="1" style="stop-color:#FFFFFF;stop-opacity:0"/>
	</radialGradient>
	<circle class="st20" cx="303.59" cy="496.41" r="303.59"/>
</g>
</svg>
