<?xml version="1.0" encoding="utf-8"?>
<!-- Generator: Adobe Illustrator 24.2.3, SVG Export Plug-In . SVG Version: 6.00 Build 0)  -->
<svg version="1.1" id="Capa_1" xmlns="http://www.w3.org/2000/svg" xmlns:xlink="http://www.w3.org/1999/xlink" x="0px" y="0px"
	 viewBox="0 0 1220 800" style="enable-background:new 0 0 1220 800;" xml:space="preserve">
<style type="text/css">
	.st0{fill:url(#SVGID_1_);}
</style>
<linearGradient id="SVGID_1_" gradientUnits="userSpaceOnUse" x1="610" y1="1017.3505" x2="610" y2="651.9977">
	<stop  offset="0" style="stop-color:#A13400"/>
	<stop  offset="0.9961" style="stop-color:#4F0C00"/>
</linearGradient>
<path class="st0" d="M1078.1,690.92c-26.74-7.67-55.11-11.35-109.45-20.08c-6.23-1-10.74-6.47-10.55-12.77
	c0.58-19.18,1.75-54.35,3.4-84.9c8.91-2.31,34.44-10.03,40.81-24.08c7.74-17.09,10.77-66.96,10.08-77.07
	c-0.69-10.11,1.69-93.53,0.86-101.91c-0.83-8.39,2.11-52.67-5.3-52.29c-7.41,0.38-9.53,30.46-11.28,62.07
	c-1.75,31.61-4.45,89.12-6.12,108.15c-1.66,19.04-1.82,43.39-6.83,49.48c-0.91,1.11-2.33,2.16-4.04,3.14
	c0.07-18.43-0.14-64.51-4.1-64.54c-4.26-0.03-4.11,53.2-3.99,68.13c-3.04,1.09-6.07,1.98-8.44,2.62c0.38-5.11,0.78-9.79,1.2-13.87
	c4.13-40.54-3.86-75.26-0.79-104.01c3.07-28.75,3.44-80.55-9.13-80.64c-17.8-0.13-12.48,65.63-13.15,79.91
	c-0.58,12.25-3.18,71.53-5.06,97.54c-4.22-9.05-10.2-23.61-12.83-38.24c-4.27-23.78,1.03-84.77-8.24-88.17
	c-7.35-2.69-8.98,24.68-9.51,49.41c-3.49-3.1-10.05-10.34-11.34-21.97c-1.79-16.01,5.37-57.87,0.43-59.81
	c-4.94-1.94-9.95,6.41-10.84,24.12c-0.89,17.71-2.99,44.74,1.48,59.25c3.26,10.6,14.44,20.84,20.24,25.59
	c1.62,28.18,11.53,72.52,27.82,87.67c-0.67,12.01-1.44,25.76-2.57,38.43c-6.05-7.12-19.72-24.01-26.19-38.64
	c-8.45-19.11-14.82-50.63-24.99-48.68c-10.17,1.96,12.16,62.03,24.75,81.42c8.02,12.34,17.67,23.03,23.63,29.19
	c-2.07,13.72-2.54,25.97-2.51,34.5c0.01,2.49-2.18,4.42-4.65,4.12c-0.02,0-0.03,0-0.05-0.01c-63.53-7.63-89.62-3.43-163.91,7.63
	c-14.95,2.23-28.5,4.45-41.17,6.55c-3.32-0.3-7.03-0.37-9.69,0.39c-6,1.71-21.6,0-21.6,0l8.01-4.29c0,0,11.01-7.14,15.87-9.43
	c4.86-2.29,10.57-5.71,10.57-5.71s-10.86,2-19.72,6s-21.14,10.29-21.14,10.29l7.81-7.14c0,0,15.33-13.43,18.19-16
	c2.86-2.57,7.43-8.29,7.43-8.29s-21.14,11.71-27.03,16.57c-5.88,4.86-14.33,14.86-14.33,14.86s3.93-11.71,5.03-14.29
	c1.1-2.57,6.62-19.14,8.58-22.57c1.96-3.43,4.73-13.43,4.73-13.43s-12.69,16.86-21.94,40.57c-1.25,0.86,2.68-42.57,3.61-58.86
	c-6.5,17.72-7.21,68.58-7.21,68.58l-3.52-4.95c0,0-1.62-11.62-2.07-17.33c-0.45-5.71-2.32-19.14-2.32-19.14s-0.37,12,0,13.43
	c0.37,1.43-1.23,11.43,0,19.14c1.23,7.71-1.51,12.29-1.51,12.29l-1.34-7.23c0,0-1.81-9.06-2.38-10.48
	c-0.57-1.43-0.29-6.29-1.6-12.86s-3.14-12.85-3.14-12.85v5.99c0,0,0.46,16.29,1.32,23.14c0.86,6.86,1.83,17.72,1.83,17.72
	l-1.83-3.14c0,0-7.14-10.86-9.1-15.14c-1.95-4.29-8.02-14.57-8.02-14.57s3.41,13.43,5.67,19.14c1.72,4.35,6.79,12.49,9.62,16.14
	c-3.62-1.41-9.14-3.54-14.26-5.48c-8.57-3.24-12-3.62-12-3.62l27.35,12.91c-21.59,2.22-43.62,3.1-69.75,1.76
	c-27.92-1.43-67.16-6.46-107.9-12.16c-0.02-0.68-0.04-1.41-0.06-2.18c-0.19-7.56,3.14-14.82,9.08-19.5c1.77-1.4,3.4-2.91,4.59-4.46
	c4.86-6.29,9.14-19.14,10-23.43s-2-6.86-6.29-3.71c-4.29,3.14-2.86,12.86-8,19.14c-2.67,3.26-6.33,4.77-9.25,5.47
	c0.19-10.38,0-32.52-0.1-51.31c-0.04-7.3,3.66-14.16,9.88-17.97c2.9-1.78,5.59-3.83,7.18-5.99c4.35-5.93,5.73-15.81,4.68-25.27
	c2.14-0.65,5.89-2.07,10.27-4.93c6.86-4.48,7.62-10.77,8-16.48c0.38-5.71-0.19-9.14,0-12.76c0.19-3.62-5.51-5.56-5.52,0
	c0,0,0.38,6.67-0.76,11.43c-1.14,4.76-1.33,8.19-5.9,11.62c-2.57,1.93-5.2,2.65-7.02,2.92c-0.63-11.08,0.78-27.34,0.54-32.44
	c-0.29-6-1.56-7.29-6.1-6.15c-4.54,1.14-2.76,21.29-3.33,33.17s1.43,16.69-2.35,24.52c-2.13,4.41-6.37,7.35-9.66,9.08
	c-0.44-17.84-2.92-35.02-1.22-45.57c1.9-11.81,1.52-28.19,0-35.43c-1.52-7.24-0.38-16.38-8.76-17.52c-8.38-1.14-9.52,8-9.57,14.86
	c-0.04,6.86,0.04,20.19,0,30.48s-1.1,38.24-0.34,46.48c0.6,6.54,0.25,32.69,0.08,49.86c-0.03,3.43-3.64,5.66-6.72,4.15
	c-2.59-1.27-4.98-3.15-6.31-5.91c-4-8.29-6.57-13.43-7.71-19.43c-1.14-6-2.29-25.28-1.71-31.64c0.57-6.36,1.14-21.79-6.29-22.36
	c-7.43-0.57-5.14,4.57-7.14,15.14c-2,10.57-0.57,21.43,0,34s0.86,20.57,5.43,26.86c4.57,6.29,9.71,14.66,22.86,19.14l0.12,0.04
	c4.43,1.51,7.41,5.67,7.41,10.35v32.92c-37.56-5.36-75.02-10.88-104.79-14.32c3.07-0.9,6.86-2.04,10.35-3.15
	c7.53-2.4,12.81-7.46,12.81-7.46l-29.14,7.78c0,0,9.71-6.9,17.45-10.17c7.74-3.28,10.46-11.27,10.46-11.27s-15.2,9.68-18.53,10.84
	c-3.34,1.16-11.31,5.03-11.31,5.03s14.27-13.62,18.59-16.59c4.32-2.97,10.11-11.99,10.11-11.99s-8.52,4.1-11.68,7.25
	c-3.16,3.15-14.19,11.32-14.19,11.32l-6.99,5.22c0,0,8.42-11.66,10.6-16.16c2.18-4.5,6.33-15.74,6.33-15.74l0.91-5.86
	c0,0-5.57,5.38-7.77,9.45c-2.2,4.07-10.16,17.69-10.16,17.69l-3.71,6.64c0,0,2.52-13.49,2.8-16.78c0.28-3.29,2.34-18.68,2.34-18.68
	l-0.89-13.12c0,0-5.53,18.28-6.03,25.5c-0.5,7.22-3.77,21.85-3.77,21.85s-3.93-21.45-4.39-32.88c-0.45-11.43-6.68-39.28-6.68-39.28
	s-3.97,13.27-1.34,23.36c2.63,10.09,7.94,53.77,7.94,53.77s-7.34-15.58-11.05-27.92c-3.71-12.34-9.75-25.91-9.75-25.91
	s2.57,12.02,3.7,20.46c1.13,8.44,12.15,36.05,12.15,36.05s-9.73-10.23-13.53-14.19c-3.8-3.96-17.05-17.4-20.13-19.71
	s-8.01-6.17-8.01-6.17s6.36,10.17,9.01,14.03c2.64,3.86,11.66,14.81,11.66,14.81l10.41,10.54c0,0-7.71-2.75-12.54-5.47
	c-4.83-2.72-12.02-6.09-12.02-6.09L261,633.72c0,0,9.41,5.75,11.89,7.83c2.48,2.07,17.17,9.36,17.17,9.36l15.17,6.9
	c-60.94-1.24-106.57,14.21-141.46,22.2C123.3,689.25,0,707.51,0,707.51V800h163.77h914.33H1220v-80.81
	C1174.33,719.56,1112.87,700.89,1078.1,690.92z"/>
</svg>
