<?xml version="1.0" encoding="utf-8"?>
<!-- Generator: Adobe Illustrator 24.2.3, SVG Export Plug-In . SVG Version: 6.00 Build 0)  -->
<svg version="1.1" id="Capa_1" xmlns="http://www.w3.org/2000/svg" xmlns:xlink="http://www.w3.org/1999/xlink" x="0px" y="0px"
	 viewBox="0 0 1220 800" style="enable-background:new 0 0 1220 800;" xml:space="preserve">
<style type="text/css">
	.st0{fill:url(#SVGID_1_);}
</style>
<linearGradient id="SVGID_1_" gradientUnits="userSpaceOnUse" x1="610" y1="-64.1259" x2="610" y2="43.6658" gradientTransform="matrix(1 0 0 -1 0 800)">
	<stop  offset="0" style="stop-color:#A13400"/>
	<stop  offset="0.9961" style="stop-color:#4F0C00"/>
</linearGradient>
<path class="st0" d="M1078.1,690.9c-26.7-7.7-55.1-11.3-109.5-20.1c-6.2-1-45.3-6.6-47.8-6.9c0,0,0,0,0,0
	c-63.5-7.6-89.6-3.4-163.9,7.6c-15,2.2-28.5,4.5-41.2,6.5c-3.3-0.3-7-0.4-9.7,0.4c-6,1.7-16.2-0.4-21.6,0c-10,0.7-38.8,10-38.8,10
	c-21.6,2.2-43.6,3.1-69.8,1.8c-27.9-1.4-67.2-6.5-107.9-12.2c0-0.7-20-2.8-20-2.8c-37.6-5.4-75-10.9-104.8-14.3
	c3.1-0.9-38-3.2-38-3.2c-60.9-1.2-106.6,14.2-141.5,22.2C123.3,689.2,0,707.5,0,707.5V800h163.8h914.3H1220v-80.8
	C1174.3,719.6,1112.9,700.9,1078.1,690.9z"/>
</svg>
