<?xml version="1.0" encoding="utf-8"?>
<!-- Generator: Adobe Illustrator 24.2.3, SVG Export Plug-In . SVG Version: 6.00 Build 0)  -->
<svg version="1.1" xmlns="http://www.w3.org/2000/svg" xmlns:xlink="http://www.w3.org/1999/xlink" x="0px" y="0px"
	 viewBox="0 0 1220 800" style="enable-background:new 0 0 1220 800;" xml:space="preserve">
<style type="text/css">
	.st0{display:none;}
	.st1{display:inline;}
	.st2{fill:url(#SVGID_1_);}
	.st3{opacity:0.26;fill:#491F0D;enable-background:new    ;}
	.st4{opacity:7.000000e-02;fill:#FFC350;enable-background:new    ;}
	.st5{fill:url(#SVGID_2_);}
	.st6{opacity:0.11;enable-background:new    ;}
	.st7{fill:url(#SVGID_3_);}
	.st8{fill-rule:evenodd;clip-rule:evenodd;fill:url(#SVGID_4_);}
	.st9{fill-rule:evenodd;clip-rule:evenodd;fill:url(#SVGID_5_);}
	.st10{fill-rule:evenodd;clip-rule:evenodd;fill:url(#SVGID_6_);}
	.st11{fill-rule:evenodd;clip-rule:evenodd;fill:url(#SVGID_7_);}
	.st12{fill-rule:evenodd;clip-rule:evenodd;fill:url(#SVGID_8_);}
	.st13{fill-rule:evenodd;clip-rule:evenodd;fill:url(#SVGID_9_);}
	.st14{fill-rule:evenodd;clip-rule:evenodd;fill:url(#SVGID_10_);}
	.st15{fill-rule:evenodd;clip-rule:evenodd;fill:url(#SVGID_11_);}
	.st16{fill-rule:evenodd;clip-rule:evenodd;fill:url(#SVGID_12_);}
	.st17{fill-rule:evenodd;clip-rule:evenodd;fill:url(#SVGID_13_);}
	.st18{fill-rule:evenodd;clip-rule:evenodd;fill:url(#SVGID_14_);}
	.st19{fill-rule:evenodd;clip-rule:evenodd;fill:url(#SVGID_15_);}
	.st20{fill-rule:evenodd;clip-rule:evenodd;fill:url(#SVGID_16_);}
	.st21{fill-rule:evenodd;clip-rule:evenodd;fill:url(#SVGID_17_);}
	.st22{fill-rule:evenodd;clip-rule:evenodd;fill:url(#SVGID_18_);}
	.st23{fill-rule:evenodd;clip-rule:evenodd;fill:url(#SVGID_19_);}
	.st24{fill-rule:evenodd;clip-rule:evenodd;fill:url(#SVGID_20_);}
	.st25{fill-rule:evenodd;clip-rule:evenodd;fill:url(#SVGID_21_);}
	.st26{fill-rule:evenodd;clip-rule:evenodd;fill:url(#SVGID_22_);}
	.st27{display:inline;fill:url(#SVGID_23_);}
	.st28{fill:url(#SVGID_24_);}
	.st29{fill:url(#SVGID_25_);}
	.st30{fill:url(#SVGID_26_);}
	.st31{fill:url(#SVGID_27_);}
	.st32{fill:url(#SVGID_28_);}
	.st33{fill:url(#SVGID_29_);}
	.st34{fill:url(#SVGID_30_);}
	.st35{fill:url(#SVGID_31_);}
	.st36{fill:url(#SVGID_32_);}
	.st37{fill:url(#SVGID_33_);}
	.st38{fill:url(#SVGID_34_);}
	.st39{fill:url(#SVGID_35_);}
	.st40{fill:url(#SVGID_36_);}
	.st41{fill:url(#SVGID_37_);}
	.st42{fill:url(#SVGID_38_);}
	.st43{fill:url(#SVGID_39_);}
	.st44{fill:url(#SVGID_40_);}
	.st45{fill:url(#SVGID_41_);}
	.st46{fill:url(#SVGID_42_);}
	.st47{fill:url(#SVGID_43_);}
	.st48{fill:url(#SVGID_44_);}
	.st49{fill:url(#SVGID_45_);}
	.st50{fill:url(#SVGID_46_);}
	.st51{fill:url(#SVGID_47_);}
	.st52{fill:url(#SVGID_48_);}
	.st53{fill-rule:evenodd;clip-rule:evenodd;fill:#6F3647;}
	.st54{fill-rule:evenodd;clip-rule:evenodd;fill:#D3A14F;}
</style>
<g id="Capa_2" class="st0">
	<g class="st1">
		
			<linearGradient id="SVGID_1_" gradientUnits="userSpaceOnUse" x1="892.0725" y1="-190.9139" x2="649.259" y2="243.0907" gradientTransform="matrix(1 0 0 -1 0 800)">
			<stop  offset="0" style="stop-color:#D54A00"/>
			<stop  offset="1" style="stop-color:#962100"/>
		</linearGradient>
		<path class="st2" d="M1187.5,422.2l-25.8-29.6c0,0-8.6-20.1-14.3-34.4c-4.8-42.1-5.7-54.5-5.7-54.5l-7.7-10.5v-16.2l-41.1-9.6
			l-49.7,18.2l-16.2,72.6l-11.5,44.9c0,0-34.4,11.5-36.3,25.8c-1,7.3-5.9,33-10.6,56.5c-5.3,27-22.5,50.2-46.9,63.2
			c-44,23.4-113.9,60.9-144.2,79.2c-38.6,23.3-141.9,11.4-194,12.8c2.2-7.2,5.8-20.2,3.9-20.6c-1.9-0.4-5.1,13.6-6.6,20.7
			c-0.1,0-0.3,0-0.4,0c0-5.7,0-24.3-2.2-24.1c-1.5,0.1-1.3,8.4-0.8,15.5c-1.6-7-3.7-14.7-5.1-14.3c-1.9,0.6,1.9,14,3.9,21.1
			c-5.8-4.5-12.8-9.7-13.7-8.5c-0.8,1.2,5.8,6.4,11.6,10.6c-5.6,0.4-10.2,1-13.8,2c-34.2,9.6-170.9,1.9-214.9,6.7
			s-228.5,33.5-228.5,33.5v68.3H1220V485.3L1187.5,422.2z"/>
		<path class="st3" d="M1015.4,403.1c0,0,19.6,6.5,23.2,14.3c3.6,7.9,7.2,45.9,7.2,45.9l13.6,46.1l16.5,166.9h-47.3l-6.5-152.1
			c0,0-0.7-13.6,4.3-30.1c5-16.5,2.2-28,2.2-28l-13.1-19.4L1015.4,403.1L1015.4,403.1z"/>
		<path class="st4" d="M940.9,554.6l9.3-5.1c9-5,15.6-13.4,18.1-23.4c3.7-14.3,8.8-34.3,10.3-40.8c2.4-10.5,5.3-53.1,5.3-53.1
			l5.5-16.4c-5.4,3.8-9.6,8.3-10.3,13.1c-1,7.3-5.9,33-10.6,56.5c-5.3,27-22.5,50.2-46.9,63.2c-27.4,14.5-64.8,34.5-96.4,52
			L940.9,554.6z"/>
		<path class="st4" d="M1045.7,364c-0.4-15.8,5.1-73.6,5.1-73.6l19.9-14.9l-27.6,10.1l-16.2,72.7l-11.5,44.9l15.9,7.3
			C1031.4,410.5,1046.1,379.8,1045.7,364z"/>
		<linearGradient id="SVGID_2_" gradientUnits="userSpaceOnUse" x1="1083.5344" y1="451.757" x2="1220" y2="451.757">
			<stop  offset="0" style="stop-color:#D54A00"/>
			<stop  offset="1" style="stop-color:#962100"/>
		</linearGradient>
		<path class="st5" d="M1218.2,481.8l-30.7-59.5l-25.8-29.6c0,0-8.6-20.1-14.3-34.4c-4.8-42.1-5.7-54.5-5.7-54.5l-7.7-10.5v-16.2
			l-41.1-9.6v44.7l3.8,16.5l5.4,21.9l14.7,43.7l2.2,33.7l-3.6-21.1l-9.3-23.3l-13.1-3.2c0,0-6.2,7.9-8.4,17.9s0,93.9,0,93.9
			l21.5,105.4l4.3,38.7h63.8h45.9v-147L1218.2,481.8z"/>
		<path class="st4" d="M1089.4,381.7l-20.6,8.7c-4.2,1.8-7.3,5.4-8.4,9.8l-8.3,33.1l2.3,16.9l9.1-18.2l4.8-34.9L1089.4,381.7z"/>
		<path class="st6" d="M647.4,641.8c0.3,0.1,67.1,13.7,95.4,21.6c28.4,7.9,86.5,0,110.8,0s64.5,10,64.5,10l35.8-37.3
			c0,0-97.5,1.4-134.8,0s-76.4,2.6-76.4,2.6l0,0C715.2,643.1,680,642.8,647.4,641.8z"/>
	</g>
</g>
<g id="Capa_5" class="st0">
	<g id="SHAPE-2" class="st1">
		
			<linearGradient id="SVGID_3_" gradientUnits="userSpaceOnUse" x1="594.3763" y1="4.5746" x2="594.3763" y2="116.7894" gradientTransform="matrix(-1 0 0 -1 1423.7561 800)">
			<stop  offset="0" style="stop-color:#D54A00"/>
			<stop  offset="0.998" style="stop-color:#731700"/>
		</linearGradient>
		<path class="st7" d="M438.8,749h781.1V600.9c0,0-95.8,9-160.9,31.5c-65.1,22.5-69.1-14.3-119.2-12.7
			c-50.1,1.6-78.6,27.3-122.6,36.8c-44,9.6-69.6,0-138.7,9.8c-69.1,9.8-217,51.7-217,51.7L438.8,749z"/>
	</g>
</g>
<g id="Capa_3" class="st0">
	<g class="st1">
		<g>
			<linearGradient id="SVGID_4_" gradientUnits="userSpaceOnUse" x1="750.2453" y1="678.4813" x2="750.2453" y2="607.0048">
				<stop  offset="0" style="stop-color:#4F0C00"/>
				<stop  offset="0.9653" style="stop-color:#4F0C00"/>
			</linearGradient>
			<polygon class="st8" points="735.3,678.1 733,669.5 719.3,656.5 701.8,634.5 698.8,594.5 704.6,631.3 711.5,627.5 705.4,634.5 
				722.1,654.1 736.3,667.4 745.4,647.7 737.1,633.5 747.5,645.6 753.5,639.2 773.5,631.3 778.7,619.5 776.3,631.3 801.7,622.3 
				777.7,634.5 771.9,634.2 757.9,640.4 749.3,649.7 744.6,661 762.2,656.8 741.4,667 739.4,678.1 			"/>
			<linearGradient id="SVGID_5_" gradientUnits="userSpaceOnUse" x1="694.5987" y1="619.5627" x2="694.5987" y2="607.8015">
				<stop  offset="0" style="stop-color:#4F0C00"/>
				<stop  offset="0.9653" style="stop-color:#4F0C00"/>
			</linearGradient>
			<polygon class="st9" points="700.7,619.5 688.5,605.7 700.4,615.9 			"/>
			<linearGradient id="SVGID_6_" gradientUnits="userSpaceOnUse" x1="693.2499" y1="650.0683" x2="712.3279" y2="650.0683">
				<stop  offset="0" style="stop-color:#4F0C00"/>
				<stop  offset="0.9653" style="stop-color:#4F0C00"/>
			</linearGradient>
			<polygon class="st10" points="715.7,651.9 693.3,649.5 712.7,648.2 			"/>
			<linearGradient id="SVGID_7_" gradientUnits="userSpaceOnUse" x1="753.4216" y1="618.4865" x2="766.9152" y2="618.4865">
				<stop  offset="0" style="stop-color:#4F0C00"/>
				<stop  offset="0.9653" style="stop-color:#4F0C00"/>
			</linearGradient>
			<polygon class="st11" points="753.5,639.2 759.8,597.8 758.6,620.6 769.3,616.4 757.7,628.8 756.3,638.1 			"/>
		</g>
		<linearGradient id="SVGID_8_" gradientUnits="userSpaceOnUse" x1="782.8881" y1="628.7199" x2="790.5217" y2="628.7199">
			<stop  offset="0" style="stop-color:#4F0C00"/>
			<stop  offset="0.9653" style="stop-color:#4F0C00"/>
		</linearGradient>
		<polygon class="st12" points="782.9,629 787,629.8 790.5,628 786.7,627.6 		"/>
		<linearGradient id="SVGID_9_" gradientUnits="userSpaceOnUse" x1="758.7799" y1="623.5012" x2="766.4917" y2="623.5012">
			<stop  offset="0" style="stop-color:#4F0C00"/>
			<stop  offset="0.9653" style="stop-color:#4F0C00"/>
		</linearGradient>
		<polygon class="st13" points="766.5,619.4 763.8,619.6 759.5,624.6 759.5,626.7 758.8,627.6 		"/>
		<linearGradient id="SVGID_10_" gradientUnits="userSpaceOnUse" x1="764.5528" y1="617.3401" x2="769.271" y2="617.3401">
			<stop  offset="0" style="stop-color:#4F0C00"/>
			<stop  offset="0.9653" style="stop-color:#4F0C00"/>
		</linearGradient>
		<polygon class="st14" points="764.6,618.3 767.5,618.3 769.3,616.4 		"/>
		<linearGradient id="SVGID_11_" gradientUnits="userSpaceOnUse" x1="758.0233" y1="604.0116" x2="759.7653" y2="604.0116">
			<stop  offset="0" style="stop-color:#4F0C00"/>
			<stop  offset="0.9653" style="stop-color:#4F0C00"/>
		</linearGradient>
		<polygon class="st15" points="758,609.3 759.1,610.2 759.8,597.8 		"/>
		<linearGradient id="SVGID_12_" gradientUnits="userSpaceOnUse" x1="708.1422" y1="642.4398" x2="712.1867" y2="642.4398">
			<stop  offset="0" style="stop-color:#4F0C00"/>
			<stop  offset="0.9653" style="stop-color:#4F0C00"/>
		</linearGradient>
		<polygon class="st16" points="710.7,640.8 708.1,642.5 709.4,644.1 712.2,642.5 		"/>
		<linearGradient id="SVGID_13_" gradientUnits="userSpaceOnUse" x1="710.9941" y1="646.0844" x2="715.6587" y2="646.0844">
			<stop  offset="0" style="stop-color:#4F0C00"/>
			<stop  offset="0.9653" style="stop-color:#4F0C00"/>
		</linearGradient>
		<polygon class="st17" points="711,646.1 714.8,645.6 715.7,646.6 		"/>
		<linearGradient id="SVGID_14_" gradientUnits="userSpaceOnUse" x1="737.1383" y1="636.7338" x2="742.0103" y2="636.7338">
			<stop  offset="0" style="stop-color:#4F0C00"/>
			<stop  offset="0.9653" style="stop-color:#4F0C00"/>
		</linearGradient>
		<polygon class="st18" points="740.9,640 742,639.2 737.1,633.5 		"/>
		<linearGradient id="SVGID_15_" gradientUnits="userSpaceOnUse" x1="738.344" y1="656.479" x2="744.3252" y2="656.479">
			<stop  offset="0" style="stop-color:#4F0C00"/>
			<stop  offset="0.9653" style="stop-color:#4F0C00"/>
		</linearGradient>
		<polygon class="st19" points="744.3,650.1 744.3,651.9 740.4,660.4 738.3,662.9 		"/>
		<linearGradient id="SVGID_16_" gradientUnits="userSpaceOnUse" x1="744.3252" y1="654.1911" x2="746.1891" y2="654.1911">
			<stop  offset="0" style="stop-color:#4F0C00"/>
			<stop  offset="0.9653" style="stop-color:#4F0C00"/>
		</linearGradient>
		<polygon class="st20" points="745.5,651.9 744.3,654.5 744.9,656.5 746.2,651.9 		"/>
		<linearGradient id="SVGID_17_" gradientUnits="userSpaceOnUse" x1="725.6676" y1="664.4944" x2="734.5679" y2="664.4944">
			<stop  offset="0" style="stop-color:#4F0C00"/>
			<stop  offset="0.9653" style="stop-color:#4F0C00"/>
		</linearGradient>
		<polygon class="st21" points="725.7,662.6 728.1,664.6 734.6,666.4 		"/>
		<linearGradient id="SVGID_18_" gradientUnits="userSpaceOnUse" x1="750.8903" y1="659.9426" x2="756.7482" y2="659.9426">
			<stop  offset="0" style="stop-color:#4F0C00"/>
			<stop  offset="0.9653" style="stop-color:#4F0C00"/>
		</linearGradient>
		<polygon class="st22" points="750.9,659.5 753.5,661.1 756.7,659.5 753.8,658.8 		"/>
		<linearGradient id="SVGID_19_" gradientUnits="userSpaceOnUse" x1="756.7482" y1="657.446" x2="762.247" y2="657.446">
			<stop  offset="0" style="stop-color:#4F0C00"/>
			<stop  offset="0.9653" style="stop-color:#4F0C00"/>
		</linearGradient>
		<polygon class="st23" points="756.7,658.1 759.6,658.1 762.2,656.8 		"/>
		<linearGradient id="SVGID_20_" gradientUnits="userSpaceOnUse" x1="749.6403" y1="642.4589" x2="753.8193" y2="642.4589">
			<stop  offset="0" style="stop-color:#4F0C00"/>
			<stop  offset="0.9653" style="stop-color:#4F0C00"/>
		</linearGradient>
		<polygon class="st24" points="749.6,643.3 753.8,641.6 750.9,642 		"/>
		<linearGradient id="SVGID_21_" gradientUnits="userSpaceOnUse" x1="692.2818" y1="611.3678" x2="695.6145" y2="611.3678">
			<stop  offset="0" style="stop-color:#4F0C00"/>
			<stop  offset="0.9653" style="stop-color:#4F0C00"/>
		</linearGradient>
		<polygon class="st25" points="693.5,610 695.6,613.8 692.3,610 692.3,609 		"/>
		<linearGradient id="SVGID_22_" gradientUnits="userSpaceOnUse" x1="698.8031" y1="600.137" x2="700.4768" y2="600.137">
			<stop  offset="0" style="stop-color:#4F0C00"/>
			<stop  offset="0.9653" style="stop-color:#4F0C00"/>
		</linearGradient>
		<polygon class="st26" points="699.6,605.7 700.5,605.1 698.8,594.5 		"/>
	</g>
</g>
<g id="Capa_1" class="st0">
	
		<linearGradient id="SVGID_23_" gradientUnits="userSpaceOnUse" x1="610" y1="-64.1259" x2="610" y2="43.6658" gradientTransform="matrix(1 0 0 -1 0 800)">
		<stop  offset="0" style="stop-color:#A13400"/>
		<stop  offset="0.9961" style="stop-color:#4F0C00"/>
	</linearGradient>
	<path class="st27" d="M1078.1,690.9c-26.7-7.7-55.1-11.3-109.5-20.1c-6.2-1-45.3-6.6-47.8-6.9c0,0,0,0,0,0
		c-63.5-7.6-89.6-3.4-163.9,7.6c-15,2.2-28.5,4.5-41.2,6.5c-3.3-0.3-7-0.4-9.7,0.4c-6,1.7-16.2-0.4-21.6,0c-10,0.7-38.8,10-38.8,10
		c-21.6,2.2-43.6,3.1-69.8,1.8c-27.9-1.4-67.2-6.5-107.9-12.2c0-0.7-20-2.8-20-2.8c-37.6-5.4-75-10.9-104.8-14.3
		c3.1-0.9-38-3.2-38-3.2c-60.9-1.2-106.6,14.2-141.5,22.2C123.3,689.2,0,707.5,0,707.5V800h163.8h914.3H1220v-80.8
		C1174.3,719.6,1112.9,700.9,1078.1,690.9z"/>
</g>
<g id="Capa_4">
	<g>
		<g>
			<linearGradient id="SVGID_24_" gradientUnits="userSpaceOnUse" x1="925.5576" y1="667.5601" x2="925.5576" y2="614.7495">
				<stop  offset="0" style="stop-color:#8B4047"/>
				<stop  offset="0.9721" style="stop-color:#B07C3B"/>
			</linearGradient>
			<path class="st28" d="M951.2,635.2c-1.1-4-3.8-7.4-6.7-10.3c-1.5-1.5-3.1-2.8-4.8-3.9c-1.7-1.1-3.6-2.1-5.6-2.5
				c-2-0.5-4.1-0.4-6,0.1c-1.9,0.6-3.7,1.6-5.2,3c-3,2.7-5.3,6.2-7.1,9.9c-1.9,3.6-3.4,7.5-3.9,11.5c-0.2,2-0.3,4,0,6
				c0.2,1,0.3,2,0.6,3c0.3,1,0.6,1.9,1.1,2.8c0.9,1.8,2.3,3.3,3.9,4.5c0.8,0.6,1.7,1.2,2.6,1.6c0.9,0.4,1.9,0.7,2.9,0.9
				c2,0.3,4.1,0.3,6-0.2c0.5-0.1,1-0.2,1.5-0.4c0.5-0.1,0.9-0.4,1.4-0.6l2.8-1.3l0,0c1.8-1.1,3.5-2.5,4.8-4.1l0,0l0,0
				c1.5-1.5,2.7-3.2,3.6-5.1c0.9-1.9,1.6-3.9,1.9-6l0,0l0,0c0.6-2.2,0.8-4.5,0.6-6.8l0,0l-0.5-2.8c-0.2-0.9-0.3-1.9-0.5-2.8
				c-0.5-1.8-1.2-3.6-2-5.2l0,0l0,0c-0.5-1.4-1.3-2.8-2.3-4c-1-1.2-2.1-2.3-3.3-3.3c-1.2-1-2.5-1.8-3.9-2.4
				c-0.7-0.3-1.4-0.5-2.2-0.6c-0.7-0.1-1.5-0.2-2.3-0.2c-3.1,0-6.1,0.8-9,1.8l-1.1,0.4c-0.4,0.1-0.7,0.3-1.1,0.4
				c-0.7,0.3-1.4,0.6-2.1,1c-1.4,0.7-2.7,1.5-3.9,2.5l0.1,0l-4.2,4l0,0c-1.9,2.1-3.5,4.5-4.7,7.1l0,0l0,0c-0.7,1.1-1.2,2.2-1.6,3.4
				c-0.4,1.2-0.7,2.4-0.8,3.6c-0.3,2.5-0.2,5.1,0.3,7.6l0,0.1l0,0.1c0.1,2.6,0.8,5.2,2.1,7.6l-0.1-0.1c1.1,1.2,2,2.4,3.1,3.4
				c1.1,1,2.3,1.8,3.6,2c0.7,0.1,1.6,0.1,2.5,0.4c0.8,0.4,1.5,0.7,2.2,1.1c1.4,0.7,2.7,1.4,4.1,2c2.9,1.1,5.9,1.8,8.9,1.8
				c3-0.1,6.1-0.7,9-1.7c5.8-2,11-5.9,14.3-11.2c1.7-2.6,2.5-5.7,2.6-8.8c0.1-1.6,0-3.1-0.4-4.6L951.2,635.2z M951.3,635.2l1.1,4.6
				c0.4,1.5,0.5,3.1,0.4,4.7c-0.1,3.1-0.9,6.3-2.5,9c-3.2,5.5-8.4,9.7-14.3,12c-3,1.2-6.1,1.9-9.3,2c-3.2,0.1-6.4-0.7-9.4-1.7
				c-1.5-0.5-3-1.3-4.3-2c-0.7-0.4-1.3-0.7-2-1c-0.6-0.2-1.3-0.2-2.2-0.3c-0.9-0.1-1.7-0.4-2.5-0.9c-0.7-0.4-1.4-1-2-1.5
				c-1.2-1.1-2.2-2.4-3.2-3.5l-0.1-0.1l0-0.1c-1.4-2.5-2.3-5.4-2.3-8.3l0,0.1c-0.5-2.6-0.5-5.4-0.2-8c0.2-1.4,0.5-2.7,0.9-4
				c0.5-1.3,1.1-2.5,1.8-3.7l0,0.1c1.3-2.7,3-5.2,5-7.4l0,0l0,0l4.3-4l0,0l0,0c1.3-1,2.7-1.8,4.1-2.5c0.7-0.4,1.5-0.7,2.2-1
				c0.4-0.1,0.8-0.3,1.1-0.4l1.1-0.4c3-1.1,6.2-1.9,9.5-1.8c0.8,0,1.6,0.1,2.4,0.2c0.8,0.2,1.6,0.4,2.4,0.7c1.5,0.6,2.9,1.6,4.1,2.6
				c0.6,0.5,1.2,1.1,1.7,1.7c0.6,0.6,1.1,1.2,1.6,1.8c1,1.3,1.8,2.7,2.3,4.2l0,0c0.8,1.7,1.5,3.5,2,5.4c0.2,0.9,0.4,1.9,0.5,2.8
				l0.4,2.8l0,0l0,0c0.2,2.3,0,4.7-0.6,6.9l0,0c-0.3,2.1-1,4.2-1.9,6.1c-0.9,1.9-2.1,3.7-3.6,5.2l0,0c-1.3,1.7-3,3.2-4.9,4.3l0,0
				l0,0l-2.8,1.3c-0.5,0.2-0.9,0.5-1.4,0.6c-0.5,0.2-1,0.3-1.5,0.5c-2.1,0.5-4.2,0.6-6.4,0.3c-1.1-0.2-2.1-0.4-3.1-0.9
				c-1-0.4-1.9-1-2.8-1.6c-1.7-1.2-3.3-2.8-4.4-4.7c-0.5-0.9-1-2-1.2-3c-0.3-1-0.5-2.1-0.7-3.1c-0.3-2.1-0.3-4.3-0.1-6.4
				c0.5-4.2,2.1-8.3,4.1-11.9c2-3.7,4.3-7.3,7.6-10.1c1.6-1.4,3.5-2.5,5.6-3c2.1-0.5,4.3-0.5,6.3,0.1c2.1,0.6,3.9,1.6,5.6,2.8
				c1.7,1.2,3.3,2.6,4.7,4.1c1.5,1.5,2.8,3.1,4,4.8C949.8,631.3,950.8,633.2,951.3,635.2z"/>
			<linearGradient id="SVGID_25_" gradientUnits="userSpaceOnUse" x1="930.5031" y1="677.4604" x2="930.5031" y2="605.4647">
				<stop  offset="0" style="stop-color:#8B4047"/>
				<stop  offset="0.9721" style="stop-color:#B07C3B"/>
			</linearGradient>
			<path class="st29" d="M932.2,613.1l-3.3-0.7l0,0c-1.1,0-2.2,0.1-3.3,0.3c-1.1,0.3-2.2,0.6-3.2,1.1c-2.1,0.9-4,2.1-5.8,3.4
				c-3.6,2.7-6.8,5.9-9.3,9.7c-1.2,1.9-2.2,3.9-3,6c-0.7,2.1-1.3,4.3-1.7,6.5c-0.4,2.2-0.5,4.4-0.3,6.6c0.2,2.2,0.7,4.4,1.4,6.5
				c0.4,1,0.8,2.1,1.3,3c0.5,1,1.1,1.9,1.7,2.8c0.6,0.9,1.4,1.7,2.2,2.4c0.8,0.7,1.7,1.4,2.6,1.9c3.9,2.2,8.3,3.3,12.8,3.3
				c4.5,0,9-0.9,13.2-2.4c4.2-1.6,8.2-3.8,11.9-6.4c3.6-2.7,7.2-5.6,10.1-9.1c2.9-3.5,5.2-7.5,5.9-12c0.4-2.2,0.4-4.5,0.2-6.7
				c-0.2-2.2-0.8-4.4-1.7-6.4c-1.8-4.1-4.7-7.7-8.2-10.5c-3.4-2.8-7.6-4.7-12-5.4c-1.1-0.2-2.2-0.3-3.3-0.3c-1.1,0-2.2,0-3.4,0.1
				c-2.2,0.2-4.5,0.5-6.6,1c-4.4,1-8.6,2.5-12.5,4.7c-3.9,2.3-7.4,5-10.4,8.3l0,0l0,0c-2.1,1.9-3.9,4.1-5.5,6.4l-1.2,1.8
				c-0.4,0.6-0.7,1.2-1.1,1.8c-0.7,1.2-1.3,2.5-1.8,3.8c-0.5,1.3-0.9,2.7-1.2,4c-0.1,0.7-0.2,1.4-0.3,2.1c-0.1,0.7-0.2,1.4-0.2,2.1
				c-0.2,2.8-0.1,5.7,0.4,8.5l0-0.1l1.8,7.4l0-0.1c1.2,3.3,3.1,6.4,5.5,9c2.4,2.6,5.3,4.7,8.5,6.2c1.6,0.7,3.3,1.3,5.1,1.7
				c1.7,0.4,3.5,0.5,5.3,0.6c3.6,0.2,7.2-0.1,10.7-0.9l0,0.1c-3.5,0.9-7.1,1.3-10.8,1.2c-1.8,0-3.6-0.1-5.4-0.5
				c-1.8-0.3-3.5-0.9-5.2-1.6c-3.4-1.4-6.5-3.6-9-6.2c-2.6-2.6-4.5-5.8-5.9-9.3l0,0l0,0l-1.9-7.4l0,0l0,0c-0.5-2.9-0.6-5.9-0.5-8.8
				c0.1-1.5,0.2-2.9,0.5-4.4c0.3-1.5,0.8-2.9,1.3-4.3c0.5-1.4,1.1-2.7,1.8-4c0.4-0.6,0.7-1.3,1.1-1.9l1.2-1.8
				c1.6-2.5,3.5-4.7,5.7-6.8l0,0c1.6-1.7,3.2-3.3,5.1-4.8c1.8-1.4,3.8-2.7,5.8-3.9c4-2.3,8.5-3.9,13-4.8c2.3-0.5,4.6-0.8,6.9-0.9
				c1.2-0.1,2.3-0.1,3.5-0.1c1.2,0,2.4,0.2,3.5,0.4c4.6,0.8,9,2.8,12.5,5.8c3.5,3,6.4,6.8,8.2,11c0.9,2.1,1.5,4.4,1.7,6.7
				c0.2,2.3,0.1,4.6-0.3,6.9c-0.4,2.3-1.2,4.5-2.3,6.5c-1.1,2-2.4,3.9-3.8,5.7c-3,3.5-6.5,6.5-10.1,9.2c-3.7,2.7-7.7,5-11.9,6.7
				c-4.3,1.7-8.8,2.7-13.5,2.8c-4.6,0.1-9.3-1-13.4-3.3c-1-0.6-2-1.3-2.9-2.1c-0.9-0.8-1.7-1.7-2.4-2.6c-1.4-1.9-2.5-4-3.2-6.2
				c-0.8-2.2-1.3-4.5-1.4-6.8c-0.2-2.3,0-4.7,0.4-6.9c0.4-2.3,1-4.5,1.8-6.7c0.8-2.2,1.9-4.2,3.2-6.1c2.6-3.8,5.9-7.1,9.7-9.7
				c1.9-1.3,3.9-2.5,6-3.3c1.1-0.4,2.2-0.7,3.3-1c1.1-0.2,2.3-0.3,3.4-0.2l0,0l0,0l3.3,0.8L932.2,613.1z"/>
			<linearGradient id="SVGID_26_" gradientUnits="userSpaceOnUse" x1="944.4211" y1="666.7594" x2="944.4211" y2="612.4146">
				<stop  offset="0" style="stop-color:#8B4047"/>
				<stop  offset="0.9721" style="stop-color:#B07C3B"/>
			</linearGradient>
			<path class="st30" d="M946.5,613.1c-2.7,1.4-5.2,3.3-7.6,5.3c-2.3,2-4.6,4.1-6.7,6.3c-2.1,2.2-4,4.6-5.9,7.1
				c-1.9,2.4-3.4,5.1-4.5,8l0,0l0,0c-0.5,1.1-1,2.3-1.3,3.5c-0.3,1.2-0.5,2.4-0.6,3.7l0,0l0.1,3c0,1,0,2,0.2,2.9
				c0.3,1.9,1.2,3.7,2.4,5.1l0,0l0,0.1c0.6,1.1,1.3,2.1,2.2,2.9c0.9,0.8,1.9,1.5,3,2.1l-0.1,0l4.6,1.8l-0.1,0
				c1.6,0.3,3.2,0.4,4.8,0.4c1.6,0,3.2-0.1,4.8-0.4l0,0l0,0c2.3-0.1,4.7-0.4,7-0.8c2.3-0.4,4.6-1,6.9-1.6c2.3-0.7,4.5-1.3,6.8-2.1
				c2.2-0.8,4.5-1.6,6.7-2.4l0.1,0.1c-2.1,1.1-4.3,2.1-6.5,3c-2.2,0.9-4.4,1.8-6.7,2.5c-2.3,0.8-4.6,1.5-6.9,1.9
				c-2.4,0.5-4.8,0.8-7.2,0.9l0.1,0c-1.7,0.3-3.4,0.4-5.1,0.3c-1.7,0-3.4-0.2-5-0.6l-0.1,0l-0.1,0l-4.5-1.9l0,0l0,0
				c-1.2-0.7-2.2-1.5-3.2-2.4c-0.9-1-1.7-2.1-2.3-3.3l0.1,0.1c-1.2-1.7-2.1-3.6-2.3-5.7c-0.1-1-0.1-2-0.1-3l0-3l0,0l0,0
				c0.1-1.3,0.3-2.5,0.6-3.7c0.3-1.2,0.7-2.4,1.2-3.6l0,0c0.9-3,2.3-5.9,4.1-8.5c1.7-2.6,3.7-5.1,5.9-7.3c2.2-2.3,4.6-4.3,7.1-6.2
				c2.5-1.9,5.2-3.5,8.1-4.6L946.5,613.1z"/>
			<linearGradient id="SVGID_27_" gradientUnits="userSpaceOnUse" x1="942.2247" y1="647.1775" x2="942.2247" y2="620.4639">
				<stop  offset="0" style="stop-color:#8B4047"/>
				<stop  offset="0.9721" style="stop-color:#B07C3B"/>
			</linearGradient>
			<path class="st31" d="M982.7,642.3c-2.4,1.6-5.2,2.5-8,3.1c-1.4,0.3-2.8,0.5-4.3,0.7c-1.4,0.2-2.8,0.3-4.3,0.5
				c-5.7,0.6-11.5,0.3-17.1-0.1c-5.7-0.4-11.4-0.6-17.1-1.6c-2.8-0.5-5.7-1.3-8.3-2.3c-1.3-0.4-2.7-0.9-4.1-1.5
				c-1.3-0.6-2.6-1.2-3.9-1.9l0,0l0,0l-4.3-2.9l0,0l0,0c-2.5-2.1-4.7-4.5-6.4-7.1l0,0c-0.7-1.3-1.4-2.7-1.8-4.2
				c-0.5-1.4-0.9-2.9-1.1-4.4l0.1,0c0.9,2.8,2.1,5.6,3.7,8l0,0c1.9,2.5,4.1,4.7,6.5,6.5l-0.1,0l4.3,2.8l-0.1,0
				c1.2,0.7,2.5,1.3,3.8,1.9c1.3,0.6,2.6,1.1,3.9,1.5c2.6,1.1,5.3,1.9,8.1,2.5c5.5,1.3,11.2,2.1,16.9,2.3c5.7,0.1,11.4-0.4,17-0.7
				c5.6-0.5,11.4-0.7,16.6-3.1L982.7,642.3z"/>
			<linearGradient id="SVGID_28_" gradientUnits="userSpaceOnUse" x1="940.7422" y1="665.0831" x2="940.7422" y2="610.3411">
				<stop  offset="0" style="stop-color:#8B4047"/>
				<stop  offset="0.9721" style="stop-color:#B07C3B"/>
			</linearGradient>
			<path class="st32" d="M905.1,610.8c-0.6,0.9-0.9,1.9-1.4,2.9c-0.4,1-0.9,2-1.3,3c-0.8,2-1.5,4-2,6.1c-0.5,2.1-0.8,4.2-0.9,6.3
				c-0.1,2.1-0.1,4.3,0.1,6.4l0,0l1,5.1l0-0.1c0.7,1.7,1.3,3.4,1.9,5.1l-0.1-0.1c1,1.5,1.9,3.1,2.9,4.6l-0.1-0.1l3.6,3.8l-0.1-0.1
				l3.4,2.4c1.1,0.8,2.3,1.5,3.6,2.1c1.2,0.6,2.5,1.2,3.8,1.7c0.6,0.3,1.3,0.5,2,0.7l2,0.7c2.6,0.8,5.3,1.5,8.1,1.9l2.1,0.3
				c0.7,0.1,1.4,0.2,2,0.3c1.4,0.1,2.7,0.2,4.1,0l0,0l0,0c2.4,0.1,4.7,0,7-0.6l0,0l0.1,0c2.5-0.2,4.9-0.7,7.3-1.5l0,0l0.1,0
				c2.3-0.5,4.6-1.3,6.7-2.3l0,0l0.1,0c2.1-0.7,4-1.7,5.8-3l0,0l0,0c1.9-1,3.6-2.2,5.2-3.6l0,0l0,0c1.6-1,3-2.3,4.2-3.7l0-0.1l0,0
				c1.1-0.9,2.1-2.1,2.8-3.4l0-0.1l0,0c0.8-1,1.4-2.2,1.7-3.5l0-0.1l0-0.1c0.6-1.1,0.8-2.4,0.8-3.7l0-0.1l0-0.1
				c0.3-1.3,0.2-2.6-0.3-3.8l0-0.1l0-0.1c-0.2-1.5-0.7-2.9-1.7-4.1l0,0l0,0c-1.2-2.3-2.7-4.4-4.5-6.3l0.1-0.1c2,1.7,3.6,3.8,5,6.1
				l0,0c1.1,1.2,1.8,2.8,2,4.4l0-0.1c0.7,1.3,0.9,2.9,0.5,4.4l0-0.2c0.1,1.4-0.2,2.9-0.8,4.3l0-0.1c-0.3,1.4-0.9,2.8-1.8,4l0.1-0.1
				c-0.7,1.5-1.8,2.9-3,3.9l0.1-0.1c-1.3,1.5-2.8,2.9-4.4,4l0.1-0.1c-1.6,1.5-3.5,2.8-5.5,3.8l0.1-0.1c-1.9,1.4-4,2.4-6.2,3.1l0.1,0
				c-2.2,1.1-4.6,1.9-7.1,2.3l0.1,0c-2.5,0.8-5.1,1.3-7.7,1.5l0.1,0c-2.4,0.5-4.9,0.6-7.4,0.3l0.1,0c-1.4,0-2.9,0-4.3-0.2
				c-0.7-0.1-1.4-0.2-2.1-0.4l-2-0.4c-2.7-0.6-5.5-1.3-8.1-2.2c-1.3-0.5-2.6-0.9-4-1.4c-1.3-0.5-2.6-1-3.9-1.6
				c-1.3-0.6-2.5-1.3-3.7-2l-3.6-2.2l0,0l0,0l-3.8-3.6l0,0l0-0.1c-1-1.5-2.1-3-3.1-4.5l0-0.1l0-0.1c-0.7-1.7-1.3-3.4-2-5l0-0.1
				l0-0.1l-0.9-5.1l0,0l0,0c-0.2-2.2-0.2-4.4,0-6.6c0.2-2.2,0.6-4.4,1.2-6.5c0.6-2.1,1.4-4.2,2.3-6.1c0.5-1,1-1.9,1.5-2.9
				c0.5-1,1-2,1.6-2.8L905.1,610.8z"/>
			<linearGradient id="SVGID_29_" gradientUnits="userSpaceOnUse" x1="940.3088" y1="658.0869" x2="940.3088" y2="612.9304">
				<stop  offset="0" style="stop-color:#8B4047"/>
				<stop  offset="0.9721" style="stop-color:#B07C3B"/>
			</linearGradient>
			<path class="st33" d="M901.2,624.4c-0.7,0.9-1,2-1.2,3.2c-0.1,1.1-0.1,2.3,0.1,3.4c0.3,2.3,0.9,4.5,1.7,6.6
				c1.5,4.3,4.1,8.2,7.6,11.1c3.5,2.9,7.7,4.8,12,6.3c2.1,0.8,4.3,1.4,6.6,1.9c2.2,0.5,4.5,0.6,6.8,0.7c4.6,0.1,9.1-0.4,13.6-1.3
				c4.5-0.9,8.9-2.2,13-4.2c2.1-1,4-2.1,6-3.4c1.9-1.3,3.7-2.6,5.4-4.1c1.7-1.5,3.3-3.2,4.6-5c1.3-1.9,2.3-3.9,2.6-6.1l0,0l0.1-3.6
				l0,0.1l-1-3.5l0,0.1c-0.9-1.9-2.2-3.5-3.8-4.8l0,0l0,0c-1-1.2-2.2-2.1-3.6-2.8l0,0l0,0c-1.2-0.8-2.5-1.5-3.8-2.1
				c-1.3-0.6-2.7-1.1-4.1-1.5c-2.8-0.8-5.7-1.3-8.6-1.3c-2.9-0.1-5.8,0.2-8.7,0.8c-2.8,0.6-5.6,1.5-8.1,3.1l0,0l-3.4,2.6l0,0
				c-1.8,1.8-3.1,3.9-3.9,6.4l-0.1,0c0.7-2.4,2-4.7,3.8-6.5l0,0l0,0l3.4-2.7l0,0l0,0c2.5-1.6,5.3-2.6,8.2-3.3c2.9-0.6,5.8-1,8.8-0.9
				c3,0,5.9,0.4,8.8,1.3c1.4,0.4,2.8,0.9,4.2,1.6c1.3,0.6,2.6,1.4,3.9,2.2l0,0c1.4,0.8,2.7,1.8,3.8,3l0,0c1.7,1.4,3.1,3.2,4,5.1l0,0
				l0,0l1,3.5l0,0.1l0,0.1l-0.1,3.6l0,0l0,0c-0.3,2.4-1.4,4.5-2.8,6.4c-1.3,1.9-3,3.6-4.7,5.1c-1.7,1.5-3.6,2.9-5.6,4.1
				c-1.9,1.2-4,2.4-6.1,3.3c-4.2,1.9-8.6,3.2-13.1,4.1c-4.5,0.9-9.1,1.5-13.7,1.5c-2.3,0-4.6-0.1-6.9-0.5c-2.3-0.4-4.5-1-6.7-1.8
				c-2.2-0.8-4.3-1.6-6.4-2.6c-2.1-1.1-4-2.3-5.8-3.8c-3.6-3-6.2-7-7.6-11.4c-0.7-2.2-1.4-4.4-1.6-6.7c-0.1-1.2-0.1-2.3,0-3.5
				C900,626.4,900.4,625.2,901.2,624.4L901.2,624.4z"/>
			<linearGradient id="SVGID_30_" gradientUnits="userSpaceOnUse" x1="948.2919" y1="641.4248" x2="948.2919" y2="604.1899">
				<stop  offset="0" style="stop-color:#8B4047"/>
				<stop  offset="0.9721" style="stop-color:#B07C3B"/>
			</linearGradient>
			<path class="st34" d="M923.8,632.4c0.6,1.3,1.2,2.5,2.1,3.5c0.9,1,2.1,1.7,3.4,2.3c2.5,1.1,5.2,1.8,7.9,2.2
				c5.4,0.7,11,0.5,16.3-0.9c2.7-0.7,5.2-1.6,7.7-2.9c2.5-1.2,4.8-2.8,6.7-4.8c1.9-2,3.6-4.3,4.3-6.9c0.3-1.3,0.4-2.7,0.4-4.1
				c0-1.4-0.3-2.7-0.8-4l0,0l-1.8-3.1l0,0.1l-2.6-2.8l0,0c-2.4-2.2-5.4-3.8-8.5-4.8c-3.1-1-6.5-1.5-9.8-1.2
				c-1.6,0.1-3.3,0.3-4.9,0.7c-1.6,0.4-3.1,1.1-4.5,1.9c-2.9,1.7-5.4,3.9-7.2,6.7l0,0l0,0c-0.8,1-1.4,2.1-1.8,3.4l0,0l0,0
				c-0.8,1.6-1.4,3.4-1.7,5.3l-0.1,0c0.2-1.9,0.7-3.7,1.5-5.4l0,0c0.4-1.3,1-2.5,1.8-3.5l0,0c1.8-2.9,4.4-5.2,7.2-7
				c1.4-0.9,3-1.6,4.7-2.1c1.7-0.5,3.3-0.6,5-0.8c3.4-0.2,6.8,0.2,10,1.3c3.2,1.1,6.3,2.7,8.8,5.1l0,0l0,0l2.5,2.9l0,0l0,0l1.7,3.1
				l0,0l0,0c0.5,1.3,0.7,2.7,0.7,4.1c0,1.4-0.1,2.8-0.5,4.2c-0.8,2.7-2.5,5-4.4,7c-1.9,2-4.3,3.6-6.7,4.9c-2.4,1.3-5,2.4-7.7,3.1
				c-2.7,0.8-5.5,1.2-8.2,1.4c-2.8,0.1-5.6,0-8.3-0.4c-2.8-0.4-5.5-1.2-8-2.4c-1.3-0.6-2.4-1.4-3.4-2.5
				C924.7,635,924.2,633.7,923.8,632.4L923.8,632.4z"/>
			<linearGradient id="SVGID_31_" gradientUnits="userSpaceOnUse" x1="936.0162" y1="673.3026" x2="936.0162" y2="608.4478">
				<stop  offset="0" style="stop-color:#8B4047"/>
				<stop  offset="0.9721" style="stop-color:#B07C3B"/>
			</linearGradient>
			<path class="st35" d="M896.6,651.5c0.2,1.1,0.4,2.2,0.6,3.2c0.3,1.1,0.6,2.1,1.1,3.1c0.9,2,2.2,3.8,3.7,5.3
				c1.5,1.5,3.4,2.7,5.3,3.7c1.9,1,3.9,1.9,6,2.5c4.1,1.3,8.5,2.1,12.8,2.4c4.3,0.2,8.7-0.1,13-0.7c4.3-0.6,8.6-1.5,12.7-2.9
				c4.1-1.4,8-3.4,11.5-5.9c1.8-1.3,3.5-2.6,5-4.2c1.5-1.5,2.8-3.3,3.8-5.2c2.1-3.8,3-8.2,2.5-12.6c-0.2-2.2-0.8-4.3-1.6-6.3
				c-0.8-2-1.9-4-3.1-5.8c-2.4-3.6-5.4-6.9-8.9-9.6c-3.4-2.7-7.5-4.5-11.6-5.9c-4.1-1.3-8.5-2.2-12.8-2.6c-4.3-0.4-8.7,0-12.8,1.2
				c-4.1,1.3-8,3.3-11.3,6.1c-1.6,1.4-3,3-4.4,4.7c-1.3,1.7-2.5,3.5-3.4,5.4c-1,1.9-1.7,3.9-2.3,6c-0.6,2.1-1,4.2-1.3,6.3l0,0l0,0
				c-0.3,1.5-0.4,3-0.3,4.5l0,0.1l0,0.1c-0.1,1.5,0.1,3,0.5,4.4l0,0l0,0c0.8,3.5,2.2,6.8,4.1,9.9l0,0l0,0c0.8,1.6,1.8,3,3.1,4.2l0,0
				l0,0c1,1.4,2.3,2.6,3.8,3.5l0.1,0l0,0c1.3,1.2,2.8,2.1,4.4,2.8l0.1,0l0,0c1.4,1,3.1,1.6,4.8,1.8l0.1,0l0,0
				c1.8,0.7,3.8,0.9,5.7,0.6l0,0l0,0c2.3,0.2,4.7,0,6.9-0.6l0,0l0,0c4.4-0.6,8.8-1.7,13.1-3.2l0.1,0.1c-4.2,1.7-8.6,2.9-13,3.7l0,0
				c-2.3,0.6-4.7,0.9-7.1,0.8l0.1,0c-2,0.3-4.1,0.1-6.1-0.5l0.1,0c-1.9-0.2-3.7-0.8-5.3-1.8l0.1,0.1c-1.8-0.7-3.4-1.7-4.8-2.9
				l0.1,0.1c-1.6-1-3-2.3-4.2-3.7l0.1,0.1c-1.4-1.3-2.6-2.8-3.5-4.5l0,0.1c-2-3.1-3.6-6.6-4.4-10.3l0,0.1c-0.5-1.6-0.8-3.3-0.6-5
				l0,0.1c-0.1-1.6,0-3.3,0.3-4.9l0,0.1c0.3-2.2,0.7-4.4,1.3-6.6c0.6-2.1,1.3-4.3,2.4-6.3c1-2,2.3-3.9,3.6-5.7
				c1.4-1.8,2.9-3.5,4.6-4.9c3.5-2.9,7.6-5,11.9-6.3c4.3-1.3,8.9-1.5,13.3-1.1c4.4,0.5,8.8,1.5,13,2.9c4.2,1.5,8.2,3.4,11.7,6.3
				c3.5,2.8,6.4,6.1,8.9,9.8c1.2,1.9,2.3,3.8,3.1,5.9c0.8,2.1,1.4,4.2,1.7,6.4c0.6,4.4-0.4,9-2.4,13c-1,2-2.3,3.9-3.8,5.5
				c-1.5,1.6-3.2,3.1-5,4.4c-1.8,1.3-3.6,2.6-5.6,3.6c-2,1.1-4,1.9-6.1,2.7c-4.2,1.5-8.6,2.5-13,3c-4.4,0.6-8.9,0.9-13.3,0.6
				c-4.4-0.3-8.9-1.1-13.1-2.6c-2.1-0.7-4.1-1.7-6.1-2.7c-1.9-1.1-3.8-2.4-5.4-4c-1.5-1.6-2.8-3.5-3.6-5.6c-0.4-1-0.8-2.1-1-3.2
				c-0.2-1.1-0.3-2.2-0.5-3.3L896.6,651.5z"/>
			<linearGradient id="SVGID_32_" gradientUnits="userSpaceOnUse" x1="938.6311" y1="675.9948" x2="938.6311" y2="631.1761">
				<stop  offset="0" style="stop-color:#8B4047"/>
				<stop  offset="0.9721" style="stop-color:#B07C3B"/>
			</linearGradient>
			<path class="st36" d="M916,631.2c-0.1,1.1-0.3,2.2-0.3,3.3c-0.1,1.1,0,2.2,0,3.3c0,1.1,0.1,2.2,0.2,3.3c0.1,1.1,0.2,2.2,0.4,3.3
				c0.4,2.2,0.9,4.3,1.6,6.4c0.6,2.1,1.4,4.2,2.4,6.2c1.9,4,4.6,7.6,8,10.5c3.4,2.8,7.2,5.1,11.4,6.2l0,0l0,0
				c0.9,0.3,1.8,0.5,2.7,0.6c0.9,0.1,1.9,0.1,2.8,0c0.4,0,0.9-0.1,1.4-0.2l1.5-0.2l3-0.5l-0.1,0c1.7-0.6,3.4-1.1,5.1-1.7l0,0
				c2.5-1,4.7-2.5,6.7-4.3l0.1,0.1c-0.8,1.1-1.8,2-2.9,2.9c-1.1,0.9-2.3,1.6-3.5,2.2l0,0l0,0c-1.6,0.7-3.3,1.3-5,2l0,0l-0.1,0
				l-2.9,0.6l-1.5,0.3c-0.5,0.1-1,0.2-1.5,0.3c-2.1,0.2-4.3,0-6.2-0.8l0.1,0c-4.4-1.3-8.4-3.8-11.5-7.1c-3.2-3.2-5.7-7-7.9-10.8
				c-1.1-1.9-2.1-4-3-6.1c-0.8-2.1-1.4-4.3-1.7-6.6c-0.3-2.2-0.4-4.6-0.2-6.8c0.1-1.1,0.1-2.3,0.3-3.4c0.2-1.1,0.5-2.2,0.8-3.3
				L916,631.2z"/>
			<linearGradient id="SVGID_33_" gradientUnits="userSpaceOnUse" x1="946.5653" y1="670.2131" x2="946.5653" y2="622.6052">
				<stop  offset="0" style="stop-color:#8B4047"/>
				<stop  offset="0.9721" style="stop-color:#B07C3B"/>
			</linearGradient>
			<path class="st37" d="M923.8,623.2c-0.7,0.7-1.3,1.5-1.7,2.4c-0.4,0.9-0.7,1.8-0.9,2.8c-0.4,1.9-0.4,3.9-0.2,5.9
				c0.2,2,0.5,3.9,1,5.9c0.5,1.9,1,3.9,1.7,5.7c0.7,1.9,1.4,3.7,2.3,5.5c0.9,1.8,1.9,3.5,3.1,5.1c2.4,3.2,5.4,6,8.7,8.2
				c3.3,2.2,7.1,3.6,11,3.9c3.9,0.2,7.8-0.7,11.4-2.3c3.6-1.6,6.7-4.1,9-7.3c1.1-1.6,2.1-3.4,2.8-5.2c0.3-0.9,0.6-1.9,0.8-2.9
				c0.2-1,0.2-2,0.1-3l0.1,0c0.3,1,0.4,2,0.3,3.1c-0.1,1-0.3,2-0.6,3c-0.6,2-1.4,3.9-2.5,5.7c-2.2,3.6-5.5,6.3-9.3,8.1
				c-3.8,1.8-8,2.6-12.2,2.2c-4.2-0.3-8.2-2.1-11.4-4.6c-1.7-1.2-3.2-2.6-4.6-4c-1.5-1.4-2.8-3-4-4.6c-2.5-3.2-4.7-6.7-6.2-10.5
				c-0.8-1.9-1.4-3.9-1.8-5.9c-0.5-2-0.8-4-0.9-6.1c-0.1-2.1,0.1-4.2,0.6-6.2c0.3-1,0.6-2,1.2-2.9c0.5-0.9,1.3-1.6,2.1-2.3
				L923.8,623.2z"/>
			<linearGradient id="SVGID_34_" gradientUnits="userSpaceOnUse" x1="941.6415" y1="671.7081" x2="941.6415" y2="620.8718">
				<stop  offset="0" style="stop-color:#8B4047"/>
				<stop  offset="0.9721" style="stop-color:#B07C3B"/>
			</linearGradient>
			<path class="st38" d="M910.4,621.1c-0.9,4.7-0.2,9.5,0.8,14.1c0.6,2.3,1.2,4.6,1.9,6.9c0.7,2.3,1.4,4.5,2.2,6.8
				c1.7,4.4,3.8,8.8,7,12.3c0.8,0.9,1.7,1.7,2.5,2.5l1.3,1.2c0.4,0.4,0.9,0.8,1.3,1.2c1.9,1.4,4,2.4,6.3,3l0,0l0.1,0
				c1.8,0.7,3.6,1.1,5.5,1.2c0.5,0,0.9,0,1.4,0c0.2,0,0.5,0,0.7,0l0.7-0.1l2.9-0.3l2.9-0.3c0.9-0.1,1.9-0.3,2.8-0.5
				c1.9-0.4,3.7-1,5.5-1.7l0,0l0,0c1.4-0.4,2.7-0.9,4-1.5c1.3-0.6,2.5-1.4,3.7-2.2c0.6-0.4,1.2-0.8,1.8-1.3l0.9-0.7
				c0.3-0.2,0.7-0.4,1.1-0.6c0.4-0.2,0.7-0.3,1-0.4c0.3-0.2,0.6-0.3,0.9-0.5c0.6-0.4,1.1-0.9,1.7-1.4l0,0l0,0c0.8-0.6,1.5-1.3,2-2.2
				l0,0c0.3-0.7,0.3-1.4,0.1-2.1l0.1-0.1c0.3,0.7,0.4,1.6,0.1,2.3l0,0l0,0c-0.5,0.9-1.1,1.8-1.9,2.5l0,0c-0.5,0.5-1,1.1-1.6,1.5
				c-0.3,0.2-0.6,0.5-1,0.7c-0.3,0.2-0.7,0.4-1,0.5c-0.3,0.2-0.6,0.3-0.8,0.5l-0.8,0.7c-0.6,0.5-1.2,0.9-1.8,1.4
				c-1.2,0.9-2.4,1.7-3.8,2.4c-1.3,0.7-2.7,1.3-4.2,1.7l0.1,0c-1.9,0.8-3.8,1.4-5.7,1.8c-1,0.2-2,0.4-3,0.5l-3,0.2l-2.9,0.2
				l-0.7,0.1c-0.3,0-0.5,0-0.8,0c-0.5,0-1,0-1.5-0.1c-2-0.2-4-0.7-5.9-1.5l0.1,0c-2.4-0.7-4.6-1.9-6.4-3.5c-0.5-0.4-0.9-0.8-1.3-1.3
				l-1.3-1.3l-1.3-1.3c-0.4-0.4-0.9-0.8-1.2-1.3c-1.6-1.8-3-3.8-4.3-5.8c-1.3-2-2.4-4.2-3.4-6.4c-1.9-4.4-3.4-9-4.3-13.8
				c-0.5-2.4-0.8-4.8-0.8-7.2c0-2.4,0.3-4.9,1-7.2L910.4,621.1z"/>
			<linearGradient id="SVGID_35_" gradientUnits="userSpaceOnUse" x1="943.0952" y1="673.4142" x2="943.0952" y2="618.1821">
				<stop  offset="0" style="stop-color:#8B4047"/>
				<stop  offset="0.9721" style="stop-color:#B07C3B"/>
			</linearGradient>
			<path class="st39" d="M919.2,618.9c-0.4,0.2-0.9,0.4-1.2,0.8c-0.3,0.3-0.3,0.8-0.4,1.3c-0.1,1-0.3,2-0.4,2.9
				c-0.2,2-0.3,3.9-0.3,5.9c0,3.9,0.4,7.8,1.1,11.7c0.7,3.9,1.6,7.7,3.2,11.3c0.8,1.8,1.8,3.5,3,5.1c1.1,1.6,2.4,3.1,3.8,4.5
				c1.4,1.4,2.9,2.7,4.4,3.8c1.6,1.1,3.3,2.1,5,2.9c3.5,1.7,7.2,2.8,11.1,2.6c3.9-0.1,7.8-0.8,11.5-2c3.7-1.2,7.3-2.8,10.3-5.4
				l0.1,0.1c-1.3,1.5-2.9,2.8-4.6,3.8c-1.7,1-3.5,1.9-5.4,2.6c-3.8,1.5-7.8,2.3-11.8,2.5c-2,0.1-4.2-0.1-6.1-0.6
				c-2-0.5-3.9-1.4-5.7-2.3c-1.8-0.9-3.5-2-5.1-3.3c-1.6-1.3-3-2.7-4.3-4.2c-1.3-1.5-2.5-3.2-3.6-4.8c-1.1-1.6-2.1-3.4-3-5.2
				c-1.7-3.6-3.1-7.4-4-11.3c-0.9-3.9-1.2-8-1.1-12c0.1-2,0.3-4,0.6-6c0.2-1,0.4-2,0.7-2.9c0.1-0.5,0.2-1,0.7-1.4
				c0.5-0.4,0.9-0.4,1.4-0.6L919.2,618.9z"/>
			<linearGradient id="SVGID_36_" gradientUnits="userSpaceOnUse" x1="945.1011" y1="671.8884" x2="945.1011" y2="616.2818">
				<stop  offset="0" style="stop-color:#8B4047"/>
				<stop  offset="0.9721" style="stop-color:#B07C3B"/>
			</linearGradient>
			<path class="st40" d="M914.8,616.3c0.3,4.4,0.2,8.9,0.4,13.3c0.2,4.4,0.8,8.8,1.6,13.1c0.8,4.3,2.2,8.5,4.4,12.4
				c2.2,3.8,5.1,7.2,8.6,9.9c0.9,0.7,1.7,1.4,2.6,2c0.9,0.6,1.9,1.1,2.8,1.6c2,0.9,4,1.5,6.2,1.8c2.1,0.3,4.3,0.2,6.4-0.1
				c2.2-0.3,4.3-0.7,6.4-1.2c4.2-1.1,8.3-2.8,12.1-5c1.9-1.1,3.7-2.3,5.5-3.6c0.9-0.7,1.8-1.3,2.6-2c0.4-0.4,0.8-0.7,1.1-1.2
				c0.3-0.4,0.5-1,0.4-1.5l0.1-0.1c0.1,0.3,0.1,0.6,0.1,0.9c-0.1,0.3-0.2,0.6-0.3,0.8c-0.3,0.5-0.6,0.9-1,1.4
				c-0.8,0.8-1.6,1.6-2.5,2.3c-1.7,1.4-3.5,2.8-5.4,4c-3.7,2.5-7.9,4.3-12.3,5.5c-2.2,0.6-4.4,1-6.6,1.2c-2.2,0.2-4.6,0.3-6.8-0.1
				c-2.3-0.4-4.5-1.1-6.5-2.1c-2-1-3.9-2.5-5.5-4c-3.4-2.9-6.2-6.5-8.5-10.3c-1.1-1.9-2.2-3.9-3.1-6c-0.9-2.1-1.6-4.2-2.1-6.4
				c-0.5-2.2-0.9-4.4-1.1-6.6c-0.1-1.1-0.2-2.2-0.3-3.3c-0.1-1.1-0.1-2.2-0.1-3.3c0-4.5,0.3-8.9,0.6-13.3L914.8,616.3z"/>
			<linearGradient id="SVGID_37_" gradientUnits="userSpaceOnUse" x1="940.8193" y1="673.0745" x2="940.8193" y2="624.4407">
				<stop  offset="0" style="stop-color:#8B4047"/>
				<stop  offset="0.9721" style="stop-color:#B07C3B"/>
			</linearGradient>
			<path class="st41" d="M904.7,624.6c-0.1,1.3-0.1,2.6,0.1,4c0.1,1.3,0.3,2.6,0.5,4c0.4,2.6,1,5.2,1.6,7.8c0.6,2.6,1.3,5.1,2.1,7.7
				c0.8,2.5,1.7,5,2.8,7.4c0.5,1.2,1.1,2.4,1.8,3.6c0.3,0.6,0.7,1.2,1,1.7c0.4,0.6,0.7,1.1,1.2,1.6c1.6,2.1,3.5,4,5.6,5.6
				c4.3,3.2,9.7,4.5,14.9,3.8l0,0l0.1,0c2,0,4-0.2,6-0.5c1-0.2,2-0.4,2.9-0.7c1-0.3,1.9-0.6,2.9-0.9c3.8-1.3,7.5-2.9,11.1-4.8
				c1.8-1,3.6-2,5.3-3c1.7-1.1,3.4-2.3,4.9-3.5c1.6-1.3,3.1-2.6,4.6-4c0.7-0.7,1.5-1.4,2.1-2.2c0.6-0.8,1.2-1.7,1.1-2.7l0.1,0
				c0.2,1.1-0.4,2.1-0.9,3c-0.6,0.9-1.2,1.7-1.9,2.4c-1.4,1.5-2.8,3-4.4,4.4c-1.5,1.4-3.2,2.6-4.9,3.8c-1.7,1.1-3.5,2.3-5.3,3.3
				c-3.6,2-7.4,3.8-11.4,4.9c-1,0.3-2,0.6-3,0.8c-1,0.3-2,0.5-3.1,0.6c-2.1,0.3-4.2,0.4-6.2,0.4l0.1,0c-5.5,0.5-11-1.3-15.3-4.6
				c-2.2-1.6-4.1-3.6-5.8-5.6c-0.4-0.5-0.9-1-1.3-1.6c-0.4-0.6-0.8-1.1-1.1-1.7c-0.7-1.1-1.4-2.3-2-3.5c-2.6-4.8-4.1-10-5.2-15.3
				c-0.6-2.6-1-5.3-1.3-8c-0.1-1.3-0.2-2.7-0.2-4c0-1.3,0-2.7,0.3-4L904.7,624.6z"/>
			<linearGradient id="SVGID_38_" gradientUnits="userSpaceOnUse" x1="940.8886" y1="665.168" x2="940.8886" y2="614.3886">
				<stop  offset="0" style="stop-color:#8B4047"/>
				<stop  offset="0.9721" style="stop-color:#B07C3B"/>
			</linearGradient>
			<path class="st42" d="M910.9,626c-0.5,0.4-1.1,0.8-1.6,1.4c-0.2,0.3-0.4,0.5-0.4,0.9c-0.1,0.3,0,0.6,0,1c0.2,1.3,0.9,2.5,1.5,3.8
				c1.2,2.5,2.6,5,4.1,7.3c3.1,4.7,6.8,8.8,11,12.5c2.1,1.9,4.3,3.6,6.6,5.1c2.3,1.5,4.8,2.9,7.4,4c5.1,2.2,10.9,2.7,16.4,1.7
				c1.4-0.3,2.7-0.6,4-1.1c1.3-0.4,2.6-0.9,3.8-1.6c1.2-0.6,2.3-1.4,3.4-2.3c1.1-0.9,1.9-1.9,2.6-3c0.7-1.1,1.2-2.4,1.5-3.7
				c0.4-1.3,0.6-2.7,0.6-4c0.2-2.7-0.2-5.4-0.9-8.1c-0.7-2.7-1.7-5.3-2.8-7.8c-1.1-2.5-2.5-4.9-4.2-7.2c-1.6-2.2-3.5-4.3-5.6-6.1
				c-2.1-1.7-4.6-3.1-7.4-3.7l0-0.1c2.8,0.3,5.5,1.5,7.8,3.2c2.3,1.7,4.4,3.7,6.1,6c1.8,2.3,3.3,4.7,4.5,7.3c1.3,2.6,2.3,5.2,3.1,8
				c1.5,5.5,1.4,11.8-1.6,16.9c-0.8,1.2-1.8,2.4-3,3.2c-1.1,0.9-2.4,1.7-3.7,2.3c-1.3,0.7-2.7,1.1-4,1.5c-1.4,0.4-2.8,0.7-4.2,0.9
				c-5.6,0.8-11.5,0.1-16.7-2c-5.3-2-10.2-5-14.6-8.6c-4.4-3.6-8.1-8-11.1-12.8c-1.5-2.4-2.8-5-3.8-7.6c-0.5-1.3-1.1-2.6-1.3-4.1
				c0-0.4,0-0.7,0.1-1.1c0.1-0.4,0.3-0.7,0.6-1c0.5-0.5,1.2-0.9,1.7-1.2L910.9,626z"/>
			<linearGradient id="SVGID_39_" gradientUnits="userSpaceOnUse" x1="944.4283" y1="660.0645" x2="944.4283" y2="609.8308">
				<stop  offset="0" style="stop-color:#8B4047"/>
				<stop  offset="0.9721" style="stop-color:#B07C3B"/>
			</linearGradient>
			<path class="st43" d="M919.4,613.3c-0.5,0.6-0.8,1.2-0.9,2c-0.1,0.7-0.1,1.5-0.1,2.2c0,1.5,0.2,3,0.4,4.4
				c0.5,2.9,1.4,5.8,2.4,8.6c2,5.7,4.9,10.9,8.7,15.5c3.8,4.5,8.5,8.6,14,10.9c1.4,0.6,2.8,1,4.3,1.4c1.5,0.3,2.9,0.5,4.4,0.5
				c3,0.1,5.9-0.6,8.5-1.8l-0.1,0c3.9-2.4,6.7-6.3,7.7-10.7c1-4.4,0.5-9.1-0.5-13.7c-1-4.5-2.6-8.9-5.1-12.9
				c-2.4-3.9-5.9-7.3-10.2-9.3l0.1-0.1c2.2,0.8,4.3,2,6.2,3.5c1.8,1.5,3.5,3.3,4.8,5.3c2.7,4,4.6,8.5,5.7,13.1
				c0.6,2.3,1,4.7,1.1,7.1c0.1,2.4,0,4.9-0.6,7.2c-1.1,4.8-4.3,9.1-8.6,11.4l0,0l0,0c-2.8,1.3-6,1.7-9.1,1.5
				c-1.5-0.1-3.1-0.3-4.5-0.7c-1.5-0.4-2.9-0.9-4.3-1.5c-2.8-1.2-5.4-2.8-7.8-4.6c-2.4-1.8-4.7-3.8-6.8-6.1c-1-1.1-2-2.3-2.9-3.5
				c-0.5-0.6-0.9-1.3-1.3-1.9c-0.4-0.7-0.8-1.3-1.2-2c-1.5-2.7-2.7-5.5-3.7-8.4c-1-2.9-1.7-5.9-2.1-8.9c-0.2-1.5-0.2-3.1-0.1-4.6
				c0.1-0.8,0.1-1.5,0.2-2.3c0.1-0.8,0.6-1.5,1.1-2L919.4,613.3z"/>
			<linearGradient id="SVGID_40_" gradientUnits="userSpaceOnUse" x1="946.9056" y1="670.5605" x2="946.9056" y2="610.2396">
				<stop  offset="0" style="stop-color:#8B4047"/>
				<stop  offset="0.9721" style="stop-color:#B07C3B"/>
			</linearGradient>
			<path class="st44" d="M923.1,612c-0.5,0.4-1.2,0.7-1.5,1.3l0,0c-0.3,1.7-0.7,3.3-0.8,4.9c-0.2,1.7-0.3,3.3-0.4,5
				c-0.1,3.3,0,6.7,0.3,10c0.1,1.7,0.4,3.3,0.5,5c0.2,1.6,0.5,3.3,0.8,4.9c0.4,1.6,0.8,3.2,1.4,4.8c0.6,1.6,1.2,3.2,1.7,4.7l0-0.1
				l2.7,5l0-0.1l3.4,4.5l0,0l3.8,3.5l0,0l3.9,2.4l0,0l4,1.4l0,0c1.2,0.2,2.4,0.4,3.6,0.3c1.2,0,2.4-0.2,3.5-0.5l0,0l0,0
				c1.8-0.1,3.6-0.7,5.2-1.6l0,0l0.1,0c1.8-0.6,3.4-1.5,4.9-2.7l0,0l0.1,0c1.5-0.8,2.9-2,4-3.4l0,0l0.1,0c1.3-1.2,2.4-2.5,3.2-4l0,0
				l0,0c2-3,3.7-6.3,4.5-9.8c0.4-1.7,0.6-3.6,0.7-5.4c0.1-1.8,0.1-3.6-0.1-5.4l0,0.1l-1.1-5.5l0,0.1l-1.9-5.2l0,0.1
				c-0.9-1.9-2.1-3.8-3.4-5.5c-1.4-1.7-2.8-3.3-4.5-4.6c-1.7-1.3-3.6-2.4-5.6-3.2c-2-0.8-4.2-1.3-6.4-1.6l0-0.2
				c2.2,0.1,4.4,0.4,6.6,1.2c2.1,0.7,4.1,1.7,6,3c1.9,1.3,3.5,2.9,4.9,4.6c1.4,1.7,2.7,3.6,3.7,5.6l0,0l0,0l2.1,5.1l0,0.1l0,0.1
				l1.2,5.5l0,0l0,0c0.2,1.9,0.3,3.8,0.2,5.7c-0.1,1.9-0.3,3.7-0.8,5.6c-0.9,3.8-2.7,7.2-4.8,10.2l0-0.1c-0.9,1.7-2.2,3.1-3.6,4.3
				l0.1-0.1c-1.2,1.5-2.7,2.7-4.4,3.6l0.1-0.1c-1.6,1.2-3.4,2.1-5.3,2.7l0.1,0c-1.7,0.9-3.7,1.4-5.6,1.5l0.1,0c-2.4,0.6-5,0.6-7.4,0
				l0,0l0,0l-4-1.4l0,0l0,0l-4-2.4l0,0l0,0l-3.9-3.4l0,0l0,0l-3.6-4.4l0,0l0,0l-2.9-4.9l0,0l0-0.1c-0.6-1.6-1.3-3.1-1.9-4.7
				c-0.6-1.6-1.1-3.2-1.5-4.9c-0.4-1.7-0.6-3.4-0.8-5.1c-0.2-1.7-0.4-3.3-0.5-5c-0.2-3.4-0.2-6.8,0-10.2c0.1-1.7,0.3-3.4,0.6-5
				c0.2-1.7,0.7-3.3,1.1-5l0,0l0,0c0.4-0.6,1.1-0.9,1.7-1.2L923.1,612z"/>
			<linearGradient id="SVGID_41_" gradientUnits="userSpaceOnUse" x1="936.4816" y1="675.3053" x2="936.4816" y2="610.4885">
				<stop  offset="0" style="stop-color:#8B4047"/>
				<stop  offset="0.9721" style="stop-color:#B07C3B"/>
			</linearGradient>
			<path class="st45" d="M910,618.6c-1,0.7-2,1.3-2.6,2.2c-0.7,0.9-1.2,2-1.6,3c-0.8,2.2-1.3,4.5-1.7,6.8c-0.7,4.6-0.5,9.3,0.3,13.9
				c0.8,4.6,2.2,9.1,4.3,13.2c1.1,2,2.4,4,3.8,5.8c1.5,1.8,3.1,3.5,4.9,4.9l0,0l3,1.9l1.5,0.9c0.5,0.3,1,0.5,1.6,0.8
				c1.1,0.5,2.2,0.8,3.3,1.1c1.1,0.3,2.3,0.4,3.5,0.6c2.3,0.4,4.7,0.5,7,0.4c2.4-0.1,4.7-0.5,7-1.1c2.3-0.6,4.5-1.3,6.7-2.2
				c2.2-0.9,4.3-1.9,6.2-3.2c1.9-1.3,3.7-2.8,5.2-4.5c1.5-1.7,2.8-3.7,3.8-5.8c1.9-4.2,2.9-8.8,2.9-13.5c0-2.3-0.3-4.6-0.8-6.9
				c-0.5-2.3-1.2-4.5-1.9-6.7c-1.6-4.4-3.8-8.6-6.9-12.1c-1.5-1.7-3.3-3.3-5.3-4.5c-2-1.2-4.3-1.9-6.6-2.5l0-0.1
				c2.3,0.5,4.7,1.1,6.8,2.2c2.1,1.1,4,2.7,5.7,4.4c3.4,3.4,5.8,7.8,7.5,12.2c1.7,4.5,3,9.2,3.1,14.1c0,4.9-1,9.7-3.1,14.1
				c-1.1,2.2-2.4,4.2-4.1,6.1c-1.6,1.8-3.5,3.4-5.6,4.7c-4.1,2.6-8.7,4.1-13.4,5.1c-4.7,1.1-9.6,1.1-14.2,0.3
				c-1.2-0.2-2.3-0.4-3.5-0.7c-1.2-0.3-2.3-0.7-3.4-1.1c-0.6-0.2-1.1-0.5-1.6-0.8l-1.5-0.9l-3.1-1.8l0,0l0,0c-2-1.4-3.7-3-5.3-4.8
				c-1.6-1.8-3-3.7-4.2-5.8c-2.3-4.2-3.7-8.9-4.4-13.6c-0.8-4.7-0.8-9.6,0.1-14.3c0.2-1.2,0.5-2.3,0.8-3.5c0.3-1.2,0.7-2.3,1.2-3.4
				c0.5-1.1,1.1-2.1,1.9-3.1c0.8-1,1.9-1.6,2.9-2.1L910,618.6z"/>
			<linearGradient id="SVGID_42_" gradientUnits="userSpaceOnUse" x1="937.4553" y1="680.785" x2="937.4553" y2="627.5803">
				<stop  offset="0" style="stop-color:#8B4047"/>
				<stop  offset="0.9721" style="stop-color:#B07C3B"/>
			</linearGradient>
			<path class="st46" d="M899.8,627.8c-0.9,1.4-1.5,2.9-1.8,4.4l0,0l0,0c-0.4,1.1-0.7,2.3-0.7,3.6l0,0l0,0c-0.4,2.8-0.4,5.7,0,8.5
				c0.4,2.8,1.2,5.6,2.3,8.2c1.1,2.6,2.5,5.1,4.2,7.4c1.7,2.3,3.6,4.4,5.8,6.3c4.2,3.9,9.1,7,14.3,9.4c5.2,2.4,10.8,4,16.5,4.3
				c5.7,0.4,11.5-0.3,16.8-2.5c5.3-2.2,9.8-5.9,13.2-10.4c1.7-2.3,3.1-4.8,4.2-7.4c1.2-2.6,2.3-5.2,2.9-8.1c0.3-1.4,0.6-2.8,0.5-4.2
				c0-1.4-0.8-2.7-0.9-4.2c-0.3-2.9,0.5-5.8-0.3-8.6l0.1,0c0.9,2.8,0.2,5.8,0.5,8.6c0.1,0.7,0.3,1.4,0.5,2.1
				c0.2,0.7,0.4,1.4,0.5,2.2c0.1,1.5-0.2,2.9-0.5,4.3c-0.6,2.8-1.6,5.6-2.8,8.2c-0.6,1.3-1.2,2.6-1.9,3.9c-0.7,1.3-1.5,2.5-2.4,3.7
				c-1.7,2.3-3.7,4.5-6,6.3c-2.3,1.8-4.8,3.3-7.5,4.4c-5.4,2.2-11.3,2.8-17.1,2.3c-5.8-0.4-11.4-2.1-16.6-4.6
				c-5.2-2.4-10.2-5.5-14.5-9.3c-2.2-1.9-4.2-4-5.9-6.3c-1.7-2.3-3.2-4.9-4.3-7.5c-1.1-2.7-1.9-5.5-2.2-8.4
				c-0.3-2.9-0.2-5.8,0.2-8.7l0,0c0.1-1.3,0.4-2.5,0.9-3.6l0,0C898.1,630.6,898.8,629.1,899.8,627.8L899.8,627.8z"/>
			<linearGradient id="SVGID_43_" gradientUnits="userSpaceOnUse" x1="932.2166" y1="683.6312" x2="932.2166" y2="616.3657">
				<stop  offset="0" style="stop-color:#8B4047"/>
				<stop  offset="0.9721" style="stop-color:#B07C3B"/>
			</linearGradient>
			<path class="st47" d="M908.6,623.2c-0.4,0.4-0.8,0.8-1.3,1.2c-0.5,0.4-0.9,0.8-1.3,1.2c-0.8,0.9-1.3,1.9-1.8,3
				c-1,2.1-1.7,4.4-2.2,6.6c-0.9,4.6-1.1,9.3-0.8,14c0.4,4.7,1.5,9.3,3.2,13.6c1.7,4.3,4.2,8.4,7.4,11.8c3.2,3.4,7.1,6.2,11.7,7.6
				c2.2,0.7,4.6,1,6.9,0.9c2.3-0.1,4.7-0.5,6.9-1.2c4.5-1.3,8.6-3.7,12.3-6.6c1.8-1.5,3.5-3.1,5-4.9c1.5-1.8,2.8-3.8,3.8-5.8l0,0
				l0,0c2.4-3.8,3.6-8.2,4.3-12.7c0.3-2.2,0.5-4.5,0.4-6.7c-0.1-2.2-0.3-4.5-0.7-6.7c-0.3-2.2-0.8-4.5-1.4-6.6
				c-0.6-2.2-1.3-4.3-2.3-6.4c-1-2-2.1-4-3.7-5.6c-1.5-1.6-3.6-2.9-5.9-3l0-0.1c2.3,0,4.5,1.3,6.1,2.9c1.7,1.6,2.9,3.6,3.9,5.6
				c1,2.1,1.8,4.2,2.4,6.4c0.6,2.2,1.2,4.4,1.5,6.7c0.4,2.3,0.7,4.5,0.8,6.8c0.1,2.3-0.1,4.6-0.4,6.9c-0.3,2.3-0.9,4.5-1.6,6.7
				c-0.7,2.2-1.7,4.3-2.9,6.3l0,0c-1.1,2.1-2.4,4.1-3.9,6c-1.6,1.8-3.3,3.4-5.2,4.9c-3.7,2.9-8,5.2-12.6,6.5c-2.3,0.6-4.6,1-7,1.1
				c-2.4,0.1-4.8-0.2-7-0.9c-2.3-0.7-4.4-1.7-6.4-3c-2-1.3-3.8-2.8-5.4-4.5c-3.3-3.4-5.9-7.4-7.8-11.8c-1.8-4.4-2.9-9.1-3.3-13.8
				c-0.3-4.7-0.1-9.5,0.9-14.1c0.5-2.3,1.3-4.6,2.4-6.7c0.5-1.1,1.1-2.1,2-3c0.4-0.4,0.9-0.8,1.3-1.2
				C907.6,624,908.1,623.6,908.6,623.2L908.6,623.2z"/>
			<linearGradient id="SVGID_44_" gradientUnits="userSpaceOnUse" x1="940.3038" y1="659.117" x2="940.3038" y2="604.4047">
				<stop  offset="0" style="stop-color:#8B4047"/>
				<stop  offset="0.9721" style="stop-color:#B07C3B"/>
			</linearGradient>
			<path class="st48" d="M922.6,614.3c-1,0.6-2,1.3-2.8,2.1c-0.8,0.8-1.4,1.9-2,2.9c-1.1,2.1-1.7,4.4-2.1,6.7
				c-0.4,2.3-0.6,4.7-0.6,7.1c0,2.4,0.4,4.7,1,7c1.2,4.5,3.8,8.7,7.3,11.8c1.8,1.5,3.7,2.8,5.9,3.6c2.2,0.8,4.5,1.2,6.8,1.2
				c4.7,0.1,9.3-1.4,13.4-3.8c2-1.2,3.9-2.7,5.6-4.3c1.7-1.7,3.1-3.6,4.3-5.6c2.4-4.1,3.9-8.8,3.9-13.6c0-4.8-1.8-9.4-4.3-13.3
				c-2.5-4-6.2-7.2-10.6-8.9c-4.3-1.7-9.3-2-13.5-0.1c-4.2,1.9-7.5,5.7-9,10c-0.8,2.2-1.1,4.5-1.1,6.8c0,2.3,0.3,4.7,0.8,7
				c0.4,2.3,1.1,4.6,1.9,6.8c0.4,1.1,0.9,2.2,1.4,3.2c0.5,1.1,1.1,2.1,1.7,3.1c1.2,2,2.5,4,4.1,5.7c1.6,1.7,3.4,3.2,5.4,4.5
				c2,1.3,4.1,2.3,6.3,3c2.3,0.6,4.6,0.9,7,0.6c4.7-0.5,9.1-2.7,13.1-5.2l0.1,0.1c-2,1.4-4,2.6-6.2,3.7c-2.2,1-4.5,1.8-6.9,2.2
				c-2.4,0.4-4.9,0.2-7.3-0.4c-2.4-0.6-4.7-1.6-6.7-2.9c-2.1-1.3-4-2.8-5.7-4.6c-1.7-1.8-3.1-3.8-4.4-5.9c-1.2-2.1-2.4-4.2-3.3-6.5
				c-0.9-2.3-1.6-4.6-2.1-7c-0.5-2.4-0.8-4.8-0.8-7.3c0-2.5,0.3-5,1.2-7.3c0.9-2.4,2.2-4.5,3.8-6.4c1.7-1.9,3.7-3.4,6-4.4
				c2.3-1,4.8-1.5,7.3-1.3c2.5,0.1,4.9,0.7,7.2,1.6c4.6,1.8,8.4,5.4,10.9,9.6c2.6,4.1,4.2,8.9,4.2,13.8c-0.1,4.9-1.6,9.6-4,13.8
				c-1.2,2.1-2.7,4.1-4.3,5.8c-1.7,1.8-3.5,3.3-5.6,4.6c-2.1,1.3-4.3,2.4-6.6,3.1c-2.3,0.8-4.8,1.2-7.2,1.2c-2.5,0-4.9-0.4-7.3-1.3
				c-2.3-0.9-4.5-2.2-6.3-3.9c-3.6-3.3-6.2-7.7-7.5-12.5c-1.3-4.8-1-9.8,0-14.5c0.5-2.4,1.3-4.7,2.5-6.8c0.6-1,1.3-2.1,2.2-2.9
				c0.9-0.8,2-1.4,3-2L922.6,614.3z"/>
			<linearGradient id="SVGID_45_" gradientUnits="userSpaceOnUse" x1="939.3149" y1="675.053" x2="939.3149" y2="607.7379">
				<stop  offset="0" style="stop-color:#8B4047"/>
				<stop  offset="0.9721" style="stop-color:#B07C3B"/>
			</linearGradient>
			<path class="st49" d="M937.1,608.5c-0.9,0.3-1.9,0.5-2.7,1c-0.8,0.6-1.5,1.2-2.2,2c-1.3,1.5-2.4,3.1-3.5,4.7
				c-2.2,3.3-4.1,6.7-5.7,10.3c-0.8,1.8-1.5,3.6-2.1,5.5c-0.6,1.9-1.2,3.7-1.6,5.6c-0.4,1.9-0.7,3.8-0.8,5.8c-0.1,1.9,0,3.9,0.3,5.8
				l0,0c0.4,1.8,1,3.6,1.8,5.2c0.8,1.7,1.8,3.2,3.2,4.4c2.8,2.5,6.2,4.1,9.8,4.9c3.6,0.8,7.4,0.8,11-0.1c1.8-0.4,3.5-1.1,5.2-1.8
				c1.7-0.7,3.4-1.6,4.9-2.6c1.6-1,3.1-2.1,4.5-3.3c1.4-1.2,2.7-2.6,3.8-4c2.3-2.9,4.1-6.2,5.2-9.8c1.1-3.5,1.7-7.3,1.3-11
				c-0.3-3.7-1.6-7.3-3.8-10.3c-2.2-3-5.2-5.4-8.7-6.9c-3.5-1.4-7.3-1.5-11.1-1.3c-3.8,0.2-7.5,1-11,2.3c-3.5,1.3-7,2.8-10.2,4.9
				c-3.2,2.1-6,4.5-8.6,7.3c-2.5,2.8-4.6,6-6,9.5c-0.7,1.7-1.2,3.5-1.5,5.4c-0.3,1.8-0.3,3.7,0,5.6c0.5,3.7,1.6,7.3,3.6,10.5
				c1.9,3.2,4.6,5.9,7.7,7.8c1.6,1,3.3,1.7,5,2.3c1.8,0.5,3.6,0.9,5.4,1.2c1.8,0.2,3.7,0.3,5.5,0.2c1.8-0.1,3.6-0.5,5.4-1
				c3.6-1,7.1-2.4,10.2-4.4c0.8-0.5,1.5-1,2.3-1.6c0.7-0.6,1.4-1.2,2.2-1.8c1.4-1.2,2.8-2.5,4-3.9c1.3-1.4,2.5-2.8,3.5-4.3
				c1.1-1.5,2-3.1,2.8-4.8c0.8-1.7,1.4-3.4,1.9-5.2c0.2-0.9,0.4-1.8,0.5-2.7c0.1-0.9,0.2-1.8,0.2-2.7c0-3.7-0.9-7.3-2.8-10.4
				c-1.9-3.1-4.8-5.6-8-7.3c-1.7-0.8-3.4-1.5-5.2-1.9c-1.8-0.4-3.6-0.7-5.5-0.8c-1.8-0.1-3.7,0-5.6,0.2c-1.8,0.2-3.7,0.5-5.5,1
				c-3.6,0.9-7.2,2.2-10.5,3.9c-3.3,1.8-6.3,4-9,6.7c-2.7,2.5-4.4,5.9-5.6,9.5c-1.2,3.5-1.8,7.3-1.7,11c0,3.8,0.6,7.5,2,11l0,0l0,0
				c0.6,2.8,1.8,5.5,3.4,7.8c0.8,1.2,1.7,2.3,2.7,3.4c1,1.1,2,2.1,3,3.1l-0.1,0.1c-1.1-1-2.1-2-3.1-3c-1-1.1-1.9-2.2-2.8-3.3
				c-1.7-2.3-3-5-3.7-7.9l0,0c-0.7-1.8-1.3-3.6-1.6-5.5c-0.4-1.9-0.5-3.8-0.6-5.7c-0.2-3.8,0.4-7.7,1.6-11.4
				c0.6-1.8,1.3-3.6,2.2-5.3c0.9-1.7,2.1-3.3,3.5-4.6c2.7-2.7,5.8-5.1,9.2-6.9c3.4-1.9,7-3.2,10.7-4.2c3.7-1,7.6-1.5,11.5-1.3
				c1.9,0.1,3.9,0.4,5.8,0.8c1.9,0.4,3.7,1.2,5.5,2c3.5,1.8,6.5,4.5,8.6,7.8c2.1,3.3,3.1,7.3,3.1,11.2c0,1-0.1,2-0.2,2.9
				c-0.1,1-0.3,1.9-0.5,2.9c-0.5,1.9-1.2,3.7-2,5.5c-0.8,1.8-1.9,3.4-3,5c-1.1,1.6-2.4,3.1-3.7,4.5c-1.3,1.4-2.7,2.7-4.2,4
				c-0.7,0.6-1.5,1.2-2.3,1.8c-0.8,0.6-1.6,1.1-2.4,1.6c-3.3,2-6.9,3.5-10.6,4.5c-0.9,0.2-1.8,0.5-2.8,0.7c-1,0.2-1.9,0.3-2.9,0.4
				c-1.9,0.1-3.9,0-5.8-0.3c-1.9-0.3-3.8-0.7-5.6-1.3c-1.8-0.6-3.6-1.4-5.3-2.5c-3.3-2.1-6-5-8-8.3c-2-3.3-3.1-7.1-3.6-10.9
				c-0.2-1.9-0.2-3.9,0.1-5.8c0.3-1.9,0.9-3.8,1.6-5.5c1.4-3.6,3.6-6.8,6.2-9.6c2.6-2.8,5.5-5.3,8.7-7.4c3.2-2.1,6.7-3.6,10.3-4.9
				c3.6-1.3,7.3-2.2,11.2-2.4c3.8-0.2,7.7-0.1,11.3,1.3c3.6,1.4,6.7,3.9,9.1,7c2.3,3.1,3.7,6.9,4.1,10.7c0.4,3.8-0.1,7.8-1.2,11.4
				c-1.1,3.7-2.9,7.2-5.3,10.2c-1.2,1.5-2.5,2.9-4,4.2c-1.4,1.3-3,2.4-4.6,3.5c-1.6,1-3.3,2-5.1,2.7c-1.8,0.8-3.6,1.4-5.5,1.9
				c-3.8,0.8-7.8,0.8-11.6,0c-3.8-0.9-7.4-2.6-10.3-5.3c-1.5-1.3-2.6-3-3.5-4.8c-0.8-1.8-1.4-3.6-1.8-5.5l0,0l0,0
				c-0.3-2-0.3-4-0.2-6c0.2-2,0.5-4,0.9-5.9c0.4-2,1.1-3.8,1.7-5.7c0.6-1.9,1.4-3.7,2.2-5.5c1.7-3.6,3.7-7,6-10.2
				c1.2-1.6,2.3-3.2,3.7-4.6c0.7-0.7,1.4-1.4,2.3-1.9c0.9-0.5,1.9-0.7,2.8-1L937.1,608.5z"/>
			<linearGradient id="SVGID_46_" gradientUnits="userSpaceOnUse" x1="938.8209" y1="680.256" x2="938.8209" y2="608.3035">
				<stop  offset="0" style="stop-color:#8B4047"/>
				<stop  offset="0.9721" style="stop-color:#B07C3B"/>
			</linearGradient>
			<path class="st50" d="M968.8,619.8c-1.4-1.8-3.2-3.3-5.2-4.5c-2-1.2-4-2.2-6.2-3c-4.4-1.5-8.9-2.7-13.5-2.5
				c-2.3,0-4.6,0.3-6.8,0.7c-2.3,0.4-4.5,1-6.6,1.8c-1.1,0.4-2.1,0.8-3.2,1.3c-0.5,0.2-1,0.5-1.5,0.8l-0.8,0.4l-0.7,0.4
				c-2,1.1-3.9,2.5-5.6,4c-3.5,3-6.3,6.8-8,11.2c-0.8,2.2-1.4,4.4-1.7,6.7c-0.3,2.3-0.4,4.6-0.4,6.9c0.1,4.6,1.4,9.1,3.1,13.4
				c1.7,4.3,3.9,8.4,7.1,11.6l0,0l3.3,2.8c0.3,0.2,0.5,0.5,0.8,0.7l0.8,0.6c0.6,0.4,1.2,0.8,1.8,1.1c1.2,0.7,2.5,1.3,3.8,1.7
				c1.4,0.5,2.7,1,4.1,1.4c2.7,0.8,5.6,1.4,8.4,1.6c0.7,0.1,1.4,0.1,2.1,0.1l2.2-0.1l4.4-0.2l-0.1,0l5.2-1.1
				c1.8-0.3,3.4-0.8,5.1-1.4c3.3-1.2,6.5-2.8,9.4-4.9l0.1,0.1c-1.4,1.2-2.8,2.2-4.4,3.1c-1.6,0.9-3.2,1.7-4.8,2.4
				c-0.8,0.3-1.7,0.7-2.5,1c-0.9,0.3-1.7,0.5-2.6,0.7l-5.2,1.3l0,0l-0.1,0l-4.4,0.3l-2.2,0.2c-0.8,0-1.5,0-2.2,0
				c-3-0.1-5.9-0.7-8.8-1.5c-1.4-0.4-2.8-0.9-4.2-1.4c-1.4-0.5-2.8-1.1-4.1-1.9c-0.7-0.4-1.3-0.8-1.9-1.2c-0.3-0.2-0.6-0.4-0.9-0.7
				c-0.3-0.2-0.6-0.5-0.8-0.7l-3.3-2.9l0,0l0,0c-3.3-3.5-5.6-7.8-7.2-12.2c-1.6-4.4-2.8-9.1-2.7-13.8c0-2.4,0.2-4.7,0.6-7
				c0.4-2.3,1-4.6,1.9-6.8c1.7-4.4,4.5-8.3,8-11.5c1.7-1.6,3.6-3.1,5.6-4.3c2-1.2,4.1-2.3,6.3-3.2c1.1-0.5,2.2-0.8,3.4-1.1
				c1.2-0.3,2.3-0.6,3.5-0.8c2.3-0.5,4.7-0.7,7.1-0.7c2.4-0.1,4.8,0.3,7.1,0.8c2.3,0.5,4.5,1.3,6.7,2.1c2.2,0.8,4.3,1.9,6.2,3.3
				c1.9,1.4,3.7,3,5,5L968.8,619.8z"/>
			<linearGradient id="SVGID_47_" gradientUnits="userSpaceOnUse" x1="934.1796" y1="680.8756" x2="934.1796" y2="612.0607">
				<stop  offset="0" style="stop-color:#8B4047"/>
				<stop  offset="0.9721" style="stop-color:#B07C3B"/>
			</linearGradient>
			<path class="st51" d="M940.7,613.1c-1.4-0.1-2.8-0.3-4.2-0.4c-1.4-0.1-2.8-0.1-4.2,0c-2.8,0.2-5.6,0.8-8.2,1.8
				c-2.6,1-5.1,2.4-7.4,4.1c-2.3,1.7-4.4,3.5-6.4,5.6c-1.9,2-3.6,4.3-4.9,6.8c-1.3,2.5-2.3,5.2-3.1,7.9c-0.7,2.7-1.2,5.6-1.3,8.4
				c-0.1,2.8,0.1,5.7,0.6,8.5l0,0l0,0c0.2,1.8,0.6,3.6,1.3,5.3l0,0l0,0c0.4,1.7,1.1,3.4,2.2,4.8l0,0l0,0c0.7,1.5,1.7,2.9,2.9,4l0,0
				l0,0c1,1.3,2.2,2.4,3.6,3.2l0,0l0,0c2.8,2,5.8,3.7,9,5l0,0l0,0c1.4,0.7,3,1.2,4.5,1.3l0,0l0,0c1.7,0.4,3.4,0.6,5.1,0.5l0,0l0,0
				c2,0.2,4.1,0.1,6.1-0.2l0,0l0,0c2.3-0.1,4.5-0.5,6.6-1.1l0,0l0,0c2.2-0.3,4.4-1,6.5-2l0,0l0,0c2.1-0.7,4.2-1.6,6.1-2.8l0,0l0,0
				c1.9-0.9,3.8-2.1,5.4-3.4l0,0l0,0c2.3-1.5,4.4-3.2,6.3-5.1l0.1,0.1c-1.8,2-3.9,3.8-6.1,5.3l0,0c-1.7,1.4-3.5,2.6-5.5,3.6l0,0
				c-1.9,1.3-4,2.3-6.2,3l0,0c-2.1,1-4.3,1.8-6.6,2.2l0,0c-2.2,0.7-4.5,1.1-6.8,1.2l0.1,0c-2.1,0.4-4.2,0.5-6.3,0.3l0.1,0
				c-1.8,0.1-3.6-0.1-5.3-0.6l0.1,0c-1.7-0.2-3.3-0.7-4.8-1.4l0,0c-3.2-1.3-6.3-3-9.1-5.1l0,0c-1.5-0.9-2.7-2.1-3.7-3.5l0,0
				c-1.3-1.2-2.3-2.6-2.9-4.2l0,0c-1-1.5-1.8-3.2-2.2-5l0,0c-0.7-1.7-1.1-3.6-1.3-5.4l0,0c-0.5-2.8-0.7-5.7-0.5-8.5
				c0.1-2.9,0.5-5.7,1.2-8.5c1.4-5.5,3.8-10.9,7.9-15.1c2-2.1,4.1-4,6.5-5.6c2.3-1.7,4.9-3.1,7.6-4.1c2.7-1,5.5-1.5,8.4-1.7
				c1.4-0.1,2.9,0,4.3,0.1C937.9,612.6,939.3,612.8,940.7,613.1L940.7,613.1z"/>
			<linearGradient id="SVGID_48_" gradientUnits="userSpaceOnUse" x1="940.8686" y1="677.0712" x2="940.8686" y2="615.3109">
				<stop  offset="0" style="stop-color:#8B4047"/>
				<stop  offset="0.9721" style="stop-color:#B07C3B"/>
			</linearGradient>
			<path class="st52" d="M927,616.1c-1.4,0.3-2.8,0.6-4.1,1.3c-1.3,0.7-2.5,1.4-3.6,2.3c-2.3,1.7-4.1,4-5.5,6.4
				c-1.4,2.5-2.5,5.1-3.4,7.9c-0.9,2.7-1.8,5.5-2.6,8.3c-0.8,2.8-1.4,5.6-1.7,8.4c-0.3,2.9-0.1,5.8,0.7,8.5c0.8,2.8,2.3,5.3,4.2,7.5
				c0.9,1.1,2,2.1,3.1,3c1.1,0.9,2.3,1.7,3.6,2.4c1.2,0.8,2.6,1.3,3.9,1.8c1.4,0.4,2.7,0.9,4.1,1.1c2.8,0.5,5.7,0.7,8.5,0.5
				c5.7-0.4,11.2-2.1,16.5-4.4c5.2-2.4,10.2-5.3,14.7-8.9c2.2-1.8,4.3-3.8,6.2-6c0.9-1.1,1.9-2.2,2.8-3.3c0.4-0.6,0.9-1.2,1.2-1.8
				c0.4-0.6,0.8-1.2,0.8-1.9l0.1,0c0.1,0.4-0.1,0.8-0.2,1.1c-0.1,0.3-0.3,0.7-0.5,1c-0.4,0.6-0.7,1.3-1.1,1.9
				c-0.8,1.2-1.7,2.4-2.6,3.6c-1.8,2.3-3.8,4.4-6,6.4c-2.2,1.9-4.6,3.7-7,5.3c-2.5,1.6-5.1,3-7.7,4.2c-2.7,1.2-5.5,2.2-8.3,3
				c-2.9,0.8-5.8,1.2-8.7,1.4c-3,0.2-5.9-0.1-8.8-0.8c-0.7-0.2-1.5-0.3-2.1-0.6l-2.1-0.7c-1.3-0.6-2.7-1.2-3.9-2.1
				c-2.5-1.5-4.8-3.5-6.7-5.7c-1.9-2.2-3.4-4.9-4.2-7.7c-0.9-2.8-1.2-5.8-1.1-8.7c0.1-2.9,0.6-5.9,1.3-8.7c0.7-2.8,1.6-5.6,2.5-8.4
				c1-2.8,2.1-5.5,3.7-8c1.5-2.5,3.6-4.8,6-6.5c1.2-0.9,2.5-1.5,3.9-2.1c1.4-0.6,2.8-0.8,4.3-1L927,616.1z"/>
		</g>
		<path class="st53" d="M908.8,649.5c0,0,6.4,19.4,14.9,24.3c0,0-14-4.6-21.9-21.7c0,0,6.7,18.2,22.9,24.2c0,0-14.6,1.5-24.1-11.9
			c0,0,5.4,13.9,31.1,13c25.8-1,33.2-9.2,33.2-9.2s-15.8,7.4-28,7.8c0,0,12.6-0.9,25.8-10.6c0,0-16.8,10.1-29.9,5.8
			C919.7,666.9,908.8,649.5,908.8,649.5z"/>
		<path class="st53" d="M925.8,666.7c0,0,10.6,10.7,26.1-1.3C951.8,665.4,943.4,666,925.8,666.7z"/>
		<path class="st53" d="M914.2,647c0,0,5,13.3,19.3,16.7C933.5,663.7,917.3,664.9,914.2,647z"/>
		<path class="st54" d="M919.4,623c0,0,13.5-8.4,28.8-7.3c15.4,1.1,20.2,13.6,20.2,13.6s-5.8-12.3-21-12.5S919.4,623,919.4,623z"/>
		<path class="st54" d="M923.8,618.1c0,0,3.8-12.2,14.4-13.6c10.5-1.3,18.1,6.4,18.1,6.4s-11.9-9.8-21.9-3.9
			C924.5,612.9,923.8,618.1,923.8,618.1z"/>
		<path class="st54" d="M905.6,620.7c0,0,17-13.4,27.9-14.6C933.5,606,919.4,604.9,905.6,620.7z"/>
		<path class="st54" d="M928.4,612.4c0,0,17.4-10.1,34.2,1.8C962.6,614.2,948.5,605.1,928.4,612.4z"/>
		<path class="st54" d="M927.6,663.6c0,0,26.5,6.5,40-19.9C967.7,643.7,960.8,670.2,927.6,663.6z"/>
		<path class="st54" d="M960.5,665.1c0,0,13.2-7.5,9.9-29.8C970.4,635.3,978.3,652.4,960.5,665.1z"/>
		<path class="st54" d="M912.1,642.9c0,0,2.8,21,22.4,27.6C934.5,670.4,913.8,668.6,912.1,642.9z"/>
		<polygon class="st53" points="932.2,646.2 931.2,640.9 934.2,650 		"/>
		<polygon class="st53" points="929.5,650.8 927.8,650.8 932.9,653.2 		"/>
		<polygon class="st53" points="895.4,633.5 896.6,629.3 896.6,634.5 		"/>
		<polygon class="st53" points="973.6,663.4 978.2,659.4 972.2,666.8 		"/>
		<polygon class="st53" points="956.3,679.6 965.1,677.4 958.1,680.2 		"/>
		<polygon class="st53" points="909.2,674.7 914.5,680.5 910.6,677.7 		"/>
		<polygon class="st53" points="925.9,683.7 927.6,686.9 934.5,685.3 		"/>
		<polygon class="st54" points="919.4,608.4 932.5,601.2 940.1,602.3 		"/>
	</g>
</g>
</svg>
