<?xml version="1.0" encoding="utf-8"?>
<!-- Generator: Adobe Illustrator 24.2.3, SVG Export Plug-In . SVG Version: 6.00 Build 0)  -->
<svg version="1.1" xmlns="http://www.w3.org/2000/svg" xmlns:xlink="http://www.w3.org/1999/xlink" x="0px" y="0px"
	 viewBox="0 0 1220 800" style="enable-background:new 0 0 1220 800;" xml:space="preserve">
<style type="text/css">
	.st0{display:none;}
	.st1{display:inline;}
	.st2{fill:url(#SVGID_1_);}
	.st3{opacity:0.26;fill:#491F0D;enable-background:new    ;}
	.st4{opacity:7.000000e-02;fill:#FFC350;enable-background:new    ;}
	.st5{opacity:0.11;enable-background:new    ;}
	.st6{fill:url(#SVGID_2_);}
	.st7{fill-rule:evenodd;clip-rule:evenodd;fill:url(#SVGID_3_);}
	.st8{fill-rule:evenodd;clip-rule:evenodd;fill:url(#SVGID_4_);}
	.st9{fill-rule:evenodd;clip-rule:evenodd;fill:url(#SVGID_5_);}
	.st10{fill-rule:evenodd;clip-rule:evenodd;fill:url(#SVGID_6_);}
	.st11{fill-rule:evenodd;clip-rule:evenodd;fill:url(#SVGID_7_);}
	.st12{fill-rule:evenodd;clip-rule:evenodd;fill:url(#SVGID_8_);}
	.st13{fill-rule:evenodd;clip-rule:evenodd;fill:url(#SVGID_9_);}
	.st14{fill-rule:evenodd;clip-rule:evenodd;fill:url(#SVGID_10_);}
	.st15{fill-rule:evenodd;clip-rule:evenodd;fill:url(#SVGID_11_);}
	.st16{fill-rule:evenodd;clip-rule:evenodd;fill:url(#SVGID_12_);}
	.st17{fill-rule:evenodd;clip-rule:evenodd;fill:url(#SVGID_13_);}
	.st18{fill-rule:evenodd;clip-rule:evenodd;fill:url(#SVGID_14_);}
	.st19{fill-rule:evenodd;clip-rule:evenodd;fill:url(#SVGID_15_);}
	.st20{fill-rule:evenodd;clip-rule:evenodd;fill:url(#SVGID_16_);}
	.st21{fill-rule:evenodd;clip-rule:evenodd;fill:url(#SVGID_17_);}
	.st22{fill-rule:evenodd;clip-rule:evenodd;fill:url(#SVGID_18_);}
	.st23{fill-rule:evenodd;clip-rule:evenodd;fill:url(#SVGID_19_);}
	.st24{fill-rule:evenodd;clip-rule:evenodd;fill:url(#SVGID_20_);}
	.st25{fill-rule:evenodd;clip-rule:evenodd;fill:url(#SVGID_21_);}
	.st26{display:inline;fill:url(#SVGID_22_);}
	.st27{fill:url(#SVGID_23_);}
	.st28{fill:url(#SVGID_24_);}
	.st29{fill:url(#SVGID_25_);}
	.st30{fill:url(#SVGID_26_);}
	.st31{fill:url(#SVGID_27_);}
	.st32{fill:url(#SVGID_28_);}
	.st33{fill:url(#SVGID_29_);}
	.st34{fill:url(#SVGID_30_);}
	.st35{fill:url(#SVGID_31_);}
	.st36{fill:url(#SVGID_32_);}
	.st37{fill:url(#SVGID_33_);}
	.st38{fill:url(#SVGID_34_);}
	.st39{fill:url(#SVGID_35_);}
	.st40{fill:url(#SVGID_36_);}
	.st41{fill:url(#SVGID_37_);}
	.st42{fill:url(#SVGID_38_);}
	.st43{fill:url(#SVGID_39_);}
	.st44{fill:url(#SVGID_40_);}
	.st45{fill:url(#SVGID_41_);}
	.st46{fill:url(#SVGID_42_);}
	.st47{fill:url(#SVGID_43_);}
	.st48{fill:url(#SVGID_44_);}
	.st49{fill:url(#SVGID_45_);}
	.st50{fill:url(#SVGID_46_);}
	.st51{fill:url(#SVGID_47_);}
	.st52{fill-rule:evenodd;clip-rule:evenodd;fill:#6F3647;}
	.st53{fill-rule:evenodd;clip-rule:evenodd;fill:#D3A14F;}
</style>
<g id="Capa_2" class="st0">
	<g class="st1">
		
			<linearGradient id="SVGID_1_" gradientUnits="userSpaceOnUse" x1="890.2554" y1="-207.66" x2="647.4418" y2="226.3446" gradientTransform="matrix(1 0 0 -1 0 800)">
			<stop  offset="0" style="stop-color:#D54A00"/>
			<stop  offset="1" style="stop-color:#962100"/>
		</linearGradient>
		<path class="st2" d="M1185.7,439l-25.8-29.6c0,0-8.6-20.1-14.3-34.4c-4.8-42.1-5.7-54.5-5.7-54.5l-7.7-10.5v-16.2l-41.1-9.6
			l-49.7,18.2l-16.2,72.6l-11.5,44.9c0,0-34.4,11.5-36.3,25.8c-1,7.3-5.9,33-10.6,56.5c-5.3,27-22.5,50.2-46.9,63.2
			c-44,23.4-113.9,60.9-144.2,79.2c-38.6,23.3-141.9,11.4-194,12.8c2.2-7.2,5.8-20.2,3.9-20.6c-1.9-0.4-5.1,13.6-6.6,20.7
			c-0.1,0-0.3,0-0.4,0c0-5.7,0-24.3-2.2-24.1c-1.5,0.1-1.3,8.4-0.8,15.5c-1.6-7-3.7-14.7-5.1-14.3c-1.9,0.6,1.9,14,3.9,21.1
			c-5.8-4.5-12.8-9.7-13.7-8.5c-0.8,1.2,5.8,6.4,11.6,10.6c-5.6,0.4-10.2,1-13.8,2c-34.2,9.6-170.9,1.9-214.9,6.7
			S115,699.9,115,699.9v68.3h1103.2V502.1L1185.7,439z"/>
		<path class="st3" d="M1013.6,419.9c0,0,19.6,6.5,23.2,14.3c3.6,7.9,7.2,45.9,7.2,45.9l13.6,46.1l16.5,100.9h-47.3l-6.5-86
			c0,0-0.7-13.6,4.3-30.1c5-16.5,2.2-28,2.2-28l-13.1-19.4L1013.6,419.9L1013.6,419.9z"/>
		<path class="st4" d="M939,571.4l9.3-5.1c9-5,15.6-13.4,18.1-23.4c3.7-14.3,8.8-34.3,10.3-40.8c2.4-10.5,5.3-53.1,5.3-53.1
			l5.5-16.4c-5.4,3.8-9.6,8.3-10.3,13.1c-1,7.3-5.9,33-10.6,56.5c-5.3,27-22.5,50.2-46.9,63.2c-27.4,14.5-64.8,34.5-96.4,52
			L939,571.4z"/>
		<path class="st4" d="M1043.9,380.8c-0.4-15.8,5.1-73.6,5.1-73.6l19.9-14.9l-27.6,10.1l-16.2,72.7l-11.5,44.9l15.9,7.3
			C1029.6,427.3,1044.3,396.6,1043.9,380.8z"/>
		<path class="st3" d="M1216.4,498.5l-30.7-59.5l-25.8-29.6c0,0-8.6-20.1-14.3-34.4c-4.8-42.1-5.7-54.5-5.7-54.5l-7.7-10.5v-16.2
			l-41.1-9.6v44.7l3.8,16.5l5.4,21.9l14.7,43.7l2.2,33.7l-3.6-21.1l-9.3-23.3l-13.1-3.2c0,0-6.2,7.9-8.4,17.9s0,93.9,0,93.9
			l21.5,105.4l4.3,38.7h63.8h45.9v-147L1216.4,498.5z"/>
		<path class="st4" d="M1087.6,398.4l-20.6,8.7c-4.2,1.8-7.3,5.4-8.4,9.8l-8.3,33.1l2.3,16.9l9.1-18.2l4.8-34.9L1087.6,398.4z"/>
		<path class="st5" d="M645.6,658.6c0.3,0.1,67.1,13.7,95.4,21.6c28.4,7.9,86.5,0,110.8,0s64.5,10,64.5,10l35.8-37.3
			c0,0-97.5,1.4-134.8,0s-76.4,2.6-76.4,2.6l0,0C713.4,659.9,678.2,659.5,645.6,658.6z"/>
	</g>
</g>
<g id="Capa_5">
	<g id="SHAPE-2">
		
			<linearGradient id="SVGID_2_" gradientUnits="userSpaceOnUse" x1="594.3763" y1="4.5746" x2="594.3763" y2="116.7894" gradientTransform="matrix(-1 0 0 -1 1423.7561 800)">
			<stop  offset="0" style="stop-color:#D54A00"/>
			<stop  offset="0.998" style="stop-color:#731700"/>
		</linearGradient>
		<path class="st6" d="M438.8,749h781.1V600.9c0,0-95.8,9-160.9,31.5c-65.1,22.5-69.1-14.3-119.2-12.7
			c-50.1,1.6-78.6,27.3-122.6,36.8c-44,9.6-69.6,0-138.7,9.8c-69.1,9.8-217,51.7-217,51.7L438.8,749z"/>
	</g>
</g>
<g id="Capa_3" class="st0">
	<g class="st1">
		<g>
			<linearGradient id="SVGID_3_" gradientUnits="userSpaceOnUse" x1="750.2453" y1="678.4813" x2="750.2453" y2="607.0048">
				<stop  offset="0" style="stop-color:#4F0C00"/>
				<stop  offset="0.9653" style="stop-color:#4F0C00"/>
			</linearGradient>
			<polygon class="st7" points="735.3,678.1 733,669.5 719.3,656.5 701.8,634.5 698.8,594.5 704.6,631.3 711.5,627.5 705.4,634.5 
				722.1,654.1 736.3,667.4 745.4,647.7 737.1,633.5 747.5,645.6 753.5,639.2 773.5,631.3 778.7,619.5 776.3,631.3 801.7,622.3 
				777.7,634.5 771.9,634.2 757.9,640.4 749.3,649.7 744.6,661 762.2,656.8 741.4,667 739.4,678.1 			"/>
			<linearGradient id="SVGID_4_" gradientUnits="userSpaceOnUse" x1="694.5987" y1="619.5627" x2="694.5987" y2="607.8015">
				<stop  offset="0" style="stop-color:#4F0C00"/>
				<stop  offset="0.9653" style="stop-color:#4F0C00"/>
			</linearGradient>
			<polygon class="st8" points="700.7,619.5 688.5,605.7 700.4,615.9 			"/>
			<linearGradient id="SVGID_5_" gradientUnits="userSpaceOnUse" x1="693.2499" y1="650.0683" x2="712.3279" y2="650.0683">
				<stop  offset="0" style="stop-color:#4F0C00"/>
				<stop  offset="0.9653" style="stop-color:#4F0C00"/>
			</linearGradient>
			<polygon class="st9" points="715.7,651.9 693.3,649.5 712.7,648.2 			"/>
			<linearGradient id="SVGID_6_" gradientUnits="userSpaceOnUse" x1="753.4216" y1="618.4865" x2="766.9152" y2="618.4865">
				<stop  offset="0" style="stop-color:#4F0C00"/>
				<stop  offset="0.9653" style="stop-color:#4F0C00"/>
			</linearGradient>
			<polygon class="st10" points="753.5,639.2 759.8,597.8 758.6,620.6 769.3,616.4 757.7,628.8 756.3,638.1 			"/>
		</g>
		<linearGradient id="SVGID_7_" gradientUnits="userSpaceOnUse" x1="782.8881" y1="628.7199" x2="790.5217" y2="628.7199">
			<stop  offset="0" style="stop-color:#4F0C00"/>
			<stop  offset="0.9653" style="stop-color:#4F0C00"/>
		</linearGradient>
		<polygon class="st11" points="782.9,629 787,629.8 790.5,628 786.7,627.6 		"/>
		<linearGradient id="SVGID_8_" gradientUnits="userSpaceOnUse" x1="758.7799" y1="623.5012" x2="766.4917" y2="623.5012">
			<stop  offset="0" style="stop-color:#4F0C00"/>
			<stop  offset="0.9653" style="stop-color:#4F0C00"/>
		</linearGradient>
		<polygon class="st12" points="766.5,619.4 763.8,619.6 759.5,624.6 759.5,626.7 758.8,627.6 		"/>
		<linearGradient id="SVGID_9_" gradientUnits="userSpaceOnUse" x1="764.5528" y1="617.3401" x2="769.271" y2="617.3401">
			<stop  offset="0" style="stop-color:#4F0C00"/>
			<stop  offset="0.9653" style="stop-color:#4F0C00"/>
		</linearGradient>
		<polygon class="st13" points="764.6,618.3 767.5,618.3 769.3,616.4 		"/>
		<linearGradient id="SVGID_10_" gradientUnits="userSpaceOnUse" x1="758.0233" y1="604.0116" x2="759.7653" y2="604.0116">
			<stop  offset="0" style="stop-color:#4F0C00"/>
			<stop  offset="0.9653" style="stop-color:#4F0C00"/>
		</linearGradient>
		<polygon class="st14" points="758,609.3 759.1,610.2 759.8,597.8 		"/>
		<linearGradient id="SVGID_11_" gradientUnits="userSpaceOnUse" x1="708.1422" y1="642.4398" x2="712.1867" y2="642.4398">
			<stop  offset="0" style="stop-color:#4F0C00"/>
			<stop  offset="0.9653" style="stop-color:#4F0C00"/>
		</linearGradient>
		<polygon class="st15" points="710.7,640.8 708.1,642.5 709.4,644.1 712.2,642.5 		"/>
		<linearGradient id="SVGID_12_" gradientUnits="userSpaceOnUse" x1="710.9941" y1="646.0844" x2="715.6587" y2="646.0844">
			<stop  offset="0" style="stop-color:#4F0C00"/>
			<stop  offset="0.9653" style="stop-color:#4F0C00"/>
		</linearGradient>
		<polygon class="st16" points="711,646.1 714.8,645.6 715.7,646.6 		"/>
		<linearGradient id="SVGID_13_" gradientUnits="userSpaceOnUse" x1="737.1383" y1="636.7338" x2="742.0103" y2="636.7338">
			<stop  offset="0" style="stop-color:#4F0C00"/>
			<stop  offset="0.9653" style="stop-color:#4F0C00"/>
		</linearGradient>
		<polygon class="st17" points="740.9,640 742,639.2 737.1,633.5 		"/>
		<linearGradient id="SVGID_14_" gradientUnits="userSpaceOnUse" x1="738.344" y1="656.479" x2="744.3252" y2="656.479">
			<stop  offset="0" style="stop-color:#4F0C00"/>
			<stop  offset="0.9653" style="stop-color:#4F0C00"/>
		</linearGradient>
		<polygon class="st18" points="744.3,650.1 744.3,651.9 740.4,660.4 738.3,662.9 		"/>
		<linearGradient id="SVGID_15_" gradientUnits="userSpaceOnUse" x1="744.3252" y1="654.1911" x2="746.1891" y2="654.1911">
			<stop  offset="0" style="stop-color:#4F0C00"/>
			<stop  offset="0.9653" style="stop-color:#4F0C00"/>
		</linearGradient>
		<polygon class="st19" points="745.5,651.9 744.3,654.5 744.9,656.5 746.2,651.9 		"/>
		<linearGradient id="SVGID_16_" gradientUnits="userSpaceOnUse" x1="725.6676" y1="664.4944" x2="734.5679" y2="664.4944">
			<stop  offset="0" style="stop-color:#4F0C00"/>
			<stop  offset="0.9653" style="stop-color:#4F0C00"/>
		</linearGradient>
		<polygon class="st20" points="725.7,662.6 728.1,664.6 734.6,666.4 		"/>
		<linearGradient id="SVGID_17_" gradientUnits="userSpaceOnUse" x1="750.8903" y1="659.9426" x2="756.7482" y2="659.9426">
			<stop  offset="0" style="stop-color:#4F0C00"/>
			<stop  offset="0.9653" style="stop-color:#4F0C00"/>
		</linearGradient>
		<polygon class="st21" points="750.9,659.5 753.5,661.1 756.7,659.5 753.8,658.8 		"/>
		<linearGradient id="SVGID_18_" gradientUnits="userSpaceOnUse" x1="756.7482" y1="657.446" x2="762.247" y2="657.446">
			<stop  offset="0" style="stop-color:#4F0C00"/>
			<stop  offset="0.9653" style="stop-color:#4F0C00"/>
		</linearGradient>
		<polygon class="st22" points="756.7,658.1 759.6,658.1 762.2,656.8 		"/>
		<linearGradient id="SVGID_19_" gradientUnits="userSpaceOnUse" x1="749.6403" y1="642.4589" x2="753.8193" y2="642.4589">
			<stop  offset="0" style="stop-color:#4F0C00"/>
			<stop  offset="0.9653" style="stop-color:#4F0C00"/>
		</linearGradient>
		<polygon class="st23" points="749.6,643.3 753.8,641.6 750.9,642 		"/>
		<linearGradient id="SVGID_20_" gradientUnits="userSpaceOnUse" x1="692.2818" y1="611.3678" x2="695.6145" y2="611.3678">
			<stop  offset="0" style="stop-color:#4F0C00"/>
			<stop  offset="0.9653" style="stop-color:#4F0C00"/>
		</linearGradient>
		<polygon class="st24" points="693.5,610 695.6,613.8 692.3,610 692.3,609 		"/>
		<linearGradient id="SVGID_21_" gradientUnits="userSpaceOnUse" x1="698.8031" y1="600.137" x2="700.4768" y2="600.137">
			<stop  offset="0" style="stop-color:#4F0C00"/>
			<stop  offset="0.9653" style="stop-color:#4F0C00"/>
		</linearGradient>
		<polygon class="st25" points="699.6,605.7 700.5,605.1 698.8,594.5 		"/>
	</g>
</g>
<g id="Capa_1" class="st0">
	
		<linearGradient id="SVGID_22_" gradientUnits="userSpaceOnUse" x1="610" y1="-64.1259" x2="610" y2="43.6658" gradientTransform="matrix(1 0 0 -1 0 800)">
		<stop  offset="0" style="stop-color:#A13400"/>
		<stop  offset="0.9961" style="stop-color:#4F0C00"/>
	</linearGradient>
	<path class="st26" d="M1078.1,690.9c-26.7-7.7-55.1-11.3-109.5-20.1c-6.2-1-45.3-6.6-47.8-6.9c0,0,0,0,0,0
		c-63.5-7.6-89.6-3.4-163.9,7.6c-15,2.2-28.5,4.5-41.2,6.5c-3.3-0.3-7-0.4-9.7,0.4c-6,1.7-16.2-0.4-21.6,0c-10,0.7-38.8,10-38.8,10
		c-21.6,2.2-43.6,3.1-69.8,1.8c-27.9-1.4-67.2-6.5-107.9-12.2c0-0.7-20-2.8-20-2.8c-37.6-5.4-75-10.9-104.8-14.3
		c3.1-0.9-38-3.2-38-3.2c-60.9-1.2-106.6,14.2-141.5,22.2C123.3,689.2,0,707.5,0,707.5V800h163.8h914.3H1220v-80.8
		C1174.3,719.6,1112.9,700.9,1078.1,690.9z"/>
</g>
<g id="Capa_4" class="st0">
	<g class="st1">
		<g>
			<linearGradient id="SVGID_23_" gradientUnits="userSpaceOnUse" x1="847.7942" y1="671.5851" x2="847.7942" y2="600.5903">
				<stop  offset="0" style="stop-color:#8B4047"/>
				<stop  offset="0.9721" style="stop-color:#B07C3B"/>
			</linearGradient>
			<path class="st27" d="M882.2,628.1c-1.5-5.4-5.1-10-9-13.8c-2-2-4.1-3.8-6.4-5.3c-2.3-1.5-4.8-2.8-7.5-3.4
				c-2.7-0.6-5.5-0.6-8.1,0.1c-2.6,0.7-5,2.2-7,4c-4.1,3.6-7.1,8.4-9.6,13.3c-2.6,4.9-4.5,10.1-5.2,15.5c-0.3,2.7-0.4,5.4,0,8.1
				c0.2,1.3,0.4,2.7,0.8,4c0.3,1.3,0.8,2.5,1.4,3.7c1.2,2.4,3.1,4.4,5.3,6c1.1,0.8,2.3,1.6,3.4,2.1c1.2,0.6,2.5,0.9,3.8,1.2
				c2.7,0.5,5.4,0.4,8.1-0.2c0.7-0.1,1.3-0.3,2-0.5c0.6-0.2,1.3-0.5,1.9-0.8l3.8-1.7l0,0c2.5-1.4,4.7-3.3,6.4-5.5l0,0l0,0
				c2-2,3.6-4.3,4.8-6.8c1.2-2.5,2.1-5.2,2.5-8l0,0l0,0c0.8-3,1-6,0.8-9.1l0,0l-0.6-3.8c-0.2-1.3-0.4-2.5-0.7-3.7
				c-0.6-2.4-1.6-4.8-2.7-7l0,0l0,0c-0.7-1.9-1.8-3.8-3.1-5.4c-1.3-1.6-2.9-3.1-4.4-4.4c-1.6-1.3-3.3-2.5-5.2-3.2
				c-0.9-0.4-1.9-0.7-2.9-0.8c-1-0.2-2-0.2-3.1-0.2c-4.1,0-8.2,1-12.1,2.5l-1.5,0.6c-0.5,0.2-1,0.4-1.5,0.5c-1,0.4-1.9,0.8-2.8,1.3
				c-1.8,0.9-3.6,2.1-5.2,3.3l0.1-0.1l-5.7,5.4l0.1-0.1c-2.6,2.8-4.7,6.1-6.3,9.6l0,0.1l0,0.1c-0.9,1.4-1.6,3-2.1,4.6
				c-0.5,1.6-0.9,3.2-1.1,4.9c-0.3,3.4-0.2,6.8,0.4,10.2l0,0.1l0,0.1c0.1,3.6,1.1,7.1,2.8,10.2l-0.1-0.2c1.5,1.6,2.7,3.2,4.2,4.6
				c1.4,1.4,3,2.5,4.9,2.7c0.9,0.1,2.1,0.1,3.3,0.6c1.1,0.5,2.1,1,3,1.5c1.8,1,3.7,1.9,5.6,2.6c3.8,1.5,7.9,2.5,12,2.5
				c4.1-0.1,8.2-0.9,12.1-2.2c7.8-2.7,14.8-8,19.2-15.1c2.3-3.5,3.3-7.7,3.5-11.8c0.1-2.1,0-4.2-0.5-6.2L882.2,628.1z M882.4,628.1
				l1.5,6.1c0.5,2.1,0.6,4.2,0.6,6.3c-0.1,4.2-1.2,8.5-3.4,12.1c-4.2,7.4-11.3,13-19.2,16.1c-4,1.6-8.2,2.5-12.5,2.7
				c-4.4,0.1-8.6-0.9-12.7-2.3c-2-0.7-4-1.7-5.8-2.7c-1-0.5-1.8-0.9-2.7-1.4c-0.8-0.3-1.8-0.3-2.9-0.5c-1.2-0.2-2.3-0.6-3.3-1.2
				c-1-0.6-1.9-1.3-2.7-2.1c-1.6-1.5-2.9-3.2-4.3-4.7l-0.1-0.1l-0.1-0.1c-1.9-3.4-3-7.2-3.2-11.1l0,0.1c-0.6-3.6-0.7-7.2-0.3-10.8
				c0.2-1.8,0.6-3.6,1.2-5.3c0.6-1.7,1.4-3.4,2.4-4.9l-0.1,0.1c1.7-3.7,4-7.1,6.7-10l0,0l0,0l5.8-5.3l0,0l0,0
				c1.7-1.3,3.6-2.5,5.6-3.4c1-0.5,2-0.9,3-1.3c0.5-0.2,1-0.4,1.5-0.5l1.5-0.6c4-1.5,8.3-2.5,12.7-2.4c1.1,0,2.2,0.1,3.3,0.3
				c1.1,0.2,2.2,0.6,3.2,1c2,0.9,3.8,2.1,5.5,3.6c0.8,0.7,1.6,1.5,2.3,2.2c0.7,0.8,1.5,1.6,2.2,2.4c1.3,1.7,2.4,3.7,3.1,5.7l0,0
				c1.1,2.3,2,4.7,2.6,7.2c0.3,1.2,0.5,2.5,0.7,3.8l0.6,3.8l0,0l0,0c0.3,3.1,0,6.3-0.8,9.3l0,0c-0.4,2.8-1.3,5.6-2.5,8.2
				c-1.2,2.6-2.9,5-4.9,7.1l0,0c-1.8,2.3-4,4.3-6.6,5.8l0,0l0,0l-3.8,1.8c-0.6,0.3-1.2,0.6-1.9,0.9c-0.7,0.3-1.4,0.5-2.1,0.6
				c-2.8,0.7-5.7,0.9-8.5,0.4c-1.4-0.2-2.8-0.6-4.2-1.2c-1.4-0.6-2.6-1.3-3.7-2.2c-2.3-1.7-4.4-3.8-5.9-6.4c-0.7-1.3-1.3-2.7-1.6-4
				c-0.4-1.4-0.7-2.8-0.9-4.2c-0.4-2.8-0.4-5.7-0.1-8.6c0.6-5.7,2.8-11.1,5.5-16.1c2.7-4.9,5.8-9.8,10.2-13.5c2.2-1.9,4.8-3.3,7.6-4
				c2.8-0.7,5.8-0.7,8.5,0.1c2.8,0.7,5.3,2.1,7.6,3.7c2.3,1.6,4.4,3.5,6.4,5.5c2,2,3.8,4.1,5.4,6.4
				C880.4,622.8,881.7,625.4,882.4,628.1z"/>
			<linearGradient id="SVGID_24_" gradientUnits="userSpaceOnUse" x1="854.4425" y1="684.8944" x2="854.4425" y2="588.1086">
				<stop  offset="0" style="stop-color:#8B4047"/>
				<stop  offset="0.9721" style="stop-color:#B07C3B"/>
			</linearGradient>
			<path class="st28" d="M856.7,598.4l-4.5-0.9l0,0c-1.5,0-3,0.1-4.5,0.5c-1.4,0.4-2.9,0.8-4.3,1.4c-2.8,1.2-5.4,2.8-7.8,4.6
				c-4.9,3.6-9.2,8-12.5,13c-1.6,2.5-3,5.2-4,8c-1,2.8-1.8,5.8-2.3,8.7c-0.5,3-0.7,6-0.5,8.9c0.3,3,0.9,5.9,1.9,8.7
				c0.5,1.4,1.1,2.8,1.8,4.1c0.7,1.3,1.5,2.6,2.3,3.8c0.9,1.2,1.9,2.3,2.9,3.3c1.1,1,2.3,1.9,3.5,2.6c5.2,2.9,11.2,4.4,17.2,4.5
				c6,0,12-1.2,17.7-3.2c5.7-2.1,11.1-5.1,16-8.7c4.9-3.6,9.7-7.5,13.5-12.2c3.9-4.7,6.9-10.1,7.9-16.1c0.5-3,0.6-6,0.3-9
				c-0.3-3-1.1-5.9-2.3-8.7c-2.4-5.5-6.3-10.3-11-14.1c-4.6-3.8-10.3-6.3-16.2-7.2c-1.5-0.2-2.9-0.4-4.4-0.4c-1.5,0-3,0-4.5,0.1
				c-3,0.2-6,0.6-8.9,1.3c-5.9,1.3-11.6,3.3-16.8,6.4c-5.2,3-10,6.7-14,11.2l0,0l0,0c-2.8,2.6-5.3,5.5-7.4,8.7l-1.5,2.4
				c-0.5,0.8-1,1.6-1.4,2.5c-0.9,1.7-1.7,3.4-2.4,5.2c-0.7,1.8-1.2,3.6-1.7,5.4c-0.2,0.9-0.3,1.8-0.4,2.8c-0.1,0.9-0.2,1.9-0.3,2.8
				c-0.3,3.8-0.1,7.6,0.5,11.4l0-0.1l2.4,9.9l0-0.1c1.6,4.5,4.1,8.6,7.3,12.1c3.2,3.5,7.1,6.4,11.5,8.3c2.2,1,4.5,1.7,6.8,2.2
				c2.3,0.5,4.7,0.7,7.1,0.9c4.8,0.2,9.7-0.2,14.4-1.2l0,0.2c-4.7,1.2-9.6,1.7-14.5,1.7c-2.4-0.1-4.9-0.1-7.3-0.6
				c-2.4-0.5-4.8-1.2-7-2.1c-4.5-1.9-8.7-4.8-12.1-8.3c-3.4-3.5-6.1-7.8-7.9-12.5l0,0l0-0.1l-2.6-9.9l0,0l0,0
				c-0.6-3.9-0.9-7.9-0.7-11.8c0.1-2,0.3-3.9,0.7-5.9c0.5-2,1-3.8,1.7-5.7c0.7-1.9,1.5-3.7,2.5-5.4c0.5-0.9,1-1.7,1.5-2.6l1.6-2.5
				c2.2-3.3,4.8-6.4,7.7-9.1l-0.1,0.1c2.1-2.3,4.4-4.5,6.8-6.4c2.5-1.9,5-3.6,7.7-5.2c5.4-3.1,11.4-5.2,17.4-6.5
				c3-0.6,6.1-1.1,9.2-1.2c1.5-0.1,3.1-0.1,4.7-0.1c1.6,0,3.2,0.2,4.7,0.5c6.2,1.1,12.1,3.7,16.8,7.8c4.7,4,8.6,9.1,11,14.8
				c1.2,2.9,2,5.9,2.2,9c0.3,3.1,0.1,6.2-0.4,9.2c-0.6,3-1.6,6-3,8.7c-1.4,2.7-3.2,5.3-5.2,7.6c-4,4.7-8.7,8.7-13.6,12.4
				c-4.9,3.6-10.3,6.8-16,9c-5.7,2.3-11.9,3.6-18.1,3.7c-6.2,0.1-12.5-1.4-18-4.4c-1.4-0.8-2.7-1.7-3.9-2.8
				c-1.2-1.1-2.3-2.2-3.2-3.5c-1.9-2.5-3.3-5.4-4.4-8.3c-1-3-1.7-6-1.9-9.2c-0.2-3.1,0-6.3,0.6-9.3c0.6-3.1,1.4-6,2.4-9
				c1.1-2.9,2.6-5.7,4.3-8.2c3.5-5.1,8-9.5,13-13.1c2.5-1.8,5.2-3.3,8.1-4.4c1.4-0.6,2.9-1,4.4-1.3c1.5-0.3,3.1-0.4,4.6-0.3l0,0l0,0
				l4.5,1.1L856.7,598.4z"/>
			<linearGradient id="SVGID_25_" gradientUnits="userSpaceOnUse" x1="873.1529" y1="670.5087" x2="873.1529" y2="597.4515">
				<stop  offset="0" style="stop-color:#8B4047"/>
				<stop  offset="0.9721" style="stop-color:#B07C3B"/>
			</linearGradient>
			<path class="st29" d="M876,598.4c-3.7,1.9-7,4.4-10.2,7.1c-3.1,2.7-6.2,5.5-9,8.5c-2.8,3-5.4,6.2-7.9,9.5
				c-2.5,3.3-4.6,6.8-6,10.7l0,0l0,0c-0.7,1.5-1.3,3.1-1.7,4.7c-0.4,1.6-0.7,3.3-0.8,4.9l0,0l0.1,4c0,1.3,0,2.7,0.3,3.9
				c0.4,2.6,1.6,5,3.3,6.9l0,0l0,0.1c0.8,1.4,1.8,2.8,3,3.9c1.2,1.1,2.5,2.1,4,2.8l-0.1,0l6.1,2.4l-0.2-0.1c2.1,0.4,4.3,0.6,6.4,0.6
				c2.2,0,4.3-0.1,6.4-0.5l0.1,0l0.1,0c3.1-0.2,6.3-0.5,9.4-1c3.1-0.5,6.1-1.3,9.2-2.2c3.1-0.9,6.1-1.8,9.1-2.8c3-1,6-2.1,9-3.3
				l0.1,0.2c-2.8,1.5-5.7,2.9-8.7,4.1c-3,1.2-5.9,2.4-9,3.4c-3,1-6.2,2-9.3,2.6c-3.2,0.6-6.4,1.1-9.6,1.2l0.1,0
				c-2.2,0.3-4.5,0.5-6.8,0.5c-2.3-0.1-4.5-0.3-6.8-0.7l-0.1,0l-0.1,0l-6.1-2.6l-0.1,0l0,0c-1.6-0.9-3-2-4.3-3.3
				c-1.3-1.3-2.3-2.8-3-4.4l0.1,0.1c-1.7-2.2-2.8-4.9-3.1-7.6c-0.2-1.4-0.1-2.7-0.1-4.1l0-4l0,0l0,0c0.2-1.7,0.4-3.4,0.8-5
				c0.4-1.6,0.9-3.3,1.6-4.8l0,0c1.2-4,3.1-7.9,5.5-11.4c2.3-3.5,5-6.8,7.9-9.8c2.9-3,6.2-5.7,9.5-8.3c3.4-2.5,7-4.8,10.9-6.2
				L876,598.4z"/>
			<linearGradient id="SVGID_26_" gradientUnits="userSpaceOnUse" x1="870.2002" y1="644.1842" x2="870.2002" y2="608.2723">
				<stop  offset="0" style="stop-color:#8B4047"/>
				<stop  offset="0.9721" style="stop-color:#B07C3B"/>
			</linearGradient>
			<path class="st30" d="M924.6,637.7c-3.3,2.1-7,3.4-10.8,4.2c-1.9,0.4-3.8,0.7-5.7,0.9c-1.9,0.3-3.8,0.5-5.7,0.6
				c-7.7,0.8-15.4,0.4-23.1-0.1c-7.7-0.5-15.3-0.9-23-2.1c-3.8-0.6-7.6-1.7-11.2-3c-1.8-0.6-3.7-1.2-5.5-2c-1.8-0.8-3.6-1.6-5.3-2.6
				l0,0l0,0l-5.7-3.9l0,0l0,0c-3.3-2.8-6.3-6-8.6-9.6l0,0c-1-1.8-1.8-3.7-2.5-5.6c-0.6-1.9-1.2-3.9-1.5-5.9l0.2-0.1
				c1.3,3.8,2.8,7.5,5,10.8l0,0c2.6,3.3,5.5,6.3,8.8,8.8l-0.1-0.1l5.8,3.8l-0.1,0c1.6,0.9,3.3,1.7,5.1,2.5c1.7,0.8,3.4,1.4,5.3,2.1
				c3.6,1.4,7.1,2.5,10.8,3.4c7.4,1.7,15,2.8,22.7,3c7.7,0.2,15.3-0.5,22.9-1c7.6-0.7,15.3-1,22.3-4.1L924.6,637.7z"/>
			<linearGradient id="SVGID_27_" gradientUnits="userSpaceOnUse" x1="868.2072" y1="668.2552" x2="868.2072" y2="594.6641">
				<stop  offset="0" style="stop-color:#8B4047"/>
				<stop  offset="0.9721" style="stop-color:#B07C3B"/>
			</linearGradient>
			<path class="st31" d="M820.4,595.3c-0.7,1.2-1.3,2.6-1.8,3.9c-0.6,1.4-1.2,2.7-1.7,4c-1.1,2.7-2,5.4-2.7,8.2
				c-0.7,2.8-1,5.6-1.2,8.5c-0.2,2.9-0.1,5.7,0.2,8.6l0-0.1l1.3,6.8l0-0.2c0.9,2.3,1.8,4.5,2.6,6.8l-0.1-0.2c1.3,2,2.6,4.1,3.9,6.2
				l-0.1-0.1l4.8,5l-0.1-0.1l4.6,3.2c1.5,1.1,3.1,2,4.8,2.8c1.7,0.8,3.4,1.6,5.1,2.3c0.9,0.3,1.7,0.6,2.6,0.9l2.7,0.9
				c3.6,1.1,7.2,2,10.9,2.6l2.8,0.4c0.9,0.2,1.8,0.3,2.7,0.4c1.8,0.2,3.7,0.2,5.5,0.1l0,0l0.1,0c3.2,0.2,6.3,0,9.4-0.7l0,0l0.1,0
				c3.3-0.3,6.6-1,9.8-2.1l0.1,0l0.1,0c3.1-0.6,6.1-1.7,9-3.1l0.1,0l0.1,0c2.8-1,5.4-2.3,7.8-4l0.1,0l0.1,0c2.5-1.3,4.8-2.9,6.9-4.8
				l0.1-0.1l0.1,0c2.1-1.4,4-3.1,5.6-5l0.1-0.1l0.1,0c1.5-1.2,2.8-2.8,3.7-4.6l0-0.1l0-0.1c1.1-1.4,1.9-2.9,2.3-4.6l0-0.1l0-0.1
				c0.8-1.5,1.1-3.2,1.1-4.9l0-0.1l0-0.1c0.4-1.7,0.3-3.5-0.4-5.1l0-0.1l0-0.1c-0.2-2-1-3.9-2.2-5.5l0,0l0,0
				c-1.7-3.1-3.7-5.9-6.1-8.5l0.1-0.1c2.7,2.3,4.8,5.2,6.8,8.1l0-0.1c1.4,1.7,2.4,3.7,2.7,5.9l0-0.2c0.9,1.8,1.2,4,0.7,6l0-0.2
				c0.2,1.9-0.2,4-1.1,5.7l0.1-0.2c-0.4,1.9-1.2,3.8-2.5,5.4l0.1-0.2c-1,2-2.4,3.9-4.1,5.3l0.1-0.1c-1.7,2.1-3.7,3.9-5.9,5.4
				l0.1-0.1c-2.2,2-4.7,3.8-7.3,5.2l0.1-0.1c-2.5,1.8-5.4,3.2-8.3,4.2l0.1-0.1c-3,1.5-6.2,2.5-9.5,3.1l0.1,0
				c-3.3,1.1-6.8,1.8-10.3,1.9l0.1,0c-3.3,0.6-6.6,0.8-9.9,0.5l0.1,0c-1.9,0.1-3.8,0-5.7-0.3c-0.9-0.1-1.9-0.3-2.8-0.5l-2.8-0.5
				c-3.7-0.8-7.3-1.7-10.9-2.9c-1.8-0.6-3.5-1.2-5.3-1.9c-1.8-0.7-3.5-1.4-5.2-2.2c-1.7-0.8-3.4-1.7-5-2.7l-4.8-3l0,0l-0.1,0
				l-5.1-4.8l0,0l-0.1-0.1c-1.4-2-2.8-4-4.1-6l0-0.1l0-0.1c-0.9-2.3-1.8-4.5-2.7-6.8l0-0.1l0-0.1l-1.2-6.8l0,0l0,0
				c-0.3-3-0.3-5.9,0-8.9c0.3-2.9,0.8-5.9,1.6-8.7c0.8-2.8,1.8-5.6,3.1-8.2c0.6-1.3,1.3-2.6,2-3.9c0.6-1.3,1.3-2.6,2.2-3.8
				L820.4,595.3z"/>
			<linearGradient id="SVGID_28_" gradientUnits="userSpaceOnUse" x1="867.6246" y1="658.85" x2="867.6246" y2="598.145">
				<stop  offset="0" style="stop-color:#8B4047"/>
				<stop  offset="0.9721" style="stop-color:#B07C3B"/>
			</linearGradient>
			<path class="st32" d="M815.1,613.5c-0.9,1.3-1.4,2.7-1.6,4.3c-0.2,1.5-0.1,3.1,0.1,4.6c0.4,3,1.3,6,2.3,8.9
				c2.1,5.8,5.5,11,10.2,14.9c4.7,3.9,10.4,6.4,16.1,8.5c2.9,1,5.8,1.9,8.8,2.5c3,0.6,6.1,0.8,9.1,0.9c6.1,0.1,12.3-0.6,18.3-1.8
				c6-1.2,12-3,17.5-5.6c2.8-1.3,5.4-2.9,8-4.6c2.6-1.7,5-3.5,7.3-5.6c2.3-2,4.4-4.3,6.1-6.8c1.7-2.5,3.1-5.3,3.5-8.2l0,0l0.2-4.9
				l0,0.2l-1.4-4.7l0,0.1c-1.2-2.5-3-4.8-5.2-6.5l0,0l0,0c-1.4-1.6-3-2.9-4.8-3.8l0,0l0,0c-1.6-1.1-3.3-2-5.1-2.8
				c-1.8-0.8-3.6-1.5-5.5-2c-3.7-1.1-7.6-1.7-11.5-1.8c-3.9-0.1-7.8,0.3-11.7,1.1c-3.8,0.8-7.6,2.1-10.9,4.1l0,0l-4.6,3.5l0,0
				c-2.4,2.4-4.2,5.3-5.3,8.5l-0.1,0c0.9-3.3,2.7-6.3,5.1-8.8l0,0l0,0l4.6-3.6l0,0l0,0c3.4-2.1,7.2-3.5,11-4.4
				c3.9-0.8,7.8-1.3,11.8-1.3c4,0,8,0.6,11.8,1.7c1.9,0.6,3.8,1.3,5.6,2.1c1.8,0.8,3.6,1.8,5.2,2.9l0,0c1.9,1,3.7,2.4,5.1,4.1
				l-0.1-0.1c2.3,1.9,4.1,4.2,5.4,6.9l0,0l0,0l1.3,4.7l0,0.1l0,0.1l-0.2,4.9l0,0l0,0c-0.4,3.2-1.9,6.1-3.7,8.6
				c-1.8,2.5-4,4.8-6.4,6.8c-2.4,2-4.9,3.9-7.5,5.5c-2.6,1.7-5.3,3.2-8.1,4.5c-5.6,2.6-11.6,4.3-17.7,5.5c-6,1.2-12.2,2-18.4,2
				c-3.1,0-6.2-0.1-9.3-0.7c-3.1-0.5-6.1-1.4-9-2.4c-2.9-1-5.8-2.2-8.6-3.6c-2.8-1.4-5.4-3.1-7.8-5.1c-4.8-4-8.3-9.5-10.3-15.4
				c-1-2.9-1.8-5.9-2.1-9c-0.1-1.5-0.1-3.1,0.1-4.7C813.5,616.2,814,614.7,815.1,613.5L815.1,613.5z"/>
			<linearGradient id="SVGID_29_" gradientUnits="userSpaceOnUse" x1="878.3564" y1="636.4507" x2="878.3564" y2="586.3949">
				<stop  offset="0" style="stop-color:#8B4047"/>
				<stop  offset="0.9721" style="stop-color:#B07C3B"/>
			</linearGradient>
			<path class="st33" d="M845.4,624.3c0.8,1.7,1.6,3.4,2.8,4.7c1.3,1.3,2.9,2.3,4.5,3.1c3.4,1.5,7,2.4,10.6,2.9
				c7.3,0.9,14.8,0.6,22-1.2c3.6-0.9,7.1-2.2,10.4-3.9c3.3-1.7,6.4-3.8,9-6.4c2.6-2.6,4.8-5.7,5.7-9.3c0.4-1.8,0.6-3.6,0.5-5.5
				c-0.1-1.8-0.4-3.7-1-5.3l0,0l-2.4-4.1l0,0.1l-3.4-3.8l0,0c-3.3-3-7.3-5.1-11.5-6.5c-4.2-1.4-8.7-2-13.1-1.7
				c-2.2,0.2-4.4,0.4-6.6,1c-2.1,0.6-4.2,1.4-6.1,2.6c-3.8,2.2-7.3,5.2-9.7,9l0,0l0,0c-1.1,1.3-1.9,2.9-2.4,4.5l0,0l0,0
				c-1.1,2.2-1.9,4.6-2.2,7.1l-0.1,0c0.2-2.5,0.9-5,2-7.3l0,0c0.5-1.7,1.3-3.3,2.4-4.7l0,0c2.4-3.9,5.9-7,9.7-9.4
				c1.9-1.2,4-2.2,6.3-2.8c2.2-0.6,4.5-0.9,6.8-1c4.5-0.3,9.2,0.2,13.5,1.7c4.3,1.4,8.4,3.7,11.8,6.8l0,0l0,0l3.4,3.9l0,0l0,0
				l2.3,4.2l0,0l0,0c0.7,1.8,0.9,3.7,1,5.6c0,1.9-0.1,3.8-0.6,5.6c-1.1,3.6-3.3,6.8-5.9,9.4c-2.6,2.7-5.7,4.8-9,6.6
				c-3.3,1.8-6.8,3.2-10.4,4.2c-3.6,1-7.3,1.6-11.1,1.8c-3.7,0.2-7.5,0-11.2-0.6c-3.7-0.5-7.3-1.6-10.7-3.2
				c-1.7-0.8-3.3-1.9-4.5-3.3C846.7,627.8,846,626,845.4,624.3L845.4,624.3z"/>
			<linearGradient id="SVGID_30_" gradientUnits="userSpaceOnUse" x1="861.854" y1="679.3049" x2="861.854" y2="592.1188">
				<stop  offset="0" style="stop-color:#8B4047"/>
				<stop  offset="0.9721" style="stop-color:#B07C3B"/>
			</linearGradient>
			<path class="st34" d="M808.9,650c0.3,1.5,0.5,2.9,0.9,4.3c0.3,1.4,0.9,2.8,1.5,4.1c1.2,2.6,3,5.1,5,7.1c2.1,2.1,4.5,3.7,7.1,5
				c2.6,1.4,5.3,2.5,8.1,3.4c5.6,1.8,11.4,2.9,17.2,3.2c5.8,0.3,11.7-0.1,17.5-0.9c5.8-0.9,11.6-2,17.1-4c5.5-1.9,10.8-4.6,15.5-8
				c2.4-1.7,4.7-3.5,6.7-5.6c2-2.1,3.8-4.4,5.2-7c2.8-5.1,4.1-11.1,3.4-16.9c-0.3-2.9-1.1-5.8-2.1-8.5c-1.1-2.7-2.5-5.3-4.1-7.8
				c-3.3-4.9-7.3-9.3-11.9-12.9c-4.6-3.6-10-6.1-15.6-7.9c-5.6-1.8-11.4-3-17.2-3.5c-5.8-0.5-11.7-0.1-17.2,1.6
				c-5.5,1.7-10.8,4.5-15.2,8.2c-2.2,1.9-4.1,4-5.9,6.4c-1.8,2.3-3.3,4.7-4.6,7.3c-1.3,2.6-2.3,5.3-3.1,8.1
				c-0.8,2.8-1.4,5.6-1.8,8.5l0,0l0,0c-0.4,2-0.5,4-0.4,6l0,0.1l0,0.1c-0.2,2,0.1,4,0.7,5.9l0,0.1l0,0.1c1,4.7,3,9.2,5.5,13.3l0,0
				l0,0c1,2.1,2.4,4,4.2,5.6l0.1,0.1l0,0.1c1.4,1.9,3.1,3.5,5.1,4.7l0.1,0l0.1,0c1.7,1.6,3.7,2.9,5.9,3.7l0.1,0l0.1,0
				c1.9,1.3,4.2,2.1,6.5,2.4l0.1,0l0.1,0c2.4,0.9,5,1.2,7.6,0.9l0.1,0l0,0c3.1,0.2,6.3,0,9.3-0.7l0,0l0,0c6-0.9,11.9-2.3,17.6-4.4
				l0.1,0.2c-5.6,2.3-11.5,3.9-17.5,5l0,0c-3.1,0.8-6.4,1.2-9.6,1l0.1,0c-2.7,0.4-5.6,0.2-8.2-0.7l0.1,0c-2.5-0.2-5-1.1-7.2-2.5
				l0.1,0.1c-2.4-0.9-4.6-2.2-6.5-4l0.1,0.1c-2.1-1.3-4-3-5.6-5l0.1,0.1c-1.9-1.7-3.5-3.8-4.6-6.1l0,0.1c-2.7-4.2-4.8-8.9-5.9-13.8
				l0,0.1c-0.7-2.1-1-4.5-0.8-6.7l0,0.2c-0.2-2.2-0.1-4.5,0.4-6.6l0,0.1c0.4-3,1-5.9,1.8-8.8c0.8-2.9,1.8-5.8,3.2-8.5
				c1.3-2.7,3-5.3,4.9-7.6c1.8-2.4,3.9-4.7,6.2-6.6c4.7-3.9,10.2-6.7,16-8.4c5.8-1.7,12-2,17.9-1.4c6,0.7,11.8,2,17.4,4
				c5.6,2,11.1,4.6,15.7,8.4c4.6,3.8,8.6,8.3,11.9,13.2c1.6,2.5,3,5.1,4.1,7.9c1.1,2.8,1.9,5.7,2.3,8.6c0.8,6-0.6,12.1-3.2,17.4
				c-1.4,2.7-3.1,5.2-5.2,7.4c-2.1,2.2-4.4,4.1-6.7,5.9c-2.4,1.8-4.9,3.4-7.5,4.9c-2.6,1.4-5.4,2.6-8.2,3.6
				c-5.6,2-11.5,3.3-17.4,4.1c-5.9,0.8-11.9,1.2-17.9,0.8c-6-0.4-11.9-1.5-17.5-3.5c-2.8-1-5.6-2.2-8.2-3.7
				c-2.6-1.5-5.1-3.2-7.2-5.4c-2.1-2.2-3.7-4.7-4.9-7.5c-0.6-1.4-1.1-2.8-1.3-4.3c-0.3-1.5-0.4-2.9-0.7-4.4L808.9,650z"/>
			<linearGradient id="SVGID_31_" gradientUnits="userSpaceOnUse" x1="865.3692" y1="682.924" x2="865.3692" y2="622.6732">
				<stop  offset="0" style="stop-color:#8B4047"/>
				<stop  offset="0.9721" style="stop-color:#B07C3B"/>
			</linearGradient>
			<path class="st35" d="M834.9,622.8c-0.1,1.5-0.4,3-0.5,4.5c-0.1,1.5,0,2.9,0,4.4c0.1,1.5,0.1,3,0.2,4.4c0.1,1.5,0.3,2.9,0.5,4.4
				c0.5,2.9,1.3,5.7,2.1,8.6c0.8,2.8,1.9,5.6,3.2,8.3c2.5,5.4,6.2,10.3,10.7,14.1c4.5,3.8,9.7,6.8,15.3,8.4l0,0l0.1,0
				c1.2,0.4,2.4,0.7,3.7,0.9c1.2,0.2,2.5,0.2,3.8,0c0.6,0,1.3-0.2,1.9-0.3l2-0.3l4-0.6l-0.2,0c2.3-0.8,4.5-1.5,6.8-2.2l-0.1,0
				c3.3-1.3,6.3-3.3,9-5.8l0.1,0.1c-1.1,1.4-2.5,2.7-3.9,3.9c-1.5,1.2-3,2.2-4.7,3l0,0l-0.1,0c-2.2,0.9-4.4,1.8-6.7,2.7l-0.1,0
				l-0.1,0l-4,0.8l-2,0.4c-0.7,0.1-1.3,0.3-2.1,0.3c-2.8,0.3-5.7-0.1-8.4-1.1l0.1,0c-5.9-1.8-11.3-5.1-15.5-9.5
				c-4.3-4.3-7.7-9.4-10.7-14.6c-1.5-2.6-2.9-5.3-4-8.2c-1.1-2.8-1.8-5.8-2.3-8.8c-0.5-3-0.5-6.1-0.3-9.1c0.1-1.5,0.2-3,0.4-4.5
				c0.3-1.5,0.7-2.9,1.1-4.4L834.9,622.8z"/>
			<linearGradient id="SVGID_32_" gradientUnits="userSpaceOnUse" x1="876.0354" y1="675.1517" x2="876.0354" y2="611.151">
				<stop  offset="0" style="stop-color:#8B4047"/>
				<stop  offset="0.9721" style="stop-color:#B07C3B"/>
			</linearGradient>
			<path class="st36" d="M845.4,612c-0.9,1-1.8,2.1-2.3,3.3c-0.6,1.2-0.9,2.5-1.2,3.8c-0.5,2.6-0.5,5.3-0.3,7.9
				c0.2,2.7,0.7,5.3,1.3,7.9c0.6,2.6,1.4,5.2,2.3,7.7c0.9,2.5,1.9,5,3.1,7.4c1.2,2.4,2.6,4.8,4.2,6.9c3.2,4.4,7.2,8.1,11.7,11
				c4.5,3,9.6,4.9,14.8,5.2c5.2,0.3,10.6-0.9,15.3-3.1c4.8-2.2,9-5.5,12.1-9.9c1.5-2.2,2.8-4.5,3.7-7c0.4-1.3,0.8-2.5,1.1-3.8
				c0.3-1.3,0.3-2.6,0.1-4l0.2,0c0.4,1.3,0.5,2.7,0.4,4.1c-0.2,1.4-0.4,2.7-0.8,4.1c-0.8,2.7-1.9,5.2-3.4,7.6
				c-2.9,4.8-7.5,8.5-12.5,10.9c-5.1,2.4-10.8,3.5-16.4,3c-5.6-0.5-11-2.8-15.3-6.2c-2.2-1.6-4.2-3.5-6.2-5.4c-2-1.9-3.7-4-5.4-6.2
				c-3.4-4.3-6.3-9-8.4-14.1c-1.1-2.5-1.9-5.2-2.5-7.9c-0.6-2.7-1-5.4-1.2-8.2c-0.1-2.8,0.1-5.6,0.8-8.3c0.4-1.3,0.9-2.7,1.6-3.9
				c0.7-1.2,1.7-2.2,2.8-3.1L845.4,612z"/>
			<linearGradient id="SVGID_33_" gradientUnits="userSpaceOnUse" x1="869.4161" y1="677.1614" x2="869.4161" y2="608.8209">
				<stop  offset="0" style="stop-color:#8B4047"/>
				<stop  offset="0.9721" style="stop-color:#B07C3B"/>
			</linearGradient>
			<path class="st37" d="M827.5,609.2c-1.3,6.3-0.3,12.7,1.1,18.9c0.7,3.1,1.6,6.2,2.6,9.2c1,3,1.9,6.1,3,9.1
				c2.2,5.9,5.1,11.8,9.4,16.6c1,1.2,2.3,2.3,3.4,3.4l1.8,1.6c0.6,0.5,1.2,1.1,1.8,1.6c2.5,1.9,5.4,3.3,8.4,4l0,0l0.1,0
				c2.4,1,4.9,1.5,7.4,1.6c0.6,0,1.3,0,1.9,0c0.3,0,0.6,0,0.9,0l1-0.1l3.9-0.4l3.9-0.4c1.2-0.2,2.5-0.4,3.8-0.7
				c2.5-0.6,5-1.3,7.4-2.2l0.1,0l0,0c1.8-0.5,3.6-1.2,5.3-2.1c1.7-0.8,3.4-1.9,5-2.9c0.8-0.5,1.6-1.1,2.4-1.7l1.2-0.9
				c0.4-0.3,0.9-0.6,1.4-0.8c0.5-0.2,0.9-0.4,1.3-0.6c0.4-0.2,0.8-0.5,1.2-0.7c0.8-0.5,1.5-1.2,2.2-1.8l0,0l0,0
				c1.1-0.8,2-1.8,2.7-2.9l0,0c0.4-0.9,0.4-1.9,0.1-2.9l0.2-0.1c0.5,0.9,0.5,2.1,0.2,3.1l0,0l0,0c-0.6,1.3-1.5,2.4-2.6,3.4l0,0
				c-0.7,0.7-1.4,1.4-2.2,2.1c-0.4,0.3-0.8,0.6-1.3,0.9c-0.5,0.3-0.9,0.5-1.3,0.7c-0.4,0.2-0.8,0.5-1.1,0.7l-1.1,1
				c-0.8,0.6-1.6,1.3-2.4,1.8c-1.6,1.2-3.3,2.3-5.1,3.3c-1.8,1-3.7,1.7-5.6,2.3l0.1,0c-2.5,1-5.1,1.8-7.7,2.4
				c-1.3,0.3-2.6,0.5-4,0.7l-4,0.3l-4,0.3l-1,0.1c-0.3,0-0.7,0-1,0c-0.7,0-1.4,0-2.1-0.1c-2.7-0.2-5.4-0.9-7.9-2.1l0.1,0
				c-3.2-0.9-6.2-2.6-8.6-4.7c-0.7-0.5-1.2-1.1-1.8-1.7l-1.7-1.7l-1.7-1.7c-0.6-0.6-1.1-1.1-1.7-1.8c-2.1-2.5-4-5.1-5.7-7.8
				c-1.7-2.7-3.3-5.6-4.6-8.6c-2.6-6-4.5-12.2-5.8-18.5c-0.6-3.2-1.1-6.4-1.1-9.7c0-3.3,0.4-6.5,1.4-9.6L827.5,609.2z"/>
			<linearGradient id="SVGID_34_" gradientUnits="userSpaceOnUse" x1="871.3704" y1="679.4549" x2="871.3704" y2="605.2049">
				<stop  offset="0" style="stop-color:#8B4047"/>
				<stop  offset="0.9721" style="stop-color:#B07C3B"/>
			</linearGradient>
			<path class="st38" d="M839.2,606.1c-0.6,0.3-1.2,0.6-1.6,1c-0.4,0.4-0.4,1.1-0.5,1.7c-0.2,1.3-0.3,2.6-0.5,4
				c-0.3,2.6-0.4,5.3-0.3,7.9c0.1,5.3,0.6,10.5,1.5,15.7c0.9,5.2,2.2,10.4,4.4,15.2c1.1,2.4,2.4,4.7,4,6.9c1.5,2.2,3.3,4.2,5.1,6.1
				c1.8,1.9,3.8,3.6,5.9,5.2c2.1,1.5,4.4,2.8,6.8,4c4.7,2.3,9.7,3.8,14.9,3.5c5.2-0.2,10.4-1.1,15.4-2.7c5-1.6,9.9-3.8,13.9-7.3
				l0.1,0.1c-1.8,2-3.9,3.7-6.2,5.1c-2.3,1.4-4.8,2.6-7.3,3.5c-5.1,2-10.4,3.1-15.9,3.4c-2.7,0.2-5.6-0.1-8.2-0.9
				c-2.7-0.7-5.2-1.8-7.6-3.1c-2.4-1.3-4.7-2.7-6.9-4.4c-2.1-1.7-4-3.6-5.8-5.7c-1.8-2-3.3-4.2-4.8-6.5c-1.5-2.2-2.9-4.5-4-7
				c-2.4-4.8-4.2-9.9-5.4-15.2c-1.2-5.3-1.6-10.7-1.4-16.1c0.1-2.7,0.3-5.4,0.9-8c0.2-1.3,0.6-2.6,0.9-3.9c0.2-0.6,0.3-1.4,0.9-1.9
				c0.6-0.5,1.3-0.6,1.9-0.8L839.2,606.1z"/>
			<linearGradient id="SVGID_35_" gradientUnits="userSpaceOnUse" x1="874.067" y1="677.4037" x2="874.067" y2="602.6503">
				<stop  offset="0" style="stop-color:#8B4047"/>
				<stop  offset="0.9721" style="stop-color:#B07C3B"/>
			</linearGradient>
			<path class="st39" d="M833.4,602.7c0.4,6,0.3,11.9,0.6,17.8c0.3,5.9,1.1,11.8,2.2,17.6c1.1,5.8,2.9,11.5,5.9,16.6
				c2.9,5.2,6.9,9.7,11.6,13.3c1.2,0.9,2.3,1.9,3.5,2.6c1.2,0.8,2.5,1.5,3.8,2.1c2.6,1.2,5.4,2,8.3,2.4c2.9,0.4,5.7,0.3,8.6-0.1
				c2.9-0.4,5.8-0.9,8.6-1.7c5.7-1.5,11.1-3.7,16.2-6.7c2.5-1.5,5-3.1,7.4-4.9c1.2-0.9,2.4-1.8,3.5-2.7c0.5-0.5,1.1-1,1.5-1.6
				c0.4-0.6,0.7-1.3,0.5-2l0.2-0.1c0.2,0.4,0.2,0.8,0.1,1.2c-0.1,0.4-0.2,0.8-0.4,1.1c-0.4,0.7-0.9,1.3-1.4,1.8
				c-1.1,1.1-2.2,2.1-3.3,3.1c-2.3,1.9-4.7,3.8-7.2,5.4c-5,3.3-10.7,5.8-16.5,7.4c-2.9,0.8-5.9,1.4-8.9,1.7c-3,0.3-6.1,0.4-9.2-0.1
				c-3-0.5-6-1.5-8.7-2.9c-2.7-1.3-5.2-3.3-7.4-5.3c-4.6-3.9-8.3-8.7-11.4-13.8c-1.5-2.6-2.9-5.2-4.1-8c-1.2-2.8-2.1-5.7-2.8-8.6
				c-0.7-2.9-1.2-5.9-1.5-8.9c-0.2-1.5-0.3-3-0.4-4.5c-0.1-1.5-0.1-3-0.2-4.5c-0.1-6,0.4-11.9,0.8-17.9L833.4,602.7z"/>
			<linearGradient id="SVGID_36_" gradientUnits="userSpaceOnUse" x1="868.3109" y1="678.9982" x2="868.3109" y2="613.6186">
				<stop  offset="0" style="stop-color:#8B4047"/>
				<stop  offset="0.9721" style="stop-color:#B07C3B"/>
			</linearGradient>
			<path class="st40" d="M819.8,613.8c-0.2,1.8-0.1,3.6,0.1,5.3c0.2,1.8,0.4,3.6,0.7,5.3c0.6,3.5,1.3,7,2.2,10.5
				c0.8,3.5,1.7,6.9,2.9,10.3c1.1,3.4,2.3,6.7,3.8,10c0.7,1.6,1.5,3.2,2.4,4.8c0.4,0.8,0.9,1.6,1.3,2.3c0.5,0.7,1,1.5,1.5,2.2
				c2.2,2.8,4.7,5.4,7.6,7.5c5.7,4.2,13.1,6,20,5.1l0,0l0.1,0c2.7,0,5.4-0.2,8.1-0.7c1.3-0.2,2.6-0.5,3.9-0.9
				c1.3-0.4,2.6-0.8,3.9-1.2c5.2-1.7,10.1-3.9,14.9-6.5c2.4-1.3,4.8-2.6,7.1-4.1c2.3-1.4,4.5-3,6.6-4.7c2.1-1.7,4.2-3.5,6.1-5.4
				c1-1,2-1.9,2.8-3c0.8-1.1,1.6-2.3,1.5-3.6l0.2,0c0.2,1.4-0.5,2.8-1.2,4c-0.8,1.2-1.7,2.3-2.6,3.3c-1.8,2.1-3.8,4-5.9,5.9
				c-2.1,1.8-4.3,3.6-6.6,5.1c-2.3,1.5-4.6,3-7.1,4.4c-4.8,2.7-10,5.1-15.3,6.6c-1.3,0.4-2.6,0.8-4,1.1c-1.4,0.3-2.7,0.6-4.1,0.8
				c-2.8,0.4-5.6,0.6-8.4,0.5l0.1,0c-7.4,0.7-14.8-1.8-20.6-6.1c-2.9-2.2-5.5-4.8-7.8-7.5c-0.6-0.7-1.2-1.4-1.7-2.1
				c-0.5-0.8-1-1.5-1.5-2.3c-1-1.5-1.9-3.1-2.7-4.7c-3.4-6.4-5.5-13.5-7-20.5c-0.8-3.5-1.3-7.1-1.7-10.7c-0.2-1.8-0.3-3.6-0.3-5.4
				c0-1.8,0-3.6,0.5-5.4L819.8,613.8z"/>
			<linearGradient id="SVGID_37_" gradientUnits="userSpaceOnUse" x1="868.404" y1="668.3693" x2="868.404" y2="600.1053">
				<stop  offset="0" style="stop-color:#8B4047"/>
				<stop  offset="0.9721" style="stop-color:#B07C3B"/>
			</linearGradient>
			<path class="st41" d="M828.1,615.7c-0.7,0.6-1.5,1.1-2.1,1.8c-0.3,0.3-0.5,0.7-0.6,1.1c-0.1,0.4,0,0.9,0,1.3
				c0.3,1.8,1.2,3.4,2,5.2c1.6,3.4,3.4,6.7,5.5,9.8c4.1,6.3,9.1,11.9,14.7,16.8c2.8,2.5,5.7,4.8,8.9,6.9c3.1,2.1,6.4,3.9,9.9,5.3
				c6.9,2.9,14.7,3.7,22,2.3c1.8-0.3,3.6-0.8,5.4-1.4c1.8-0.6,3.5-1.2,5.1-2.1c1.6-0.9,3.1-1.9,4.5-3.1c1.4-1.2,2.6-2.5,3.5-4
				c1-1.5,1.6-3.2,2-4.9c0.5-1.8,0.8-3.6,0.9-5.4c0.2-3.6-0.3-7.3-1.2-10.9c-0.9-3.6-2.3-7.1-3.8-10.5c-1.5-3.4-3.4-6.6-5.6-9.6
				c-2.2-3-4.7-5.8-7.6-8.1c-2.9-2.3-6.3-4.1-9.9-4.9l0-0.2c3.8,0.4,7.4,2.1,10.5,4.3c3.1,2.3,5.9,5,8.2,8c2.4,3,4.4,6.3,6.1,9.8
				c1.7,3.4,3.1,7,4.1,10.8c2,7.4,1.9,15.8-2.2,22.8c-1.1,1.7-2.5,3.2-4,4.4c-1.5,1.2-3.2,2.3-4.9,3.1c-1.7,0.9-3.6,1.5-5.4,2
				c-1.8,0.5-3.7,0.9-5.6,1.2c-7.6,1.1-15.4,0.1-22.5-2.7c-7.1-2.8-13.7-6.7-19.6-11.5c-5.9-4.9-10.9-10.8-14.9-17.3
				c-2-3.2-3.7-6.7-5.1-10.2c-0.7-1.7-1.5-3.5-1.7-5.5c0-0.5,0-1,0.1-1.5c0.1-0.5,0.4-1,0.8-1.3c0.7-0.7,1.6-1.1,2.3-1.7
				L828.1,615.7z"/>
			<linearGradient id="SVGID_38_" gradientUnits="userSpaceOnUse" x1="873.1625" y1="661.5085" x2="873.1625" y2="593.9781">
				<stop  offset="0" style="stop-color:#8B4047"/>
				<stop  offset="0.9721" style="stop-color:#B07C3B"/>
			</linearGradient>
			<path class="st42" d="M839.5,598.7c-0.7,0.8-1.1,1.7-1.2,2.6c-0.1,1-0.1,2-0.1,3c0,2,0.2,4,0.6,6c0.7,4,1.8,7.8,3.2,11.6
				c2.6,7.6,6.6,14.6,11.7,20.8c5.1,6.1,11.4,11.6,18.9,14.7c1.9,0.8,3.8,1.4,5.7,1.8c2,0.4,4,0.7,5.9,0.7c4,0.1,7.9-0.7,11.5-2.4
				l-0.1,0c5.2-3.2,9.1-8.5,10.3-14.4c1.3-6,0.7-12.3-0.6-18.4c-1.4-6.1-3.5-12-6.8-17.3c-3.3-5.3-7.9-9.8-13.7-12.4l0.1-0.2
				c3,1,5.8,2.7,8.3,4.7c2.5,2,4.6,4.5,6.5,7.1c3.6,5.3,6.1,11.4,7.6,17.6c0.7,3.1,1.3,6.3,1.4,9.6c0.2,3.2,0,6.5-0.8,9.7
				c-1.5,6.4-5.8,12.2-11.5,15.4l-0.1,0l0,0c-3.8,1.7-8.1,2.3-12.2,2c-2.1-0.1-4.1-0.4-6.1-1c-2-0.5-3.9-1.2-5.8-2
				c-3.7-1.7-7.2-3.8-10.5-6.2c-3.3-2.4-6.4-5.1-9.2-8.2c-1.4-1.5-2.7-3.1-3.9-4.7c-0.6-0.8-1.2-1.7-1.8-2.5
				c-0.5-0.9-1.1-1.7-1.6-2.6c-2.1-3.6-3.6-7.4-4.9-11.3c-1.3-3.9-2.3-7.9-2.8-12c-0.2-2-0.3-4.1-0.2-6.2c0.1-1,0.1-2,0.3-3.1
				c0.2-1.1,0.8-2,1.5-2.7L839.5,598.7z"/>
			<linearGradient id="SVGID_39_" gradientUnits="userSpaceOnUse" x1="876.4927" y1="675.6187" x2="876.4927" y2="594.5276">
				<stop  offset="0" style="stop-color:#8B4047"/>
				<stop  offset="0.9721" style="stop-color:#B07C3B"/>
			</linearGradient>
			<path class="st43" d="M844.5,596.9c-0.7,0.5-1.6,1-2,1.7l0,0c-0.4,2.2-1,4.4-1.1,6.6c-0.2,2.3-0.4,4.5-0.5,6.7
				c-0.2,4.5,0,9,0.4,13.5c0.2,2.2,0.5,4.5,0.7,6.7c0.2,2.2,0.6,4.4,1.1,6.6c0.5,2.2,1.1,4.3,1.9,6.4c0.8,2.1,1.5,4.2,2.3,6.4l0-0.1
				l3.6,6.8l-0.1-0.1l4.6,6.1l-0.1-0.1l5.1,4.7l0,0l5.3,3.3l-0.1,0l5.4,1.8l0,0c1.6,0.3,3.2,0.5,4.8,0.4c1.6-0.1,3.2-0.3,4.7-0.7
				l0,0l0.1,0c2.5-0.2,4.9-0.9,7-2.2l0,0l0.1,0c2.4-0.7,4.6-2,6.5-3.6l0.1,0l0.1,0c2.1-1.1,3.9-2.7,5.3-4.5l0-0.1l0.1-0.1
				c1.8-1.6,3.2-3.4,4.4-5.4l0,0l0,0c2.7-4.1,5-8.5,6-13.2c0.5-2.3,0.8-4.8,0.9-7.2c0.1-2.4,0.1-4.9-0.2-7.3l0,0.1l-1.5-7.4l0,0.2
				l-2.6-7l0,0.1c-1.3-2.6-2.8-5.1-4.6-7.4c-1.8-2.3-3.7-4.5-6-6.3c-2.3-1.8-4.9-3.2-7.6-4.3c-2.7-1.1-5.6-1.8-8.5-2.1l0-0.2
				c3,0.1,6,0.6,8.8,1.6c2.8,1,5.6,2.4,8,4.1c2.5,1.7,4.7,3.9,6.6,6.2c1.9,2.3,3.6,4.9,5,7.6l0,0l0,0l2.8,6.9l0,0.1l0,0.1l1.6,7.4
				l0,0l0,0.1c0.3,2.5,0.4,5.1,0.2,7.6c-0.2,2.5-0.5,5-1,7.6c-1.2,5-3.7,9.6-6.5,13.8l0-0.1c-1.3,2.2-2.9,4.2-4.9,5.8l0.1-0.1
				c-1.6,2-3.7,3.6-6,4.8l0.1-0.1c-2.1,1.7-4.6,2.9-7.2,3.6l0.1,0c-2.3,1.2-4.9,1.9-7.6,2l0.1,0c-3.2,0.8-6.7,0.8-9.9,0l0,0l0,0
				l-5.4-1.9l0,0l0,0l-5.3-3.2l0,0l0,0l-5.3-4.6l0,0l0,0l-4.8-5.9l0,0l0-0.1l-3.9-6.6l0,0l0-0.1c-0.9-2.1-1.7-4.2-2.5-6.3
				c-0.9-2.1-1.5-4.4-2-6.6c-0.5-2.2-0.9-4.5-1.1-6.8c-0.2-2.2-0.5-4.5-0.6-6.8c-0.3-4.5-0.3-9.1,0.1-13.7c0.2-2.3,0.4-4.5,0.8-6.8
				c0.3-2.3,1-4.5,1.5-6.7l0,0l0,0c0.6-0.9,1.5-1.2,2.2-1.6L844.5,596.9z"/>
			<linearGradient id="SVGID_40_" gradientUnits="userSpaceOnUse" x1="862.4796" y1="681.9973" x2="862.4796" y2="594.8623">
				<stop  offset="0" style="stop-color:#8B4047"/>
				<stop  offset="0.9721" style="stop-color:#B07C3B"/>
			</linearGradient>
			<path class="st44" d="M826.8,605.8c-1.3,0.9-2.6,1.8-3.5,3c-0.9,1.3-1.6,2.6-2.2,4.1c-1.1,2.9-1.8,6-2.2,9.1
				c-0.9,6.2-0.7,12.5,0.4,18.7c1.1,6.2,2.9,12.2,5.7,17.7c1.4,2.8,3.2,5.3,5.2,7.8c2,2.4,4.1,4.7,6.6,6.6l0,0l4.1,2.5l2,1.2
				c0.7,0.4,1.4,0.7,2.1,1c1.4,0.6,2.9,1.1,4.5,1.5c1.5,0.4,3.1,0.6,4.7,0.9c3.1,0.5,6.3,0.7,9.5,0.5c3.2-0.1,6.3-0.7,9.3-1.4
				c3.1-0.7,6.1-1.7,9-2.9c2.9-1.2,5.7-2.6,8.3-4.3c2.6-1.7,5-3.8,7-6.1c2.1-2.3,3.7-5,5.1-7.8c2.6-5.6,3.9-11.9,3.9-18.1
				c0-3.1-0.4-6.2-1.1-9.2c-0.7-3.1-1.6-6.1-2.6-9.1c-2.1-5.9-5.1-11.6-9.3-16.2c-2.1-2.3-4.5-4.5-7.1-6.1c-2.7-1.6-5.8-2.5-8.8-3.4
				l0-0.2c3.1,0.6,6.3,1.4,9.2,2.9c2.9,1.5,5.4,3.6,7.6,5.9c4.6,4.6,7.8,10.4,10.1,16.4c2.3,6,4,12.3,4.1,18.9
				c0,6.5-1.3,13.1-4.2,19c-1.5,2.9-3.3,5.7-5.5,8.1c-2.2,2.4-4.7,4.6-7.5,6.3c-5.5,3.5-11.7,5.6-18,6.9c-6.3,1.4-12.8,1.5-19.2,0.5
				c-1.6-0.3-3.1-0.5-4.7-0.9c-1.6-0.4-3.1-0.9-4.6-1.5c-0.7-0.3-1.5-0.6-2.2-1l-2.1-1.2l-4.2-2.4l0,0l0,0c-2.6-1.8-5-4.1-7.1-6.5
				c-2.1-2.4-4.1-5-5.6-7.8c-3.1-5.7-5-11.9-6-18.3c-1-6.3-1-12.9,0.1-19.2c0.3-1.6,0.6-3.1,1.1-4.7c0.4-1.6,0.9-3.1,1.6-4.5
				c0.7-1.5,1.5-2.9,2.6-4.1c1-1.3,2.5-2.1,3.9-2.9L826.8,605.8z"/>
			<linearGradient id="SVGID_41_" gradientUnits="userSpaceOnUse" x1="863.7885" y1="689.3637" x2="863.7885" y2="617.8392">
				<stop  offset="0" style="stop-color:#8B4047"/>
				<stop  offset="0.9721" style="stop-color:#B07C3B"/>
			</linearGradient>
			<path class="st45" d="M813.2,618.1c-1.2,1.8-2,3.9-2.5,6l0,0l0,0c-0.6,1.5-0.9,3.2-1,4.8l0,0l0,0c-0.5,3.8-0.5,7.7,0,11.5
				c0.5,3.8,1.6,7.5,3.1,11c1.5,3.5,3.4,6.9,5.7,10c2.3,3.1,4.9,5.9,7.7,8.5c5.7,5.2,12.2,9.4,19.2,12.7c7,3.2,14.6,5.3,22.2,5.8
				c7.7,0.5,15.5-0.4,22.5-3.3c7.1-2.9,13.2-7.9,17.8-14c2.3-3.1,4.1-6.4,5.7-9.9c1.6-3.5,3.1-7.1,3.9-10.8c0.4-1.9,0.8-3.8,0.7-5.6
				c0-1.9-1-3.6-1.2-5.6c-0.4-3.9,0.7-7.8-0.4-11.5l0.1,0c1.2,3.8,0.3,7.8,0.7,11.5c0.1,1,0.4,1.8,0.7,2.8c0.3,0.9,0.6,1.9,0.6,2.9
				c0.1,2-0.2,3.9-0.6,5.8c-0.7,3.8-2.2,7.5-3.7,11c-0.8,1.8-1.6,3.6-2.5,5.3c-0.9,1.7-2,3.3-3.2,4.9c-2.3,3.1-5,6-8.1,8.4
				c-3.1,2.4-6.5,4.4-10.1,5.9c-7.3,2.9-15.2,3.7-23,3.1c-7.8-0.6-15.3-2.9-22.3-6.1c-7-3.3-13.7-7.4-19.5-12.5
				c-2.9-2.6-5.6-5.4-8-8.5c-2.3-3.1-4.3-6.5-5.8-10.1c-1.5-3.6-2.5-7.4-3-11.3c-0.5-3.9-0.3-7.8,0.2-11.6l0,0
				c0.1-1.7,0.5-3.3,1.2-4.9l0,0C810.9,621.9,811.9,619.9,813.2,618.1L813.2,618.1z"/>
			<linearGradient id="SVGID_42_" gradientUnits="userSpaceOnUse" x1="856.746" y1="693.1899" x2="856.746" y2="602.7631">
				<stop  offset="0" style="stop-color:#8B4047"/>
				<stop  offset="0.9721" style="stop-color:#B07C3B"/>
			</linearGradient>
			<path class="st46" d="M824.9,612c-0.5,0.6-1.1,1.1-1.7,1.6c-0.6,0.5-1.2,1-1.7,1.6c-1,1.2-1.8,2.6-2.4,4c-1.3,2.8-2.3,5.9-3,8.9
				c-1.3,6.2-1.5,12.5-1,18.8c0.6,6.3,2,12.5,4.4,18.3c2.3,5.8,5.7,11.3,10,15.9c4.3,4.5,9.6,8.4,15.7,10.2c3,0.9,6.2,1.4,9.3,1.2
				c3.1-0.1,6.3-0.7,9.3-1.6c6-1.8,11.6-4.9,16.5-8.9c2.4-2,4.7-4.1,6.7-6.5c2-2.4,3.7-5,5.1-7.8l0,0l0,0c3.2-5.1,4.8-11.1,5.8-17
				c0.5-3,0.7-6,0.6-9c-0.1-3-0.4-6.1-0.9-9.1c-0.5-3-1.1-6-1.9-8.9c-0.8-2.9-1.8-5.8-3.1-8.6c-1.3-2.7-2.9-5.4-5-7.5
				c-2.1-2.2-4.8-3.9-7.9-4l0-0.1c3.1,0.1,6,1.7,8.2,3.8c2.2,2.1,3.9,4.8,5.2,7.6c1.4,2.8,2.4,5.7,3.2,8.6c0.9,2.9,1.6,5.9,2.1,9
				c0.5,3,0.9,6.1,1,9.2c0.1,3.1-0.1,6.2-0.6,9.2c-0.5,3.1-1.2,6.1-2.1,9c-0.9,3-2.2,5.8-3.9,8.4l0,0c-1.4,2.9-3.2,5.6-5.3,8
				c-2.1,2.4-4.4,4.6-6.9,6.6c-5,3.9-10.7,7-16.9,8.8c-3.1,0.9-6.2,1.4-9.4,1.5c-3.2,0.2-6.4-0.3-9.4-1.3c-3-1-5.9-2.3-8.6-4.1
				c-2.6-1.8-5.1-3.8-7.3-6.1c-4.5-4.5-8-10-10.5-15.9c-2.5-5.9-3.9-12.2-4.4-18.5c-0.5-6.4-0.2-12.8,1.3-19c0.7-3.1,1.7-6.2,3.2-9
				c0.7-1.4,1.5-2.8,2.6-4c0.5-0.6,1.2-1.1,1.8-1.6C823.7,613,824.3,612.5,824.9,612L824.9,612z"/>
			<linearGradient id="SVGID_43_" gradientUnits="userSpaceOnUse" x1="867.6179" y1="660.2349" x2="867.6179" y2="586.6835">
				<stop  offset="0" style="stop-color:#8B4047"/>
				<stop  offset="0.9721" style="stop-color:#B07C3B"/>
			</linearGradient>
			<path class="st47" d="M843.8,600c-1.4,0.9-2.7,1.8-3.8,2.9c-1.1,1.1-1.9,2.5-2.7,3.9c-1.4,2.8-2.3,5.9-2.9,9.1
				c-0.5,3.1-0.8,6.3-0.8,9.5c0,3.2,0.5,6.3,1.3,9.4c1.7,6.1,5.1,11.7,9.8,15.8c2.4,2.1,5,3.8,7.9,4.9c2.9,1.1,6,1.7,9.2,1.7
				c6.3,0.1,12.5-1.9,18-5.1c2.8-1.6,5.3-3.6,7.5-5.8c2.2-2.3,4.2-4.8,5.8-7.6c3.3-5.5,5.2-11.8,5.2-18.2c0-6.4-2.4-12.6-5.8-17.9
				c-3.4-5.4-8.4-9.7-14.3-12c-5.8-2.3-12.5-2.7-18.2-0.2c-5.7,2.5-10,7.6-12.1,13.4c-1,2.9-1.5,6-1.4,9.1c0.1,3.1,0.4,6.3,1,9.4
				c0.6,3.1,1.5,6.2,2.6,9.1c0.6,1.5,1.2,2.9,1.9,4.3c0.7,1.4,1.5,2.8,2.3,4.2c1.6,2.7,3.4,5.4,5.5,7.7c2.1,2.3,4.6,4.4,7.2,6.1
				c2.6,1.7,5.5,3.1,8.5,4c3,0.9,6.2,1.2,9.4,0.8c6.3-0.7,12.3-3.6,17.7-7l0.1,0.2c-2.6,1.9-5.4,3.6-8.3,5c-2.9,1.4-6.1,2.5-9.3,2.9
				c-3.2,0.5-6.6,0.3-9.8-0.5c-3.2-0.8-6.3-2.2-9-3.9c-2.8-1.7-5.4-3.8-7.7-6.2c-2.3-2.4-4.2-5.1-5.9-7.9c-1.7-2.8-3.2-5.7-4.4-8.8
				c-1.2-3.1-2.1-6.2-2.8-9.5c-0.6-3.2-1-6.5-1.1-9.8c0-3.3,0.4-6.7,1.6-9.9c1.2-3.2,2.9-6.1,5.2-8.6c2.2-2.5,5-4.5,8.1-5.9
				c3.1-1.4,6.5-1.9,9.8-1.8c3.3,0.1,6.6,0.9,9.7,2.2c6.2,2.5,11.2,7.3,14.6,12.9c3.4,5.5,5.6,12,5.6,18.5
				c-0.1,6.5-2.1,12.9-5.3,18.6c-1.6,2.8-3.6,5.4-5.8,7.8c-2.2,2.4-4.8,4.5-7.5,6.2c-2.8,1.7-5.7,3.2-8.9,4.2
				c-3.1,1-6.4,1.6-9.7,1.6c-3.3,0-6.7-0.5-9.8-1.7c-3.1-1.2-6-3-8.5-5.2c-4.9-4.5-8.4-10.4-10.1-16.8c-1.7-6.4-1.3-13.1,0-19.5
				c0.7-3.2,1.7-6.3,3.3-9.2c0.8-1.4,1.7-2.8,2.9-3.9c1.2-1.1,2.6-1.9,4-2.7L843.8,600z"/>
			<linearGradient id="SVGID_44_" gradientUnits="userSpaceOnUse" x1="866.2885" y1="681.658" x2="866.2885" y2="591.1645">
				<stop  offset="0" style="stop-color:#8B4047"/>
				<stop  offset="0.9721" style="stop-color:#B07C3B"/>
			</linearGradient>
			<path class="st48" d="M863.3,592.2c-1.3,0.4-2.6,0.7-3.7,1.4c-1.1,0.7-2,1.7-2.9,2.6c-1.8,1.9-3.3,4.1-4.8,6.3
				c-2.9,4.4-5.5,9-7.7,13.8c-1.1,2.4-2,4.9-2.8,7.4c-0.8,2.5-1.6,5-2.1,7.6c-0.5,2.5-0.9,5.2-1.1,7.8c-0.1,2.6,0,5.2,0.3,7.8l0-0.1
				c0.6,2.4,1.3,4.8,2.4,7c1.1,2.2,2.5,4.3,4.3,5.9c3.7,3.3,8.3,5.5,13.1,6.6c4.9,1.1,9.9,1,14.8-0.1c2.4-0.6,4.7-1.4,7-2.4
				c2.3-1,4.5-2.2,6.6-3.5c2.1-1.3,4.1-2.8,6-4.5c1.9-1.7,3.6-3.5,5.2-5.4c3.1-3.9,5.5-8.4,7-13.1c1.5-4.8,2.2-9.8,1.8-14.8
				c-0.4-5-2.1-9.8-5.1-13.9c-2.9-4-7-7.3-11.6-9.2c-4.7-1.8-9.9-2-14.9-1.8c-5.1,0.2-10,1.4-14.8,3.1c-4.8,1.7-9.4,3.8-13.7,6.6
				c-4.2,2.8-8.1,6.1-11.5,9.9c-3.4,3.8-6.2,8-8,12.7c-0.9,2.3-1.6,4.8-2,7.2c-0.4,2.5-0.4,5-0.1,7.5c0.6,5,2.2,9.9,4.8,14.1
				c2.6,4.2,6.2,7.9,10.4,10.5c2.1,1.3,4.4,2.3,6.8,3.1c2.4,0.7,4.9,1.2,7.3,1.6c2.5,0.3,5,0.4,7.4,0.2c2.5-0.2,4.9-0.7,7.3-1.4
				c4.8-1.3,9.5-3.2,13.8-5.9c1.1-0.6,2.1-1.4,3.1-2.1c1-0.7,1.9-1.6,2.9-2.4c1.9-1.6,3.7-3.4,5.4-5.2c1.7-1.8,3.3-3.8,4.7-5.8
				c1.4-2,2.7-4.2,3.8-6.4c1.1-2.2,1.9-4.6,2.5-7c0.3-1.2,0.5-2.4,0.7-3.6c0.2-1.2,0.3-2.5,0.3-3.7c0.1-4.9-1.2-9.8-3.8-14
				c-2.6-4.1-6.4-7.6-10.8-9.8c-2.2-1.1-4.5-2-6.9-2.5c-2.4-0.6-4.9-0.9-7.4-1c-2.5-0.1-5,0-7.5,0.3c-2.5,0.3-5,0.7-7.4,1.3
				c-4.9,1.3-9.7,2.9-14.1,5.3c-4.4,2.4-8.5,5.4-12.1,8.9c-3.6,3.4-6,8-7.5,12.7c-1.7,4.7-2.4,9.8-2.3,14.8c0,5.1,0.9,10.1,2.6,14.8
				l0,0l0,0c0.8,3.7,2.4,7.3,4.6,10.5c1.1,1.6,2.3,3.1,3.6,4.5c1.3,1.5,2.6,2.8,4.1,4.1l-0.1,0.2c-1.5-1.3-2.9-2.6-4.2-4.1
				c-1.3-1.4-2.6-2.9-3.7-4.5c-2.3-3.2-4-6.8-4.9-10.6l0,0.1c-1-2.4-1.7-4.9-2.2-7.4c-0.5-2.5-0.7-5.1-0.8-7.7
				c-0.2-5.2,0.5-10.4,2.1-15.3c0.8-2.5,1.7-4.9,3-7.2c1.2-2.3,2.8-4.4,4.7-6.2c3.7-3.7,7.8-6.8,12.3-9.3c4.6-2.5,9.4-4.2,14.4-5.6
				c5-1.3,10.2-2,15.4-1.8c2.6,0.1,5.2,0.5,7.8,1.1c2.6,0.6,5,1.5,7.4,2.7c4.7,2.4,8.8,6,11.6,10.5c2.9,4.5,4.2,9.8,4.2,15.1
				c0,1.3-0.1,2.6-0.3,3.9c-0.1,1.3-0.4,2.6-0.7,3.9c-0.6,2.5-1.6,5-2.7,7.4c-1.1,2.4-2.5,4.6-4,6.7c-1.5,2.1-3.2,4.1-5,6
				c-1.8,1.9-3.7,3.7-5.6,5.3c-1,0.8-2,1.7-3,2.4c-1.1,0.8-2.1,1.5-3.2,2.2c-4.4,2.7-9.3,4.6-14.3,6c-1.3,0.3-2.5,0.6-3.8,0.9
				c-1.3,0.2-2.6,0.4-3.9,0.5c-2.6,0.2-5.2,0-7.8-0.3c-2.6-0.4-5.1-0.9-7.6-1.7c-2.5-0.8-4.9-1.9-7.1-3.3
				c-4.4-2.8-8.1-6.7-10.7-11.2c-2.7-4.5-4.2-9.5-4.8-14.7c-0.3-2.6-0.2-5.2,0.2-7.8c0.4-2.6,1.2-5.1,2.1-7.4
				c1.9-4.8,4.8-9.1,8.3-12.9c3.5-3.8,7.4-7.1,11.7-9.9c4.3-2.8,9-4.9,13.8-6.6c4.8-1.7,9.9-2.9,15-3.2c5.1-0.3,10.4-0.2,15.2,1.7
				c4.8,1.9,9.1,5.2,12.2,9.3c3.1,4.2,5,9.2,5.5,14.4c0.6,5.2-0.1,10.4-1.6,15.4c-1.5,4.9-3.9,9.7-7.2,13.7c-1.6,2-3.4,3.9-5.3,5.7
				c-1.9,1.7-4,3.3-6.2,4.7c-2.2,1.4-4.5,2.6-6.8,3.7c-2.4,1.1-4.8,1.9-7.4,2.5c-5.1,1.1-10.4,1.1-15.5,0c-5.1-1.2-9.9-3.6-13.8-7.1
				c-2-1.8-3.5-4-4.6-6.4c-1.1-2.4-1.9-4.9-2.5-7.4l0,0l0,0c-0.4-2.7-0.4-5.4-0.2-8.1c0.2-2.7,0.6-5.3,1.2-7.9
				c0.6-2.6,1.5-5.1,2.3-7.7c0.9-2.5,1.9-5,3-7.4c2.2-4.8,5-9.4,8.1-13.7c1.6-2.2,3.1-4.3,5-6.2c0.9-1,1.9-1.9,3-2.6
				c1.2-0.7,2.5-0.9,3.8-1.3L863.3,592.2z"/>
			<linearGradient id="SVGID_45_" gradientUnits="userSpaceOnUse" x1="865.6243" y1="688.6526" x2="865.6243" y2="591.9248">
				<stop  offset="0" style="stop-color:#8B4047"/>
				<stop  offset="0.9721" style="stop-color:#B07C3B"/>
			</linearGradient>
			<path class="st49" d="M905.9,607.3c-1.9-2.5-4.4-4.4-7-6.1c-2.6-1.6-5.4-3-8.4-4c-5.9-2-11.9-3.6-18.1-3.4
				c-3.1,0-6.2,0.4-9.2,0.9c-3,0.6-6,1.4-8.9,2.4c-1.5,0.5-2.9,1.1-4.3,1.7c-0.7,0.3-1.4,0.7-2.1,1l-1,0.5l-1,0.6
				c-2.7,1.5-5.2,3.3-7.6,5.3c-4.7,4-8.5,9.2-10.7,15c-1.1,2.9-1.9,5.9-2.3,9c-0.5,3.1-0.6,6.2-0.5,9.3c0.2,6.2,1.9,12.2,4.2,18
				c2.3,5.7,5.3,11.2,9.5,15.6l-0.1-0.1l4.4,3.8c0.4,0.3,0.7,0.6,1.1,0.9l1.1,0.8c0.8,0.5,1.6,1.1,2.4,1.5c1.6,0.9,3.4,1.7,5.1,2.4
				c1.9,0.7,3.6,1.4,5.5,1.9c3.7,1.1,7.5,1.8,11.3,2.1c1,0.1,1.9,0.1,2.8,0.1l2.9-0.1l5.8-0.3l-0.1,0l7-1.4c2.4-0.4,4.6-1.1,6.9-1.9
				c4.5-1.6,8.8-3.8,12.6-6.6l0.1,0.2c-1.8,1.6-3.8,3-5.9,4.2c-2.1,1.2-4.3,2.3-6.5,3.2c-1.1,0.5-2.3,0.9-3.4,1.3
				c-1.2,0.4-2.3,0.7-3.5,1l-7,1.7l-0.1,0l-0.1,0l-5.9,0.4l-2.9,0.2c-1,0-2,0-3,0c-4-0.2-7.9-0.9-11.8-2c-1.9-0.5-3.8-1.2-5.6-1.9
				c-1.9-0.7-3.8-1.5-5.5-2.5c-0.9-0.5-1.7-1-2.6-1.6c-0.4-0.3-0.8-0.6-1.2-0.9c-0.4-0.3-0.7-0.7-1.1-1l-4.4-3.9l0,0l0,0
				c-4.4-4.7-7.5-10.5-9.7-16.4c-2.2-5.9-3.7-12.2-3.7-18.6c0-3.2,0.2-6.3,0.8-9.4c0.5-3.1,1.3-6.2,2.5-9.1
				c2.3-5.9,6.1-11.1,10.7-15.5c2.3-2.1,4.8-4.1,7.5-5.8c2.7-1.7,5.5-3.1,8.5-4.3c1.5-0.6,3-1,4.5-1.5c1.5-0.4,3.1-0.8,4.7-1.1
				c3.1-0.6,6.3-0.9,9.5-0.9c3.2-0.1,6.4,0.3,9.5,1.1c3.1,0.7,6.1,1.8,9,2.9c2.9,1.1,5.8,2.6,8.4,4.4c2.6,1.8,5,4,6.7,6.7
				L905.9,607.3z"/>
			<linearGradient id="SVGID_46_" gradientUnits="userSpaceOnUse" x1="859.3848" y1="689.4855" x2="859.3848" y2="596.9758">
				<stop  offset="0" style="stop-color:#8B4047"/>
				<stop  offset="0.9721" style="stop-color:#B07C3B"/>
			</linearGradient>
			<path class="st50" d="M868.2,598.4c-1.9-0.2-3.8-0.4-5.7-0.6c-1.9-0.2-3.8-0.1-5.7,0c-3.8,0.3-7.5,1.1-11.1,2.5
				c-3.6,1.3-6.9,3.2-9.9,5.5c-3.1,2.2-6,4.7-8.6,7.5c-2.6,2.8-4.8,5.8-6.6,9.2c-1.8,3.3-3.1,6.9-4.1,10.6c-1,3.7-1.6,7.5-1.8,11.3
				c-0.2,3.8,0.2,7.6,0.8,11.4l0,0l0,0c0.2,2.5,0.8,4.9,1.8,7.1l0,0l0,0c0.5,2.3,1.5,4.5,2.9,6.4l0,0l0,0c0.9,2,2.2,3.9,3.9,5.3l0,0
				l0,0c1.3,1.8,3,3.3,4.8,4.4l0,0l0,0c3.7,2.7,7.8,5,12.1,6.7l0,0l0,0c1.9,1,4,1.6,6.1,1.8l0,0l0,0c2.2,0.6,4.5,0.9,6.8,0.7l0,0
				l0,0c2.7,0.3,5.5,0.1,8.2-0.3l0,0l0,0c3-0.1,6-0.6,8.9-1.5l0,0l0,0c3-0.5,6-1.4,8.7-2.7l0,0l0,0c2.9-0.9,5.7-2.2,8.2-3.8l0,0l0,0
				c2.6-1.2,5.1-2.8,7.3-4.6l0,0l0,0c3-2,5.9-4.3,8.4-6.9l0.1,0.1c-2.5,2.7-5.2,5.1-8.2,7.2l0,0c-2.2,1.9-4.7,3.5-7.3,4.8l0,0
				c-2.6,1.7-5.4,3.1-8.3,4l0,0c-2.8,1.4-5.8,2.4-8.9,2.9l0.1,0c-3,1-6.1,1.5-9.2,1.6l0.1,0c-2.8,0.5-5.6,0.6-8.5,0.4l0.1,0
				c-2.4,0.1-4.9-0.1-7.2-0.8l0.1,0c-2.2-0.2-4.4-0.9-6.4-1.9l0,0c-4.4-1.7-8.5-4.1-12.3-6.9l0,0c-2-1.2-3.7-2.8-5-4.7l0,0.1
				c-1.7-1.6-3-3.5-3.9-5.6l0,0.1c-1.4-2-2.4-4.3-2.9-6.7l0,0c-1-2.3-1.5-4.8-1.7-7.3l0,0c-0.6-3.8-0.9-7.6-0.7-11.5
				c0.2-3.8,0.7-7.6,1.6-11.4c1.8-7.4,5.2-14.7,10.6-20.3c2.6-2.8,5.6-5.3,8.7-7.6c3.1-2.2,6.5-4.1,10.2-5.5
				c3.6-1.3,7.5-2.1,11.3-2.3c1.9-0.1,3.9,0,5.8,0.2c1.9,0.2,3.8,0.5,5.7,0.8L868.2,598.4z"/>
			<linearGradient id="SVGID_47_" gradientUnits="userSpaceOnUse" x1="868.3771" y1="684.3711" x2="868.3771" y2="601.3451">
				<stop  offset="0" style="stop-color:#8B4047"/>
				<stop  offset="0.9721" style="stop-color:#B07C3B"/>
			</linearGradient>
			<path class="st51" d="M849.7,602.4c-1.9,0.4-3.8,0.9-5.5,1.8c-1.7,0.9-3.3,1.9-4.9,3.1c-3.1,2.3-5.5,5.4-7.4,8.7
				c-1.9,3.3-3.3,6.9-4.6,10.6c-1.2,3.7-2.4,7.4-3.5,11.1c-1.1,3.7-1.9,7.5-2.3,11.3c-0.4,3.8-0.1,7.8,1,11.5
				c1.1,3.7,3.1,7.1,5.6,10c1.3,1.5,2.7,2.8,4.2,4c1.5,1.2,3.1,2.3,4.8,3.2c1.6,1,3.4,1.7,5.2,2.4c1.8,0.5,3.6,1.2,5.5,1.5
				c3.7,0.7,7.6,1,11.4,0.7c7.7-0.5,15.1-2.8,22.2-5.9c7-3.2,13.8-7.1,19.7-12c3-2.5,5.8-5.1,8.4-8c1.3-1.5,2.5-3,3.7-4.5
				c0.6-0.8,1.1-1.6,1.7-2.4c0.5-0.8,1.1-1.7,1-2.6l0.2,0c0.1,0.5-0.1,1-0.2,1.5c-0.2,0.5-0.4,0.9-0.6,1.4c-0.5,0.9-1,1.7-1.5,2.5
				c-1.1,1.6-2.2,3.2-3.4,4.8c-2.4,3.1-5.2,6-8.1,8.6c-3,2.6-6.1,5-9.5,7.1c-3.3,2.1-6.8,4-10.4,5.7c-3.6,1.6-7.4,3-11.2,4
				c-3.8,1-7.8,1.6-11.8,1.8c-4,0.3-8-0.1-11.9-1c-1-0.3-2-0.4-2.9-0.8l-2.8-1c-1.8-0.9-3.6-1.7-5.3-2.8c-3.4-2-6.4-4.7-9-7.7
				c-2.6-3-4.5-6.5-5.7-10.3c-1.2-3.8-1.6-7.8-1.5-11.7c0.1-4,0.8-7.9,1.8-11.7c1-3.8,2.1-7.6,3.4-11.3c1.3-3.7,2.8-7.4,4.9-10.8
				c2.1-3.4,4.8-6.5,8.1-8.7c1.6-1.1,3.4-2.1,5.2-2.9c1.8-0.8,3.8-1.1,5.8-1.3L849.7,602.4z"/>
		</g>
		<path class="st52" d="M825.3,647.3c0,0,8.6,26.1,20,32.7c0,0-18.9-6.2-29.4-29.2c0,0,9,24.4,30.8,32.6c0,0-19.7,2-32.4-16
			c0,0,7.2,18.7,41.8,17.4c34.6-1.3,44.7-12.3,44.7-12.3s-21.2,10-37.7,10.4c0,0,17-1.3,34.7-14.3c0,0-22.5,13.6-40.2,7.8
			C840,670.6,825.3,647.3,825.3,647.3z"/>
		<path class="st52" d="M848.1,670.5c0,0,14.3,14.4,35.1-1.7C883.1,668.7,871.7,669.4,848.1,670.5z"/>
		<path class="st52" d="M832.5,643.9c0,0,6.8,17.9,26,22.5C858.5,666.4,836.7,668.1,832.5,643.9z"/>
		<path class="st53" d="M839.5,611.7c0,0,18.1-11.2,38.8-9.8c20.6,1.4,27.2,18.2,27.2,18.2s-7.8-16.5-28.2-16.9
			C856.8,602.9,839.5,611.7,839.5,611.7z"/>
		<path class="st53" d="M845.5,605.2c0,0,5.1-16.5,19.3-18.3c14.2-1.8,24.4,8.6,24.4,8.6s-16-13.1-29.4-5.3
			C846.4,598.1,845.5,605.2,845.5,605.2z"/>
		<path class="st53" d="M821,608.5c0,0,22.9-18,37.5-19.7C858.5,588.9,839.5,587.4,821,608.5z"/>
		<path class="st53" d="M851.6,597.5c0,0,23.3-13.6,46,2.5C897.6,599.9,878.6,587.7,851.6,597.5z"/>
		<path class="st53" d="M850.6,666.3c0,0,35.6,8.7,53.8-26.7C904.4,639.5,895.1,675.1,850.6,666.3z"/>
		<path class="st53" d="M894.8,668.3c0,0,17.8-10,13.3-40C908.1,628.3,918.7,651.2,894.8,668.3z"/>
		<path class="st53" d="M829.6,638.4c0,0,3.8,28.2,30.2,37C859.8,675.5,831.9,673,829.6,638.4z"/>
		<polygon class="st52" points="856.7,642.9 855.4,635.7 859.4,648 		"/>
		<polygon class="st52" points="853.2,649.1 850.8,649.1 857.7,652.3 		"/>
		<polygon class="st52" points="807.2,625.8 808.8,620.1 808.8,627.1 		"/>
		<polygon class="st52" points="912.4,666.1 918.6,660.7 910.5,670.6 		"/>
		<polygon class="st52" points="889.2,687.7 900.9,684.8 891.6,688.6 		"/>
		<polygon class="st52" points="825.8,681.1 833,689 827.7,685.3 		"/>
		<polygon class="st52" points="848.2,693.3 850.6,697.6 859.8,695.5 		"/>
		<polygon class="st53" points="839.5,592.1 857.2,582.4 867.3,583.9 		"/>
	</g>
</g>
</svg>
