<?xml version="1.0" encoding="utf-8"?>
<!-- Generator: Adobe Illustrator 24.2.3, SVG Export Plug-In . SVG Version: 6.00 Build 0)  -->
<svg version="1.1" id="Capa_1" xmlns="http://www.w3.org/2000/svg" xmlns:xlink="http://www.w3.org/1999/xlink" x="0px" y="0px"
	 viewBox="0 0 1220 800" style="enable-background:new 0 0 1220 800;" xml:space="preserve">
<style type="text/css">
	.st0{fill:url(#SVGID_1_);}
	.st1{opacity:0.26;fill:#491F0D;}
	.st2{opacity:0.07;fill:#FFC350;}
	.st3{opacity:0.11;}
</style>
<g>
	<linearGradient id="SVGID_1_" gradientUnits="userSpaceOnUse" x1="892.074" y1="870.2061" x2="649.2605" y2="436.2015">
		<stop  offset="0" style="stop-color:#D54A00"/>
		<stop  offset="1" style="stop-color:#962100"/>
	</linearGradient>
	<path class="st0" d="M1187.5,301.53l-25.81-29.63c0,0-8.6-20.08-14.34-34.41c-4.78-42.06-5.74-54.49-5.74-54.49l-7.65-10.52v-16.25
		l-41.11-9.56l-49.71,18.16l-16.25,72.65l-11.47,44.93c0,0-34.41,11.47-36.33,25.81c-0.98,7.32-5.93,33.05-10.56,56.5
		c-5.33,27.05-22.55,50.24-46.9,63.17c-43.99,23.35-113.94,60.85-144.25,79.17c-38.64,23.35-141.93,11.44-194.03,12.81
		c2.16-7.23,5.76-20.23,3.9-20.61c-1.93-0.39-5.11,13.58-6.6,20.69c-0.14,0.01-0.28,0.01-0.42,0.01c0.05-5.74,0.05-24.34-2.17-24.14
		c-1.49,0.14-1.29,8.39-0.84,15.53c-1.59-6.95-3.7-14.7-5.11-14.28c-1.86,0.56,1.86,14.04,3.94,21.08
		c-5.76-4.55-12.81-9.72-13.68-8.45c-0.85,1.25,5.77,6.4,11.61,10.59c-5.56,0.4-10.24,1.05-13.79,2.04
		c-34.24,9.56-170.94,1.91-214.91,6.69c-43.97,4.78-228.47,33.46-228.47,33.46v68.35H1220V364.63L1187.5,301.53z"/>
	<path class="st1" d="M1015.43,282.41c0,0,19.6,6.45,23.18,14.34c3.58,7.89,7.17,45.89,7.17,45.89l13.62,46.12l16.49,100.85h-47.32
		l-6.45-86.04c0,0-0.72-13.62,4.3-30.11c5.02-16.49,2.15-27.96,2.15-27.96l-13.14-19.36V282.41z"/>
	<path class="st2" d="M940.86,433.93l9.33-5.14c9-4.96,15.56-13.41,18.13-23.37c3.7-14.33,8.82-34.31,10.3-40.8
		c2.39-10.52,5.26-53.06,5.26-53.06l5.49-16.4c-5.38,3.82-9.63,8.28-10.27,13.06c-0.98,7.32-5.93,33.05-10.56,56.5
		c-5.33,27.05-22.55,50.24-46.9,63.17c-27.36,14.52-64.76,34.52-96.42,51.97L940.86,433.93z"/>
	<path class="st2" d="M1045.73,243.32c-0.36-15.77,5.14-73.61,5.14-73.61l19.93-14.86l-27.58,10.08l-16.25,72.65l-11.47,44.93
		l15.87,7.3C1031.37,289.82,1046.09,259.1,1045.73,243.32z"/>
	<path class="st1" d="M1218.17,361.08l-30.68-59.55l-25.81-29.63c0,0-8.6-20.08-14.34-34.41c-4.78-42.06-5.74-54.49-5.74-54.49
		l-7.65-10.52v-16.25l-41.11-9.56v44.69l3.82,16.49l5.38,21.87l14.7,43.74l2.15,33.7l-3.58-21.15l-9.32-23.3l-13.14-3.23
		c0,0-6.21,7.89-8.36,17.92s0,93.92,0,93.92L1106,476.71l4.3,38.72h63.81H1220V368.45L1218.17,361.08z"/>
	<path class="st2" d="M1089.44,260.96l-20.62,8.68c-4.17,1.76-7.27,5.37-8.37,9.76l-8.29,33.1l2.35,16.87l9.12-18.22l4.78-34.89
		L1089.44,260.96z"/>
	<path class="st3" d="M647.43,521.11c0.33,0.07,67.07,13.7,95.38,21.57c28.38,7.89,86.45,0,110.83,0s64.53,10.04,64.53,10.04
		l35.85-37.28c0,0-97.51,1.43-134.79,0c-37.28-1.43-76.41,2.59-76.41,2.59h0C715.25,522.44,680.05,522.05,647.43,521.11z"/>
</g>
</svg>
