<?xml version="1.0" encoding="utf-8"?>
<!-- Generator: Adobe Illustrator 24.2.3, SVG Export Plug-In . SVG Version: 6.00 Build 0)  -->
<svg version="1.1" id="Capa_1" xmlns="http://www.w3.org/2000/svg" xmlns:xlink="http://www.w3.org/1999/xlink" x="0px" y="0px"
	 viewBox="0 0 1220 800" style="enable-background:new 0 0 1220 800;" xml:space="preserve">
<style type="text/css">
	.st0{fill:url(#SVGID_1_);}
	.st1{opacity:0.26;fill:#491F0D;}
	.st2{opacity:0.07;fill:#FFC350;}
</style>
<g>
	<linearGradient id="SVGID_1_" gradientUnits="userSpaceOnUse" x1="417.6233" y1="574.9892" x2="470.3902" y2="313.981">
		<stop  offset="0" style="stop-color:#F06500"/>
		<stop  offset="0.1814" style="stop-color:#DE5300"/>
		<stop  offset="0.476" style="stop-color:#C73C00"/>
		<stop  offset="0.755" style="stop-color:#BA2F00"/>
		<stop  offset="1" style="stop-color:#B52A00"/>
	</linearGradient>
	<path class="st0" d="M629.32,480.31l-0.17-12.05c1.55-1.42,4.39-4.07,5.64-5.57c1.77-2.12,3.53-8.66,3.89-11.31
		c0.35-2.65,1.59-7.42,0-7.24c-1.59,0.18-2.3,9.54-4.59,14.31c-1.35,2.81-3.47,4.75-4.99,5.88l-0.13-9.24c0,0,1.65-22.61-1.41-22.61
		c-2.5,0-2.49,14.13-2.4,24.32c-1.51-1.66-3.49-4.03-4.67-6.3c-2.12-4.06-2.47-8.83-3.89-8.83c-1.41,0-0.71,4.42,0,7.24
		c0.56,2.26,6.3,9.91,8.6,12.91c0,0.36,0,0.72,0,1.05v17.11c0,2.61-2.14,4.71-4.75,4.66l-16.21-0.32c0,0-52.94-16.73-77.47-15.79
		c-24.53,0.94-121.59-34.86-121.59-34.86l-36.75-82.92l-36.75-16.96h-48.06l-11.31,16.02v-50.88c0,0-1.88-19.79-9.42-24.5
		c-7.54-4.71-50.88-34.86-57.48-36.75c-6.6-1.88-24.5,0-24.5,0l-30.15,42.41v47.94l-28.27,11.42l-12.25,16.96l-5.65,36.75
		L84.8,428.94c0,0-27.33,23.56-34.86,27.33C42.4,460.03,0,474.7,0,474.7v63.55h692.57l180.67-50.88l-239.35-2.46
		C631.37,484.84,629.36,482.81,629.32,480.31z"/>
	<polygon class="st1" points="272.32,349.79 277.73,384.9 293.28,396.43 298.93,450.14 305.29,463.57 309.53,484.31 309.53,444.49 
		304.59,382.19 309.53,349.79 331.68,333.77 283.62,333.77 	"/>
	<path class="st1" d="M150.76,328.01l20.73,5.76l10.37,14.13l4.43,76.3l17.24,90.01l22.61,13.76c0,0-6.6-34.94-8.01-43.66
		c-1.41-8.73-4.22-42.85-4.71-57.84c-0.49-14.99-1.88-66.78-3.77-79.03c-1.88-12.25-19.32-40.99-21.2-49.94
		c-1.88-8.95-3.77-42.87-3.77-42.87l-3.77-16.96l-30.15,42.41V328.01z"/>
	<path class="st2" d="M213.78,281.94c3.18,6.36,12.37,14.49,12.37,14.49l4.24,28.97l8.48,8.36l-2.83-41.22l-2.59-37.81
		c-12.48-8.28-24.76-16.15-28.03-17.08l5.18,22.38C210.6,260.04,210.6,275.58,213.78,281.94z"/>
	<path class="st1" d="M110.25,356.38l-5.65,36.75L84.8,428.94c0,0-27.33,23.56-34.86,27.33C42.4,460.03,0,474.7,0,474.7v34.75
		l171.02-7.01l-34.86-54.65c0,0-6.6-34.86-8.48-42.87c-1.88-8.01-9.42-40.05-9.42-40.05l4.24-25.44L110.25,356.38z"/>
	<path class="st2" d="M332.59,334.19L332.59,334.19l30.3,19.48l9.54,38.87l28.62,45.94c0,0,19.43,18.02,27.21,22.61
		c7.77,4.59,57.24,14.84,57.24,14.84s25.44-4.95,35.69-4.95c10.22,0,37.88,1.49,38.01,1.5c-11.97-2.5-23.91-4.3-32.43-3.98
		c-24.53,0.94-121.59-34.86-121.59-34.86l-36.75-82.92L332.59,334.19z"/>
</g>
</svg>
