<?xml version="1.0" encoding="utf-8"?>
<!-- Generator: Adobe Illustrator 24.2.3, SVG Export Plug-In . SVG Version: 6.00 Build 0)  -->
<svg version="1.1" id="Capa_1" xmlns="http://www.w3.org/2000/svg" xmlns:xlink="http://www.w3.org/1999/xlink" x="0px" y="0px"
	 viewBox="0 0 141 162" style="enable-background:new 0 0 141 162;" xml:space="preserve">
<style type="text/css">
	.st0{fill:#FFFFFF;}
</style>
<path class="st0" d="M63.99,147.3l-52.7-79.99C9.47,64.54,10.23,60.82,13,59l0,0c2.77-1.82,6.49-1.06,8.31,1.71l42.77,64.91
	c2.36,3.58,7.6,3.6,9.99,0.04l43.6-65.02c1.85-2.75,5.57-3.49,8.32-1.64l0,0c2.75,1.85,3.49,5.57,1.64,8.32l-53.66,80.02
	C71.59,150.9,66.35,150.88,63.99,147.3z"/>
<path class="st0" d="M63.99,101.3l-52.7-79.99C9.47,18.54,10.23,14.82,13,13l0,0c2.77-1.82,6.49-1.06,8.31,1.71l42.77,64.91
	c2.36,3.58,7.6,3.6,9.99,0.04l43.6-65.02c1.85-2.75,5.57-3.49,8.32-1.64l0,0c2.75,1.85,3.49,5.57,1.64,8.32l-53.66,80.02
	C71.59,104.9,66.35,104.88,63.99,101.3z"/>
</svg>
